<svg width="100" height="35" fill="none" xmlns="http://www.w3.org/2000/svg"><g opacity=".15" clip-path="url(#clip0)" fill="#40A691"><path d="M15.332 16.801a5.749 5.749 0 00-5.213 3.29c.417.11.824.245 1.218.404a4.47 4.47 0 013.995-2.443c1.751 0 3.264.998 3.995 2.441.394-.158.8-.293 1.218-.403a5.748 5.748 0 00-5.213-3.289z"/><path d="M8.914 19.848c1.04-2.477 3.522-4.228 6.418-4.228 2.896 0 5.378 1.75 6.418 4.228.435-.06.879-.095 1.33-.1-1.13-3.13-4.175-5.38-7.748-5.38-3.573 0-6.618 2.25-7.748 5.38.451.006.895.04 1.33.1z"/><path d="M15.332 19.293a3.205 3.205 0 00-2.86 1.744c.3.166.589.346.868.54.07.045.145.088.214.137a1.926 1.926 0 011.778-1.17c.805 0 1.49.49 1.777 1.178.344-.251.705-.48 1.081-.688a3.204 3.204 0 00-2.858-1.74zm0 9.787a5.749 5.749 0 00-5.213 3.29c.417.11.824.245 1.218.404a4.47 4.47 0 013.995-2.444 4.47 4.47 0 013.995 2.441c.394-.158.8-.293 1.218-.403a5.748 5.748 0 00-5.213-3.289z"/><path d="M8.914 32.126c1.04-2.478 3.522-4.229 6.418-4.229 2.896 0 5.378 1.751 6.418 4.229.435-.06.879-.095 1.33-.1-1.13-3.13-4.175-5.38-7.748-5.38-3.573 0-6.618 2.25-7.748 5.38.451.006.895.04 1.33.1z"/><path d="M15.332 31.571a3.205 3.205 0 00-2.86 1.744c.3.166.589.346.868.54.07.046.145.089.214.137a1.926 1.926 0 011.778-1.17c.805 0 1.49.49 1.777 1.178.344-.25.705-.48 1.081-.688a3.204 3.204 0 00-2.858-1.74zm7.584-8.631a5.749 5.749 0 00-5.213 3.29c.417.11.824.245 1.218.404a4.47 4.47 0 013.995-2.443c1.752 0 3.264.998 3.995 2.441.394-.159.8-.294 1.218-.403a5.748 5.748 0 00-5.213-3.289z"/><path d="M16.498 25.987c1.04-2.478 3.522-4.229 6.418-4.229 2.896 0 5.379 1.751 6.419 4.229.435-.06.878-.095 1.329-.1-1.13-3.13-4.175-5.38-7.748-5.38-3.573 0-6.618 2.25-7.747 5.38.45.006.894.04 1.329.1z"/><path d="M22.916 25.432a3.205 3.205 0 00-2.86 1.744c.3.166.589.346.868.539.07.046.144.089.214.137a1.926 1.926 0 011.778-1.17c.805 0 1.49.49 1.777 1.179.344-.251.705-.48 1.081-.688a3.203 3.203 0 00-2.858-1.74zM7.748 22.94a5.749 5.749 0 00-5.213 3.29c.417.11.824.245 1.218.404a4.47 4.47 0 013.995-2.443c1.75 0 3.264.998 3.994 2.441a10.1 10.1 0 011.218-.403 5.748 5.748 0 00-5.212-3.289z"/><path d="M1.33 25.987c1.04-2.478 3.522-4.229 6.418-4.229 2.896 0 5.378 1.751 6.418 4.229.435-.06.878-.095 1.33-.1-1.13-3.13-4.175-5.38-7.748-5.38-3.573 0-6.618 2.25-7.748 5.38.45.006.895.04 1.33.1z"/><path d="M7.748 25.432a3.205 3.205 0 00-2.86 1.744c.299.166.588.346.867.539.071.046.145.089.214.137a1.926 1.926 0 011.779-1.17c.804 0 1.49.49 1.776 1.179.344-.251.706-.48 1.081-.688a3.203 3.203 0 00-2.857-1.74zm37.92-8.631a5.749 5.749 0 00-5.213 3.29c.417.11.824.245 1.218.404a4.47 4.47 0 013.995-2.443c1.751 0 3.264.998 3.995 2.441.394-.158.8-.293 1.218-.403a5.748 5.748 0 00-5.213-3.289z"/><path d="M39.25 19.848c1.04-2.477 3.522-4.228 6.418-4.228 2.897 0 5.379 1.75 6.419 4.228.434-.06.878-.095 1.329-.1-1.13-3.13-4.175-5.38-7.748-5.38-3.573 0-6.618 2.25-7.748 5.38.451.006.895.04 1.33.1z"/><path d="M45.668 19.293a3.205 3.205 0 00-2.86 1.744c.3.166.589.346.868.54.07.045.144.088.214.137a1.926 1.926 0 011.778-1.17c.804 0 1.49.49 1.776 1.178.344-.251.706-.48 1.082-.688a3.203 3.203 0 00-2.858-1.74zm0 9.787a5.749 5.749 0 00-5.213 3.29c.417.11.824.245 1.218.404a4.47 4.47 0 013.995-2.444 4.47 4.47 0 013.995 2.441c.394-.158.8-.293 1.218-.403a5.748 5.748 0 00-5.213-3.289z"/><path d="M39.25 32.126c1.04-2.478 3.522-4.229 6.418-4.229 2.897 0 5.379 1.751 6.419 4.229.434-.06.878-.095 1.329-.1-1.13-3.13-4.175-5.38-7.748-5.38-3.573 0-6.618 2.25-7.748 5.38.451.006.895.04 1.33.1z"/><path d="M45.668 31.571a3.205 3.205 0 00-2.86 1.744c.3.166.589.346.868.54.07.046.144.089.214.137a1.926 1.926 0 011.778-1.17c.804 0 1.49.49 1.776 1.178.344-.25.706-.48 1.082-.688a3.203 3.203 0 00-2.858-1.74zM30.473 29.08a5.748 5.748 0 00-5.213 3.29c.417.11.824.245 1.218.404a4.47 4.47 0 013.995-2.444 4.47 4.47 0 013.995 2.441c.394-.158.8-.293 1.218-.403a5.75 5.75 0 00-5.213-3.289z"/><path d="M24.055 32.126c1.04-2.478 3.522-4.229 6.418-4.229 2.896 0 5.378 1.751 6.418 4.229.435-.06.879-.095 1.33-.1-1.13-3.13-4.175-5.38-7.748-5.38-3.573 0-6.618 2.25-7.748 5.38.45.006.894.04 1.33.1z"/><path d="M30.473 31.571a3.205 3.205 0 00-2.86 1.744c.3.166.589.346.868.54.07.046.144.089.213.137a1.926 1.926 0 011.779-1.17c.804 0 1.49.49 1.776 1.178.344-.25.706-.48 1.082-.688a3.204 3.204 0 00-2.858-1.74zm0-14.77a5.748 5.748 0 00-5.213 3.29c.417.11.824.245 1.218.404a4.47 4.47 0 013.995-2.443c1.751 0 3.264.998 3.995 2.441.394-.158.8-.293 1.218-.403a5.75 5.75 0 00-5.213-3.289z"/><path d="M24.055 19.848c1.04-2.477 3.522-4.228 6.418-4.228 2.896 0 5.378 1.75 6.418 4.228.435-.06.879-.095 1.33-.1-1.13-3.13-4.175-5.38-7.748-5.38-3.573 0-6.618 2.25-7.748 5.38.45.006.894.04 1.33.1z"/><path d="M30.473 19.293a3.205 3.205 0 00-2.86 1.744c.3.166.589.346.868.54.07.045.144.088.213.137a1.927 1.927 0 011.779-1.17c.804 0 1.49.49 1.776 1.178.344-.251.706-.48 1.082-.688a3.204 3.204 0 00-2.858-1.74zm22.78 3.647a5.749 5.749 0 00-5.214 3.29c.417.11.824.245 1.218.404a4.47 4.47 0 013.996-2.443c1.75 0 3.264.998 3.994 2.441a10.1 10.1 0 011.218-.403 5.748 5.748 0 00-5.212-3.289z"/><path d="M46.834 25.987c1.04-2.478 3.523-4.229 6.419-4.229 2.896 0 5.378 1.751 6.418 4.229.435-.06.878-.095 1.329-.1-1.13-3.13-4.175-5.38-7.747-5.38-3.573 0-6.619 2.25-7.748 5.38.45.006.894.04 1.33.1z"/><path d="M53.253 25.432a3.205 3.205 0 00-2.86 1.744c.299.166.588.346.867.539.071.046.145.089.214.137a1.926 1.926 0 011.778-1.17c.805 0 1.49.49 1.777 1.179.344-.251.706-.48 1.081-.688a3.203 3.203 0 00-2.857-1.74zM38.084 22.94a5.748 5.748 0 00-5.213 3.29c.417.11.824.245 1.218.404a4.47 4.47 0 013.995-2.443c1.751 0 3.264.998 3.995 2.441.394-.159.8-.294 1.218-.403a5.749 5.749 0 00-5.213-3.289z"/><path d="M31.666 25.987c1.04-2.478 3.522-4.229 6.418-4.229 2.896 0 5.379 1.751 6.419 4.229.434-.06.878-.095 1.329-.1-1.13-3.13-4.175-5.38-7.748-5.38-3.573 0-6.618 2.25-7.748 5.38.451.006.895.04 1.33.1z"/><path d="M38.084 25.432a3.205 3.205 0 00-2.86 1.744c.3.166.589.346.868.539.07.046.144.089.214.137a1.927 1.927 0 011.778-1.17c.804 0 1.49.49 1.776 1.179.345-.251.707-.48 1.082-.688a3.204 3.204 0 00-2.858-1.74zM22.916 10.433a5.749 5.749 0 00-5.213 3.29c.417.11.824.245 1.218.404a4.47 4.47 0 013.995-2.443c1.752 0 3.264.997 3.995 2.44.394-.158.8-.293 1.218-.403a5.748 5.748 0 00-5.213-3.288z"/><path d="M16.498 13.48a6.95 6.95 0 016.418-4.23c2.896 0 5.379 1.752 6.419 4.23a10.39 10.39 0 011.329-.1C29.534 10.25 26.489 8 22.916 8c-3.573 0-6.618 2.25-7.747 5.38.45.005.894.039 1.329.1z"/><path d="M22.916 12.925a3.205 3.205 0 00-2.86 1.743c.3.166.589.346.868.54.07.046.144.088.214.137a1.926 1.926 0 011.778-1.17c.805 0 1.49.49 1.777 1.179.344-.252.705-.48 1.081-.688a3.202 3.202 0 00-2.858-1.741zm15.168-2.492a5.748 5.748 0 00-5.213 3.29c.417.11.824.245 1.218.404a4.47 4.47 0 013.995-2.443c1.751 0 3.264.997 3.995 2.44.394-.158.8-.293 1.218-.403a5.748 5.748 0 00-5.213-3.288z"/><path d="M31.666 13.48a6.95 6.95 0 016.418-4.23c2.896 0 5.379 1.752 6.419 4.23.434-.061.878-.095 1.329-.1C44.702 10.25 41.657 8 38.084 8c-3.573 0-6.618 2.25-7.748 5.38.451.005.895.039 1.33.1z"/><path d="M38.084 12.925a3.205 3.205 0 00-2.86 1.743c.3.166.589.346.868.54.07.046.144.088.214.137a1.927 1.927 0 011.778-1.17c.804 0 1.49.49 1.776 1.179.345-.252.707-.48 1.082-.688a3.204 3.204 0 00-2.858-1.741z"/></g><g opacity=".2" clip-path="url(#clip1)" fill="#40A691"><path d="M77.54 4.4a2.824 2.824 0 00-2.564 1.646c.206.055.406.122.6.202a2.195 2.195 0 011.964-1.222c.862 0 1.606.499 1.965 1.22.194-.079.394-.146.599-.201A2.824 2.824 0 0077.54 4.4z"/><path d="M74.384 5.924A3.418 3.418 0 0177.54 3.81c1.425 0 2.645.875 3.157 2.114a5.07 5.07 0 01.654-.05 4.047 4.047 0 00-3.81-2.69 4.047 4.047 0 00-3.811 2.69c.222.003.44.02.654.05z"/><path d="M77.54 5.647c-.616 0-1.148.356-1.406.871.147.083.29.173.427.27l.105.069a.945.945 0 011.748.004c.17-.125.347-.24.532-.344a1.573 1.573 0 00-1.406-.87zm0 4.893a2.824 2.824 0 00-2.564 1.645c.206.055.406.122.6.202a2.195 2.195 0 011.964-1.222c.862 0 1.606.499 1.965 1.22.194-.079.394-.146.599-.201a2.824 2.824 0 00-2.564-1.644z"/><path d="M74.384 12.063A3.418 3.418 0 0177.54 9.95c1.425 0 2.645.875 3.157 2.114.214-.03.432-.047.654-.05a4.047 4.047 0 00-3.81-2.69 4.047 4.047 0 00-3.811 2.69c.222.003.44.02.654.05z"/><path d="M77.54 11.786c-.616 0-1.148.356-1.406.872.147.082.29.172.427.27.034.022.07.044.105.068a.945.945 0 011.748.004c.17-.125.347-.24.532-.344a1.573 1.573 0 00-1.406-.87zm3.73-4.316a2.824 2.824 0 00-2.563 1.645c.205.055.405.123.599.202a2.195 2.195 0 011.964-1.221c.862 0 1.606.498 1.965 1.22.194-.08.394-.147.599-.202A2.824 2.824 0 0081.27 7.47z"/><path d="M78.114 8.994a3.418 3.418 0 013.156-2.115c1.425 0 2.645.876 3.157 2.114a5.07 5.07 0 01.654-.05 4.047 4.047 0 00-3.81-2.69 4.047 4.047 0 00-3.811 2.69c.222.003.44.02.654.05z"/><path d="M81.27 8.716c-.616 0-1.148.356-1.406.872.147.083.29.173.426.27.035.023.072.044.106.068a.945.945 0 011.748.004c.17-.125.347-.24.532-.344a1.572 1.572 0 00-1.406-.87zM73.81 7.47a2.824 2.824 0 00-2.564 1.645c.206.055.406.123.6.202a2.195 2.195 0 011.965-1.221c.86 0 1.605.498 1.964 1.22a4.98 4.98 0 01.599-.202A2.824 2.824 0 0073.81 7.47z"/><path d="M70.654 8.994a3.418 3.418 0 013.157-2.115c1.424 0 2.644.876 3.156 2.114.214-.03.432-.047.654-.05a4.047 4.047 0 00-3.81-2.69A4.047 4.047 0 0070 8.944c.222.003.44.02.654.05z"/><path d="M73.81 8.716c-.615 0-1.148.356-1.406.872.147.083.29.173.427.27.034.023.07.044.105.068a.945.945 0 011.748.004c.17-.125.347-.24.532-.344a1.572 1.572 0 00-1.405-.87zM92.46 4.4a2.824 2.824 0 00-2.564 1.646c.205.055.405.122.599.202a2.195 2.195 0 011.965-1.222c.861 0 1.605.499 1.964 1.22.194-.079.394-.146.6-.201A2.824 2.824 0 0092.46 4.4z"/><path d="M89.303 5.924A3.418 3.418 0 0192.46 3.81c1.424 0 2.645.875 3.156 2.114a5.07 5.07 0 01.654-.05 4.047 4.047 0 00-3.81-2.69 4.047 4.047 0 00-3.81 2.69c.221.003.44.02.653.05z"/><path d="M92.46 5.647c-.616 0-1.149.356-1.407.871.147.083.29.173.427.27.035.023.071.045.105.069a.945.945 0 011.748.004c.17-.125.347-.24.532-.344a1.572 1.572 0 00-1.405-.87zm0 4.893a2.824 2.824 0 00-2.564 1.645c.205.055.405.122.599.202a2.195 2.195 0 011.965-1.222c.861 0 1.605.499 1.964 1.22.194-.079.394-.146.6-.201a2.824 2.824 0 00-2.564-1.644z"/><path d="M89.303 12.063A3.418 3.418 0 0192.46 9.95c1.424 0 2.645.875 3.156 2.114.214-.03.432-.047.654-.05a4.047 4.047 0 00-3.81-2.69 4.047 4.047 0 00-3.81 2.69c.221.003.44.02.653.05z"/><path d="M92.46 11.786c-.616 0-1.149.356-1.407.872.147.082.29.172.427.27.035.022.071.044.105.068a.945.945 0 011.748.004c.17-.125.347-.24.532-.344a1.572 1.572 0 00-1.405-.87zm-7.473-1.246a2.824 2.824 0 00-2.564 1.645c.205.055.405.122.6.202a2.195 2.195 0 011.964-1.222c.861 0 1.605.499 1.965 1.22.193-.079.393-.146.598-.201a2.825 2.825 0 00-2.563-1.644z"/><path d="M81.83 12.063a3.418 3.418 0 013.157-2.114c1.424 0 2.645.875 3.156 2.114.214-.03.432-.047.654-.05a4.047 4.047 0 00-3.81-2.69 4.047 4.047 0 00-3.81 2.69c.22.003.44.02.653.05z"/><path d="M84.987 11.786c-.616 0-1.149.356-1.407.872.147.082.29.172.427.27.035.022.07.044.105.068A.945.945 0 0185.86 13c.17-.125.347-.24.532-.344a1.573 1.573 0 00-1.405-.87zm0-7.386a2.824 2.824 0 00-2.564 1.646c.205.055.405.122.6.202a2.195 2.195 0 011.964-1.222c.861 0 1.605.499 1.965 1.22.193-.079.393-.146.598-.201A2.825 2.825 0 0084.987 4.4z"/><path d="M81.83 5.924a3.418 3.418 0 013.157-2.114c1.424 0 2.645.875 3.156 2.114a5.07 5.07 0 01.654-.05 4.047 4.047 0 00-3.81-2.69 4.047 4.047 0 00-3.81 2.69c.22.003.44.02.653.05z"/><path d="M84.987 5.647c-.616 0-1.149.356-1.407.871.147.083.29.173.427.27l.105.069a.945.945 0 011.748.004c.17-.125.347-.24.532-.344a1.573 1.573 0 00-1.405-.87zM96.19 7.47a2.824 2.824 0 00-2.564 1.645c.205.055.405.123.599.202a2.195 2.195 0 011.965-1.221c.861 0 1.605.498 1.964 1.22a4.98 4.98 0 01.6-.202A2.824 2.824 0 0096.19 7.47z"/><path d="M93.033 8.994a3.418 3.418 0 013.157-2.115c1.424 0 2.645.876 3.156 2.114.214-.03.432-.047.654-.05a4.047 4.047 0 00-3.81-2.69 4.047 4.047 0 00-3.81 2.69c.221.003.44.02.653.05z"/><path d="M96.19 8.716c-.616 0-1.149.356-1.407.872.147.083.29.173.427.27.035.023.07.044.105.068a.945.945 0 011.748.004c.17-.125.348-.24.532-.344a1.573 1.573 0 00-1.405-.87zM88.73 7.47a2.824 2.824 0 00-2.564 1.645c.205.055.405.123.6.202a2.195 2.195 0 011.964-1.221c.861 0 1.605.498 1.965 1.22a4.98 4.98 0 01.599-.202A2.824 2.824 0 0088.73 7.47z"/><path d="M85.573 8.994a3.418 3.418 0 013.157-2.115 3.42 3.42 0 013.157 2.114c.213-.03.431-.047.653-.05a4.047 4.047 0 00-3.81-2.69 4.047 4.047 0 00-3.81 2.69c.221.003.44.02.653.05z"/><path d="M88.73 8.716c-.616 0-1.149.356-1.407.872.147.083.29.173.427.27.035.023.071.044.105.068a.945.945 0 011.748.004c.17-.125.348-.24.532-.344a1.573 1.573 0 00-1.405-.87zm-7.46-7.5a2.824 2.824 0 00-2.563 1.645c.205.055.405.123.599.202a2.195 2.195 0 011.964-1.221c.862 0 1.606.499 1.965 1.22.194-.079.394-.146.599-.201a2.824 2.824 0 00-2.564-1.645z"/><path d="M78.114 2.74A3.418 3.418 0 0181.27.625c1.425 0 2.645.876 3.157 2.115a5.07 5.07 0 01.654-.05A4.047 4.047 0 0081.27 0a4.047 4.047 0 00-3.811 2.69c.222.003.44.02.654.05z"/><path d="M81.27 2.462c-.616 0-1.148.356-1.406.872.147.083.29.173.426.27.035.023.072.044.106.069a.945.945 0 011.748.004c.17-.126.347-.24.532-.344a1.572 1.572 0 00-1.406-.87zm7.46-1.246a2.824 2.824 0 00-2.564 1.645c.205.055.405.123.6.202a2.195 2.195 0 011.964-1.221c.861 0 1.605.499 1.965 1.22a4.98 4.98 0 01.599-.201 2.824 2.824 0 00-2.564-1.645z"/><path d="M85.573 2.74A3.417 3.417 0 0188.73.625a3.42 3.42 0 013.157 2.115c.213-.03.431-.048.653-.05A4.047 4.047 0 0088.73 0a4.047 4.047 0 00-3.81 2.69c.221.003.44.02.653.05z"/><path d="M88.73 2.462c-.616 0-1.149.356-1.407.872.147.083.29.173.427.27.035.023.071.044.105.069a.945.945 0 011.748.004c.17-.126.348-.24.532-.344a1.573 1.573 0 00-1.405-.87z"/></g><path d="M41.084 5.504c.137-.207.265-.433.282-.681.033-.514-.531-.97-1.027-.83-.105.03-.233.075-.31-.003-.035-.036-.046-.09-.056-.14-.08-.386-.299-.802-.685-.876-.381-.073-.735.224-.955.543-.598.868-.67 1.992-.597 3.043.017.23.043.471.174.66.902 1.307 2.735-1.05 3.174-1.716z" fill="#FFC369"/><path d="M41.131 9.539c.245.047.502.079.738-.002.487-.166.692-.863.372-1.266-.068-.085-.16-.186-.117-.287.02-.047.066-.078.108-.106.325-.222.625-.584.545-.969-.079-.38-.489-.592-.868-.673-1.032-.218-2.097.146-3.039.619-.206.103-.419.22-.543.414-.86 1.335 2.02 2.12 2.804 2.27z" fill="#FFC369"/><path d="M37.295 10.943c.01.248.039.506.171.717.274.436.999.475 1.318.07.068-.085.145-.197.252-.179.051.009.091.046.13.081.29.266.71.475 1.067.308.352-.164.465-.611.456-1-.025-1.053-.624-2.006-1.3-2.815-.149-.177-.31-.357-.528-.433-1.497-.53-1.6 2.453-1.566 3.25z" fill="#FFC369"/><path d="M34.732 7.685c-.233.086-.47.192-.63.382-.332.394-.147 1.096.335 1.277.102.038.232.077.248.185.007.051-.016.1-.037.147-.165.358-.235.823.032 1.111.264.285.725.255 1.092.128.996-.345 1.72-1.207 2.283-2.098.123-.195.245-.404.252-.635.046-1.587-2.826-.773-3.575-.497z" fill="#FFC369"/><path d="M37.183 4.186c-.167-.184-.353-.365-.59-.443-.489-.16-1.072.272-1.06.787.003.11.016.245-.079.3-.044.025-.099.022-.15.02-.393-.02-.85.088-1.019.444-.165.351.034.768.288 1.06.692.796 1.762 1.146 2.798 1.337.227.041.467.076.684-.004 1.49-.548-.336-2.91-.872-3.501z" fill="#FFC369"/><path d="M38.259 7.802a.535.535 0 11.238-1.043.535.535 0 01-.238 1.043z" fill="#FFE3D4"/><path d="M83.305 29.3c.09-.137.174-.285.185-.447.022-.338-.348-.637-.673-.545-.07.02-.153.05-.204-.002-.023-.024-.03-.06-.037-.092-.052-.253-.196-.526-.45-.575-.25-.047-.482.147-.626.357-.392.57-.44 1.307-.392 1.997.011.15.028.309.114.433.593.858 1.795-.69 2.083-1.126z" fill="#FFC369"/><path d="M83.337 31.948c.16.03.329.051.483-.001.32-.11.455-.567.244-.831-.044-.056-.104-.123-.076-.189.013-.03.043-.05.07-.07.214-.145.411-.383.358-.635-.051-.25-.32-.39-.57-.442-.676-.143-1.375.096-1.994.406-.135.068-.274.144-.356.272-.564.876 1.326 1.392 1.84 1.49z" fill="#FFC369"/><path d="M80.819 32.869c.007.163.025.332.112.47.18.287.656.312.865.047.044-.056.095-.13.166-.118.033.006.06.03.084.053.19.175.467.312.7.203.232-.108.306-.402.3-.657-.016-.691-.41-1.316-.853-1.847-.097-.116-.204-.234-.347-.285-.982-.347-1.05 1.61-1.027 2.134z" fill="#FFC369"/><path d="M79.137 30.731c-.153.057-.309.126-.414.25-.217.26-.096.72.22.838.067.026.153.051.163.122.005.034-.01.066-.025.097-.107.234-.154.54.022.729.173.187.475.167.716.084.654-.226 1.129-.792 1.498-1.377.081-.128.161-.265.166-.417.03-1.041-1.855-.508-2.346-.326z" fill="#FFC369"/><path d="M80.745 28.434c-.11-.12-.232-.24-.387-.29-.32-.106-.703.179-.695.517.002.071.01.16-.052.196-.03.017-.065.015-.1.013-.257-.013-.557.058-.667.292-.11.23.021.504.189.696.453.522 1.156.752 1.836.877.149.027.306.05.448-.002.978-.36-.22-1.91-.572-2.299z" fill="#FFC369"/><path d="M81.451 30.808a.351.351 0 11.157-.685.351.351 0 01-.157.684z" fill="#FFE3D4"/><defs><clipPath id="clip0"><path fill="#fff" transform="translate(0 8)" d="M0 0h61v26H0z"/></clipPath><clipPath id="clip1"><path fill="#fff" transform="translate(70)" d="M0 0h30v13H0z"/></clipPath></defs></svg>