<svg width="90" height="21" fill="none" xmlns="http://www.w3.org/2000/svg"><path d="M84.403 8.92a95.874 95.874 0 01-3.795 1.557 69.69 69.69 0 01-3.863 1.341c-1.295.42-2.603.794-3.918 1.133-1.316.34-2.632.666-3.934.853-1.302.184-2.597.244-3.828.038-1.235-.201-2.431-.654-3.592-1.238-2.335-1.158-4.495-2.855-7.009-4.224a25.817 25.817 0 00-3.928-1.769c-1.371-.48-2.818-.824-4.3-.953-1.476-.136-2.924-.074-4.324.03-1.405.105-2.748.267-4.09.363-5.38.403-30.793.325-36.166-.223h-.003A1.25 1.25 0 001.36 8.31c5.517.743 31.122.883 36.675.416 2.8-.217 5.47-.694 7.99-.506 2.507.18 4.992 1.041 7.336 2.245 2.344 1.181 4.604 2.798 7.233 3.996 1.313.59 2.737 1.049 4.224 1.216 1.49.17 2.965.022 4.358-.27 1.399-.293 2.727-.71 4.04-1.142a68.069 68.069 0 003.895-1.439c2.553-1.06 5.05-2.246 7.433-3.626a.157.157 0 00-.14-.28z" fill="#301011"/><path d="M77.082 5.409a82.817 82.817 0 01-5.427 8.039.468.468 0 10.761.543 83.455 83.455 0 004.94-8.432.156.156 0 00-.274-.15zm1.402 14.669a10.502 10.502 0 01-4.76-.433c-.76-.252-1.49-.588-2.17-1.002-.684-.41-1.282-.92-1.913-1.461a12.19 12.19 0 00-1-.776 5.13 5.13 0 00-.56-.336l-.288-.153-.296-.13c-.793-.344-1.613-.554-2.408-.755-.796-.201-1.578-.393-2.293-.679-.71-.29-1.338-.688-1.794-1.23l-.004-.004a.55.55 0 00-.841.707l.013.016c.63.694 1.454 1.153 2.27 1.447.822.29 1.645.452 2.445.622.8.167 1.581.338 2.306.62l.271.106.26.124c.175.08.34.175.506.277.33.205.649.443.97.692.633.5 1.309 1.033 2.05 1.437.738.41 1.52.732 2.326.964 1.611.468 3.324.55 4.961.255a.156.156 0 00-.048-.309l-.003.001zm-39.566-8.682a25.667 25.667 0 00-8.766-4.165.595.595 0 10-.246 1.163c3.09.506 6.11 1.613 8.838 3.262a.157.157 0 00.174-.26z" fill="#301011"/><path d="M60.285 14.512c1.512.52 2.636 2.012 2.722 3.608-.138.176-.414.089-.615-.008-1.38-.661-2.133-2.07-2.107-3.6zm-1.006-2.852c1.955-1.752 4.994-2.172 7.352-1.019.14.338-.205.664-.504.875-2.051 1.45-4.675 1.404-6.848.144zM38.816 8.771c2.619.183 5.037 2.07 5.851 4.566-.144.336-.618.316-.978.248-2.469-.463-4.263-2.377-4.873-4.814zm-18.764-2.05c1.17-2.82 4.144-4.79 7.197-4.766.317.283.12.799-.087 1.17-1.423 2.552-4.197 3.824-7.11 3.596zm55.998 6.825c1.662-.736 3.753-.364 5.06.899.02.252-.276.393-.518.468-1.66.517-3.379-.073-4.541-1.367z" fill="#B0AF75"/><path d="M79.848 3.442c.153-.231.296-.482.314-.758.037-.572-.59-1.08-1.142-.923-.117.033-.26.083-.345-.003-.04-.041-.052-.1-.063-.157-.088-.428-.332-.891-.762-.974-.424-.081-.817.249-1.062.604-.666.966-.746 2.216-.664 3.386.018.256.047.524.193.735 1.004 1.453 3.043-1.169 3.531-1.91z" fill="#FFC369"/><path d="M79.901 7.931c.272.052.559.088.82-.002.543-.185.77-.96.414-1.409-.075-.094-.177-.207-.13-.319.023-.052.074-.086.12-.119.363-.246.696-.649.607-1.077-.088-.423-.543-.66-.966-.749-1.147-.243-2.332.163-3.38.688-.23.115-.467.245-.605.461-.956 1.486 2.248 2.36 3.12 2.526z" fill="#FFC369"/><path d="M75.633 9.493c.012.276.043.563.19.798.305.485 1.112.528 1.467.079.075-.095.16-.22.28-.2.057.01.101.052.144.09.322.296.791.528 1.187.343.392-.183.517-.68.508-1.112-.027-1.173-.695-2.233-1.447-3.133-.165-.197-.345-.397-.587-.482-1.665-.59-1.78 2.73-1.742 3.617z" fill="#FFC369"/><path d="M72.782 5.869c-.26.096-.524.213-.702.425-.369.438-.164 1.22.373 1.42.114.042.258.086.276.206.008.057-.018.112-.042.164-.182.398-.26.915.037 1.236.293.317.806.284 1.214.143 1.108-.384 1.914-1.344 2.54-2.335.137-.217.273-.45.28-.706.052-1.766-3.143-.861-3.976-.553z" fill="#FFC369"/><path d="M75.508 1.975c-.186-.205-.393-.406-.656-.493-.544-.178-1.193.304-1.179.876.003.121.017.272-.088.333-.05.029-.11.025-.168.022-.437-.02-.946.1-1.133.495-.184.39.037.854.32 1.18.77.885 1.96 1.274 3.114 1.487.252.046.519.085.76-.004 1.658-.61-.374-3.238-.97-3.896z" fill="#FFC369"/><path d="M76.705 5.998a.595.595 0 11.265-1.16.595.595 0 01-.265 1.16z" fill="#FFE3D4"/><path d="M71.19 19.09c.18.072.374.134.567.108.399-.056.659-.561.472-.919-.04-.075-.095-.166-.047-.237.022-.034.062-.05.099-.066.282-.122.566-.356.561-.664-.004-.303-.288-.527-.568-.645-.76-.32-1.632-.197-2.425.027-.174.05-.355.108-.48.238-.856.9 1.24 1.928 1.821 2.158z" fill="#FFC369"/><path d="M68.107 19.77c.003.194.02.396.119.564.205.346.771.392 1.029.083.055-.066.118-.152.201-.135.04.007.07.038.099.066.221.213.546.386.828.263.279-.121.377-.469.378-.772.003-.825-.446-1.583-.957-2.23-.112-.14-.236-.285-.404-.35-1.16-.445-1.303 1.886-1.293 2.51z" fill="#FFC369"/><path d="M66.421 17.054c-.188.048-.381.11-.522.245-.29.28-.205.84.156 1.02.076.039.174.08.177.166.002.04-.02.076-.04.111-.158.265-.251.62-.067.867.182.243.543.258.838.19.803-.187 1.438-.798 1.95-1.444.112-.142.224-.295.248-.473.167-1.23-2.134-.835-2.74-.682z" fill="#FFC369"/><path d="M68.508 14.572c-.103-.164-.221-.33-.393-.422-.354-.191-.863.062-.924.46-.013.084-.022.19-.103.22-.037.013-.08.003-.118-.006-.3-.069-.668-.048-.846.202-.176.248-.08.596.075.857.423.707 1.199 1.125 1.97 1.414.17.064.35.123.527.092 1.224-.217.143-2.287-.188-2.817z" fill="#FFC369"/><path d="M71.58 15.892c.114-.157.222-.328.244-.522.046-.4-.379-.777-.771-.686-.083.02-.185.05-.242-.013-.027-.03-.033-.073-.04-.112-.047-.304-.203-.637-.502-.71-.295-.07-.583.148-.766.39-.5.656-.598 1.531-.578 2.356.004.18.015.37.111.522.657 1.055 2.175-.72 2.543-1.225z" fill="#FFC369"/><path d="M69.306 17.708a.418.418 0 11.186-.816.418.418 0 01-.186.816z" fill="#FFE3D4"/><path d="M52.41 9.258c.275.11.569.205.861.164.607-.085 1.002-.853.718-1.396-.06-.115-.144-.253-.072-.361.034-.051.094-.076.15-.1.43-.187.861-.542.854-1.01-.007-.46-.438-.801-.863-.98-1.155-.487-2.481-.3-3.688.041-.263.075-.538.163-.727.362-1.303 1.367 1.885 2.93 2.767 3.28z" fill="#FFC369"/><path d="M47.723 10.29c.005.296.03.604.18.858.312.528 1.173.597 1.565.127.083-.1.179-.23.306-.206.06.012.106.058.15.1.337.325.83.587 1.26.4.423-.183.572-.712.574-1.173.004-1.254-.678-2.406-1.456-3.389-.17-.214-.358-.434-.614-.532-1.762-.677-1.98 2.866-1.965 3.815z" fill="#FFC369"/><path d="M45.16 6.163c-.286.073-.58.168-.793.372-.442.425-.312 1.279.236 1.552.116.058.265.121.27.25.002.062-.032.118-.063.17-.239.403-.38.944-.1 1.318.276.37.824.393 1.274.289 1.221-.283 2.186-1.212 2.963-2.195.17-.215.34-.448.378-.72.255-1.87-3.244-1.27-4.164-1.036z" fill="#FFC369"/><path d="M48.333 2.39c-.157-.25-.337-.501-.597-.641-.54-.291-1.312.093-1.405.699-.02.128-.034.289-.156.333-.058.021-.121.006-.18-.008-.457-.104-1.015-.073-1.286.308-.268.376-.122.905.114 1.301.643 1.076 1.822 1.711 2.996 2.151.257.097.53.187.8.14 1.86-.33.218-3.478-.286-4.283z" fill="#FFC369"/><path d="M53.002 4.397c.174-.239.34-.5.372-.793.07-.609-.576-1.183-1.172-1.044-.127.03-.282.076-.368-.02-.04-.045-.05-.11-.06-.17-.073-.462-.31-.969-.764-1.078-.449-.109-.886.224-1.165.591-.759.998-.908 2.329-.879 3.582.007.274.024.562.17.794.998 1.603 3.306-1.095 3.866-1.862z" fill="#FFC369"/><path d="M49.546 7.158a.636.636 0 11.283-1.241.636.636 0 01-.283 1.24z" fill="#FFE3D4"/><path d="M88.575 5.85c.111-.169.216-.352.229-.554.027-.418-.432-.79-.835-.675-.085.024-.19.061-.252-.002-.03-.03-.038-.074-.046-.115-.065-.313-.243-.651-.557-.712-.31-.059-.598.182-.777.442-.486.706-.545 1.62-.485 2.475.013.187.034.383.141.537.734 1.063 2.225-.854 2.582-1.396z" fill="#FFC369"/><path d="M88.614 9.132c.198.038.408.064.6-.002.395-.135.562-.702.302-1.03-.056-.069-.13-.151-.095-.233.016-.039.053-.063.088-.087.264-.18.508-.474.443-.787-.064-.31-.397-.482-.706-.548-.839-.178-1.705.12-2.472.503-.167.084-.34.18-.442.337-.698 1.086 1.644 1.725 2.282 1.847z" fill="#FFC369"/><path d="M85.493 10.273c.01.202.032.412.14.584.222.354.812.386 1.072.057.054-.069.117-.16.205-.145.04.007.074.037.104.065.236.216.579.386.869.25.286-.133.378-.497.37-.812-.02-.857-.507-1.632-1.057-2.29-.12-.144-.252-.29-.43-.353-1.217-.43-1.3 1.996-1.273 2.644z" fill="#FFC369"/><path d="M83.409 7.624c-.19.07-.383.156-.513.31-.27.321-.12.893.273 1.04.083.03.189.062.201.15.006.041-.013.082-.03.12-.133.29-.19.668.027.903.214.232.589.208.887.104.81-.28 1.4-.982 1.857-1.706.1-.159.2-.329.205-.517.038-1.29-2.298-.629-2.907-.404z" fill="#FFC369"/><path d="M85.402 4.778c-.136-.15-.287-.297-.48-.36-.397-.131-.871.221-.861.64.002.089.012.199-.065.243-.036.021-.08.019-.122.016-.32-.015-.692.073-.829.362-.134.286.027.624.234.863.563.647 1.433.931 2.276 1.086.185.034.38.063.556-.002 1.212-.446-.273-2.367-.709-2.848z" fill="#FFC369"/><path d="M86.277 7.719a.435.435 0 11.194-.849.435.435 0 01-.194.849z" fill="#FFE3D4"/></svg>