<svg width="12" height="12" fill="none" xmlns="http://www.w3.org/2000/svg"><path d="M9.095 11.675H2.906a.5.5 0 01-.495-.455l-.707-8.442a.162.162 0 01.163-.175h8.269a.162.162 0 01.162.175L9.59 11.22a.5.5 0 01-.496.455zM2.042 2.927l.693 8.266a.173.173 0 00.171.158h6.189a.173.173 0 00.171-.158l.693-8.266H2.042z" fill="red"/><path d="M10.73 2.928H1.27a.352.352 0 01-.352-.35V1.76a.352.352 0 01.351-.352h9.462a.352.352 0 01.351.352v.817a.352.352 0 01-.351.351zM1.27 1.733a.027.027 0 00-.028.027v.817a.027.027 0 00.027.027h9.462a.027.027 0 00.027-.027V1.76a.027.027 0 00-.027-.027H1.269z" fill="red"/><path d="M7.43 1.733H4.57a.162.162 0 01-.162-.163V.75a.425.425 0 01.425-.425h2.333A.425.425 0 017.59.75v.821a.162.162 0 01-.162.163zm-2.696-.325h2.533v-.66a.1.1 0 00-.1-.1H4.834a.1.1 0 00-.1.1v.66zm2.963 7.677h-.014a.162.162 0 01-.148-.175l.371-4.238a.162.162 0 11.323.029l-.37 4.237a.162.162 0 01-.162.147zM6 9.086a.162.162 0 01-.162-.162V4.687a.162.162 0 01.324 0v4.237A.162.162 0 016 9.086zm-1.696 0a.162.162 0 01-.162-.148l-.37-4.237a.162.162 0 11.322-.029l.372 4.238a.162.162 0 01-.162.176z" fill="red"/></svg>