<svg width="12" height="12" fill="none" xmlns="http://www.w3.org/2000/svg"><g clip-path="url(#clip0)" fill="#000"><path d="M10.756 1.563h-.753V.966A.313.313 0 009.69.653a.313.313 0 00-.313.313v.597H6.314V.966a.313.313 0 00-.312-.313.313.313 0 00-.313.313v.597H2.594V.966a.313.313 0 00-.312-.313.313.313 0 00-.313.313v.597h-.722C.56 1.563 0 2.141 0 2.829v7.268c0 .69.556 1.25 1.247 1.25h9.506c.69 0 1.247-.56 1.247-1.247V2.829a1.26 1.26 0 00-1.244-1.266zm.622 8.534a.624.624 0 01-.619.625H1.247a.622.622 0 01-.622-.622V2.829c0-.347.278-.64.622-.64h.722v.452a.313.313 0 00.625 0v-.453H5.69v.453a.313.313 0 00.625 0v-.453h3.063v.453a.313.313 0 00.625 0v-.453h.754c.347 0 .622.297.622.64v7.269z"/><path d="M5.18 4.22h-.548a.313.313 0 00-.312.312c0 .172.14.313.312.313h.547a.313.313 0 000-.625zm2.175 0h-.547a.313.313 0 00-.312.312c0 .172.14.313.312.313h.547c.172 0 .313-.14.313-.313a.312.312 0 00-.313-.312zm2.195 0h-.548a.313.313 0 00-.312.312c0 .172.14.313.312.313h.547a.314.314 0 000-.625zM5.18 6.377h-.548a.313.313 0 00-.312.312c0 .172.14.313.312.313h.547a.313.313 0 000-.625zm-2.192 0h-.55a.313.313 0 00-.312.312c0 .172.14.313.312.313h.547c.172 0 .313-.14.313-.313a.31.31 0 00-.31-.312zm4.367 0h-.547a.313.313 0 00-.312.312c0 .172.14.313.312.313h.547c.172 0 .313-.14.313-.313a.312.312 0 00-.313-.312zm2.195 0h-.548a.313.313 0 00-.312.312c0 .172.14.313.312.313h.547a.314.314 0 000-.625zM5.18 8.502h-.548a.313.313 0 00-.312.313c0 .172.14.312.312.312h.547c.172 0 .313-.14.313-.312a.313.313 0 00-.313-.313zm-2.192 0h-.55a.313.313 0 00-.312.313c0 .172.14.312.312.312h.547c.172 0 .313-.14.313-.312a.31.31 0 00-.31-.313zm4.367 0h-.547a.313.313 0 00-.312.313c0 .172.14.312.312.312h.547c.172 0 .313-.14.313-.312a.312.312 0 00-.313-.313z"/></g><defs><clipPath id="clip0"><path fill="#fff" d="M0 0h12v12H0z"/></clipPath></defs></svg>