<svg width="12" height="12" fill="none" xmlns="http://www.w3.org/2000/svg"><path d="M7.414 4.586a.25.25 0 00-.354.353c.283.283.44.66.44 1.06A1.502 1.502 0 014.94 7.06a.25.25 0 00-.354.354 2.002 2.002 0 002.828-2.828z" fill="#F3713F"/><path d="M6.518 4.068a.25.25 0 00-.13.483 1.502 1.502 0 01-.776 2.897.25.25 0 00-.13.483 2.002 2.002 0 001.035-3.863z" fill="#F3713F"/><path d="M6.348 4.034A2.004 2.004 0 006 4c-1.103 0-2 .897-2 2 0 .118.015.235.035.348a.25.25 0 00.492-.087A1.45 1.45 0 014.5 6c0-.827.673-1.5 1.5-1.5.09 0 .177.011.261.026a.25.25 0 10.087-.492z" fill="#F3713F"/><path d="M5.319 4.123c-.109.04-.216.085-.32.145A2.002 2.002 0 004.269 7c.06.103.13.196.204.284a.25.25 0 00.383-.321A1.45 1.45 0 014.7 6.75a1.502 1.502 0 01.55-2.05c.078-.044.158-.078.24-.107a.25.25 0 10-.171-.47z" fill="#F3713F"/><path d="M11.813 5.838c-.056-.067-1.409-1.645-3.274-2.612a.25.25 0 00-.23.445c1.437.744 2.585 1.905 2.978 2.329-.596.645-2.942 3-5.414 3-.84 0-1.685-.203-2.514-.603a.25.25 0 10-.217.45c.897.434 1.816.653 2.73.653 3.081 0 5.826-3.202 5.942-3.339a.25.25 0 000-.323zM7.64 2.788A5.162 5.162 0 006 2.5C2.92 2.5.175 5.702.059 5.838a.25.25 0 00-.014.305c.035.049.861 1.223 2.294 2.174a.248.248 0 00.346-.07.25.25 0 00-.07-.346A9.143 9.143 0 01.573 6.013C1.149 5.388 3.51 3 6 3c.466 0 .964.088 1.481.261a.247.247 0 00.317-.157.25.25 0 00-.157-.316z" fill="#F3713F"/></svg>