<svg width="20" height="20" fill="none" xmlns="http://www.w3.org/2000/svg"><g clip-path="url(#clip0)" fill="#40A691"><path d="M15.834 16.25v-4.167c0-1.378 1.121-2.5 2.5-2.5a.834.834 0 11-.01 1.667.826.826 0 00-.824.833v2.5c0 .921-.745 1.667-1.666 1.667zm-11.667 0v-4.167c0-1.378-1.122-2.5-2.5-2.5a.834.834 0 10.01 1.667.826.826 0 01.823.833v2.5c0 .921.746 1.667 1.667 1.667zM13.542 20H6.458a.834.834 0 010-1.667h7.084a.834.834 0 010 1.667z"/><path d="M10 20a.834.834 0 01-.834-.833v-3.542a.834.834 0 011.667 0v3.542c0 .46-.373.833-.833.833zm4.217-9.167H5.784c-.432 0-.839-.19-1.116-.52a1.452 1.452 0 01-.321-1.188l1.377-7.917C5.844.508 6.448 0 7.159 0h5.681c.712 0 1.316.508 1.437 1.21l1.376 7.916a1.454 1.454 0 01-1.436 1.707z"/><path d="M16.042 16.25H3.959a.625.625 0 01-.625-.625V13.96a2.294 2.294 0 012.291-2.292h8.75a2.294 2.294 0 012.292 2.292v1.666c0 .345-.28.625-.625.625z"/></g><defs><clipPath id="clip0"><path fill="#40A691" d="M0 0h20v20H0z"/></clipPath></defs></svg>