<svg width="20" height="20" fill="none" xmlns="http://www.w3.org/2000/svg"><path fill-rule="evenodd" clip-rule="evenodd" d="M2.583 7.048C3.55 3 6.126 3 10 3c3.874 0 6.789 0 7.434 4.048h1.929c.357 0 .658.302.636.674-.039.645-.212 1.35-.959 1.35l-.314.674c.43.675 1.218 3.036-.332 4.385v1.036a2 2 0 01-2 2h-.582c-.323-.225-.97-.945-.97-2.024H5.158c0 1.08-.646 1.799-.968 2.024h-.583a2 2 0 01-2-2V14.13C.056 12.78.86 10.42 1.29 9.746l-.33-.675c-.746 0-.92-.704-.959-1.35a.639.639 0 01.636-.673h1.946zm.968.674c0-4.047 2.26-4.047 6.458-4.047 4.197 0 6.457 0 6.457 4.047H3.55zm13.884 3.71c0 .932-.723 1.687-1.614 1.687-.892 0-1.614-.755-1.614-1.687 0-.93.722-1.686 1.614-1.686.891 0 1.614.755 1.614 1.686zM4.197 13.12c.892 0 1.615-.755 1.615-1.687 0-.93-.723-1.686-1.615-1.686-.891 0-1.614.755-1.614 1.686 0 .932.723 1.687 1.614 1.687z" fill="#fff"/></svg>