<svg width="13" height="7" fill="none" xmlns="http://www.w3.org/2000/svg"><path d="M5.69 5h-.787l-.313-.813H3.16L2.864 5h-.766l1.394-3.58h.764L5.689 5zM4.357 3.584l-.493-1.328-.483 1.328h.976zm1.714-2.163h1.321c.298 0 .525.023.681.068.21.062.39.172.54.33.15.158.264.351.342.58.078.229.117.51.117.846 0 .294-.037.548-.11.761-.09.26-.217.472-.383.633a1.27 1.27 0 01-.508.285c-.16.05-.373.076-.64.076h-1.36V1.42zm.723.605v2.371h.54c.201 0 .347-.011.437-.034a.658.658 0 00.29-.15.741.741 0 00.19-.343c.05-.162.074-.38.074-.657s-.025-.49-.073-.637a.819.819 0 00-.206-.347.688.688 0 00-.334-.168c-.1-.023-.299-.035-.593-.035h-.325zm2.71 1.81l.703-.069c.042.236.128.41.256.52.13.11.306.166.525.166.233 0 .408-.049.525-.146a.442.442 0 00.179-.347.318.318 0 00-.076-.215.578.578 0 00-.259-.156 8.885 8.885 0 00-.579-.156c-.387-.096-.659-.214-.815-.354a.931.931 0 01-.33-.72.92.92 0 01.154-.51.976.976 0 01.447-.365 1.8 1.8 0 01.706-.124c.449 0 .786.098 1.013.295.228.197.347.46.359.789l-.723.032c-.031-.184-.098-.316-.2-.396-.101-.081-.253-.122-.457-.122-.21 0-.374.043-.493.13a.26.26 0 00-.115.222c0 .084.036.157.108.217.09.076.312.156.664.24.351.082.61.168.779.258.169.088.3.209.395.364.096.153.144.342.144.569a1.053 1.053 0 01-.654.976c-.208.086-.468.13-.779.13-.452 0-.8-.105-1.042-.313-.243-.21-.388-.515-.435-.916z" fill="#0296E5"/></svg>