<svg width="14" height="15" fill="none" xmlns="http://www.w3.org/2000/svg"><g clip-path="url(#clip0)" fill="#212121"><path d="M12.549 2.323h-.88v-.696c0-.2-.163-.365-.364-.365-.2 0-.365.164-.365.365v.696H7.367v-.696a.366.366 0 00-.73 0v.696h-3.61v-.696a.366.366 0 00-.73 0v.696h-.842C.653 2.323 0 2.998 0 3.8v8.48c0 .805.65 1.458 1.455 1.458h11.09c.806 0 1.455-.653 1.455-1.455V3.8c.004-.802-.65-1.477-1.451-1.477zm.725 9.956c0 .401-.32.726-.722.73H1.455a.725.725 0 01-.726-.726V3.8c0-.404.325-.747.726-.747h.842v.529a.366.366 0 00.73 0v-.53h3.61v.53a.366.366 0 00.73 0v-.53h3.573v.53a.366.366 0 00.73 0v-.53h.879c.404 0 .725.347.725.748v8.48z"/><path d="M6.043 5.423h-.639a.366.366 0 000 .73h.639a.366.366 0 000-.73zm2.537 0h-.637a.366.366 0 000 .73h.638c.2 0 .364-.165.364-.365 0-.2-.16-.365-.364-.365zm2.56 0h-.637a.366.366 0 000 .73h.638a.366.366 0 000-.73zM6.043 7.94h-.639a.365.365 0 000 .729h.639a.366.366 0 000-.73zm-2.557 0h-.642a.365.365 0 000 .729h.639a.366.366 0 00.004-.73zm5.094 0h-.637a.366.366 0 00-.365.364c0 .2.164.365.365.365h.638a.366.366 0 000-.73zm2.56 0h-.637a.366.366 0 00-.365.364c0 .2.164.365.365.365h.638a.366.366 0 000-.73zm-5.097 2.48h-.639a.365.365 0 000 .728h.639a.365.365 0 000-.729zm-2.557 0h-.642a.365.365 0 000 .728h.639a.365.365 0 00.004-.729zm5.094 0h-.637a.365.365 0 100 .728h.638a.365.365 0 000-.729z"/></g><defs><clipPath id="clip0"><path fill="#fff" transform="translate(0 .5)" d="M0 0h14v14H0z"/></clipPath></defs></svg>