<svg width="12" height="12" fill="none" xmlns="http://www.w3.org/2000/svg"><path d="M5.93 9.533a.251.251 0 01-.177-.073L2.54 6.247a.25.25 0 01-.01-.344l2.408-2.698C6.622 1.235 9.363-.039 11.754.002a.25.25 0 01.244.244c.055 2.392-1.234 5.132-3.208 6.819L6.096 9.47a.248.248 0 01-.166.063zM3.06 6.06l2.88 2.88 2.52-2.251c1.803-1.541 3-3.997 3.037-6.188-2.19.037-4.645 1.234-6.183 3.033L3.06 6.06z" fill="#2C8AF9"/><path d="M6.888 11.363a.232.232 0 01-.071-.011c-.09-.03-.164-.099-.177-.193l-.343-2.393a.25.25 0 01.495-.071l.268 1.87a5.837 5.837 0 001.363-3.73.25.25 0 01.5 0 6.332 6.332 0 01-1.841 4.448.281.281 0 01-.194.08zM3.27 5.706c-.011 0-.023 0-.035-.002L.84 5.36a.25.25 0 01-.14-.426 6.346 6.346 0 014.464-1.857.25.25 0 010 .5c-1.36 0-2.695.491-3.732 1.362l1.873.269a.25.25 0 01-.036.497zm5.296-1.023a1.252 1.252 0 01-.884-2.133 1.251 1.251 0 011.768 0c.487.487.487 1.28 0 1.767a1.246 1.246 0 01-.884.366zm0-1.999a.748.748 0 00-.53 1.28.752.752 0 001.06 0 .752.752 0 000-1.061.751.751 0 00-.53-.219zm.707 1.457h.005-.005zM.25 12a.25.25 0 01-.24-.322c.083-.273.817-2.69 1.352-3.225a1.547 1.547 0 012.186 0 1.547 1.547 0 010 2.185c-.535.535-2.952 1.27-3.226 1.352A.275.275 0 01.25 12zm2.205-3.5c-.268 0-.535.102-.74.306-.288.289-.768 1.58-1.085 2.564.984-.317 2.275-.797 2.564-1.086A1.047 1.047 0 002.455 8.5z" fill="#2C8AF9"/></svg>