<svg width="16" height="16" fill="none" xmlns="http://www.w3.org/2000/svg"><path d="M15.58 12.343l-3.238-2.16a.945.945 0 00-1.266.206l-.943 1.213a.403.403 0 01-.517.109l-.18-.1c-.595-.323-1.335-.727-2.826-2.219C5.119 7.901 4.714 7.16 4.39 6.566l-.098-.18a.404.404 0 01.106-.518l1.212-.943a.946.946 0 00.206-1.266L3.656.421A.94.94 0 002.39.135L1.035.95a1.91 1.91 0 00-.871 1.13C-.324 3.856.043 6.922 4.56 11.44 8.154 15.033 10.83 16 12.667 16c.423.001.845-.054 1.253-.164.476-.133.88-.446 1.13-.871l.815-1.354a.94.94 0 00-.285-1.268zm-.174.995l-.813 1.354c-.18.307-.47.533-.813.63-1.64.45-4.506.078-8.843-4.259C.601 6.726.227 3.861.678 2.22a1.38 1.38 0 01.631-.814L2.663.594a.408.408 0 01.55.123L4.387 2.48l.984 1.476a.41.41 0 01-.089.55l-1.212.943a.933.933 0 00-.247 1.197l.096.175c.34.625.764 1.403 2.311 2.95 1.547 1.546 2.324 1.97 2.949 2.31l.175.097a.933.933 0 001.198-.247l.943-1.213a.41.41 0 01.549-.089l3.238 2.16c.182.12.236.363.124.55zm-6.34-10.67A4.538 4.538 0 0113.6 7.201a.267.267 0 00.533 0 5.072 5.072 0 00-5.066-5.066.267.267 0 100 .533z" fill="#000"/><path d="M9.066 4.268A2.936 2.936 0 0112 7.2a.267.267 0 00.533 0 3.47 3.47 0 00-3.466-3.466.267.267 0 100 .533z" fill="#000"/><path d="M9.066 5.868c.736 0 1.332.597 1.333 1.333a.267.267 0 00.534 0 1.869 1.869 0 00-1.867-1.867.267.267 0 100 .534z" fill="#000"/></svg>