<svg width="10" height="14" fill="none" xmlns="http://www.w3.org/2000/svg"><path d="M5.345 0A4.592 4.592 0 00.757 4.585c0 2.43 4.169 9.004 4.347 9.283a.286.286 0 00.481 0c.178-.279 4.347-6.853 4.347-9.283A4.592 4.592 0 005.345 0zm0 13.175a69.055 69.055 0 01-1.902-3.274C2.06 7.346 1.328 5.508 1.328 4.585A4.02 4.02 0 015.345.57 4.02 4.02 0 019.36 4.585c0 .923-.731 2.761-2.115 5.316a69.104 69.104 0 01-1.901 3.274z" fill="#000"/><path d="M5.344 2.173c-1.196 0-2.17.947-2.17 2.112 0 1.164.974 2.11 2.17 2.11 1.197 0 2.17-.946 2.17-2.11 0-1.165-.973-2.112-2.17-2.112zm0 3.651c-.881 0-1.599-.69-1.599-1.54 0-.848.718-1.54 1.6-1.54.88 0 1.598.692 1.598 1.54 0 .85-.717 1.54-1.599 1.54z" fill="#000"/></svg>