<svg width="20" height="20" fill="none" xmlns="http://www.w3.org/2000/svg"><path d="M14.271.833v3.104l1.947 1.555V.833H14.27zM10 1.655L0 9.637l1.538 1.694L9.73 4.768a.433.433 0 01.54 0l8.192 6.563L20 9.637 10 1.655z" fill="#40A691"/><path fill-rule="evenodd" clip-rule="evenodd" d="M3.333 11.023l6.705-5.363 6.705 5.363v8.144H3.333v-8.144zM10 18.333a5 5 0 100-10 5 5 0 000 10z" fill="#40A691"/><path d="M9.714 15.349v-1.64c-.535-.146-.927-.366-1.178-.66a1.63 1.63 0 01-.372-1.08c0-.429.14-.787.42-1.077.284-.292.66-.46 1.13-.505V10h.593v.387c.433.05.778.192 1.034.427.257.232.42.544.491.935l-1.035.13c-.062-.309-.226-.517-.49-.627v1.53c.654.17 1.1.39 1.337.661.237.269.356.615.356 1.037 0 .472-.15.87-.45 1.194-.297.323-.712.521-1.243.594V17h-.593v-.712c-.472-.055-.855-.223-1.15-.505-.294-.282-.482-.68-.564-1.193l1.067-.11c.044.209.126.389.246.54.12.151.253.261.4.329zm0-4.109a.766.766 0 00-.385.266.669.669 0 00-.143.415.65.65 0 00.131.388c.087.117.22.212.397.285V11.24zm.593 4.164a.847.847 0 00.499-.27.753.753 0 00.192-.513.663.663 0 00-.164-.45c-.106-.128-.282-.226-.527-.293v1.526z" fill="#40A691"/></svg>