<svg width="12" height="12" fill="none" xmlns="http://www.w3.org/2000/svg"><path d="M1.136 9.6H1.2l3.13-.681a.308.308 0 00.162-.081l5.303-5.303c.387-.386.603-.912.6-1.46 0-.55-.215-1.08-.6-1.475a2.043 2.043 0 00-1.46-.6 1.995 1.995 0 00-1.459.616L1.59 5.92a.292.292 0 00-.098.146l-.68 3.13a.357.357 0 00.096.308.33.33 0 00.228.097zm7.2-8.951a1.41 1.41 0 011.41 1.427c.006.37-.14.728-.405.989l-1.995-2.01c.263-.262.619-.408.99-.406zm-1.444.875L8.887 3.52 4.265 8.124 2.271 6.146l4.621-4.622zm-4.88 5.27L3.616 8.4l-2.06.454.454-2.06zm9.42 4.558H.568a.324.324 0 100 .648h10.864a.324.324 0 000-.648z" fill="#18C662"/></svg>