<svg width="16" height="16" fill="none" xmlns="http://www.w3.org/2000/svg"><g clip-path="url(#clip0)" fill="#fff"><path d="M3.765 3.294c0-.26.21-.47.47-.47v-.942c-.778 0-1.411.634-1.411 1.412h.94zm.47-2.353V0A3.298 3.298 0 00.941 3.294h.941A2.356 2.356 0 014.235.941zm8 2.353h.942c0-.778-.634-1.412-1.412-1.412v.942c.26 0 .47.21.47.47zm1.883 0h.94A3.298 3.298 0 0011.766 0v.941a2.356 2.356 0 012.353 2.353zm.094 10.824H1.788c-.727 0-1.317.59-1.317 1.317V16h15.058v-.565c0-.727-.59-1.317-1.317-1.317zm-4.8-9.741V2.824h.94v-.942H5.648v.942h.941v1.553a7.061 7.061 0 00-5.647 6.917H15.06a7.061 7.061 0 00-5.647-6.917zm-7.53 7.858h12.236v.942H1.882v-.942z"/></g><defs><clipPath id="clip0"><path fill="#fff" d="M0 0h16v16H0z"/></clipPath></defs></svg>