<svg width="12" height="12" fill="none" xmlns="http://www.w3.org/2000/svg"><path d="M10.8.6a1.198 1.198 0 00-.862 2.031L7.745 7.015a1.16 1.16 0 00-.145-.014c-.155 0-.308.03-.452.09L5.446 5.175c.1-.175.153-.374.154-.575a1.2 1.2 0 00-2.4 0c.001.286.106.562.294.778l-2.08 3.643A1.2 1.2 0 102.4 10.2a1.19 1.19 0 00-.294-.778l2.08-3.643c.223.044.454.02.664-.068l1.702 1.914a1.185 1.185 0 00-.152.576 1.2 1.2 0 102.062-.831l2.193-4.384c.048.008.096.013.145.015a1.2 1.2 0 000-2.4zm-9.6 10a.4.4 0 110-.8.4.4 0 010 .8zM4.4 5a.4.4 0 110-.8.4.4 0 010 .8zm3.2 3.6a.4.4 0 110-.8.4.4 0 010 .8zm3.2-6.4a.4.4 0 110-.8.4.4 0 010 .8z" fill="#000"/></svg>