<?xml version="1.0" standalone="no"?>
<!DOCTYPE svg PUBLIC "-//W3C//DTD SVG 1.1//EN" "http://www.w3.org/Graphics/SVG/1.1/DTD/svg11.dtd" >
<svg xmlns="http://www.w3.org/2000/svg" xmlns:xlink="http://www.w3.org/1999/xlink" version="1.1">
<metadata>
Created by FontForge 20170731 at Wed Aug 21 04:26:34 2013
 By Aleksey,,,
Copyright (c) 1981, 1982, 1983, 1989 and 1993, Linotype Library GmbH or its affiliated Linotype-Hell companies. All rights reserved.

The digitally encoded machine readable software for producing the Typefaces licensed to you is now the property of Heidelberger Druckmaschinen AG and its licensors, and may not be reproduced, used, displayed, modified, disclosed or transferred without the express written approval of Heidelberger Druckmaschinen AG.

Copyright (c) 1988, 1990, 1993 Adobe Systems Incorporated. All Rights Reserved.
</metadata>
<defs>
<font id="HelveticaNeue-LightItalic" horiz-adv-x="519" >
  <font-face 
    font-family="Helvetica Neue"
    font-weight="300"
    font-style="italic"
    font-stretch="normal"
    units-per-em="1000"
    panose-1="2 0 4 3 0 0 0 9 0 4"
    ascent="800"
    descent="-200"
    bbox="-187 -335 894 1109"
    underline-thickness="50"
    underline-position="-175"
    slope="-12"
    unicode-range="U+0020-20AB"
  />
<missing-glyph horiz-adv-x="364" 
d="M33 0v666h265v-666h-265zM66 33h199v600h-199v-600z" />
    <glyph glyph-name=".notdef" horiz-adv-x="364" 
d="M33 0v666h265v-666h-265zM66 33h199v600h-199v-600z" />
    <glyph glyph-name=".null" horiz-adv-x="0" 
 />
    <glyph glyph-name="nonmarkingreturn" horiz-adv-x="333" 
 />
    <glyph glyph-name="controlBS" horiz-adv-x="0" 
 />
    <glyph glyph-name="space" unicode=" " horiz-adv-x="278" 
 />
    <glyph glyph-name="A" horiz-adv-x="630" 
d="M167 280l219 376h2l61 -376h-282zM362 714l-436 -714h75l132 222h326l36 -222h71l-130 714h-74z" />
    <glyph glyph-name="E" horiz-adv-x="574" 
d="M157 714l-152 -714h488l13 58h-420l60 282h382l13 58h-383l55 258h410l13 58h-479z" />
    <glyph glyph-name="I" horiz-adv-x="222" 
d="M156 714l-151 -714h68l151 714h-68z" />
    <glyph glyph-name="O" horiz-adv-x="741" 
d="M327 -14q95 0 167.5 36.5t122.5 98t75.5 142t25.5 167.5q0 68 -20.5 123t-59 94t-93.5 60.5t-123 21.5q-92 0 -164 -36.5t-122 -98t-76 -140.5t-26 -165q0 -68 19.5 -124t57 -95.5t92 -61.5t124.5 -22zM650 413q0 -66 -21.5 -132.5t-62 -119t-98 -85.5t-130.5 -33
q-55 0 -99 17t-74.5 48.5t-46.5 75.5t-16 99q0 73 19.5 142.5t59.5 124t99.5 88t140.5 33.5q59 0 102 -19.5t71.5 -54t42 -81.5t13.5 -103z" />
    <glyph glyph-name="U" horiz-adv-x="704" 
d="M150 714l-96 -466q-6 -34 -6 -58q0 -56 22 -95t58 -63t81.5 -35t92.5 -11q122 0 201.5 57t105.5 183l102 488h-68l-101 -483q-19 -91 -76.5 -139.5t-154.5 -48.5q-43 0 -80 9.5t-63 29t-40 48.5t-12 68q0 35 7 62l95 454h-68z" />
    <glyph glyph-name="Y" horiz-adv-x="574" 
d="M598 714l-299 -362l-161 362h-72l190 -419l-65 -295h69l63 288l358 426h-83z" />
    <glyph glyph-name="grave" horiz-adv-x="185" 
d="M141 729h-74l106 -144h50z" />
    <glyph glyph-name="a" 
d="M62 362h63q5 32 19.5 54.5t36.5 36t49 19.5t57 6q18 0 37.5 -3t35 -11t26 -22.5t10.5 -37.5q0 -51 -15.5 -72t-46.5 -29q-30 -8 -71.5 -7.5t-92.5 -7.5q-35 -6 -67 -16.5t-57 -28.5t-39.5 -46t-14.5 -69q0 -38 12.5 -65t34 -44t51.5 -25t66 -8q54 0 103 24.5t76 69.5
l2 -2q-1 -7 -1.5 -14t-0.5 -14q2 -55 55 -55q27 0 52 5l9 49q-7 -1 -12.5 -1.5t-12.5 -0.5q-11 0 -22 3.5t-11 17.5q0 12 2 24t6 31t10.5 47.5t15.5 71.5q4 17 9.5 39.5t10.5 46t8.5 46.5t3.5 42q0 35 -18 57t-45 35t-58.5 18t-57.5 5q-41 0 -78 -10t-66 -30.5t-48.5 -52.5
t-25.5 -76zM374 276l-20 -87q-15 -69 -62 -110t-123 -41q-22 0 -43 5t-37 16.5t-25.5 29t-9.5 42.5q0 41 21 63.5t52 34t66.5 15t64.5 5.5q12 1 28.5 2t32.5 4t30.5 8.5t22.5 14.5z" />
    <glyph glyph-name="e" 
d="M425 294h-337q8 36 25 69t42.5 58.5t58 41t71.5 15.5q66 0 103.5 -39t37.5 -105q0 -10 -0.5 -19.5t-0.5 -20.5zM80 241h404q3 23 4 45t1 44q0 45 -13 82t-38.5 63.5t-61.5 41t-83 14.5q-66 0 -118 -28t-88 -74t-54.5 -104.5t-18.5 -120.5q0 -102 53.5 -160t156.5 -58
q93 0 151 46t84 134h-63q-18 -57 -62 -92.5t-107 -35.5q-38 0 -66.5 12.5t-47 34t-27.5 51.5t-9 65q0 22 3 40z" />
    <glyph glyph-name="i" horiz-adv-x="185" 
d="M143 714l-22 -101h63l22 101h-63zM100 516l-110 -516h62l111 516h-63z" />
    <glyph glyph-name="o" horiz-adv-x="556" 
d="M232 38q-79 0 -117 46.5t-38 121.5q0 45 14 93.5t41 88t67 65t92 25.5q76 0 114 -45t38 -117q0 -45 -13.5 -94t-40 -90t-66 -67.5t-91.5 -26.5zM302 531q-69 0 -122.5 -28t-90.5 -74t-56 -106t-19 -123q0 -98 53 -156t153 -58q72 0 125.5 29t89 77t53.5 110t18 127
q0 48 -15 85.5t-42 63.5t-64.5 39.5t-82.5 13.5z" />
    <glyph glyph-name="u" horiz-adv-x="537" 
d="M402 0l111 516h-63l-57 -265q-11 -49 -31 -88.5t-46.5 -67t-58 -42.5t-66.5 -15q-21 0 -40.5 5t-34.5 16t-24 29t-9 43q0 13 2 26.5t5 25.5l72 333h-63l-71 -331q-8 -40 -8 -61q0 -37 11.5 -63.5t32.5 -43t49.5 -24t62.5 -7.5q58 0 106.5 31t77.5 77h2l-18 -94h58z" />
    <glyph glyph-name="y" horiz-adv-x="463" 
d="M-42 -134l-12 -51q14 -1 27.5 -3t26.5 -2q85 0 125 69l367 637h-68l-238 -438h-2l-74 438h-66l95 -516l-47 -81q-12 -20 -32 -38t-49 -18q-26 0 -53 3z" />
    <glyph glyph-name="acute" horiz-adv-x="185" 
d="M200 729l-116 -144h53l144 144h-81z" />
    <glyph glyph-name="Eth" horiz-adv-x="685" 
d="M159 393l57 263h163q215 0 215 -215q0 -74 -19 -143.5t-60 -123t-104.5 -85.5t-152.5 -31h-172l63 290h213l10 45h-213zM12 393l-10 -45h79l-76 -348h266q96 0 169 35t122.5 94.5t74.5 137t25 161.5q0 65 -13.5 117.5t-45.5 90t-84 58t-129 20.5h-230l-69 -321h-79z" />
    <glyph glyph-name="Abreve" unicode="&#x102;" horiz-adv-x="630" 
d="M167 280l219 376h2l61 -376h-282zM362 714l-436 -714h75l132 222h326l36 -222h71l-130 714h-74zM242 894q4 -85 90 -85q90 0 118 85h37q-10 -59 -54 -94.5t-104 -35.5t-93.5 36t-31.5 94h38v0z" />
    <glyph glyph-name="abreve" unicode="&#x103;" 
d="M62 362h63q5 32 19.5 54.5t36.5 36t49 19.5t57 6q18 0 37.5 -3t35 -11t26 -22.5t10.5 -37.5q0 -51 -15.5 -72t-46.5 -29q-30 -8 -71.5 -7.5t-92.5 -7.5q-35 -6 -67 -16.5t-57 -28.5t-39.5 -46t-14.5 -69q0 -38 12.5 -65t34 -44t51.5 -25t66 -8q54 0 103 24.5t76 69.5
l2 -2q-1 -7 -1.5 -14t-0.5 -14q2 -55 55 -55q27 0 52 5l9 49q-7 -1 -12.5 -1.5t-12.5 -0.5q-11 0 -22 3.5t-11 17.5q0 12 2 24t6 31t10.5 47.5t15.5 71.5q4 17 9.5 39.5t10.5 46t8.5 46.5t3.5 42q0 35 -18 57t-45 35t-58.5 18t-57.5 5q-41 0 -78 -10t-66 -30.5t-48.5 -52.5
t-25.5 -76zM374 276l-20 -87q-15 -69 -62 -110t-123 -41q-22 0 -43 5t-37 16.5t-25.5 29t-9.5 42.5q0 41 21 63.5t52 34t66.5 15t64.5 5.5q12 1 28.5 2t32.5 4t30.5 8.5t22.5 14.5zM204 715q4 -85 90 -85q90 0 118 85h37q-10 -59 -54 -94.5t-104 -35.5t-93.5 36t-31.5 94h38
v0z" />
    <glyph glyph-name="Dcroat" unicode="&#x110;" horiz-adv-x="685" 
d="M159 393l57 263h163q215 0 215 -215q0 -74 -19 -143.5t-60 -123t-104.5 -85.5t-152.5 -31h-172l63 290h213l10 45h-213zM12 393l-10 -45h79l-76 -348h266q96 0 169 35t122.5 94.5t74.5 137t25 161.5q0 65 -13.5 117.5t-45.5 90t-84 58t-129 20.5h-230l-69 -321h-79z" />
    <glyph glyph-name="dcroat" unicode="&#x111;" horiz-adv-x="574" 
d="M509 626l19 88h63l-19 -88h103l-10 -53h-104l-123 -573h-61l23 93h-2q-33 -51 -76.5 -79t-111.5 -28q-99 0 -147.5 57.5t-48.5 152.5q0 59 19.5 119t56.5 108t89 78t117 30q61 0 106 -25.5t62 -86.5h2l32 154h-94l12 53h93zM216 38q54 0 96 27.5t70.5 70t43.5 94t15 99.5
q0 69 -37.5 109t-106.5 40q-54 0 -95.5 -27t-69 -69t-41.5 -92.5t-14 -97.5q0 -66 34 -110t105 -44z" />
    <glyph glyph-name="Itilde" unicode="&#x128;" horiz-adv-x="222" 
d="M156 714l-151 -714h68l151 714h-68zM369 865q-4 -17 -11 -35t-18 -32q-11 -15 -25.5 -24.5t-34.5 -9.5t-39 8.5t-37 18.5q-18 11 -34 20t-30 9q-9 0 -17 -5.5t-14.5 -14t-10.5 -18t-6 -18.5h-40q4 18 11.5 36t18.5 32.5t26.5 23.5t35.5 9q19 0 36 -8t34 -18
q17 -11 34.5 -20.5t35.5 -9.5q8 0 15 6t13 14.5t10.5 18.5t6.5 17h40v0z" />
    <glyph glyph-name="itilde" unicode="&#x129;" horiz-adv-x="185" 
d="M-10 0h62l111 516h-63zM311 671q-4 -17 -11 -35t-18 -32q-11 -15 -25.5 -24.5t-34.5 -9.5t-39 8.5t-37 18.5q-18 11 -34 20t-30 9q-9 0 -17 -5.5t-14.5 -14t-10.5 -18t-6 -18.5h-40q4 18 11.5 36t18.5 32.5t26.5 23.5t35.5 9q19 0 36 -8t34 -18q17 -11 34.5 -20.5
t35.5 -9.5q8 0 15 6t13 14.5t10.5 18.5t6.5 17h40v0z" />
    <glyph glyph-name="dotlessi" horiz-adv-x="185" 
d="M-10 0h62l111 516h-63z" />
    <glyph glyph-name="Utilde" unicode="&#x168;" horiz-adv-x="704" 
d="M150 714l-96 -466q-6 -34 -6 -58q0 -56 22 -95t58 -63t81.5 -35t92.5 -11q122 0 201.5 57t105.5 183l102 488h-68l-101 -483q-19 -91 -76.5 -139.5t-154.5 -48.5q-43 0 -80 9.5t-63 29t-40 48.5t-12 68q0 35 7 62l95 454h-68zM635 865q-4 -17 -11 -35t-18 -32
q-11 -15 -25.5 -24.5t-34.5 -9.5t-39 8.5t-37 18.5q-18 11 -34 20t-30 9q-9 0 -17 -5.5t-14.5 -14t-10.5 -18t-6 -18.5h-40q4 18 11.5 36t18.5 32.5t26.5 23.5t35.5 9q19 0 36 -8t34 -18q17 -11 34.5 -20.5t35.5 -9.5q8 0 15 6t13 14.5t10.5 18.5t6.5 17h40v0z" />
    <glyph glyph-name="utilde" unicode="&#x169;" horiz-adv-x="537" 
d="M402 0l111 516h-63l-57 -265q-11 -49 -31 -88.5t-46.5 -67t-58 -42.5t-66.5 -15q-21 0 -40.5 5t-34.5 16t-24 29t-9 43q0 13 2 26.5t5 25.5l72 333h-63l-71 -331q-8 -40 -8 -61q0 -37 11.5 -63.5t32.5 -43t49.5 -24t62.5 -7.5q58 0 106.5 31t77.5 77h2l-18 -94h58z
M502 671q-4 -17 -11 -35t-18 -32q-11 -15 -25.5 -24.5t-34.5 -9.5t-39 8.5t-37 18.5q-18 11 -34 20t-30 9q-9 0 -17 -5.5t-14.5 -14t-10.5 -18t-6 -18.5h-40q4 18 11.5 36t18.5 32.5t26.5 23.5t35.5 9q19 0 36 -8t34 -18q17 -11 34.5 -20.5t35.5 -9.5q8 0 15 6t13 14.5
t10.5 18.5t6.5 17h40v0z" />
    <glyph glyph-name="Ohorn" unicode="&#x1a0;" horiz-adv-x="885" 
d="M327 -14q-70 0 -124.5 22t-92 61.5t-57 95.5t-19.5 124q0 86 26 165t76 140.5t122 98t164 36.5q68 0 123 -21.5t93 -60.5q16 -16 28 -34q6 -5 10 -8q12 -9 24.5 -13.5t33.5 -4.5q40 -1 51 32t11 95h58q0 -48 -4.5 -81t-17 -53.5t-34.5 -30t-57 -9.5q-22 0 -42 8
q19 -53 19 -118q0 -87 -25.5 -167.5t-75.5 -142t-122.5 -98t-167.5 -36.5zM650 413q0 56 -13.5 103t-42 81.5t-71.5 54t-102 19.5q-81 0 -140.5 -33.5t-99.5 -88t-59.5 -124t-19.5 -142.5q0 -55 16 -99t46.5 -75.5t74.5 -48.5t99 -17q73 0 130.5 33t98 85.5t62 119
t21.5 132.5z" />
    <glyph glyph-name="ohorn" unicode="&#x1a1;" horiz-adv-x="712" 
d="M302 531q45 0 82.5 -13.5t64.5 -39.5t42 -64q0 -1 1 -3l5 -4q12 -9 24.5 -13.5t33.5 -4.5q40 -1 51 32t11 95h58q0 -48 -4.5 -81t-17 -53.5t-34.5 -30t-57 -9.5q-24 0 -45 9l-13 6q2 -13 2 -28q0 -65 -18 -127t-53.5 -110t-89 -77t-125.5 -29q-100 0 -153 58t-53 156
q0 63 19 123t56 106t90.5 74t122.5 28zM232 38q52 0 91.5 26.5t66 67.5t40 90t13.5 94q0 72 -38 117t-114 45q-52 0 -92 -25.5t-67 -65t-41 -88t-14 -93.5q0 -75 38 -121.5t117 -46.5z" />
    <glyph glyph-name="Uhorn" unicode="&#x1af;" horiz-adv-x="942" 
d="M218 714l-95 -454q-7 -27 -7 -62q-2 -39 12 -68t40 -48.5t63 -29t80 -9.5q97 0 154.5 48.5t76.5 139.5l101 483h68l-18 -87q12 -13 23.5 -22t24 -13.5t33.5 -4.5q40 -1 51 32t11 95h58q0 -48 -4.5 -81t-17 -53.5t-34.5 -30t-57 -9.5q-24 0 -44.5 9.5t-38.5 24.5
q-7 6 -14 13l-75 -361q-26 -126 -105.5 -183t-201.5 -57q-47 0 -92.5 11t-81.5 35t-58 63t-22 95q0 24 6 58l96 466h68z" />
    <glyph glyph-name="uhorn" unicode="&#x1b0;" horiz-adv-x="729" 
d="M344 0l18 94h-2q-29 -46 -77.5 -77t-106.5 -31q-34 0 -62.5 7.5t-49.5 24t-32.5 43t-11.5 63.5q0 21 8 61l71 331h63l-72 -333q-3 -12 -5 -25.5t-2 -26.5q0 -25 9 -43t24 -29t34.5 -16t40.5 -5q35 0 66.5 15t58 42.5t46.5 67t31 88.5l57 265h63l-17 -79q4 -4 7 -8
q13 -13 24.5 -22t24 -13.5t33.5 -4.5q40 -1 51 32t11 95h58q0 -48 -4.5 -81t-17 -53.5t-34.5 -30t-57 -9.5q-24 0 -44.5 9.5t-38.5 24.5q-11 10 -22 21l-85 -397h-58z" />
    <glyph glyph-name="circumflex" horiz-adv-x="185" 
d="M58 585l101 106l66 -106h57l-86 144h-63l-135 -144h60z" />
    <glyph glyph-name="breve" horiz-adv-x="185" 
d="M64 726h-38q-2 -58 31.5 -94t93.5 -36t104 35.5t54 94.5h-37q-28 -85 -118 -85q-86 0 -90 85z" />
    <glyph glyph-name="dotaccent" horiz-adv-x="185" 
d="M136 703l-19 -102h63l20 102h-64z" />
    <glyph glyph-name="tilde" horiz-adv-x="185" 
d="M314 701h-40q-2 -7 -6.5 -17t-10.5 -18.5t-13 -14.5t-15 -6q-18 0 -35.5 9.5t-34.5 20.5q-17 10 -34 18t-36 8q-20 0 -35.5 -9t-26.5 -23.5t-18.5 -32.5t-11.5 -36h40q2 9 6 18.5t10.5 18t14.5 14t17 5.5q14 0 30 -9t34 -20q18 -10 37 -18.5t39 -8.5t34.5 9.5t25.5 24.5
q11 14 18 32t11 35z" />
    <glyph glyph-name="tildecmb" horiz-adv-x="0" 
d="M130 701q-4 -17 -11 -35t-18 -32q-11 -15 -25.5 -24.5t-34.5 -9.5t-39 8.5t-37 18.5q-18 11 -34 20t-30 9q-9 0 -17 -5.5t-14.5 -14t-10.5 -18t-6 -18.5h-40q4 18 11.5 36t18.5 32.5t26.5 23.5t35.5 9q19 0 36 -8t34 -18q17 -11 34.5 -20.5t35.5 -9.5q8 0 15 6t13 14.5
t10.5 18.5t6.5 17h40v0z" />
    <glyph glyph-name="brevecmb" horiz-adv-x="0" 
d="M-120 726q4 -85 90 -85q90 0 118 85h37q-10 -59 -54 -94.5t-104 -35.5t-93.5 36t-31.5 94h38v0z" />
    <glyph glyph-name="hookabovecomb" horiz-adv-x="0" 
d="M18 522h-34l2 58l18 15q16 -8 49 -8q17 0 32.5 10t18.5 28q5 23 -9 33t-35 10q-22 0 -44 -4.5t-36 -9.5l-7 32q24 11 48.5 16t48.5 5q19 0 37.5 -5t32 -15.5t20 -26.5t1.5 -39q-4 -23 -18.5 -37t-33.5 -20.5t-39 -7t-38 2.5z" />
    <glyph glyph-name="Adotbelow" unicode="&#x1ea0;" horiz-adv-x="630" 
d="M167 280l219 376h2l61 -376h-282zM362 714l-436 -714h75l132 222h326l36 -222h71l-130 714h-74zM200 -45l-19 -102h63l20 102h-64z" />
    <glyph glyph-name="adotbelow" unicode="&#x1ea1;" 
d="M62 362h63q5 32 19.5 54.5t36.5 36t49 19.5t57 6q18 0 37.5 -3t35 -11t26 -22.5t10.5 -37.5q0 -51 -15.5 -72t-46.5 -29q-30 -8 -71.5 -7.5t-92.5 -7.5q-35 -6 -67 -16.5t-57 -28.5t-39.5 -46t-14.5 -69q0 -38 12.5 -65t34 -44t51.5 -25t66 -8q54 0 103 24.5t76 69.5
l2 -2q-1 -7 -1.5 -14t-0.5 -14q2 -55 55 -55q27 0 52 5l9 49q-7 -1 -12.5 -1.5t-12.5 -0.5q-11 0 -22 3.5t-11 17.5q0 12 2 24t6 31t10.5 47.5t15.5 71.5q4 17 9.5 39.5t10.5 46t8.5 46.5t3.5 42q0 35 -18 57t-45 35t-58.5 18t-57.5 5q-41 0 -78 -10t-66 -30.5t-48.5 -52.5
t-25.5 -76zM374 276l-20 -87q-15 -69 -62 -110t-123 -41q-22 0 -43 5t-37 16.5t-25.5 29t-9.5 42.5q0 41 21 63.5t52 34t66.5 15t64.5 5.5q12 1 28.5 2t32.5 4t30.5 8.5t22.5 14.5zM162 -88l-19 -102h63l20 102h-64z" />
    <glyph glyph-name="Ahookabove" unicode="&#x1ea2;" horiz-adv-x="630" 
d="M167 280l219 376h2l61 -376h-282zM362 714l-436 -714h75l132 222h326l36 -222h71l-130 714h-74zM378 764h-34l2 58l18 15q16 -8 49 -8q17 0 32.5 10t18.5 28q5 23 -9 33t-35 10q-22 0 -44 -4.5t-36 -9.5l-7 32q24 11 48.5 16t48.5 5q19 0 37.5 -5t32 -15.5t20 -26.5
t1.5 -39q-4 -23 -18.5 -37t-33.5 -20.5t-39 -7t-38 2.5z" />
    <glyph glyph-name="ahookabove" unicode="&#x1ea3;" 
d="M62 362h63q5 32 19.5 54.5t36.5 36t49 19.5t57 6q18 0 37.5 -3t35 -11t26 -22.5t10.5 -37.5q0 -51 -15.5 -72t-46.5 -29q-30 -8 -71.5 -7.5t-92.5 -7.5q-35 -6 -67 -16.5t-57 -28.5t-39.5 -46t-14.5 -69q0 -38 12.5 -65t34 -44t51.5 -25t66 -8q54 0 103 24.5t76 69.5
l2 -2q-1 -7 -1.5 -14t-0.5 -14q2 -55 55 -55q27 0 52 5l9 49q-7 -1 -12.5 -1.5t-12.5 -0.5q-11 0 -22 3.5t-11 17.5q0 12 2 24t6 31t10.5 47.5t15.5 71.5q4 17 9.5 39.5t10.5 46t8.5 46.5t3.5 42q0 35 -18 57t-45 35t-58.5 18t-57.5 5q-41 0 -78 -10t-66 -30.5t-48.5 -52.5
t-25.5 -76zM374 276l-20 -87q-15 -69 -62 -110t-123 -41q-22 0 -43 5t-37 16.5t-25.5 29t-9.5 42.5q0 41 21 63.5t52 34t66.5 15t64.5 5.5q12 1 28.5 2t32.5 4t30.5 8.5t22.5 14.5zM260 581h-34l2 58l18 15q16 -8 49 -8q17 0 32.5 10t18.5 28q5 23 -9 33t-35 10
q-22 0 -44 -4.5t-36 -9.5l-7 32q24 11 48.5 16t48.5 5q19 0 37.5 -5t32 -15.5t20 -26.5t1.5 -39q-4 -23 -18.5 -37t-33.5 -20.5t-39 -7t-38 2.5z" />
    <glyph glyph-name="Acircumflexacute" unicode="&#x1ea4;" horiz-adv-x="630" 
d="M167 280l219 376h2l61 -376h-282zM362 714l-436 -714h75l132 222h326l36 -222h71l-130 714h-74zM324 747l101 106l66 -106h57l-86 144h-63l-135 -144h60zM603 984l-116 -144h53l144 144h-81z" />
    <glyph glyph-name="acircumflexacute" unicode="&#x1ea5;" 
d="M62 362h63q5 32 19.5 54.5t36.5 36t49 19.5t57 6q18 0 37.5 -3t35 -11t26 -22.5t10.5 -37.5q0 -51 -15.5 -72t-46.5 -29q-30 -8 -71.5 -7.5t-92.5 -7.5q-35 -6 -67 -16.5t-57 -28.5t-39.5 -46t-14.5 -69q0 -38 12.5 -65t34 -44t51.5 -25t66 -8q54 0 103 24.5t76 69.5
l2 -2q-1 -7 -1.5 -14t-0.5 -14q2 -55 55 -55q27 0 52 5l9 49q-7 -1 -12.5 -1.5t-12.5 -0.5q-11 0 -22 3.5t-11 17.5q0 12 2 24t6 31t10.5 47.5t15.5 71.5q4 17 9.5 39.5t10.5 46t8.5 46.5t3.5 42q0 35 -18 57t-45 35t-58.5 18t-57.5 5q-41 0 -78 -10t-66 -30.5t-48.5 -52.5
t-25.5 -76zM374 276l-20 -87q-15 -69 -62 -110t-123 -41q-22 0 -43 5t-37 16.5t-25.5 29t-9.5 42.5q0 41 21 63.5t52 34t66.5 15t64.5 5.5q12 1 28.5 2t32.5 4t30.5 8.5t22.5 14.5zM228 583l101 106l66 -106h57l-86 144h-63l-135 -144h60zM539 802l-116 -144h53l144 144h-81
z" />
    <glyph glyph-name="Acircumflexgrave" unicode="&#x1ea6;" horiz-adv-x="630" 
d="M167 280l219 376h2l61 -376h-282zM362 714l-436 -714h75l132 222h326l36 -222h71l-130 714h-74zM330 761l101 106l66 -106h57l-86 144h-63l-135 -144h60zM259 990h-74l106 -144h50z" />
    <glyph glyph-name="acircumflexgrave" unicode="&#x1ea7;" 
d="M62 362h63q5 32 19.5 54.5t36.5 36t49 19.5t57 6q18 0 37.5 -3t35 -11t26 -22.5t10.5 -37.5q0 -51 -15.5 -72t-46.5 -29q-30 -8 -71.5 -7.5t-92.5 -7.5q-35 -6 -67 -16.5t-57 -28.5t-39.5 -46t-14.5 -69q0 -38 12.5 -65t34 -44t51.5 -25t66 -8q54 0 103 24.5t76 69.5
l2 -2q-1 -7 -1.5 -14t-0.5 -14q2 -55 55 -55q27 0 52 5l9 49q-7 -1 -12.5 -1.5t-12.5 -0.5q-11 0 -22 3.5t-11 17.5q0 12 2 24t6 31t10.5 47.5t15.5 71.5q4 17 9.5 39.5t10.5 46t8.5 46.5t3.5 42q0 35 -18 57t-45 35t-58.5 18t-57.5 5q-41 0 -78 -10t-66 -30.5t-48.5 -52.5
t-25.5 -76zM374 276l-20 -87q-15 -69 -62 -110t-123 -41q-22 0 -43 5t-37 16.5t-25.5 29t-9.5 42.5q0 41 21 63.5t52 34t66.5 15t64.5 5.5q12 1 28.5 2t32.5 4t30.5 8.5t22.5 14.5zM228 583l101 106l66 -106h57l-86 144h-63l-135 -144h60zM159 808h-74l106 -144h50z" />
    <glyph glyph-name="Acircumflexhookabove" unicode="&#x1ea8;" horiz-adv-x="630" 
d="M167 280l219 376h2l61 -376h-282zM362 714l-436 -714h75l132 222h326l36 -222h71l-130 714h-74zM345 764l101 106l66 -106h57l-86 144h-63l-135 -144h60zM598 844h-34l2 58l18 15q16 -8 49 -8q17 0 32.5 10t18.5 28q5 23 -9 33t-35 10q-22 0 -44 -4.5t-36 -9.5l-7 32
q24 11 48.5 16t48.5 5q19 0 37.5 -5t32 -15.5t20 -26.5t1.5 -39q-4 -23 -18.5 -37t-33.5 -20.5t-39 -7t-38 2.5z" />
    <glyph glyph-name="acircumflexhookabove" unicode="&#x1ea9;" 
d="M62 362h63q5 32 19.5 54.5t36.5 36t49 19.5t57 6q18 0 37.5 -3t35 -11t26 -22.5t10.5 -37.5q0 -51 -15.5 -72t-46.5 -29q-30 -8 -71.5 -7.5t-92.5 -7.5q-35 -6 -67 -16.5t-57 -28.5t-39.5 -46t-14.5 -69q0 -38 12.5 -65t34 -44t51.5 -25t66 -8q54 0 103 24.5t76 69.5
l2 -2q-1 -7 -1.5 -14t-0.5 -14q2 -55 55 -55q27 0 52 5l9 49q-7 -1 -12.5 -1.5t-12.5 -0.5q-11 0 -22 3.5t-11 17.5q0 12 2 24t6 31t10.5 47.5t15.5 71.5q4 17 9.5 39.5t10.5 46t8.5 46.5t3.5 42q0 35 -18 57t-45 35t-58.5 18t-57.5 5q-41 0 -78 -10t-66 -30.5t-48.5 -52.5
t-25.5 -76zM374 276l-20 -87q-15 -69 -62 -110t-123 -41q-22 0 -43 5t-37 16.5t-25.5 29t-9.5 42.5q0 41 21 63.5t52 34t66.5 15t64.5 5.5q12 1 28.5 2t32.5 4t30.5 8.5t22.5 14.5zM227 582l101 106l66 -106h57l-86 144h-63l-135 -144h60zM470 688h-34l2 58l18 15
q16 -8 49 -8q17 0 32.5 10t18.5 28q5 23 -9 33t-35 10q-22 0 -44 -4.5t-36 -9.5l-7 32q24 11 48.5 16t48.5 5q19 0 37.5 -5t32 -15.5t20 -26.5t1.5 -39q-4 -23 -18.5 -37t-33.5 -20.5t-39 -7t-38 2.5z" />
    <glyph glyph-name="Acircumflextilde" unicode="&#x1eaa;" horiz-adv-x="630" 
d="M167 280l219 376h2l61 -376h-282zM362 714l-436 -714h75l132 222h326l36 -222h71l-130 714h-74zM333 766l101 106l66 -106h57l-86 144h-63l-135 -144h60zM628 1059h-40q-2 -7 -6.5 -17t-10.5 -18.5t-13 -14.5t-15 -6q-18 0 -35.5 9.5t-34.5 20.5q-17 10 -34 18t-36 8
q-20 0 -35.5 -9t-26.5 -23.5t-18.5 -32.5t-11.5 -36h40q2 9 6 18.5t10.5 18t14.5 14t17 5.5q14 0 30 -9t34 -20q18 -10 37 -18.5t39 -8.5t34.5 9.5t25.5 24.5q11 14 18 32t11 35z" />
    <glyph glyph-name="acircumflextilde" unicode="&#x1eab;" 
d="M62 362h63q5 32 19.5 54.5t36.5 36t49 19.5t57 6q18 0 37.5 -3t35 -11t26 -22.5t10.5 -37.5q0 -51 -15.5 -72t-46.5 -29q-30 -8 -71.5 -7.5t-92.5 -7.5q-35 -6 -67 -16.5t-57 -28.5t-39.5 -46t-14.5 -69q0 -38 12.5 -65t34 -44t51.5 -25t66 -8q54 0 103 24.5t76 69.5
l2 -2q-1 -7 -1.5 -14t-0.5 -14q2 -55 55 -55q27 0 52 5l9 49q-7 -1 -12.5 -1.5t-12.5 -0.5q-11 0 -22 3.5t-11 17.5q0 12 2 24t6 31t10.5 47.5t15.5 71.5q4 17 9.5 39.5t10.5 46t8.5 46.5t3.5 42q0 35 -18 57t-45 35t-58.5 18t-57.5 5q-41 0 -78 -10t-66 -30.5t-48.5 -52.5
t-25.5 -76zM374 276l-20 -87q-15 -69 -62 -110t-123 -41q-22 0 -43 5t-37 16.5t-25.5 29t-9.5 42.5q0 41 21 63.5t52 34t66.5 15t64.5 5.5q12 1 28.5 2t32.5 4t30.5 8.5t22.5 14.5zM228 583l101 106l66 -106h57l-86 144h-63l-135 -144h60zM525 884h-40q-2 -7 -6.5 -17
t-10.5 -18.5t-13 -14.5t-15 -6q-18 0 -35.5 9.5t-34.5 20.5q-17 10 -34 18t-36 8q-20 0 -35.5 -9t-26.5 -23.5t-18.5 -32.5t-11.5 -36h40q2 9 6 18.5t10.5 18t14.5 14t17 5.5q14 0 30 -9t34 -20q18 -10 37 -18.5t39 -8.5t34.5 9.5t25.5 24.5q11 14 18 32t11 35z" />
    <glyph glyph-name="Acircumflexdotbelow" unicode="&#x1eac;" horiz-adv-x="630" 
d="M167 280l219 376h2l61 -376h-282zM362 714l-436 -714h75l132 222h326l36 -222h71l-130 714h-74zM338 764l101 106l66 -106h57l-86 144h-63l-135 -144h60zM209 -51l-19 -102h63l20 102h-64z" />
    <glyph glyph-name="acircumflexdotbelow" unicode="&#x1ead;" 
d="M62 362h63q5 32 19.5 54.5t36.5 36t49 19.5t57 6q18 0 37.5 -3t35 -11t26 -22.5t10.5 -37.5q0 -51 -15.5 -72t-46.5 -29q-30 -8 -71.5 -7.5t-92.5 -7.5q-35 -6 -67 -16.5t-57 -28.5t-39.5 -46t-14.5 -69q0 -38 12.5 -65t34 -44t51.5 -25t66 -8q54 0 103 24.5t76 69.5
l2 -2q-1 -7 -1.5 -14t-0.5 -14q2 -55 55 -55q27 0 52 5l9 49q-7 -1 -12.5 -1.5t-12.5 -0.5q-11 0 -22 3.5t-11 17.5q0 12 2 24t6 31t10.5 47.5t15.5 71.5q4 17 9.5 39.5t10.5 46t8.5 46.5t3.5 42q0 35 -18 57t-45 35t-58.5 18t-57.5 5q-41 0 -78 -10t-66 -30.5t-48.5 -52.5
t-25.5 -76zM374 276l-20 -87q-15 -69 -62 -110t-123 -41q-22 0 -43 5t-37 16.5t-25.5 29t-9.5 42.5q0 41 21 63.5t52 34t66.5 15t64.5 5.5q12 1 28.5 2t32.5 4t30.5 8.5t22.5 14.5zM211 583l101 106l66 -106h57l-86 144h-63l-135 -144h60zM125 -79l-19 -102h63l20 102h-64z
" />
    <glyph glyph-name="Abreveacute" unicode="&#x1eae;" horiz-adv-x="630" 
d="M167 280l219 376h2l61 -376h-282zM362 714l-436 -714h75l132 222h326l36 -222h71l-130 714h-74zM331 905h-38q-2 -58 31.5 -94t93.5 -36t104 35.5t54 94.5h-37q-28 -85 -118 -85q-86 0 -90 85zM516 1051l-116 -144h53l144 144h-81z" />
    <glyph glyph-name="abreveacute" unicode="&#x1eaf;" 
d="M62 362h63q5 32 19.5 54.5t36.5 36t49 19.5t57 6q18 0 37.5 -3t35 -11t26 -22.5t10.5 -37.5q0 -51 -15.5 -72t-46.5 -29q-30 -8 -71.5 -7.5t-92.5 -7.5q-35 -6 -67 -16.5t-57 -28.5t-39.5 -46t-14.5 -69q0 -38 12.5 -65t34 -44t51.5 -25t66 -8q54 0 103 24.5t76 69.5
l2 -2q-1 -7 -1.5 -14t-0.5 -14q2 -55 55 -55q27 0 52 5l9 49q-7 -1 -12.5 -1.5t-12.5 -0.5q-11 0 -22 3.5t-11 17.5q0 12 2 24t6 31t10.5 47.5t15.5 71.5q4 17 9.5 39.5t10.5 46t8.5 46.5t3.5 42q0 35 -18 57t-45 35t-58.5 18t-57.5 5q-41 0 -78 -10t-66 -30.5t-48.5 -52.5
t-25.5 -76zM374 276l-20 -87q-15 -69 -62 -110t-123 -41q-22 0 -43 5t-37 16.5t-25.5 29t-9.5 42.5q0 41 21 63.5t52 34t66.5 15t64.5 5.5q12 1 28.5 2t32.5 4t30.5 8.5t22.5 14.5zM212 713h-38q-2 -58 31.5 -94t93.5 -36t104 35.5t54 94.5h-37q-28 -85 -118 -85
q-86 0 -90 85zM410 891l-116 -144h53l144 144h-81z" />
    <glyph glyph-name="Abrevegrave" unicode="&#x1eb0;" horiz-adv-x="630" 
d="M167 280l219 376h2l61 -376h-282zM362 714l-436 -714h75l132 222h326l36 -222h71l-130 714h-74zM331 900h-38q-2 -58 31.5 -94t93.5 -36t104 35.5t54 94.5h-37q-28 -85 -118 -85q-86 0 -90 85zM386 1054h-74l106 -144h50z" />
    <glyph glyph-name="abrevegrave" unicode="&#x1eb1;" 
d="M62 362h63q5 32 19.5 54.5t36.5 36t49 19.5t57 6q18 0 37.5 -3t35 -11t26 -22.5t10.5 -37.5q0 -51 -15.5 -72t-46.5 -29q-30 -8 -71.5 -7.5t-92.5 -7.5q-35 -6 -67 -16.5t-57 -28.5t-39.5 -46t-14.5 -69q0 -38 12.5 -65t34 -44t51.5 -25t66 -8q54 0 103 24.5t76 69.5
l2 -2q-1 -7 -1.5 -14t-0.5 -14q2 -55 55 -55q27 0 52 5l9 49q-7 -1 -12.5 -1.5t-12.5 -0.5q-11 0 -22 3.5t-11 17.5q0 12 2 24t6 31t10.5 47.5t15.5 71.5q4 17 9.5 39.5t10.5 46t8.5 46.5t3.5 42q0 35 -18 57t-45 35t-58.5 18t-57.5 5q-41 0 -78 -10t-66 -30.5t-48.5 -52.5
t-25.5 -76zM374 276l-20 -87q-15 -69 -62 -110t-123 -41q-22 0 -43 5t-37 16.5t-25.5 29t-9.5 42.5q0 41 21 63.5t52 34t66.5 15t64.5 5.5q12 1 28.5 2t32.5 4t30.5 8.5t22.5 14.5zM212 713h-38q-2 -58 31.5 -94t93.5 -36t104 35.5t54 94.5h-37q-28 -85 -118 -85
q-86 0 -90 85zM270 871h-74l106 -144h50z" />
    <glyph glyph-name="Abrevehookabove" unicode="&#x1eb2;" horiz-adv-x="630" 
d="M167 280l219 376h2l61 -376h-282zM362 714l-436 -714h75l132 222h326l36 -222h71l-130 714h-74zM314 894h-38q-2 -58 31.5 -94t93.5 -36t104 35.5t54 94.5h-37q-28 -85 -118 -85q-86 0 -90 85zM416 924h-34l2 58l18 15q16 -8 49 -8q17 0 32.5 10t18.5 28q5 23 -9 33
t-35 10q-22 0 -44 -4.5t-36 -9.5l-7 32q24 11 48.5 16t48.5 5q19 0 37.5 -5t32 -15.5t20 -26.5t1.5 -39q-4 -23 -18.5 -37t-33.5 -20.5t-39 -7t-38 2.5z" />
    <glyph glyph-name="abrevehookabove" unicode="&#x1eb3;" 
d="M62 362h63q5 32 19.5 54.5t36.5 36t49 19.5t57 6q18 0 37.5 -3t35 -11t26 -22.5t10.5 -37.5q0 -51 -15.5 -72t-46.5 -29q-30 -8 -71.5 -7.5t-92.5 -7.5q-35 -6 -67 -16.5t-57 -28.5t-39.5 -46t-14.5 -69q0 -38 12.5 -65t34 -44t51.5 -25t66 -8q54 0 103 24.5t76 69.5
l2 -2q-1 -7 -1.5 -14t-0.5 -14q2 -55 55 -55q27 0 52 5l9 49q-7 -1 -12.5 -1.5t-12.5 -0.5q-11 0 -22 3.5t-11 17.5q0 12 2 24t6 31t10.5 47.5t15.5 71.5q4 17 9.5 39.5t10.5 46t8.5 46.5t3.5 42q0 35 -18 57t-45 35t-58.5 18t-57.5 5q-41 0 -78 -10t-66 -30.5t-48.5 -52.5
t-25.5 -76zM374 276l-20 -87q-15 -69 -62 -110t-123 -41q-22 0 -43 5t-37 16.5t-25.5 29t-9.5 42.5q0 41 21 63.5t52 34t66.5 15t64.5 5.5q12 1 28.5 2t32.5 4t30.5 8.5t22.5 14.5zM205 712h-38q-2 -58 31.5 -94t93.5 -36t104 35.5t54 94.5h-37q-28 -85 -118 -85
q-86 0 -90 85zM298 761h-34l2 58l18 15q16 -8 49 -8q17 0 32.5 10t18.5 28q5 23 -9 33t-35 10q-22 0 -44 -4.5t-36 -9.5l-7 32q24 11 48.5 16t48.5 5q19 0 37.5 -5t32 -15.5t20 -26.5t1.5 -39q-4 -23 -18.5 -37t-33.5 -20.5t-39 -7t-38 2.5z" />
    <glyph glyph-name="Abrevetilde" unicode="&#x1eb4;" horiz-adv-x="630" 
d="M167 280l219 376h2l61 -376h-282zM362 714l-436 -714h75l132 222h326l36 -222h71l-130 714h-74zM331 897h-38q-2 -58 31.5 -94t93.5 -36t104 35.5t54 94.5h-37q-28 -85 -118 -85q-86 0 -90 85zM605 1040h-40q-2 -7 -6.5 -17t-10.5 -18.5t-13 -14.5t-15 -6
q-18 0 -35.5 9.5t-34.5 20.5q-17 10 -34 18t-36 8q-20 0 -35.5 -9t-26.5 -23.5t-18.5 -32.5t-11.5 -36h40q2 9 6 18.5t10.5 18t14.5 14t17 5.5q14 0 30 -9t34 -20q18 -10 37 -18.5t39 -8.5t34.5 9.5t25.5 24.5q11 14 18 32t11 35z" />
    <glyph glyph-name="abrevetilde" unicode="&#x1eb5;" 
d="M62 362h63q5 32 19.5 54.5t36.5 36t49 19.5t57 6q18 0 37.5 -3t35 -11t26 -22.5t10.5 -37.5q0 -51 -15.5 -72t-46.5 -29q-30 -8 -71.5 -7.5t-92.5 -7.5q-35 -6 -67 -16.5t-57 -28.5t-39.5 -46t-14.5 -69q0 -38 12.5 -65t34 -44t51.5 -25t66 -8q54 0 103 24.5t76 69.5
l2 -2q-1 -7 -1.5 -14t-0.5 -14q2 -55 55 -55q27 0 52 5l9 49q-7 -1 -12.5 -1.5t-12.5 -0.5q-11 0 -22 3.5t-11 17.5q0 12 2 24t6 31t10.5 47.5t15.5 71.5q4 17 9.5 39.5t10.5 46t8.5 46.5t3.5 42q0 35 -18 57t-45 35t-58.5 18t-57.5 5q-41 0 -78 -10t-66 -30.5t-48.5 -52.5
t-25.5 -76zM374 276l-20 -87q-15 -69 -62 -110t-123 -41q-22 0 -43 5t-37 16.5t-25.5 29t-9.5 42.5q0 41 21 63.5t52 34t66.5 15t64.5 5.5q12 1 28.5 2t32.5 4t30.5 8.5t22.5 14.5zM212 713h-38q-2 -58 31.5 -94t93.5 -36t104 35.5t54 94.5h-37q-28 -85 -118 -85
q-86 0 -90 85zM517 862h-40q-2 -7 -6.5 -17t-10.5 -18.5t-13 -14.5t-15 -6q-18 0 -35.5 9.5t-34.5 20.5q-17 10 -34 18t-36 8q-20 0 -35.5 -9t-26.5 -23.5t-18.5 -32.5t-11.5 -36h40q2 9 6 18.5t10.5 18t14.5 14t17 5.5q14 0 30 -9t34 -20q18 -10 37 -18.5t39 -8.5t34.5 9.5
t25.5 24.5q11 14 18 32t11 35z" />
    <glyph glyph-name="Abrevedotbelow" unicode="&#x1eb6;" horiz-adv-x="630" 
d="M167 280l219 376h2l61 -376h-282zM362 714l-436 -714h75l132 222h326l36 -222h71l-130 714h-74zM336 897h-38q-2 -58 31.5 -94t93.5 -36t104 35.5t54 94.5h-37q-28 -85 -118 -85q-86 0 -90 85zM212 -42l-19 -102h63l20 102h-64z" />
    <glyph glyph-name="abrevedotbelow" unicode="&#x1eb7;" 
d="M62 362h63q5 32 19.5 54.5t36.5 36t49 19.5t57 6q18 0 37.5 -3t35 -11t26 -22.5t10.5 -37.5q0 -51 -15.5 -72t-46.5 -29q-30 -8 -71.5 -7.5t-92.5 -7.5q-35 -6 -67 -16.5t-57 -28.5t-39.5 -46t-14.5 -69q0 -38 12.5 -65t34 -44t51.5 -25t66 -8q54 0 103 24.5t76 69.5
l2 -2q-1 -7 -1.5 -14t-0.5 -14q2 -55 55 -55q27 0 52 5l9 49q-7 -1 -12.5 -1.5t-12.5 -0.5q-11 0 -22 3.5t-11 17.5q0 12 2 24t6 31t10.5 47.5t15.5 71.5q4 17 9.5 39.5t10.5 46t8.5 46.5t3.5 42q0 35 -18 57t-45 35t-58.5 18t-57.5 5q-41 0 -78 -10t-66 -30.5t-48.5 -52.5
t-25.5 -76zM374 276l-20 -87q-15 -69 -62 -110t-123 -41q-22 0 -43 5t-37 16.5t-25.5 29t-9.5 42.5q0 41 21 63.5t52 34t66.5 15t64.5 5.5q12 1 28.5 2t32.5 4t30.5 8.5t22.5 14.5zM212 713h-38q-2 -58 31.5 -94t93.5 -36t104 35.5t54 94.5h-37q-28 -85 -118 -85
q-86 0 -90 85zM131 -73l-19 -102h63l20 102h-64z" />
    <glyph glyph-name="Edotbelow" unicode="&#x1eb8;" horiz-adv-x="574" 
d="M157 714l-152 -714h488l13 58h-420l60 282h382l13 58h-383l55 258h410l13 58h-479zM246 -48l-19 -102h63l20 102h-64z" />
    <glyph glyph-name="edotbelow" unicode="&#x1eb9;" 
d="M425 294h-337q8 36 25 69t42.5 58.5t58 41t71.5 15.5q66 0 103.5 -39t37.5 -105q0 -10 -0.5 -19.5t-0.5 -20.5zM80 241h404q3 23 4 45t1 44q0 45 -13 82t-38.5 63.5t-61.5 41t-83 14.5q-66 0 -118 -28t-88 -74t-54.5 -104.5t-18.5 -120.5q0 -102 53.5 -160t156.5 -58
q93 0 151 46t84 134h-63q-18 -57 -62 -92.5t-107 -35.5q-38 0 -66.5 12.5t-47 34t-27.5 51.5t-9 65q0 22 3 40zM183 -68l-19 -102h63l20 102h-64z" />
    <glyph glyph-name="Ehookabove" unicode="&#x1eba;" horiz-adv-x="574" 
d="M157 714l-152 -714h488l13 58h-420l60 282h382l13 58h-383l55 258h410l13 58h-479zM374 764h-34l2 58l18 15q16 -8 49 -8q17 0 32.5 10t18.5 28q5 23 -9 33t-35 10q-22 0 -44 -4.5t-36 -9.5l-7 32q24 11 48.5 16t48.5 5q19 0 37.5 -5t32 -15.5t20 -26.5t1.5 -39
q-4 -23 -18.5 -37t-33.5 -20.5t-39 -7t-38 2.5z" />
    <glyph glyph-name="ehookabove" unicode="&#x1ebb;" 
d="M425 294h-337q8 36 25 69t42.5 58.5t58 41t71.5 15.5q66 0 103.5 -39t37.5 -105q0 -10 -0.5 -19.5t-0.5 -20.5zM80 241h404q3 23 4 45t1 44q0 45 -13 82t-38.5 63.5t-61.5 41t-83 14.5q-66 0 -118 -28t-88 -74t-54.5 -104.5t-18.5 -120.5q0 -102 53.5 -160t156.5 -58
q93 0 151 46t84 134h-63q-18 -57 -62 -92.5t-107 -35.5q-38 0 -66.5 12.5t-47 34t-27.5 51.5t-9 65q0 22 3 40zM286 581h-34l2 58l18 15q16 -8 49 -8q17 0 32.5 10t18.5 28q5 23 -9 33t-35 10q-22 0 -44 -4.5t-36 -9.5l-7 32q24 11 48.5 16t48.5 5q19 0 37.5 -5t32 -15.5
t20 -26.5t1.5 -39q-4 -23 -18.5 -37t-33.5 -20.5t-39 -7t-38 2.5z" />
    <glyph glyph-name="Etilde" unicode="&#x1ebc;" horiz-adv-x="574" 
d="M157 714l-152 -714h488l13 58h-420l60 282h382l13 58h-383l55 258h410l13 58h-479zM596 862h-40q-2 -7 -6.5 -17t-10.5 -18.5t-13 -14.5t-15 -6q-18 0 -35.5 9.5t-34.5 20.5q-17 10 -34 18t-36 8q-20 0 -35.5 -9t-26.5 -23.5t-18.5 -32.5t-11.5 -36h40q2 9 6 18.5
t10.5 18t14.5 14t17 5.5q14 0 30 -9t34 -20q18 -10 37 -18.5t39 -8.5t34.5 9.5t25.5 24.5q11 14 18 32t11 35z" />
    <glyph glyph-name="etilde" unicode="&#x1ebd;" 
d="M425 294h-337q8 36 25 69t42.5 58.5t58 41t71.5 15.5q66 0 103.5 -39t37.5 -105q0 -10 -0.5 -19.5t-0.5 -20.5zM80 241h404q3 23 4 45t1 44q0 45 -13 82t-38.5 63.5t-61.5 41t-83 14.5q-66 0 -118 -28t-88 -74t-54.5 -104.5t-18.5 -120.5q0 -102 53.5 -160t156.5 -58
q93 0 151 46t84 134h-63q-18 -57 -62 -92.5t-107 -35.5q-38 0 -66.5 12.5t-47 34t-27.5 51.5t-9 65q0 22 3 40zM492 684h-40q-2 -7 -6.5 -17t-10.5 -18.5t-13 -14.5t-15 -6q-18 0 -35.5 9.5t-34.5 20.5q-17 10 -34 18t-36 8q-20 0 -35.5 -9t-26.5 -23.5t-18.5 -32.5
t-11.5 -36h40q2 9 6 18.5t10.5 18t14.5 14t17 5.5q14 0 30 -9t34 -20q18 -10 37 -18.5t39 -8.5t34.5 9.5t25.5 24.5q11 14 18 32t11 35z" />
    <glyph glyph-name="Ecircumflexacute" unicode="&#x1ebe;" horiz-adv-x="574" 
d="M157 714l-152 -714h488l13 58h-420l60 282h382l13 58h-383l55 258h410l13 58h-479zM315 764l101 106l66 -106h57l-86 144h-63l-135 -144h60zM603 971l-116 -144h53l144 144h-81z" />
    <glyph glyph-name="ecircumflexacute" unicode="&#x1ebf;" 
d="M425 294h-337q8 36 25 69t42.5 58.5t58 41t71.5 15.5q66 0 103.5 -39t37.5 -105q0 -10 -0.5 -19.5t-0.5 -20.5zM80 241h404q3 23 4 45t1 44q0 45 -13 82t-38.5 63.5t-61.5 41t-83 14.5q-66 0 -118 -28t-88 -74t-54.5 -104.5t-18.5 -120.5q0 -102 53.5 -160t156.5 -58
q93 0 151 46t84 134h-63q-18 -57 -62 -92.5t-107 -35.5q-38 0 -66.5 12.5t-47 34t-27.5 51.5t-9 65q0 22 3 40zM234 580l101 106l66 -106h57l-86 144h-63l-135 -144h60zM537 802l-116 -144h53l144 144h-81z" />
    <glyph glyph-name="Ecircumflexgrave" unicode="&#x1ec0;" horiz-adv-x="574" 
d="M157 714l-152 -714h488l13 58h-420l60 282h382l13 58h-383l55 258h410l13 58h-479zM315 767l101 106l66 -106h57l-86 144h-63l-135 -144h60zM257 985h-74l106 -144h50z" />
    <glyph glyph-name="ecircumflexgrave" unicode="&#x1ec1;" 
d="M425 294h-337q8 36 25 69t42.5 58.5t58 41t71.5 15.5q66 0 103.5 -39t37.5 -105q0 -10 -0.5 -19.5t-0.5 -20.5zM80 241h404q3 23 4 45t1 44q0 45 -13 82t-38.5 63.5t-61.5 41t-83 14.5q-66 0 -118 -28t-88 -74t-54.5 -104.5t-18.5 -120.5q0 -102 53.5 -160t156.5 -58
q93 0 151 46t84 134h-63q-18 -57 -62 -92.5t-107 -35.5q-38 0 -66.5 12.5t-47 34t-27.5 51.5t-9 65q0 22 3 40zM254 583l101 106l66 -106h57l-86 144h-63l-135 -144h60zM191 796h-74l106 -144h50z" />
    <glyph glyph-name="Ecircumflexhookabove" unicode="&#x1ec2;" horiz-adv-x="574" 
d="M157 714l-152 -714h488l13 58h-420l60 282h382l13 58h-383l55 258h410l13 58h-479zM340 764l101 106l66 -106h57l-86 144h-63l-135 -144h60zM573 855h-34l2 58l18 15q16 -8 49 -8q17 0 32.5 10t18.5 28q5 23 -9 33t-35 10q-22 0 -44 -4.5t-36 -9.5l-7 32q24 11 48.5 16
t48.5 5q19 0 37.5 -5t32 -15.5t20 -26.5t1.5 -39q-4 -23 -18.5 -37t-33.5 -20.5t-39 -7t-38 2.5z" />
    <glyph glyph-name="ecircumflexhookabove" unicode="&#x1ec3;" 
d="M425 294h-337q8 36 25 69t42.5 58.5t58 41t71.5 15.5q66 0 103.5 -39t37.5 -105q0 -10 -0.5 -19.5t-0.5 -20.5zM80 241h404q3 23 4 45t1 44q0 45 -13 82t-38.5 63.5t-61.5 41t-83 14.5q-66 0 -118 -28t-88 -74t-54.5 -104.5t-18.5 -120.5q0 -102 53.5 -160t156.5 -58
q93 0 151 46t84 134h-63q-18 -57 -62 -92.5t-107 -35.5q-38 0 -66.5 12.5t-47 34t-27.5 51.5t-9 65q0 22 3 40zM253 582l101 106l66 -106h57l-86 144h-63l-135 -144h60zM486 681h-34l2 58l18 15q16 -8 49 -8q17 0 32.5 10t18.5 28q5 23 -9 33t-35 10q-22 0 -44 -4.5
t-36 -9.5l-7 32q24 11 48.5 16t48.5 5q19 0 37.5 -5t32 -15.5t20 -26.5t1.5 -39q-4 -23 -18.5 -37t-33.5 -20.5t-39 -7t-38 2.5z" />
    <glyph glyph-name="Ecircumflextilde" unicode="&#x1ec4;" horiz-adv-x="574" 
d="M157 714l-152 -714h488l13 58h-420l60 282h382l13 58h-383l55 258h410l13 58h-479zM313 767l101 106l66 -106h57l-86 144h-63l-135 -144h60zM588 1056h-40q-2 -7 -6.5 -17t-10.5 -18.5t-13 -14.5t-15 -6q-18 0 -35.5 9.5t-34.5 20.5q-17 10 -34 18t-36 8q-20 0 -35.5 -9
t-26.5 -23.5t-18.5 -32.5t-11.5 -36h40q2 9 6 18.5t10.5 18t14.5 14t17 5.5q14 0 30 -9t34 -20q18 -10 37 -18.5t39 -8.5t34.5 9.5t25.5 24.5q11 14 18 32t11 35z" />
    <glyph glyph-name="ecircumflextilde" unicode="&#x1ec5;" 
d="M425 294h-337q8 36 25 69t42.5 58.5t58 41t71.5 15.5q66 0 103.5 -39t37.5 -105q0 -10 -0.5 -19.5t-0.5 -20.5zM80 241h404q3 23 4 45t1 44q0 45 -13 82t-38.5 63.5t-61.5 41t-83 14.5q-66 0 -118 -28t-88 -74t-54.5 -104.5t-18.5 -120.5q0 -102 53.5 -160t156.5 -58
q93 0 151 46t84 134h-63q-18 -57 -62 -92.5t-107 -35.5q-38 0 -66.5 12.5t-47 34t-27.5 51.5t-9 65q0 22 3 40zM214 583l101 106l66 -106h57l-86 144h-63l-135 -144h60zM491 874h-40q-2 -7 -6.5 -17t-10.5 -18.5t-13 -14.5t-15 -6q-18 0 -35.5 9.5t-34.5 20.5q-17 10 -34 18
t-36 8q-20 0 -35.5 -9t-26.5 -23.5t-18.5 -32.5t-11.5 -36h40q2 9 6 18.5t10.5 18t14.5 14t17 5.5q14 0 30 -9t34 -20q18 -10 37 -18.5t39 -8.5t34.5 9.5t25.5 24.5q11 14 18 32t11 35z" />
    <glyph glyph-name="Ecircumflexdotbelow" unicode="&#x1ec6;" horiz-adv-x="574" 
d="M157 714l-152 -714h488l13 58h-420l60 282h382l13 58h-383l55 258h410l13 58h-479zM332 764l101 106l66 -106h57l-86 144h-63l-135 -144h60zM231 -62l-19 -102h63l20 102h-64z" />
    <glyph glyph-name="ecircumflexdotbelow" unicode="&#x1ec7;" 
d="M425 294h-337q8 36 25 69t42.5 58.5t58 41t71.5 15.5q66 0 103.5 -39t37.5 -105q0 -10 -0.5 -19.5t-0.5 -20.5zM80 241h404q3 23 4 45t1 44q0 45 -13 82t-38.5 63.5t-61.5 41t-83 14.5q-66 0 -118 -28t-88 -74t-54.5 -104.5t-18.5 -120.5q0 -102 53.5 -160t156.5 -58
q93 0 151 46t84 134h-63q-18 -57 -62 -92.5t-107 -35.5q-38 0 -66.5 12.5t-47 34t-27.5 51.5t-9 65q0 22 3 40zM239 583l101 106l66 -106h57l-86 144h-63l-135 -144h60zM168 -96l-19 -102h63l20 102h-64z" />
    <glyph glyph-name="Ihookabove" unicode="&#x1ec8;" horiz-adv-x="222" 
d="M156 714l-151 -714h68l151 714h-68zM168 764h-34l2 58l18 15q16 -8 49 -8q17 0 32.5 10t18.5 28q5 23 -9 33t-35 10q-22 0 -44 -4.5t-36 -9.5l-7 32q24 11 48.5 16t48.5 5q19 0 37.5 -5t32 -15.5t20 -26.5t1.5 -39q-4 -23 -18.5 -37t-33.5 -20.5t-39 -7t-38 2.5z" />
    <glyph glyph-name="ihookabove" unicode="&#x1ec9;" horiz-adv-x="185" 
d="M-10 0h62l111 516h-63zM109 566h-34l2 58l18 15q16 -8 49 -8q17 0 32.5 10t18.5 28q5 23 -9 33t-35 10q-22 0 -44 -4.5t-36 -9.5l-7 32q24 11 48.5 16t48.5 5q19 0 37.5 -5t32 -15.5t20 -26.5t1.5 -39q-4 -23 -18.5 -37t-33.5 -20.5t-39 -7t-38 2.5z" />
    <glyph glyph-name="Idotbelow" unicode="&#x1eca;" horiz-adv-x="222" 
d="M156 714l-151 -714h68l151 714h-68zM-15 -85l-19 -102h63l20 102h-64z" />
    <glyph glyph-name="idotbelow" unicode="&#x1ecb;" horiz-adv-x="185" 
d="M143 714l-22 -101h63l22 101h-63zM100 516l-110 -516h62l111 516h-63zM-16 -71l-19 -102h63l20 102h-64z" />
    <glyph glyph-name="Odotbelow" unicode="&#x1ecc;" horiz-adv-x="741" 
d="M327 -14q95 0 167.5 36.5t122.5 98t75.5 142t25.5 167.5q0 68 -20.5 123t-59 94t-93.5 60.5t-123 21.5q-92 0 -164 -36.5t-122 -98t-76 -140.5t-26 -165q0 -68 19.5 -124t57 -95.5t92 -61.5t124.5 -22zM650 413q0 -66 -21.5 -132.5t-62 -119t-98 -85.5t-130.5 -33
q-55 0 -99 17t-74.5 48.5t-46.5 75.5t-16 99q0 73 19.5 142.5t59.5 124t99.5 88t140.5 33.5q59 0 102 -19.5t71.5 -54t42 -81.5t13.5 -103zM275 -85l-19 -102h63l20 102h-64z" />
    <glyph glyph-name="odotbelow" unicode="&#x1ecd;" horiz-adv-x="556" 
d="M232 38q-79 0 -117 46.5t-38 121.5q0 45 14 93.5t41 88t67 65t92 25.5q76 0 114 -45t38 -117q0 -45 -13.5 -94t-40 -90t-66 -67.5t-91.5 -26.5zM302 531q-69 0 -122.5 -28t-90.5 -74t-56 -106t-19 -123q0 -98 53 -156t153 -58q72 0 125.5 29t89 77t53.5 110t18 127
q0 48 -15 85.5t-42 63.5t-64.5 39.5t-82.5 13.5zM152 -82l-19 -102h63l20 102h-64z" />
    <glyph glyph-name="Ohookabove" unicode="&#x1ece;" horiz-adv-x="741" 
d="M327 -14q95 0 167.5 36.5t122.5 98t75.5 142t25.5 167.5q0 68 -20.5 123t-59 94t-93.5 60.5t-123 21.5q-92 0 -164 -36.5t-122 -98t-76 -140.5t-26 -165q0 -68 19.5 -124t57 -95.5t92 -61.5t124.5 -22zM650 413q0 -66 -21.5 -132.5t-62 -119t-98 -85.5t-130.5 -33
q-55 0 -99 17t-74.5 48.5t-46.5 75.5t-16 99q0 73 19.5 142.5t59.5 124t99.5 88t140.5 33.5q59 0 102 -19.5t71.5 -54t42 -81.5t13.5 -103zM432 779h-34l2 58l18 15q16 -8 49 -8q17 0 32.5 10t18.5 28q5 23 -9 33t-35 10q-22 0 -44 -4.5t-36 -9.5l-7 32q24 11 48.5 16
t48.5 5q19 0 37.5 -5t32 -15.5t20 -26.5t1.5 -39q-4 -23 -18.5 -37t-33.5 -20.5t-39 -7t-38 2.5z" />
    <glyph glyph-name="ohookabove" unicode="&#x1ecf;" horiz-adv-x="556" 
d="M232 38q-79 0 -117 46.5t-38 121.5q0 45 14 93.5t41 88t67 65t92 25.5q76 0 114 -45t38 -117q0 -45 -13.5 -94t-40 -90t-66 -67.5t-91.5 -26.5zM302 531q-69 0 -122.5 -28t-90.5 -74t-56 -106t-19 -123q0 -98 53 -156t153 -58q72 0 125.5 29t89 77t53.5 110t18 127
q0 48 -15 85.5t-42 63.5t-64.5 39.5t-82.5 13.5zM295 581h-34l2 58l18 15q16 -8 49 -8q17 0 32.5 10t18.5 28q5 23 -9 33t-35 10q-22 0 -44 -4.5t-36 -9.5l-7 32q24 11 48.5 16t48.5 5q19 0 37.5 -5t32 -15.5t20 -26.5t1.5 -39q-4 -23 -18.5 -37t-33.5 -20.5t-39 -7t-38 2.5
z" />
    <glyph glyph-name="Ocircumflexacute" unicode="&#x1ed0;" horiz-adv-x="741" 
d="M327 -14q95 0 167.5 36.5t122.5 98t75.5 142t25.5 167.5q0 68 -20.5 123t-59 94t-93.5 60.5t-123 21.5q-92 0 -164 -36.5t-122 -98t-76 -140.5t-26 -165q0 -68 19.5 -124t57 -95.5t92 -61.5t124.5 -22zM650 413q0 -66 -21.5 -132.5t-62 -119t-98 -85.5t-130.5 -33
q-55 0 -99 17t-74.5 48.5t-46.5 75.5t-16 99q0 73 19.5 142.5t59.5 124t99.5 88t140.5 33.5q59 0 102 -19.5t71.5 -54t42 -81.5t13.5 -103zM379 774l101 106l66 -106h57l-86 144h-63l-135 -144h60zM678 997l-116 -144h53l144 144h-81z" />
    <glyph glyph-name="ocircumflexacute" unicode="&#x1ed1;" horiz-adv-x="556" 
d="M232 38q-79 0 -117 46.5t-38 121.5q0 45 14 93.5t41 88t67 65t92 25.5q76 0 114 -45t38 -117q0 -45 -13.5 -94t-40 -90t-66 -67.5t-91.5 -26.5zM302 531q-69 0 -122.5 -28t-90.5 -74t-56 -106t-19 -123q0 -98 53 -156t153 -58q72 0 125.5 29t89 77t53.5 110t18 127
q0 48 -15 85.5t-42 63.5t-64.5 39.5t-82.5 13.5zM263 583l101 106l66 -106h57l-86 144h-63l-135 -144h60zM563 802l-116 -144h53l144 144h-81z" />
    <glyph glyph-name="Ocircumflexgrave" unicode="&#x1ed2;" horiz-adv-x="741" 
d="M327 -14q95 0 167.5 36.5t122.5 98t75.5 142t25.5 167.5q0 68 -20.5 123t-59 94t-93.5 60.5t-123 21.5q-92 0 -164 -36.5t-122 -98t-76 -140.5t-26 -165q0 -68 19.5 -124t57 -95.5t92 -61.5t124.5 -22zM650 413q0 -66 -21.5 -132.5t-62 -119t-98 -85.5t-130.5 -33
q-55 0 -99 17t-74.5 48.5t-46.5 75.5t-16 99q0 73 19.5 142.5t59.5 124t99.5 88t140.5 33.5q59 0 102 -19.5t71.5 -54t42 -81.5t13.5 -103zM365 765l101 106l66 -106h57l-86 144h-63l-135 -144h60zM294 977h-74l106 -144h50z" />
    <glyph glyph-name="ocircumflexgrave" unicode="&#x1ed3;" horiz-adv-x="556" 
d="M232 38q-79 0 -117 46.5t-38 121.5q0 45 14 93.5t41 88t67 65t92 25.5q76 0 114 -45t38 -117q0 -45 -13.5 -94t-40 -90t-66 -67.5t-91.5 -26.5zM302 531q-69 0 -122.5 -28t-90.5 -74t-56 -106t-19 -123q0 -98 53 -156t153 -58q72 0 125.5 29t89 77t53.5 110t18 127
q0 48 -15 85.5t-42 63.5t-64.5 39.5t-82.5 13.5zM263 583l101 106l66 -106h57l-86 144h-63l-135 -144h60zM194 790h-74l106 -144h50z" />
    <glyph glyph-name="Ocircumflexhookabove" unicode="&#x1ed4;" horiz-adv-x="741" 
d="M327 -14q95 0 167.5 36.5t122.5 98t75.5 142t25.5 167.5q0 68 -20.5 123t-59 94t-93.5 60.5t-123 21.5q-92 0 -164 -36.5t-122 -98t-76 -140.5t-26 -165q0 -68 19.5 -124t57 -95.5t92 -61.5t124.5 -22zM650 413q0 -66 -21.5 -132.5t-62 -119t-98 -85.5t-130.5 -33
q-55 0 -99 17t-74.5 48.5t-46.5 75.5t-16 99q0 73 19.5 142.5t59.5 124t99.5 88t140.5 33.5q59 0 102 -19.5t71.5 -54t42 -81.5t13.5 -103zM398 779l101 106l66 -106h57l-86 144h-63l-135 -144h60zM631 899h-34l2 58l18 15q16 -8 49 -8q17 0 32.5 10t18.5 28q5 23 -9 33
t-35 10q-22 0 -44 -4.5t-36 -9.5l-7 32q24 11 48.5 16t48.5 5q19 0 37.5 -5t32 -15.5t20 -26.5t1.5 -39q-4 -23 -18.5 -37t-33.5 -20.5t-39 -7t-38 2.5z" />
    <glyph glyph-name="ocircumflexhookabove" unicode="&#x1ed5;" horiz-adv-x="556" 
d="M232 38q-79 0 -117 46.5t-38 121.5q0 45 14 93.5t41 88t67 65t92 25.5q76 0 114 -45t38 -117q0 -45 -13.5 -94t-40 -90t-66 -67.5t-91.5 -26.5zM302 531q-69 0 -122.5 -28t-90.5 -74t-56 -106t-19 -123q0 -98 53 -156t153 -58q72 0 125.5 29t89 77t53.5 110t18 127
q0 48 -15 85.5t-42 63.5t-64.5 39.5t-82.5 13.5zM262 582l101 106l66 -106h57l-86 144h-63l-135 -144h60zM495 701h-34l2 58l18 15q16 -8 49 -8q17 0 32.5 10t18.5 28q5 23 -9 33t-35 10q-22 0 -44 -4.5t-36 -9.5l-7 32q24 11 48.5 16t48.5 5q19 0 37.5 -5t32 -15.5
t20 -26.5t1.5 -39q-4 -23 -18.5 -37t-33.5 -20.5t-39 -7t-38 2.5z" />
    <glyph glyph-name="Ocircumflextilde" unicode="&#x1ed6;" horiz-adv-x="741" 
d="M327 -14q95 0 167.5 36.5t122.5 98t75.5 142t25.5 167.5q0 68 -20.5 123t-59 94t-93.5 60.5t-123 21.5q-92 0 -164 -36.5t-122 -98t-76 -140.5t-26 -165q0 -68 19.5 -124t57 -95.5t92 -61.5t124.5 -22zM650 413q0 -66 -21.5 -132.5t-62 -119t-98 -85.5t-130.5 -33
q-55 0 -99 17t-74.5 48.5t-46.5 75.5t-16 99q0 73 19.5 142.5t59.5 124t99.5 88t140.5 33.5q59 0 102 -19.5t71.5 -54t42 -81.5t13.5 -103zM390 782l101 106l66 -106h57l-86 144h-63l-135 -144h60zM674 1071h-40q-2 -7 -6.5 -17t-10.5 -18.5t-13 -14.5t-15 -6
q-18 0 -35.5 9.5t-34.5 20.5q-17 10 -34 18t-36 8q-20 0 -35.5 -9t-26.5 -23.5t-18.5 -32.5t-11.5 -36h40q2 9 6 18.5t10.5 18t14.5 14t17 5.5q14 0 30 -9t34 -20q18 -10 37 -18.5t39 -8.5t34.5 9.5t25.5 24.5q11 14 18 32t11 35z" />
    <glyph glyph-name="ocircumflextilde" unicode="&#x1ed7;" horiz-adv-x="556" 
d="M232 38q-79 0 -117 46.5t-38 121.5q0 45 14 93.5t41 88t67 65t92 25.5q76 0 114 -45t38 -117q0 -45 -13.5 -94t-40 -90t-66 -67.5t-91.5 -26.5zM302 531q-69 0 -122.5 -28t-90.5 -74t-56 -106t-19 -123q0 -98 53 -156t153 -58q72 0 125.5 29t89 77t53.5 110t18 127
q0 48 -15 85.5t-42 63.5t-64.5 39.5t-82.5 13.5zM263 583l101 106l66 -106h57l-86 144h-63l-135 -144h60zM571 879h-40q-2 -7 -6.5 -17t-10.5 -18.5t-13 -14.5t-15 -6q-18 0 -35.5 9.5t-34.5 20.5q-17 10 -34 18t-36 8q-20 0 -35.5 -9t-26.5 -23.5t-18.5 -32.5t-11.5 -36h40
q2 9 6 18.5t10.5 18t14.5 14t17 5.5q14 0 30 -9t34 -20q18 -10 37 -18.5t39 -8.5t34.5 9.5t25.5 24.5q11 14 18 32t11 35z" />
    <glyph glyph-name="Ocircumflexdotbelow" unicode="&#x1ed8;" horiz-adv-x="741" 
d="M327 -14q95 0 167.5 36.5t122.5 98t75.5 142t25.5 167.5q0 68 -20.5 123t-59 94t-93.5 60.5t-123 21.5q-92 0 -164 -36.5t-122 -98t-76 -140.5t-26 -165q0 -68 19.5 -124t57 -95.5t92 -61.5t124.5 -22zM650 413q0 -66 -21.5 -132.5t-62 -119t-98 -85.5t-130.5 -33
q-55 0 -99 17t-74.5 48.5t-46.5 75.5t-16 99q0 73 19.5 142.5t59.5 124t99.5 88t140.5 33.5q59 0 102 -19.5t71.5 -54t42 -81.5t13.5 -103zM387 782l101 106l66 -106h57l-86 144h-63l-135 -144h60zM290 -82l-19 -102h63l20 102h-64z" />
    <glyph glyph-name="ocircumflexdotbelow" unicode="&#x1ed9;" horiz-adv-x="556" 
d="M232 38q-79 0 -117 46.5t-38 121.5q0 45 14 93.5t41 88t67 65t92 25.5q76 0 114 -45t38 -117q0 -45 -13.5 -94t-40 -90t-66 -67.5t-91.5 -26.5zM302 531q-69 0 -122.5 -28t-90.5 -74t-56 -106t-19 -123q0 -98 53 -156t153 -58q72 0 125.5 29t89 77t53.5 110t18 127
q0 48 -15 85.5t-42 63.5t-64.5 39.5t-82.5 13.5zM263 583l101 106l66 -106h57l-86 144h-63l-135 -144h60zM178 -84l-19 -102h63l20 102h-64z" />
    <glyph glyph-name="Ohornacute" unicode="&#x1eda;" horiz-adv-x="885" 
d="M327 -14q-70 0 -124.5 22t-92 61.5t-57 95.5t-19.5 124q0 86 26 165t76 140.5t122 98t164 36.5q68 0 123 -21.5t93 -60.5q16 -16 28 -34q6 -5 10 -8q12 -9 24.5 -13.5t33.5 -4.5q40 -1 51 32t11 95h58q0 -48 -4.5 -81t-17 -53.5t-34.5 -30t-57 -9.5q-22 0 -42 8
q19 -53 19 -118q0 -87 -25.5 -167.5t-75.5 -142t-122.5 -98t-167.5 -36.5zM650 413q0 56 -13.5 103t-42 81.5t-71.5 54t-102 19.5q-81 0 -140.5 -33.5t-99.5 -88t-59.5 -124t-19.5 -142.5q0 -55 16 -99t46.5 -75.5t74.5 -48.5t99 -17q73 0 130.5 33t98 85.5t62 119
t21.5 132.5zM496 923l-116 -144h53l144 144h-81z" />
    <glyph glyph-name="ohornacute" unicode="&#x1edb;" horiz-adv-x="712" 
d="M302 531q45 0 82.5 -13.5t64.5 -39.5t42 -64q0 -1 1 -3l5 -4q12 -9 24.5 -13.5t33.5 -4.5q40 -1 51 32t11 95h58q0 -48 -4.5 -81t-17 -53.5t-34.5 -30t-57 -9.5q-24 0 -45 9l-13 6q2 -13 2 -28q0 -65 -18 -127t-53.5 -110t-89 -77t-125.5 -29q-100 0 -153 58t-53 156
q0 63 19 123t56 106t90.5 74t122.5 28zM232 38q52 0 91.5 26.5t66 67.5t40 90t13.5 94q0 72 -38 117t-114 45q-52 0 -92 -25.5t-67 -65t-41 -88t-14 -93.5q0 -75 38 -121.5t117 -46.5zM366 726l-116 -144h53l144 144h-81z" />
    <glyph glyph-name="Ohorngrave" unicode="&#x1edc;" horiz-adv-x="885" 
d="M327 -14q-70 0 -124.5 22t-92 61.5t-57 95.5t-19.5 124q0 86 26 165t76 140.5t122 98t164 36.5q68 0 123 -21.5t93 -60.5q16 -16 28 -34q6 -5 10 -8q12 -9 24.5 -13.5t33.5 -4.5q40 -1 51 32t11 95h58q0 -48 -4.5 -81t-17 -53.5t-34.5 -30t-57 -9.5q-22 0 -42 8
q19 -53 19 -118q0 -87 -25.5 -167.5t-75.5 -142t-122.5 -98t-167.5 -36.5zM650 413q0 56 -13.5 103t-42 81.5t-71.5 54t-102 19.5q-81 0 -140.5 -33.5t-99.5 -88t-59.5 -124t-19.5 -142.5q0 -55 16 -99t46.5 -75.5t74.5 -48.5t99 -17q73 0 130.5 33t98 85.5t62 119
t21.5 132.5zM453 923h-74l106 -144h50z" />
    <glyph glyph-name="ohorngrave" unicode="&#x1edd;" horiz-adv-x="712" 
d="M302 531q45 0 82.5 -13.5t64.5 -39.5t42 -64q0 -1 1 -3l5 -4q12 -9 24.5 -13.5t33.5 -4.5q40 -1 51 32t11 95h58q0 -48 -4.5 -81t-17 -53.5t-34.5 -30t-57 -9.5q-24 0 -45 9l-13 6q2 -13 2 -28q0 -65 -18 -127t-53.5 -110t-89 -77t-125.5 -29q-100 0 -153 58t-53 156
q0 63 19 123t56 106t90.5 74t122.5 28zM232 38q52 0 91.5 26.5t66 67.5t40 90t13.5 94q0 72 -38 117t-114 45q-52 0 -92 -25.5t-67 -65t-41 -88t-14 -93.5q0 -75 38 -121.5t117 -46.5zM344 726h-74l106 -144h50z" />
    <glyph glyph-name="Ohornhookabove" unicode="&#x1ede;" horiz-adv-x="885" 
d="M327 -14q-70 0 -124.5 22t-92 61.5t-57 95.5t-19.5 124q0 86 26 165t76 140.5t122 98t164 36.5q68 0 123 -21.5t93 -60.5q16 -16 28 -34q6 -5 10 -8q12 -9 24.5 -13.5t33.5 -4.5q40 -1 51 32t11 95h58q0 -48 -4.5 -81t-17 -53.5t-34.5 -30t-57 -9.5q-22 0 -42 8
q19 -53 19 -118q0 -87 -25.5 -167.5t-75.5 -142t-122.5 -98t-167.5 -36.5zM650 413q0 56 -13.5 103t-42 81.5t-71.5 54t-102 19.5q-81 0 -140.5 -33.5t-99.5 -88t-59.5 -124t-19.5 -142.5q0 -55 16 -99t46.5 -75.5t74.5 -48.5t99 -17q73 0 130.5 33t98 85.5t62 119
t21.5 132.5zM430 779h-34l2 58l18 15q16 -8 49 -8q17 0 32.5 10t18.5 28q5 23 -9 33t-35 10q-22 0 -44 -4.5t-36 -9.5l-7 32q24 11 48.5 16t48.5 5q19 0 37.5 -5t32 -15.5t20 -26.5t1.5 -39q-4 -23 -18.5 -37t-33.5 -20.5t-39 -7t-38 2.5z" />
    <glyph glyph-name="ohornhookabove" unicode="&#x1edf;" horiz-adv-x="712" 
d="M302 531q45 0 82.5 -13.5t64.5 -39.5t42 -64q0 -1 1 -3l5 -4q12 -9 24.5 -13.5t33.5 -4.5q40 -1 51 32t11 95h58q0 -48 -4.5 -81t-17 -53.5t-34.5 -30t-57 -9.5q-24 0 -45 9l-13 6q2 -13 2 -28q0 -65 -18 -127t-53.5 -110t-89 -77t-125.5 -29q-100 0 -153 58t-53 156
q0 63 19 123t56 106t90.5 74t122.5 28zM232 38q52 0 91.5 26.5t66 67.5t40 90t13.5 94q0 72 -38 117t-114 45q-52 0 -92 -25.5t-67 -65t-41 -88t-14 -93.5q0 -75 38 -121.5t117 -46.5zM299 581h-34l2 58l18 15q16 -8 49 -8q17 0 32.5 10t18.5 28q5 23 -9 33t-35 10
q-22 0 -44 -4.5t-36 -9.5l-7 32q24 11 48.5 16t48.5 5q19 0 37.5 -5t32 -15.5t20 -26.5t1.5 -39q-4 -23 -18.5 -37t-33.5 -20.5t-39 -7t-38 2.5z" />
    <glyph glyph-name="Ohorntilde" unicode="&#x1ee0;" horiz-adv-x="885" 
d="M327 -14q-70 0 -124.5 22t-92 61.5t-57 95.5t-19.5 124q0 86 26 165t76 140.5t122 98t164 36.5q68 0 123 -21.5t93 -60.5q16 -16 28 -34q6 -5 10 -8q12 -9 24.5 -13.5t33.5 -4.5q40 -1 51 32t11 95h58q0 -48 -4.5 -81t-17 -53.5t-34.5 -30t-57 -9.5q-22 0 -42 8
q19 -53 19 -118q0 -87 -25.5 -167.5t-75.5 -142t-122.5 -98t-167.5 -36.5zM650 413q0 56 -13.5 103t-42 81.5t-71.5 54t-102 19.5q-81 0 -140.5 -33.5t-99.5 -88t-59.5 -124t-19.5 -142.5q0 -55 16 -99t46.5 -75.5t74.5 -48.5t99 -17q73 0 130.5 33t98 85.5t62 119
t21.5 132.5zM623 880h-40q-2 -7 -6.5 -17t-10.5 -18.5t-13 -14.5t-15 -6q-18 0 -35.5 9.5t-34.5 20.5q-17 10 -34 18t-36 8q-20 0 -35.5 -9t-26.5 -23.5t-18.5 -32.5t-11.5 -36h40q2 9 6 18.5t10.5 18t14.5 14t17 5.5q14 0 30 -9t34 -20q18 -10 37 -18.5t39 -8.5t34.5 9.5
t25.5 24.5q11 14 18 32t11 35z" />
    <glyph glyph-name="ohorntilde" unicode="&#x1ee1;" horiz-adv-x="712" 
d="M302 531q45 0 82.5 -13.5t64.5 -39.5t42 -64q0 -1 1 -3l5 -4q12 -9 24.5 -13.5t33.5 -4.5q40 -1 51 32t11 95h58q0 -48 -4.5 -81t-17 -53.5t-34.5 -30t-57 -9.5q-24 0 -45 9l-13 6q2 -13 2 -28q0 -65 -18 -127t-53.5 -110t-89 -77t-125.5 -29q-100 0 -153 58t-53 156
q0 63 19 123t56 106t90.5 74t122.5 28zM232 38q52 0 91.5 26.5t66 67.5t40 90t13.5 94q0 72 -38 117t-114 45q-52 0 -92 -25.5t-67 -65t-41 -88t-14 -93.5q0 -75 38 -121.5t117 -46.5zM492 683h-40q-2 -7 -6.5 -17t-10.5 -18.5t-13 -14.5t-15 -6q-18 0 -35.5 9.5t-34.5 20.5
q-17 10 -34 18t-36 8q-20 0 -35.5 -9t-26.5 -23.5t-18.5 -32.5t-11.5 -36h40q2 9 6 18.5t10.5 18t14.5 14t17 5.5q14 0 30 -9t34 -20q18 -10 37 -18.5t39 -8.5t34.5 9.5t25.5 24.5q11 14 18 32t11 35z" />
    <glyph glyph-name="Ohorndotbelow" unicode="&#x1ee2;" horiz-adv-x="885" 
d="M327 -14q-70 0 -124.5 22t-92 61.5t-57 95.5t-19.5 124q0 86 26 165t76 140.5t122 98t164 36.5q68 0 123 -21.5t93 -60.5q16 -16 28 -34q6 -5 10 -8q12 -9 24.5 -13.5t33.5 -4.5q40 -1 51 32t11 95h58q0 -48 -4.5 -81t-17 -53.5t-34.5 -30t-57 -9.5q-22 0 -42 8
q19 -53 19 -118q0 -87 -25.5 -167.5t-75.5 -142t-122.5 -98t-167.5 -36.5zM650 413q0 56 -13.5 103t-42 81.5t-71.5 54t-102 19.5q-81 0 -140.5 -33.5t-99.5 -88t-59.5 -124t-19.5 -142.5q0 -55 16 -99t46.5 -75.5t74.5 -48.5t99 -17q73 0 130.5 33t98 85.5t62 119
t21.5 132.5zM321 -63l-19 -102h63l20 102h-64z" />
    <glyph glyph-name="ohorndotbelow" unicode="&#x1ee3;" horiz-adv-x="712" 
d="M302 531q45 0 82.5 -13.5t64.5 -39.5t42 -64q0 -1 1 -3l5 -4q12 -9 24.5 -13.5t33.5 -4.5q40 -1 51 32t11 95h58q0 -48 -4.5 -81t-17 -53.5t-34.5 -30t-57 -9.5q-24 0 -45 9l-13 6q2 -13 2 -28q0 -65 -18 -127t-53.5 -110t-89 -77t-125.5 -29q-100 0 -153 58t-53 156
q0 63 19 123t56 106t90.5 74t122.5 28zM232 38q52 0 91.5 26.5t66 67.5t40 90t13.5 94q0 72 -38 117t-114 45q-52 0 -92 -25.5t-67 -65t-41 -88t-14 -93.5q0 -75 38 -121.5t117 -46.5zM242 -63l-19 -102h63l20 102h-64z" />
    <glyph glyph-name="Udotbelow" unicode="&#x1ee4;" horiz-adv-x="704" 
d="M150 714l-96 -466q-6 -34 -6 -58q0 -56 22 -95t58 -63t81.5 -35t92.5 -11q122 0 201.5 57t105.5 183l102 488h-68l-101 -483q-19 -91 -76.5 -139.5t-154.5 -48.5q-43 0 -80 9.5t-63 29t-40 48.5t-12 68q0 35 7 62l95 454h-68zM229 -71l-19 -102h63l20 102h-64z" />
    <glyph glyph-name="udotbelow" unicode="&#x1ee5;" horiz-adv-x="537" 
d="M402 0l111 516h-63l-57 -265q-11 -49 -31 -88.5t-46.5 -67t-58 -42.5t-66.5 -15q-21 0 -40.5 5t-34.5 16t-24 29t-9 43q0 13 2 26.5t5 25.5l72 333h-63l-71 -331q-8 -40 -8 -61q0 -37 11.5 -63.5t32.5 -43t49.5 -24t62.5 -7.5q58 0 106.5 31t77.5 77h2l-18 -94h58z
M128 -82l-19 -102h63l20 102h-64z" />
    <glyph glyph-name="Uhookabove" unicode="&#x1ee6;" horiz-adv-x="704" 
d="M150 714l-96 -466q-6 -34 -6 -58q0 -56 22 -95t58 -63t81.5 -35t92.5 -11q122 0 201.5 57t105.5 183l102 488h-68l-101 -483q-19 -91 -76.5 -139.5t-154.5 -48.5q-43 0 -80 9.5t-63 29t-40 48.5t-12 68q0 35 7 62l95 454h-68zM434 764h-34l2 58l18 15q16 -8 49 -8
q17 0 32.5 10t18.5 28q5 23 -9 33t-35 10q-22 0 -44 -4.5t-36 -9.5l-7 32q24 11 48.5 16t48.5 5q19 0 37.5 -5t32 -15.5t20 -26.5t1.5 -39q-4 -23 -18.5 -37t-33.5 -20.5t-39 -7t-38 2.5z" />
    <glyph glyph-name="uhookabove" unicode="&#x1ee7;" horiz-adv-x="537" 
d="M402 0l111 516h-63l-57 -265q-11 -49 -31 -88.5t-46.5 -67t-58 -42.5t-66.5 -15q-21 0 -40.5 5t-34.5 16t-24 29t-9 43q0 13 2 26.5t5 25.5l72 333h-63l-71 -331q-8 -40 -8 -61q0 -37 11.5 -63.5t32.5 -43t49.5 -24t62.5 -7.5q58 0 106.5 31t77.5 77h2l-18 -94h58z
M300 566h-34l2 58l18 15q16 -8 49 -8q17 0 32.5 10t18.5 28q5 23 -9 33t-35 10q-22 0 -44 -4.5t-36 -9.5l-7 32q24 11 48.5 16t48.5 5q19 0 37.5 -5t32 -15.5t20 -26.5t1.5 -39q-4 -23 -18.5 -37t-33.5 -20.5t-39 -7t-38 2.5z" />
    <glyph glyph-name="Uhornacute" unicode="&#x1ee8;" horiz-adv-x="942" 
d="M218 714l-95 -454q-7 -27 -7 -62q-2 -39 12 -68t40 -48.5t63 -29t80 -9.5q97 0 154.5 48.5t76.5 139.5l101 483h68l-18 -87q12 -13 23.5 -22t24 -13.5t33.5 -4.5q40 -1 51 32t11 95h58q0 -48 -4.5 -81t-17 -53.5t-34.5 -30t-57 -9.5q-24 0 -44.5 9.5t-38.5 24.5
q-7 6 -14 13l-75 -361q-26 -126 -105.5 -183t-201.5 -57q-47 0 -92.5 11t-81.5 35t-58 63t-22 95q0 24 6 58l96 466h68zM491 908l-116 -144h53l144 144h-81z" />
    <glyph glyph-name="uhornacute" unicode="&#x1ee9;" horiz-adv-x="729" 
d="M344 0l18 94h-2q-29 -46 -77.5 -77t-106.5 -31q-34 0 -62.5 7.5t-49.5 24t-32.5 43t-11.5 63.5q0 21 8 61l71 331h63l-72 -333q-3 -12 -5 -25.5t-2 -26.5q0 -25 9 -43t24 -29t34.5 -16t40.5 -5q35 0 66.5 15t58 42.5t46.5 67t31 88.5l57 265h63l-17 -79q4 -4 7 -8
q13 -13 24.5 -22t24 -13.5t33.5 -4.5q40 -1 51 32t11 95h58q0 -48 -4.5 -81t-17 -53.5t-34.5 -30t-57 -9.5q-24 0 -44.5 9.5t-38.5 24.5q-11 10 -22 21l-85 -397h-58zM352 711l-116 -144h53l144 144h-81z" />
    <glyph glyph-name="Uhorngrave" unicode="&#x1eea;" horiz-adv-x="942" 
d="M218 714l-95 -454q-7 -27 -7 -62q-2 -39 12 -68t40 -48.5t63 -29t80 -9.5q97 0 154.5 48.5t76.5 139.5l101 483h68l-18 -87q12 -13 23.5 -22t24 -13.5t33.5 -4.5q40 -1 51 32t11 95h58q0 -48 -4.5 -81t-17 -53.5t-34.5 -30t-57 -9.5q-24 0 -44.5 9.5t-38.5 24.5
q-7 6 -14 13l-75 -361q-26 -126 -105.5 -183t-201.5 -57q-47 0 -92.5 11t-81.5 35t-58 63t-22 95q0 24 6 58l96 466h68zM449 908h-74l106 -144h50z" />
    <glyph glyph-name="uhorngrave" unicode="&#x1eeb;" horiz-adv-x="729" 
d="M344 0l18 94h-2q-29 -46 -77.5 -77t-106.5 -31q-34 0 -62.5 7.5t-49.5 24t-32.5 43t-11.5 63.5q0 21 8 61l71 331h63l-72 -333q-3 -12 -5 -25.5t-2 -26.5q0 -25 9 -43t24 -29t34.5 -16t40.5 -5q35 0 66.5 15t58 42.5t46.5 67t31 88.5l57 265h63l-17 -79q4 -4 7 -8
q13 -13 24.5 -22t24 -13.5t33.5 -4.5q40 -1 51 32t11 95h58q0 -48 -4.5 -81t-17 -53.5t-34.5 -30t-57 -9.5q-24 0 -44.5 9.5t-38.5 24.5q-11 10 -22 21l-85 -397h-58zM310 711h-74l106 -144h50z" />
    <glyph glyph-name="Uhornhookabove" unicode="&#x1eec;" horiz-adv-x="942" 
d="M218 714l-95 -454q-7 -27 -7 -62q-2 -39 12 -68t40 -48.5t63 -29t80 -9.5q97 0 154.5 48.5t76.5 139.5l101 483h68l-18 -87q12 -13 23.5 -22t24 -13.5t33.5 -4.5q40 -1 51 32t11 95h58q0 -48 -4.5 -81t-17 -53.5t-34.5 -30t-57 -9.5q-24 0 -44.5 9.5t-38.5 24.5
q-7 6 -14 13l-75 -361q-26 -126 -105.5 -183t-201.5 -57q-47 0 -92.5 11t-81.5 35t-58 63t-22 95q0 24 6 58l96 466h68zM415 764h-34l2 58l18 15q16 -8 49 -8q17 0 32.5 10t18.5 28q5 23 -9 33t-35 10q-22 0 -44 -4.5t-36 -9.5l-7 32q24 11 48.5 16t48.5 5q19 0 37.5 -5
t32 -15.5t20 -26.5t1.5 -39q-4 -23 -18.5 -37t-33.5 -20.5t-39 -7t-38 2.5z" />
    <glyph glyph-name="uhornhookabove" unicode="&#x1eed;" horiz-adv-x="729" 
d="M344 0l18 94h-2q-29 -46 -77.5 -77t-106.5 -31q-34 0 -62.5 7.5t-49.5 24t-32.5 43t-11.5 63.5q0 21 8 61l71 331h63l-72 -333q-3 -12 -5 -25.5t-2 -26.5q0 -25 9 -43t24 -29t34.5 -16t40.5 -5q35 0 66.5 15t58 42.5t46.5 67t31 88.5l57 265h63l-17 -79q4 -4 7 -8
q13 -13 24.5 -22t24 -13.5t33.5 -4.5q40 -1 51 32t11 95h58q0 -48 -4.5 -81t-17 -53.5t-34.5 -30t-57 -9.5q-24 0 -44.5 9.5t-38.5 24.5q-11 10 -22 21l-85 -397h-58zM296 566h-34l2 58l18 15q16 -8 49 -8q17 0 32.5 10t18.5 28q5 23 -9 33t-35 10q-22 0 -44 -4.5t-36 -9.5
l-7 32q24 11 48.5 16t48.5 5q19 0 37.5 -5t32 -15.5t20 -26.5t1.5 -39q-4 -23 -18.5 -37t-33.5 -20.5t-39 -7t-38 2.5z" />
    <glyph glyph-name="Uhorntilde" unicode="&#x1eee;" horiz-adv-x="942" 
d="M218 714l-95 -454q-7 -27 -7 -62q-2 -39 12 -68t40 -48.5t63 -29t80 -9.5q97 0 154.5 48.5t76.5 139.5l101 483h68l-18 -87q12 -13 23.5 -22t24 -13.5t33.5 -4.5q40 -1 51 32t11 95h58q0 -48 -4.5 -81t-17 -53.5t-34.5 -30t-57 -9.5q-24 0 -44.5 9.5t-38.5 24.5
q-7 6 -14 13l-75 -361q-26 -126 -105.5 -183t-201.5 -57q-47 0 -92.5 11t-81.5 35t-58 63t-22 95q0 24 6 58l96 466h68zM607 865h-40q-2 -7 -6.5 -17t-10.5 -18.5t-13 -14.5t-15 -6q-18 0 -35.5 9.5t-34.5 20.5q-17 10 -34 18t-36 8q-20 0 -35.5 -9t-26.5 -23.5t-18.5 -32.5
t-11.5 -36h40q2 9 6 18.5t10.5 18t14.5 14t17 5.5q14 0 30 -9t34 -20q18 -10 37 -18.5t39 -8.5t34.5 9.5t25.5 24.5q11 14 18 32t11 35z" />
    <glyph glyph-name="uhorntilde" unicode="&#x1eef;" horiz-adv-x="729" 
d="M344 0l18 94h-2q-29 -46 -77.5 -77t-106.5 -31q-34 0 -62.5 7.5t-49.5 24t-32.5 43t-11.5 63.5q0 21 8 61l71 331h63l-72 -333q-3 -12 -5 -25.5t-2 -26.5q0 -25 9 -43t24 -29t34.5 -16t40.5 -5q35 0 66.5 15t58 42.5t46.5 67t31 88.5l57 265h63l-17 -79q4 -4 7 -8
q13 -13 24.5 -22t24 -13.5t33.5 -4.5q40 -1 51 32t11 95h58q0 -48 -4.5 -81t-17 -53.5t-34.5 -30t-57 -9.5q-24 0 -44.5 9.5t-38.5 24.5q-11 10 -22 21l-85 -397h-58zM489 668h-40q-2 -7 -6.5 -17t-10.5 -18.5t-13 -14.5t-15 -6q-18 0 -35.5 9.5t-34.5 20.5q-17 10 -34 18
t-36 8q-20 0 -35.5 -9t-26.5 -23.5t-18.5 -32.5t-11.5 -36h40q2 9 6 18.5t10.5 18t14.5 14t17 5.5q14 0 30 -9t34 -20q18 -10 37 -18.5t39 -8.5t34.5 9.5t25.5 24.5q11 14 18 32t11 35z" />
    <glyph glyph-name="Uhorndotbelow" unicode="&#x1ef0;" horiz-adv-x="942" 
d="M218 714l-95 -454q-7 -27 -7 -62q-2 -39 12 -68t40 -48.5t63 -29t80 -9.5q97 0 154.5 48.5t76.5 139.5l101 483h68l-18 -87q12 -13 23.5 -22t24 -13.5t33.5 -4.5q40 -1 51 32t11 95h58q0 -48 -4.5 -81t-17 -53.5t-34.5 -30t-57 -9.5q-24 0 -44.5 9.5t-38.5 24.5
q-7 6 -14 13l-75 -361q-26 -126 -105.5 -183t-201.5 -57q-47 0 -92.5 11t-81.5 35t-58 63t-22 95q0 24 6 58l96 466h68zM239 -63l-19 -102h63l20 102h-64z" />
    <glyph glyph-name="uhorndotbelow" unicode="&#x1ef1;" horiz-adv-x="729" 
d="M344 0l18 94h-2q-29 -46 -77.5 -77t-106.5 -31q-34 0 -62.5 7.5t-49.5 24t-32.5 43t-11.5 63.5q0 21 8 61l71 331h63l-72 -333q-3 -12 -5 -25.5t-2 -26.5q0 -25 9 -43t24 -29t34.5 -16t40.5 -5q35 0 66.5 15t58 42.5t46.5 67t31 88.5l57 265h63l-17 -79q4 -4 7 -8
q13 -13 24.5 -22t24 -13.5t33.5 -4.5q40 -1 51 32t11 95h58q0 -48 -4.5 -81t-17 -53.5t-34.5 -30t-57 -9.5q-24 0 -44.5 9.5t-38.5 24.5q-11 10 -22 21l-85 -397h-58zM152 -63l-19 -102h63l20 102h-64z" />
    <glyph glyph-name="Ygrave" unicode="&#x1ef2;" horiz-adv-x="574" 
d="M598 714l-299 -362l-161 362h-72l190 -419l-65 -295h69l63 288l358 426h-83zM319 885h-74l106 -144h50z" />
    <glyph glyph-name="ygrave" unicode="&#x1ef3;" horiz-adv-x="463" 
d="M-42 -134l-12 -51q14 -1 27.5 -3t26.5 -2q85 0 125 69l367 637h-68l-238 -438h-2l-74 438h-66l95 -516l-47 -81q-12 -20 -32 -38t-49 -18q-26 0 -53 3zM214 689h-74l106 -144h50z" />
    <glyph glyph-name="Ydotbelow" unicode="&#x1ef4;" horiz-adv-x="574" 
d="M598 714l-299 -362l-161 362h-72l190 -419l-65 -295h69l63 288l358 426h-83zM179 -77l-19 -102h63l20 102h-64z" />
    <glyph glyph-name="ydotbelow" unicode="&#x1ef5;" horiz-adv-x="463" 
d="M-42 -134l-12 -51q14 -1 27.5 -3t26.5 -2q85 0 125 69l367 637h-68l-238 -438h-2l-74 438h-66l95 -516l-47 -81q-12 -20 -32 -38t-49 -18q-26 0 -53 3zM83 -233l-19 -102h63l20 102h-64z" />
    <glyph glyph-name="Yhookabove" unicode="&#x1ef6;" horiz-adv-x="574" 
d="M598 714l-299 -362l-161 362h-72l190 -419l-65 -295h69l63 288l358 426h-83zM357 764h-34l2 58l18 15q16 -8 49 -8q17 0 32.5 10t18.5 28q5 23 -9 33t-35 10q-22 0 -44 -4.5t-36 -9.5l-7 32q24 11 48.5 16t48.5 5q19 0 37.5 -5t32 -15.5t20 -26.5t1.5 -39
q-4 -23 -18.5 -37t-33.5 -20.5t-39 -7t-38 2.5z" />
    <glyph glyph-name="yhookabove" unicode="&#x1ef7;" horiz-adv-x="463" 
d="M-42 -134l-12 -51q14 -1 27.5 -3t26.5 -2q85 0 125 69l367 637h-68l-238 -438h-2l-74 438h-66l95 -516l-47 -81q-12 -20 -32 -38t-49 -18q-26 0 -53 3zM271 566h-34l2 58l18 15q16 -8 49 -8q17 0 32.5 10t18.5 28q5 23 -9 33t-35 10q-22 0 -44 -4.5t-36 -9.5l-7 32
q24 11 48.5 16t48.5 5q19 0 37.5 -5t32 -15.5t20 -26.5t1.5 -39q-4 -23 -18.5 -37t-33.5 -20.5t-39 -7t-38 2.5z" />
    <glyph glyph-name="Ytilde" unicode="&#x1ef8;" horiz-adv-x="574" 
d="M598 714l-299 -362l-161 362h-72l190 -419l-65 -295h69l63 288l358 426h-83zM521 857h-40q-2 -7 -6.5 -17t-10.5 -18.5t-13 -14.5t-15 -6q-18 0 -35.5 9.5t-34.5 20.5q-17 10 -34 18t-36 8q-20 0 -35.5 -9t-26.5 -23.5t-18.5 -32.5t-11.5 -36h40q2 9 6 18.5t10.5 18
t14.5 14t17 5.5q14 0 30 -9t34 -20q18 -10 37 -18.5t39 -8.5t34.5 9.5t25.5 24.5q11 14 18 32t11 35z" />
    <glyph glyph-name="ytilde" unicode="&#x1ef9;" horiz-adv-x="463" 
d="M-42 -134l-12 -51q14 -1 27.5 -3t26.5 -2q85 0 125 69l367 637h-68l-238 -438h-2l-74 438h-66l95 -516l-47 -81q-12 -20 -32 -38t-49 -18q-26 0 -53 3zM429 672h-40q-2 -7 -6.5 -17t-10.5 -18.5t-13 -14.5t-15 -6q-18 0 -35.5 9.5t-34.5 20.5q-17 10 -34 18t-36 8
q-20 0 -35.5 -9t-26.5 -23.5t-18.5 -32.5t-11.5 -36h40q2 9 6 18.5t10.5 18t14.5 14t17 5.5q14 0 30 -9t34 -20q18 -10 37 -18.5t39 -8.5t34.5 9.5t25.5 24.5q11 14 18 32t11 35z" />
    <glyph glyph-name="uni20AB.dong" unicode="&#x20ab;" horiz-adv-x="574" 
d="M509 626l19 88h63l-19 -88h103l-10 -53h-104l-123 -573h-61l23 93h-2q-33 -51 -76.5 -79t-111.5 -28q-99 0 -147.5 57.5t-48.5 152.5q0 59 19.5 119t56.5 108t89 78t117 30q61 0 106 -25.5t62 -86.5h2l32 154h-94l12 53h93zM216 38q54 0 96 27.5t70.5 70t43.5 94t15 99.5
q0 69 -37.5 109t-106.5 40q-54 0 -95.5 -27t-69 -69t-41.5 -92.5t-14 -97.5q0 -66 34 -110t105 -44zM-58 -136v53h503v-53h-503z" />
  </font>
</defs>
</svg>
