<?xml version="1.0" standalone="no"?>
<!DOCTYPE svg PUBLIC "-//W3C//DTD SVG 1.1//EN" "http://www.w3.org/Graphics/SVG/1.1/DTD/svg11.dtd" >
<svg xmlns="http://www.w3.org/2000/svg" xmlns:xlink="http://www.w3.org/1999/xlink" version="1.1">
<metadata>
Created by FontForge 20170731 at Tue May 14 22:06:50 2013
 By Aleksey,,,
Copyright (c) 1981, 1982, 1983, 1989 and 1993, Linotype Library GmbH or its affiliated Linotype-Hell companies. All rights reserved.

The digitally encoded machine readable software for producing the Typefaces licensed to you is now the property of Heidelberger Druckmaschinen AG and its licensors, and may not be reproduced, used, displayed, modified, disclosed or transferred without the express written approval of Heidelberger Druckmaschinen AG.

Copyright (c) 1988, 1990, 1993 Adobe Systems Incorporated. All Rights Reserved.
</metadata>
<defs>
<font id="HelveticaNeue-Italic" horiz-adv-x="556" >
  <font-face 
    font-family="Helvetica Neue"
    font-weight="400"
    font-style="italic"
    font-stretch="normal"
    units-per-em="1000"
    panose-1="2 0 5 3 0 0 0 9 0 4"
    ascent="800"
    descent="-200"
    bbox="-67 -360 934 1051"
    underline-thickness="50"
    underline-position="-175"
    slope="-12"
    unicode-range="U+000A-20AB"
  />
<missing-glyph horiz-adv-x="500" 
d="M431 37v641h-350v-641h350zM50 712h412v-712h-412v712z" />
    <glyph glyph-name=".notdef" horiz-adv-x="500" 
d="M431 37v641h-350v-641h350zM50 712h412v-712h-412v712z" />
    <glyph glyph-name=".null" horiz-adv-x="0" 
 />
    <glyph glyph-name="nonmarkingreturn" horiz-adv-x="333" 
 />
    <glyph glyph-name="NULL" horiz-adv-x="0" 
 />
    <glyph glyph-name="space" unicode="&#xa;" horiz-adv-x="278" 
 />
    <glyph glyph-name="space" unicode=" " horiz-adv-x="278" 
 />
    <glyph glyph-name="uni0102" unicode="&#x102;" horiz-adv-x="648" 
d="M-67 0l430 714h105l128 -714h-105l-33 215h-302l-125 -215h-98zM203 295h242l-48 333h-2zM304 919h50q6 -83 94 -83q40 0 65.5 20t51.5 63h51q-25 -65 -73.5 -101.5t-113.5 -36.5q-136 0 -125 138z" />
    <glyph glyph-name="uni0103" unicode="&#x103;" horiz-adv-x="537" 
d="M476 68l-14 -66q-26 -14 -64 -14q-72 0 -55 80q-86 -80 -199 -80q-76 0 -115.5 35.5t-24.5 109.5q9 42 29 71.5t51.5 46.5t59.5 25.5t69 15.5q22 4 54.5 8.5t50.5 8t38.5 10t31.5 18.5t15 31q11 50 -18 68t-79 18q-124 0 -150 -98h-85q23 90 92 131.5t164 41.5
q40 0 69.5 -5.5t56 -20t37 -44t1.5 -72.5l-57 -266q-4 -19 -5 -26.5t-0.5 -16.5t5.5 -12t15 -3q9 0 27 5zM362 180l18 87q-24 -15 -72.5 -22.5t-89 -11.5t-77 -27t-46.5 -67q-9 -39 16 -57.5t68 -18.5q77 0 125 37t58 80zM210 729h50q8 -83 95 -83q40 0 65 20t51 63h51
q-25 -65 -73.5 -101.5t-113.5 -36.5q-133 0 -125 138z" />
    <glyph glyph-name="uni0110" unicode="&#x110;" horiz-adv-x="704" 
d="M18 0l72 341h-70l14 64h70l65 309h245q167 0 237 -85t34 -255q-80 -374 -422 -374h-245zM247 634l-48 -229h214l-14 -64h-214l-55 -261h158q26 0 51 3.5t65.5 20t72.5 44.5t63 83t47 130q28 134 -12.5 203.5t-167.5 69.5h-160z" />
    <glyph glyph-name="uni0111" unicode="&#x111;" horiz-adv-x="598" 
d="M334 583l12 53h170l16 78h85l-16 -78h86l-12 -53h-86l-123 -583h-85l14 70h-2q-58 -82 -182 -82q-114 0 -159.5 78t-20.5 194t102.5 192.5t190.5 76.5q46 0 90 -19.5t60 -61.5h2l28 135h-170zM119 254q-18 -78 12.5 -134.5t107.5 -56.5q80 0 130.5 57t68.5 138
q17 84 -11 140t-110 56q-80 0 -130 -57.5t-68 -142.5z" />
    <glyph glyph-name="uni0128" unicode="&#x128;" horiz-adv-x="259" 
d="M22 0l151 714h95l-151 -714h-95zM384 907h52q-15 -44 -49 -79q-32 -32 -75 -32q-29 0 -71 20q-49 19 -62 19q-19 0 -34 -12q-9 -7 -24 -30h-52q45 110 129 110q28 0 69.5 -20t61.5 -20q34 0 55 44z" />
    <glyph glyph-name="uni0129" unicode="&#x129;" horiz-adv-x="222" 
d="M94 0h-85l109 517h85zM325 717h52q-15 -44 -49 -79q-32 -32 -76 -32q-32 0 -70 20q-49 19 -62 19q-19 0 -34 -12q-9 -7 -24 -30h-52q45 110 129 110q28 0 69.5 -20t61.5 -20q31 0 55 44z" />
    <glyph glyph-name="uni0168" unicode="&#x168;" horiz-adv-x="722" 
d="M739 714l-97 -456q-29 -136 -116 -205.5t-223 -69.5q-142 0 -203 68t-32 207l97 456h95l-97 -456q-20 -96 20.5 -145.5t136.5 -49.5q91 0 149 49.5t78 145.5l97 456h95zM616 907h52q-15 -44 -49 -79q-32 -32 -75 -32q-29 0 -71 20q-49 19 -62 19q-19 0 -34 -12
q-9 -7 -24 -30h-52q45 110 129 110q28 0 69.5 -20t61.5 -20q34 0 55 44z" />
    <glyph glyph-name="uni0169" unicode="&#x169;" 
d="M541 517l-109 -517h-80l17 82h-2q-73 -94 -188 -94q-179 0 -138 189l72 340h85l-74 -350q-11 -48 11.5 -76t71.5 -28q75 0 123.5 44.5t63.5 117.5l62 292h85zM491 717h52q-15 -44 -49 -79q-32 -32 -76 -32q-32 0 -70 20q-49 19 -62 19q-19 0 -34 -12q-9 -7 -24 -30h-52
q45 110 129 110q28 0 69.5 -20t61.5 -20q31 0 55 44z" />
    <glyph glyph-name="uni01A0" unicode="&#x1a0;" horiz-adv-x="889" 
d="M756 371q-35 -162 -137 -267q-123 -125 -300 -125q-167 0 -237 109q-62 108 -28 267q32 147 125 249q121 133 303 133q177 0 246 -108q15 -3 33 1q25 2 44 9l7 3l6 4l-10 48l107 41l19 -96l-99 -38q-45 -17 -83 -20q31 -85 4 -210zM657 370q27 126 -23 203t-164 77
q-113 0 -199 -76q-85 -76 -117 -225q-26 -121 17 -202t179 -81q128 0 205 92q76 91 102 212z" />
    <glyph glyph-name="uni01A1" unicode="&#x1a1;" horiz-adv-x="676" 
d="M513 272q-25 -125 -106 -209q-79 -82 -208 -82q-108 0 -156 73t-21 196q28 132 111 210q84 78 196 78q102 0 157 -67q8 -9 16 -24q4 0 16 2q23 2 44 9l6 3q4 2 6 4l-9 49l106 41l20 -97l-100 -38q-35 -14 -73 -19q11 -56 -5 -129zM421 270q15 74 2 119q-23 72 -113 72
q-81 0 -131 -62q-49 -61 -67 -148q-18 -84 7 -139t105 -55q86 0 133 66q48 68 64 147z" />
    <glyph glyph-name="uni01AF" unicode="&#x1af;" horiz-adv-x="862" 
d="M175 717h99l-94 -443q-17 -79 1 -130q27 -78 130 -78q124 0 185 84q35 47 51 124l94 443h99l-13 -62q4 0 18 2q21 1 44 10l6 2q4 2 6 4l-10 49l107 41l19 -97l-99 -38q-55 -21 -101 -20l-63 -294q-29 -134 -79 -203q-93 -130 -275 -130q-181 0 -218 130q-21 72 7 203z
" />
    <glyph glyph-name="uni01B0" unicode="&#x1b0;" horiz-adv-x="698" 
d="M113 523h90l-74 -347q-9 -40 -1 -66q14 -47 77 -47q92 0 143 83q27 41 44 120l55 257h87l-16 -76q6 0 22 2q23 2 44 9l6 3q4 2 6 4l-9 49l106 41l20 -97l-100 -38q-55 -22 -105 -20l-85 -400h-83l17 77q-24 -30 -53 -50q-59 -41 -130 -41q-112 0 -138 75q-13 38 1 106z
" />
    <glyph glyph-name="uni1EA0" unicode="&#x1ea0;" horiz-adv-x="667" 
d="M222 294h224l-42 317zM-45 0l422 717h110l108 -717h-107l-27 215h-284l-123 -215h-99zM197 -146l22 102h91l-22 -102h-91z" />
    <glyph glyph-name="uni1EA1" unicode="&#x1ea1;" 
d="M178 57q48 0 93 22q82 34 99 116l15 71q-37 -20 -98 -27l-54 -7q-48 -6 -76 -20q-45 -23 -56 -73q-8 -37 14.5 -59.5t62.5 -22.5zM208 299l144 18q32 5 45 25q8 11 13 34q10 44 -17 64.5t-88 20.5q-69 0 -105 -37q-20 -18 -34 -61h-82q22 97 90 135q70 38 149 38
q93 0 142 -36q50 -35 35 -109l-64 -301q-3 -16 1 -23t21 -7q4 0 30 2l-14 -64q-33 -9 -63 -9q-45 0 -59 32q-7 15 -5 48q-36 -37 -92 -62t-114 -25q-72 0 -109 44t-23 111q15 71 67.5 112t131.5 50zM158 -164l21 102h92l-21 -102h-92z" />
    <glyph glyph-name="uni1EA2" unicode="&#x1ea2;" horiz-adv-x="667" 
d="M222 294h224l-42 317zM-45 0l422 717h110l108 -717h-107l-27 215h-284l-123 -215h-99zM477 863q-10 9 -32 9q-11 0 -32 -3l7 39q39 3 41 3q56 0 75 -39q8 -13 3 -39q-5 -22 -24.5 -41t-53.5 -24l-7 -22h-43l8 37q29 3 48.5 17t22.5 32q5 17 -13 31z" />
    <glyph glyph-name="uni1EA3" unicode="&#x1ea3;" 
d="M178 57q48 0 93 22q82 34 99 116l15 71q-37 -20 -98 -27l-54 -7q-48 -6 -76 -20q-45 -23 -56 -73q-8 -37 14.5 -59.5t62.5 -22.5zM208 299l144 18q32 5 45 25q8 11 13 34q10 44 -17 64.5t-88 20.5q-69 0 -105 -37q-20 -18 -34 -61h-82q22 97 90 135q70 38 149 38
q93 0 142 -36q50 -35 35 -109l-64 -301q-3 -16 1 -23t21 -7q4 0 30 2l-14 -64q-33 -9 -63 -9q-45 0 -59 32q-7 15 -5 48q-36 -37 -92 -62t-114 -25q-72 0 -109 44t-23 111q15 71 67.5 112t131.5 50zM382 679q-10 9 -32 9q-12 0 -33 -3l6 39q4 0 19.5 1.5t23.5 1.5
q56 0 75 -39q7 -19 2 -39q-2 -21 -22.5 -40t-55.5 -26l-6 -21h-43l8 37q28 3 48 17t23 31q4 18 -13 32z" />
    <glyph glyph-name="uni1EA4" unicode="&#x1ea4;" horiz-adv-x="667" 
d="M222 294h224l-42 317zM-45 0l422 717h110l108 -717h-107l-27 215h-284l-123 -215h-99zM421 884h93l70 -141h-80l-46 93l-86 -93h-80zM663 984h108l-160 -141h-68z" />
    <glyph glyph-name="uni1EA5" unicode="&#x1ea5;" 
d="M178 57q48 0 93 22q82 34 99 116l15 71q-37 -20 -98 -27l-54 -7q-48 -6 -76 -20q-45 -23 -56 -73q-8 -37 14.5 -59.5t62.5 -22.5zM208 299l144 18q32 5 45 25q8 11 13 34q10 44 -17 64.5t-88 20.5q-69 0 -105 -37q-20 -18 -34 -61h-82q22 97 90 135q70 38 149 38
q93 0 142 -36q50 -35 35 -109l-64 -301q-3 -16 1 -23t21 -7q4 0 30 2l-14 -64q-33 -9 -63 -9q-45 0 -59 32q-7 15 -5 48q-36 -37 -92 -62t-114 -25q-72 0 -109 44t-23 111q15 71 67.5 112t131.5 50zM320 715h92l71 -141h-80l-47 93l-85 -93h-80zM536 814h108l-160 -141h-68z
" />
    <glyph glyph-name="uni1EA6" unicode="&#x1ea6;" horiz-adv-x="667" 
d="M222 294h224l-42 317zM-45 0l422 717h110l108 -717h-107l-27 215h-284l-123 -215h-99zM408 881h93l70 -141h-80l-46 93l-86 -93h-80zM266 953l58 -141h-66l-101 141h109z" />
    <glyph glyph-name="uni1EA7" unicode="&#x1ea7;" 
d="M178 57q48 0 93 22q82 34 99 116l15 71q-37 -20 -98 -27l-54 -7q-48 -6 -76 -20q-45 -23 -56 -73q-8 -37 14.5 -59.5t62.5 -22.5zM208 299l144 18q32 5 45 25q8 11 13 34q10 44 -17 64.5t-88 20.5q-69 0 -105 -37q-20 -18 -34 -61h-82q22 97 90 135q70 38 149 38
q93 0 142 -36q50 -35 35 -109l-64 -301q-3 -16 1 -23t21 -7q4 0 30 2l-14 -64q-33 -9 -63 -9q-45 0 -59 32q-7 15 -5 48q-36 -37 -92 -62t-114 -25q-72 0 -109 44t-23 111q15 71 67.5 112t131.5 50zM317 715h93l70 -141h-80l-47 93l-84 -93h-80zM194 809l59 -141h-67
l-101 141h109z" />
    <glyph glyph-name="uni1EA8" unicode="&#x1ea8;" horiz-adv-x="667" 
d="M222 294h224l-42 317zM-45 0l422 717h110l108 -717h-107l-27 215h-284l-123 -215h-99zM423 889h93l70 -141h-80l-46 94l-86 -94h-80zM627 961q-10 9 -32 9q-12 0 -33 -3l7 39q3 0 18.5 1.5t23.5 1.5q56 0 75 -39q7 -18 3 -38q-16 -53 -78 -66l-7 -22h-43l8 37q28 3 48 17
t23 32q5 18 -13 31z" />
    <glyph glyph-name="uni1EA9" unicode="&#x1ea9;" 
d="M178 57q48 0 93 22q82 34 99 116l15 71q-37 -20 -98 -27l-54 -7q-48 -6 -76 -20q-45 -23 -56 -73q-8 -37 14.5 -59.5t62.5 -22.5zM208 299l144 18q32 5 45 25q8 11 13 34q10 44 -17 64.5t-88 20.5q-69 0 -105 -37q-20 -18 -34 -61h-82q22 97 90 135q70 38 149 38
q93 0 142 -36q50 -35 35 -109l-64 -301q-3 -16 1 -23t21 -7q4 0 30 2l-14 -64q-33 -9 -63 -9q-45 0 -59 32q-7 15 -5 48q-36 -37 -92 -62t-114 -25q-72 0 -109 44t-23 111q15 71 67.5 112t131.5 50zM312 725h93l70 -141h-80l-46 94l-86 -94h-80zM515 789q-12 9 -32 9
q-12 0 -33 -3l7 39q3 0 18.5 1.5t23.5 1.5q56 0 75 -39q8 -15 3 -38q-11 -51 -78 -66l-7 -22h-43l8 37q29 3 48.5 17t23.5 32q5 19 -14 31z" />
    <glyph glyph-name="uni1EAA" unicode="&#x1eaa;" horiz-adv-x="667" 
d="M222 294h224l-42 317zM-45 0l422 717h110l108 -717h-107l-27 215h-284l-123 -215h-99zM413 892h92l70 -142h-80l-46 94l-86 -94h-79zM522 989q22 -12 44 -12q28 0 43 17q9 9 15 27h52q-43 -108 -126 -108q-28 0 -55 12l-24 10q-41 16 -61 16q-36 0 -53 -45h-48
q13 35 34 63q37 45 92 45q33 0 87 -25z" />
    <glyph glyph-name="uni1EAB" unicode="&#x1eab;" 
d="M178 57q48 0 93 22q82 34 99 116l15 71q-37 -20 -98 -27l-54 -7q-48 -6 -76 -20q-45 -23 -56 -73q-8 -37 14.5 -59.5t62.5 -22.5zM208 299l144 18q32 5 45 25q8 11 13 34q10 44 -17 64.5t-88 20.5q-69 0 -105 -37q-20 -18 -34 -61h-82q22 97 90 135q70 38 149 38
q93 0 142 -36q50 -35 35 -109l-64 -301q-3 -16 1 -23t21 -7q4 0 30 2l-14 -64q-33 -9 -63 -9q-45 0 -59 32q-7 15 -5 48q-36 -37 -92 -62t-114 -25q-72 0 -109 44t-23 111q15 71 67.5 112t131.5 50zM311 709h92l70 -141h-80l-46 94l-86 -94h-79zM404 818q28 -13 46 -13
q27 0 42 17q8 11 15 28h51q-41 -109 -126 -109q-24 0 -54 13l-24 9q-45 17 -62 17q-36 0 -52 -46h-48q15 40 34 63q38 45 92 45q38 0 86 -24z" />
    <glyph glyph-name="uni1EAC" unicode="&#x1eac;" horiz-adv-x="667" 
d="M222 294h224l-42 317zM-45 0l422 717h110l108 -717h-107l-27 215h-284l-123 -215h-99zM413 892h92l70 -142h-80l-46 94l-86 -94h-79zM209 -146l22 102h91l-22 -102h-91z" />
    <glyph glyph-name="uni1EAD" unicode="&#x1ead;" 
d="M178 57q48 0 93 22q82 34 99 116l15 71q-37 -20 -98 -27l-54 -7q-48 -6 -76 -20q-45 -23 -56 -73q-8 -37 14.5 -59.5t62.5 -22.5zM208 299l144 18q32 5 45 25q8 11 13 34q10 44 -17 64.5t-88 20.5q-69 0 -105 -37q-20 -18 -34 -61h-82q22 97 90 135q70 38 149 38
q93 0 142 -36q50 -35 35 -109l-64 -301q-3 -16 1 -23t21 -7q4 0 30 2l-14 -64q-33 -9 -63 -9q-45 0 -59 32q-7 15 -5 48q-36 -37 -92 -62t-114 -25q-72 0 -109 44t-23 111q15 71 67.5 112t131.5 50zM328 728h93l69 -141h-80l-46 94l-86 -94h-79zM144 -164l21 102h92
l-21 -102h-92z" />
    <glyph glyph-name="uni1EAE" unicode="&#x1eae;" horiz-adv-x="667" 
d="M222 294h224l-42 317zM-45 0l422 717h110l108 -717h-107l-27 215h-284l-123 -215h-99zM324 881h50q2 -32 13 -48q21 -28 79 -28q54 0 86 28q18 17 33 48h48q-47 -135 -190 -135q-87 0 -112 58q-12 29 -7 77zM541 1021h109l-161 -141h-67z" />
    <glyph glyph-name="uni1EAF" unicode="&#x1eaf;" 
d="M178 57q48 0 93 22q82 34 99 116l15 71q-37 -20 -98 -27l-54 -7q-48 -6 -76 -20q-45 -23 -56 -73q-8 -37 14.5 -59.5t62.5 -22.5zM208 299l144 18q32 5 45 25q8 11 13 34q10 44 -17 64.5t-88 20.5q-69 0 -105 -37q-20 -18 -34 -61h-82q22 97 90 135q70 38 149 38
q93 0 142 -36q50 -35 35 -109l-64 -301q-3 -16 1 -23t21 -7q4 0 30 2l-14 -64q-33 -9 -63 -9q-45 0 -59 32q-7 15 -5 48q-36 -37 -92 -62t-114 -25q-72 0 -109 44t-23 111q15 71 67.5 112t131.5 50zM234 726h49q2 -32 13 -48q21 -29 78 -29q53 0 87 29q18 16 33 48h48
q-46 -135 -189 -135q-87 0 -112 58q-13 29 -7 77zM460 873h109l-161 -142h-67z" />
    <glyph glyph-name="uni1EB0" unicode="&#x1eb0;" horiz-adv-x="667" 
d="M222 294h224l-42 317zM-45 0l422 717h110l108 -717h-107l-27 215h-284l-123 -215h-99zM318 902h50q1 -30 13 -48q21 -28 79 -28q54 0 85 28q19 16 33 48h49q-47 -135 -189 -135q-87 0 -112 58q-14 31 -8 77zM464 1040l59 -141h-67l-101 141h109z" />
    <glyph glyph-name="uni1EB1" unicode="&#x1eb1;" 
d="M178 57q48 0 93 22q82 34 99 116l15 71q-37 -20 -98 -27l-54 -7q-48 -6 -76 -20q-45 -23 -56 -73q-8 -37 14.5 -59.5t62.5 -22.5zM208 299l144 18q32 5 45 25q8 11 13 34q10 44 -17 64.5t-88 20.5q-69 0 -105 -37q-20 -18 -34 -61h-82q22 97 90 135q70 38 149 38
q93 0 142 -36q50 -35 35 -109l-64 -301q-3 -16 1 -23t21 -7q4 0 30 2l-14 -64q-33 -9 -63 -9q-45 0 -59 32q-7 15 -5 48q-36 -37 -92 -62t-114 -25q-72 0 -109 44t-23 111q15 71 67.5 112t131.5 50zM234 726h49q2 -32 13 -48q21 -29 78 -29q53 0 87 29q18 16 33 48h48
q-46 -135 -189 -135q-87 0 -112 58q-13 29 -7 77zM373 875l60 -141h-67l-102 141h109z" />
    <glyph glyph-name="uni1EB2" unicode="&#x1eb2;" horiz-adv-x="667" 
d="M222 294h224l-42 317zM-45 0l422 717h110l108 -717h-107l-27 215h-284l-123 -215h-99zM314 884h50q1 -30 13 -48q21 -29 79 -29q53 0 85 29q19 16 33 48h49q-46 -135 -189 -135q-87 0 -112 58q-14 31 -8 77zM510 1003q-10 9 -32 9q-11 0 -32 -3l6 39q39 3 42 3
q55 0 75 -39q7 -18 3 -38q-16 -53 -78 -66l-7 -22h-43l8 37q28 3 47.5 17t23.5 32q5 18 -13 31z" />
    <glyph glyph-name="uni1EB3" unicode="&#x1eb3;" 
d="M178 57q48 0 93 22q82 34 99 116l15 71q-37 -20 -98 -27l-54 -7q-48 -6 -76 -20q-45 -23 -56 -73q-8 -37 14.5 -59.5t62.5 -22.5zM208 299l144 18q32 5 45 25q8 11 13 34q10 44 -17 64.5t-88 20.5q-69 0 -105 -37q-20 -18 -34 -61h-82q22 97 90 135q70 38 149 38
q93 0 142 -36q50 -35 35 -109l-64 -301q-3 -16 1 -23t21 -7q4 0 30 2l-14 -64q-33 -9 -63 -9q-45 0 -59 32q-7 15 -5 48q-36 -37 -92 -62t-114 -25q-72 0 -109 44t-23 111q15 71 67.5 112t131.5 50zM234 726h49q2 -32 13 -48q21 -29 78 -29q53 0 87 29q18 16 33 48h48
q-46 -135 -189 -135q-87 0 -112 58q-13 29 -7 77zM426 863q-11 10 -31 10q-12 0 -33 -3l7 38q20 4 41 4q56 0 75 -39q8 -14 3 -39q-10 -52 -78 -66l-7 -21h-43l8 37q30 3 49 16.5t22 31.5q5 19 -13 31z" />
    <glyph glyph-name="uni1EB4" unicode="&#x1eb4;" horiz-adv-x="667" 
d="M222 294h224l-42 317zM-45 0l422 717h110l108 -717h-107l-27 215h-284l-123 -215h-99zM318 902h50q1 -30 13 -48q21 -28 79 -28q54 0 85 28q19 16 33 48h49q-47 -135 -189 -135q-87 0 -112 58q-14 31 -8 77zM537 1013q28 -13 45 -13q28 0 43 17q9 9 15 28h51
q-42 -109 -127 -109q-25 0 -53 13l-24 9q-43 17 -62 17q-35 0 -53 -46h-48q15 40 34 63q38 45 93 45q34 0 86 -24z" />
    <glyph glyph-name="uni1EB5" unicode="&#x1eb5;" 
d="M178 57q48 0 93 22q82 34 99 116l15 71q-37 -20 -98 -27l-54 -7q-48 -6 -76 -20q-45 -23 -56 -73q-8 -37 14.5 -59.5t62.5 -22.5zM208 299l144 18q32 5 45 25q8 11 13 34q10 44 -17 64.5t-88 20.5q-69 0 -105 -37q-20 -18 -34 -61h-82q22 97 90 135q70 38 149 38
q93 0 142 -36q50 -35 35 -109l-64 -301q-3 -16 1 -23t21 -7q4 0 30 2l-14 -64q-33 -9 -63 -9q-45 0 -59 32q-7 15 -5 48q-36 -37 -92 -62t-114 -25q-72 0 -109 44t-23 111q15 71 67.5 112t131.5 50zM234 726h49q2 -32 13 -48q21 -29 78 -29q53 0 87 29q18 16 33 48h48
q-46 -135 -189 -135q-87 0 -112 58q-13 29 -7 77zM440 829q26 -13 45 -13q26 0 43 17q8 9 15 28h51q-42 -109 -127 -109q-25 0 -53 13l-24 9q-43 17 -62 17q-35 0 -53 -46h-48q15 40 34 63q37 45 93 45q34 0 86 -24z" />
    <glyph glyph-name="uni1EB6" unicode="&#x1eb6;" horiz-adv-x="667" 
d="M222 294h224l-42 317zM-45 0l422 717h110l108 -717h-107l-27 215h-284l-123 -215h-99zM318 902h50q1 -30 13 -48q21 -28 79 -28q54 0 85 28q19 16 33 48h49q-47 -135 -189 -135q-87 0 -112 58q-14 31 -8 77zM209 -146l22 102h91l-22 -102h-91z" />
    <glyph glyph-name="uni1EB7" unicode="&#x1eb7;" 
d="M178 57q48 0 93 22q82 34 99 116l15 71q-37 -20 -98 -27l-54 -7q-48 -6 -76 -20q-45 -23 -56 -73q-8 -37 14.5 -59.5t62.5 -22.5zM208 299l144 18q32 5 45 25q8 11 13 34q10 44 -17 64.5t-88 20.5q-69 0 -105 -37q-20 -18 -34 -61h-82q22 97 90 135q70 38 149 38
q93 0 142 -36q50 -35 35 -109l-64 -301q-3 -16 1 -23t21 -7q4 0 30 2l-14 -64q-33 -9 -63 -9q-45 0 -59 32q-7 15 -5 48q-36 -37 -92 -62t-114 -25q-72 0 -109 44t-23 111q15 71 67.5 112t131.5 50zM234 726h49q2 -32 13 -48q21 -29 78 -29q53 0 87 29q18 16 33 48h48
q-46 -135 -189 -135q-87 0 -112 58q-13 29 -7 77zM158 -164l21 102h92l-21 -102h-92z" />
    <glyph glyph-name="uni1EB8" unicode="&#x1eb8;" horiz-adv-x="667" 
d="M25 0l152 717h523l-19 -88h-428l-46 -217h396l-18 -83h-396l-51 -244h436l-18 -85h-531zM225 -146l22 102h91l-22 -102h-91z" />
    <glyph glyph-name="uni1EB9" unicode="&#x1eb9;" 
d="M503 441q18 -39 16 -92q0 -34 -17 -116h-384q-15 -82 11.5 -128.5t98.5 -46.5q70 0 119 45q29 26 46 61h86q-9 -29 -36 -65q-26 -33 -56 -57q-49 -40 -110 -53q-35 -8 -73 -8q-98 0 -151 71q-52 71 -25 199q27 126 112 205t195 79q56 0 102.5 -26.5t65.5 -67.5zM136 303
h290q8 57 -6 92q-22 63 -106 63q-60 0 -112 -44q-50 -44 -66 -111zM144 -165l22 102h92l-22 -102h-92z" />
    <glyph glyph-name="uni1EBA" unicode="&#x1eba;" horiz-adv-x="667" 
d="M25 0l152 717h523l-19 -88h-428l-46 -217h396l-18 -83h-396l-51 -244h436l-18 -85h-531zM483 884q-10 9 -32 9q-11 0 -31 -3l6 39q39 3 42 3q55 0 74 -39q8 -17 3 -39q-13 -55 -78 -65l-6 -22h-43l7 37q29 3 48.5 17t23.5 32q5 17 -14 31z" />
    <glyph glyph-name="uni1EBB" unicode="&#x1ebb;" 
d="M503 441q18 -39 16 -92q0 -34 -17 -116h-384q-15 -82 11.5 -128.5t98.5 -46.5q70 0 119 45q29 26 46 61h86q-9 -29 -36 -65q-26 -33 -56 -57q-49 -40 -110 -53q-35 -8 -73 -8q-98 0 -151 71q-52 71 -25 199q27 126 112 205t195 79q56 0 102.5 -26.5t65.5 -67.5zM136 303
h290q8 57 -6 92q-22 63 -106 63q-60 0 -112 -44q-50 -44 -66 -111zM369 708q-14 9 -31 9q-12 0 -33 -3l6 38q21 4 42 4q56 0 75 -39q7 -16 3 -39q-16 -53 -78 -66l-7 -21h-43l8 37q29 3 48.5 17t22.5 31q5 20 -13 32z" />
    <glyph glyph-name="uni1EBC" unicode="&#x1ebc;" horiz-adv-x="667" 
d="M25 0l152 717h523l-19 -88h-428l-46 -217h396l-18 -83h-396l-51 -244h436l-18 -85h-531zM510 859q26 -13 45 -13q26 0 43 17q9 12 14 28h52q-42 -109 -126 -109q-25 0 -55 13l-24 9q-43 17 -61 17q-35 0 -53 -46h-48q15 38 35 63q38 45 91 45q38 0 87 -24z" />
    <glyph glyph-name="uni1EBD" unicode="&#x1ebd;" 
d="M503 441q18 -39 16 -92q0 -34 -17 -116h-384q-15 -82 11.5 -128.5t98.5 -46.5q70 0 119 45q29 26 46 61h86q-9 -29 -36 -65q-26 -33 -56 -57q-49 -40 -110 -53q-35 -8 -73 -8q-98 0 -151 71q-52 71 -25 199q27 126 112 205t195 79q56 0 102.5 -26.5t65.5 -67.5zM136 303
h290q8 57 -6 92q-22 63 -106 63q-60 0 -112 -44q-50 -44 -66 -111zM395 682q28 -13 46 -13q27 0 43 18q6 7 14 27h51q-41 -109 -126 -109q-24 0 -54 13l-24 9q-38 17 -62 17q-35 0 -52 -45h-48q16 39 34 63q37 45 93 45q35 0 85 -25z" />
    <glyph glyph-name="uni1EBE" unicode="&#x1ebe;" horiz-adv-x="667" 
d="M25 0l152 717h523l-19 -88h-428l-46 -217h396l-18 -83h-396l-51 -244h436l-18 -85h-531zM434 913h93l69 -142h-80l-46 94l-86 -94h-80zM660 1010h109l-161 -141h-67z" />
    <glyph glyph-name="uni1EBF" unicode="&#x1ebf;" 
d="M503 441q18 -39 16 -92q0 -34 -17 -116h-384q-15 -82 11.5 -128.5t98.5 -46.5q70 0 119 45q29 26 46 61h86q-9 -29 -36 -65q-26 -33 -56 -57q-49 -40 -110 -53q-35 -8 -73 -8q-98 0 -151 71q-52 71 -25 199q27 126 112 205t195 79q56 0 102.5 -26.5t65.5 -67.5zM136 303
h290q8 57 -6 92q-22 63 -106 63q-60 0 -112 -44q-50 -44 -66 -111zM312 725h93l69 -141h-80l-46 94l-86 -94h-79zM543 819h108l-160 -141h-68z" />
    <glyph glyph-name="uni1EC0" unicode="&#x1ec0;" horiz-adv-x="667" 
d="M25 0l152 717h523l-19 -88h-428l-46 -217h396l-18 -83h-396l-51 -244h436l-18 -85h-531zM473 915h93l69 -141h-80l-46 94l-86 -94h-79zM328 993l59 -141h-67l-101 141h109z" />
    <glyph glyph-name="uni1EC1" unicode="&#x1ec1;" 
d="M503 441q18 -39 16 -92q0 -34 -17 -116h-384q-15 -82 11.5 -128.5t98.5 -46.5q70 0 119 45q29 26 46 61h86q-9 -29 -36 -65q-26 -33 -56 -57q-49 -40 -110 -53q-35 -8 -73 -8q-98 0 -151 71q-52 71 -25 199q27 126 112 205t195 79q56 0 102.5 -26.5t65.5 -67.5zM136 303
h290q8 57 -6 92q-22 63 -106 63q-60 0 -112 -44q-50 -44 -66 -111zM324 712h93l70 -141h-80l-46 94l-86 -94h-80zM212 809l59 -141h-67l-101 141h109z" />
    <glyph glyph-name="uni1EC2" unicode="&#x1ec2;" horiz-adv-x="667" 
d="M25 0l152 717h523l-19 -88h-428l-46 -217h396l-18 -83h-396l-51 -244h436l-18 -85h-531zM438 899h92l70 -141h-80l-46 94l-86 -94h-79zM638 963q-13 10 -32 10q-12 0 -32 -3l6 38q20 4 43 4q55 0 74 -39q8 -18 3 -39q-10 -52 -78 -66l-6 -21h-43l7 37q29 3 48.5 17
t23.5 31q5 19 -14 31z" />
    <glyph glyph-name="uni1EC3" unicode="&#x1ec3;" 
d="M503 441q18 -39 16 -92q0 -34 -17 -116h-384q-15 -82 11.5 -128.5t98.5 -46.5q70 0 119 45q29 26 46 61h86q-9 -29 -36 -65q-26 -33 -56 -57q-49 -40 -110 -53q-35 -8 -73 -8q-98 0 -151 71q-52 71 -25 199q27 126 112 205t195 79q56 0 102.5 -26.5t65.5 -67.5zM136 303
h290q8 57 -6 92q-22 63 -106 63q-60 0 -112 -44q-50 -44 -66 -111zM331 720h93l69 -141h-80l-46 94l-86 -94h-79zM528 773q-11 10 -31 10q-12 0 -33 -3l6 38q21 4 42 4q56 0 75 -39q7 -16 3 -39q-9 -51 -78 -66l-7 -21h-43l8 37q29 3 48.5 17t22.5 31q5 20 -13 31z" />
    <glyph glyph-name="uni1EC4" unicode="&#x1ec4;" horiz-adv-x="667" 
d="M25 0l152 717h523l-19 -88h-428l-46 -217h396l-18 -83h-396l-51 -244h436l-18 -85h-531zM422 896h93l69 -141h-80l-46 94l-86 -94h-79zM544 1018q26 -13 45 -13q26 0 43 17q9 10 14 28h52q-42 -109 -126 -109q-25 0 -55 13l-24 9q-41 16 -61 16q-36 0 -53 -45h-48
q13 37 34 63q37 45 92 45q35 0 87 -24z" />
    <glyph glyph-name="uni1EC5" unicode="&#x1ec5;" 
d="M503 441q18 -39 16 -92q0 -34 -17 -116h-384q-15 -82 11.5 -128.5t98.5 -46.5q70 0 119 45q29 26 46 61h86q-9 -29 -36 -65q-26 -33 -56 -57q-49 -40 -110 -53q-35 -8 -73 -8q-98 0 -151 71q-52 71 -25 199q27 126 112 205t195 79q56 0 102.5 -26.5t65.5 -67.5zM136 303
h290q8 57 -6 92q-22 63 -106 63q-60 0 -112 -44q-50 -44 -66 -111zM318 702h92l70 -141h-80l-46 93l-86 -93h-80zM410 802q25 -12 45 -12q26 0 43 17q9 9 15 27h51q-40 -108 -126 -108q-28 0 -54 12l-24 10q-41 16 -62 16q-36 0 -53 -45h-48q14 36 35 63q38 45 92 45
q35 0 86 -25z" />
    <glyph glyph-name="uni1EC6" unicode="&#x1ec6;" horiz-adv-x="667" 
d="M25 0l152 717h523l-19 -88h-428l-46 -217h396l-18 -83h-396l-51 -244h436l-18 -85h-531zM422 897h93l69 -141h-80l-46 94l-86 -94h-79zM225 -146l22 102h91l-22 -102h-91z" />
    <glyph glyph-name="uni1EC7" unicode="&#x1ec7;" 
d="M503 441q18 -39 16 -92q0 -34 -17 -116h-384q-15 -82 11.5 -128.5t98.5 -46.5q70 0 119 45q29 26 46 61h86q-9 -29 -36 -65q-26 -33 -56 -57q-49 -40 -110 -53q-35 -8 -73 -8q-98 0 -151 71q-52 71 -25 199q27 126 112 205t195 79q56 0 102.5 -26.5t65.5 -67.5zM136 303
h290q8 57 -6 92q-22 63 -106 63q-60 0 -112 -44q-50 -44 -66 -111zM307 718h93l70 -141h-80l-46 93l-86 -93h-80zM144 -165l22 102h92l-22 -102h-92z" />
    <glyph glyph-name="uni1EC8" unicode="&#x1ec8;" horiz-adv-x="278" 
d="M38 0l152 717h98l-152 -717h-98zM279 884q-10 9 -31 9q-12 0 -32 -3l6 39q3 0 19 1.5t23 1.5q55 0 74 -39q9 -15 3 -39q-13 -55 -78 -65l-6 -22h-43l7 37q29 3 48.5 17t23.5 32q5 18 -14 31z" />
    <glyph glyph-name="uni1EC9" unicode="&#x1ec9;" horiz-adv-x="278" 
d="M32 0l110 521h90l-110 -521h-90zM232 708q-14 9 -32 9q-11 0 -32 -3l6 38q20 4 42 4q56 0 75 -39q7 -16 3 -39q-16 -53 -78 -66l-7 -21h-43l8 37q29 3 48.5 17t22.5 31q5 19 -13 32z" />
    <glyph glyph-name="uni1ECA" unicode="&#x1eca;" horiz-adv-x="278" 
d="M38 0l152 717h98l-152 -717h-98zM4 -153l21 101h91l-21 -101h-91z" />
    <glyph glyph-name="uni1ECB" unicode="&#x1ecb;" horiz-adv-x="222" 
d="M4 0l110 521h90l-110 -521h-90zM135 618l21 99h90l-21 -99h-90zM-26 -146l22 102h92l-22 -102h-92z" />
    <glyph glyph-name="uni1ECC" unicode="&#x1ecc;" horiz-adv-x="778" 
d="M737 615q51 -94 19 -244q-35 -162 -137 -267q-123 -125 -300 -125q-167 0 -237 109q-62 108 -28 267q32 147 125 249q121 133 303 133q190 0 255 -122zM657 370q27 126 -23 203t-164 77q-113 0 -199 -76q-85 -76 -117 -225q-26 -121 17 -202t179 -81q128 0 205 92
q76 91 102 212zM259 -167l22 102h91l-22 -102h-91z" />
    <glyph glyph-name="uni1ECD" unicode="&#x1ecd;" 
d="M421 270q15 74 2 119q-23 72 -113 72q-81 0 -131 -62q-49 -61 -67 -148q-18 -84 7 -139t105 -55q86 0 133 66q48 68 64 147zM513 272q-25 -125 -106 -209q-79 -82 -208 -82q-108 0 -156 73t-21 196q28 132 111 210q84 78 196 78q100 0 156 -68t28 -198zM143 -165l22 102
h91l-22 -102h-91z" />
    <glyph glyph-name="uni1ECE" unicode="&#x1ece;" horiz-adv-x="778" 
d="M737 615q51 -94 19 -244q-35 -162 -137 -267q-123 -125 -300 -125q-167 0 -237 109q-62 108 -28 267q32 147 125 249q121 133 303 133q190 0 255 -122zM657 370q27 126 -23 203t-164 77q-113 0 -199 -76q-85 -76 -117 -225q-26 -121 17 -202t179 -81q128 0 205 92
q76 91 102 212zM525 903q-10 10 -31 10q-11 0 -32 -3l6 38q17 4 42 4q55 0 75 -39q8 -17 2 -39q-10 -53 -78 -66l-6 -21h-43l8 37q28 3 47.5 16.5t23.5 31.5q5 19 -14 31z" />
    <glyph glyph-name="uni1ECF" unicode="&#x1ecf;" 
d="M421 270q15 74 2 119q-23 72 -113 72q-81 0 -131 -62q-49 -61 -67 -148q-18 -84 7 -139t105 -55q86 0 133 66q48 68 64 147zM513 272q-25 -125 -106 -209q-79 -82 -208 -82q-108 0 -156 73t-21 196q28 132 111 210q84 78 196 78q100 0 156 -68t28 -198zM368 710
q-10 9 -32 9q-12 0 -32 -3l6 39q5 0 14 1t16 1.5t13 0.5q55 0 74 -39q9 -17 3 -38q-11 -52 -78 -66l-6 -22h-43l7 37q29 3 48.5 17t23.5 32q5 18 -14 31z" />
    <glyph glyph-name="uni1ED0" unicode="&#x1ed0;" horiz-adv-x="778" 
d="M737 615q51 -94 19 -244q-35 -162 -137 -267q-123 -125 -300 -125q-167 0 -237 109q-62 108 -28 267q32 147 125 249q121 133 303 133q190 0 255 -122zM657 370q27 126 -23 203t-164 77q-113 0 -199 -76q-85 -76 -117 -225q-26 -121 17 -202t179 -81q128 0 205 92
q76 91 102 212zM478 919h93l69 -141h-80l-46 94l-86 -94h-79zM718 1009h109l-161 -141h-67z" />
    <glyph glyph-name="uni1ED1" unicode="&#x1ed1;" 
d="M421 270q15 74 2 119q-23 72 -113 72q-81 0 -131 -62q-49 -61 -67 -148q-18 -84 7 -139t105 -55q86 0 133 66q48 68 64 147zM513 272q-25 -125 -106 -209q-79 -82 -208 -82q-108 0 -156 73t-21 196q28 132 111 210q84 78 196 78q100 0 156 -68t28 -198zM329 725h93
l70 -141h-80l-46 94l-86 -94h-80zM560 819h109l-161 -141h-67z" />
    <glyph glyph-name="uni1ED2" unicode="&#x1ed2;" horiz-adv-x="778" 
d="M737 615q51 -94 19 -244q-35 -162 -137 -267q-123 -125 -300 -125q-167 0 -237 109q-62 108 -28 267q32 147 125 249q121 133 303 133q190 0 255 -122zM657 370q27 126 -23 203t-164 77q-113 0 -199 -76q-85 -76 -117 -225q-26 -121 17 -202t179 -81q128 0 205 92
q76 91 102 212zM477 930h93l70 -141h-80l-46 93l-86 -93h-80zM347 1022l59 -141h-67l-100 141h108z" />
    <glyph glyph-name="uni1ED3" unicode="&#x1ed3;" 
d="M421 270q15 74 2 119q-23 72 -113 72q-81 0 -131 -62q-49 -61 -67 -148q-18 -84 7 -139t105 -55q86 0 133 66q48 68 64 147zM513 272q-25 -125 -106 -209q-79 -82 -208 -82q-108 0 -156 73t-21 196q28 132 111 210q84 78 196 78q100 0 156 -68t28 -198zM321 725h93
l69 -141h-80l-46 94l-85 -94h-80zM203 819l59 -141h-67l-101 141h109z" />
    <glyph glyph-name="uni1ED4" unicode="&#x1ed4;" horiz-adv-x="778" 
d="M737 615q51 -94 19 -244q-35 -162 -137 -267q-123 -125 -300 -125q-167 0 -237 109q-62 108 -28 267q32 147 125 249q121 133 303 133q190 0 255 -122zM657 370q27 126 -23 203t-164 77q-113 0 -199 -76q-85 -76 -117 -225q-26 -121 17 -202t179 -81q128 0 205 92
q76 91 102 212zM493 911h93l70 -141h-80l-46 94l-86 -94h-80zM695 980q-11 10 -32 10q-12 0 -33 -3l6 38q21 4 43 4q56 0 75 -39q7 -20 3 -39q-4 -22 -23.5 -40t-54.5 -26l-7 -21h-43l8 37q29 3 48.5 17t22.5 31q5 19 -13 31z" />
    <glyph glyph-name="uni1ED5" unicode="&#x1ed5;" 
d="M421 270q15 74 2 119q-23 72 -113 72q-81 0 -131 -62q-49 -61 -67 -148q-18 -84 7 -139t105 -55q86 0 133 66q48 68 64 147zM513 272q-25 -125 -106 -209q-79 -82 -208 -82q-108 0 -156 73t-21 196q28 132 111 210q84 78 196 78q100 0 156 -68t28 -198zM328 723h93
l70 -141h-80l-46 93l-86 -93h-80zM531 797q-10 9 -31 9q-12 0 -33 -3l6 39q5 0 20 1.5t22 1.5q56 0 75 -39q8 -13 3 -38q-11 -53 -78 -66l-7 -22h-43l8 37q30 3 49 17t22 32q5 20 -13 31z" />
    <glyph glyph-name="uni1ED6" unicode="&#x1ed6;" horiz-adv-x="778" 
d="M737 615q51 -94 19 -244q-35 -162 -137 -267q-123 -125 -300 -125q-167 0 -237 109q-62 108 -28 267q32 147 125 249q121 133 303 133q190 0 255 -122zM657 370q27 126 -23 203t-164 77q-113 0 -199 -76q-85 -76 -117 -225q-26 -121 17 -202t179 -81q128 0 205 92
q76 91 102 212zM500 901h92l70 -141h-80l-46 94l-86 -94h-79zM597 1016q28 -13 46 -13q28 0 42 17q9 9 15 28h51q-41 -109 -126 -109q-25 0 -53 13l-24 9q-45 17 -63 17q-36 0 -52 -46h-47q13 37 34 63q37 45 92 45q33 0 85 -24z" />
    <glyph glyph-name="uni1ED7" unicode="&#x1ed7;" 
d="M421 270q15 74 2 119q-23 72 -113 72q-81 0 -131 -62q-49 -61 -67 -148q-18 -84 7 -139t105 -55q86 0 133 66q48 68 64 147zM513 272q-25 -125 -106 -209q-79 -82 -208 -82q-108 0 -156 73t-21 196q28 132 111 210q84 78 196 78q100 0 156 -68t28 -198zM314 709h93
l70 -141h-81l-45 94l-86 -94h-80zM410 828q28 -13 46 -13q26 0 43 18q5 7 14 27h51q-41 -109 -126 -109q-24 0 -54 13l-24 9q-40 17 -62 17q-35 0 -52 -45h-48q13 35 34 63q38 45 93 45q35 0 85 -25z" />
    <glyph glyph-name="uni1ED8" unicode="&#x1ed8;" horiz-adv-x="778" 
d="M737 615q51 -94 19 -244q-35 -162 -137 -267q-123 -125 -300 -125q-167 0 -237 109q-62 108 -28 267q32 147 125 249q121 133 303 133q190 0 255 -122zM657 370q27 126 -23 203t-164 77q-113 0 -199 -76q-85 -76 -117 -225q-26 -121 17 -202t179 -81q128 0 205 92
q76 91 102 212zM472 903h93l69 -141h-80l-46 94l-86 -94h-79zM259 -167l22 102h91l-22 -102h-91z" />
    <glyph glyph-name="uni1ED9" unicode="&#x1ed9;" 
d="M421 270q15 74 2 119q-23 72 -113 72q-81 0 -131 -62q-49 -61 -67 -148q-18 -84 7 -139t105 -55q86 0 133 66q48 68 64 147zM513 272q-25 -125 -106 -209q-79 -82 -208 -82q-108 0 -156 73t-21 196q28 132 111 210q84 78 196 78q100 0 156 -68t28 -198zM332 725h93
l70 -141h-80l-46 94l-86 -94h-80zM143 -165l22 102h91l-22 -102h-91z" />
    <glyph glyph-name="uni1EDA" unicode="&#x1eda;" horiz-adv-x="889" 
d="M756 371q-35 -162 -137 -267q-123 -125 -300 -125q-167 0 -237 109q-62 108 -28 267q32 147 125 249q121 133 303 133q177 0 246 -108q15 -3 33 1q25 2 44 9l7 3l6 4l-10 48l107 41l19 -96l-99 -38q-45 -17 -83 -20q31 -85 4 -210zM657 370q27 126 -23 203t-164 77
q-113 0 -199 -76q-85 -76 -117 -225q-26 -121 17 -202t179 -81q128 0 205 92q76 91 102 212zM555 921h108l-160 -141h-67z" />
    <glyph glyph-name="uni1EDB" unicode="&#x1edb;" horiz-adv-x="676" 
d="M513 272q-25 -125 -106 -209q-79 -82 -208 -82q-108 0 -156 73t-21 196q28 132 111 210q84 78 196 78q102 0 157 -67q8 -9 16 -24q4 0 16 2q23 2 44 9l6 3q4 2 6 4l-9 49l106 41l20 -97l-100 -38q-35 -14 -73 -19q11 -56 -5 -129zM421 270q15 74 2 119q-23 72 -113 72
q-81 0 -131 -62q-49 -61 -67 -148q-18 -84 7 -139t105 -55q86 0 133 66q48 68 64 147zM390 725h109l-162 -142h-67z" />
    <glyph glyph-name="uni1EDC" unicode="&#x1edc;" horiz-adv-x="889" 
d="M756 371q-35 -162 -137 -267q-123 -125 -300 -125q-167 0 -237 109q-62 108 -28 267q32 147 125 249q121 133 303 133q177 0 246 -108q15 -3 33 1q25 2 44 9l7 3l6 4l-10 48l107 41l19 -96l-99 -38q-45 -17 -83 -20q31 -85 4 -210zM657 370q27 126 -23 203t-164 77
q-113 0 -199 -76q-85 -76 -117 -225q-26 -121 17 -202t179 -81q128 0 205 92q76 91 102 212zM513 930l59 -141h-67l-100 141h108z" />
    <glyph glyph-name="uni1EDD" unicode="&#x1edd;" horiz-adv-x="676" 
d="M513 272q-25 -125 -106 -209q-79 -82 -208 -82q-108 0 -156 73t-21 196q28 132 111 210q84 78 196 78q102 0 157 -67q8 -9 16 -24q4 0 16 2q23 2 44 9l6 3q4 2 6 4l-9 49l106 41l20 -97l-100 -38q-35 -14 -73 -19q11 -56 -5 -129zM421 270q15 74 2 119q-23 72 -113 72
q-81 0 -131 -62q-49 -61 -67 -148q-18 -84 7 -139t105 -55q86 0 133 66q48 68 64 147zM360 727l59 -142h-67l-101 142h109z" />
    <glyph glyph-name="uni1EDE" unicode="&#x1ede;" horiz-adv-x="889" 
d="M756 371q-35 -162 -137 -267q-123 -125 -300 -125q-167 0 -237 109q-62 108 -28 267q32 147 125 249q121 133 303 133q177 0 246 -108q15 -3 33 1q25 2 44 9l7 3l6 4l-10 48l107 41l19 -96l-99 -38q-45 -17 -83 -20q31 -85 4 -210zM657 370q27 126 -23 203t-164 77
q-113 0 -199 -76q-85 -76 -117 -225q-26 -121 17 -202t179 -81q128 0 205 92q76 91 102 212zM527 908q-10 9 -33 9q-5 0 -31 -2l6 38q17 4 42 4q55 0 74 -40q9 -14 3 -38q-10 -53 -78 -66l-6 -21h-43l8 37q28 3 47.5 16.5t23.5 31.5q5 18 -13 31z" />
    <glyph glyph-name="uni1EDF" unicode="&#x1edf;" horiz-adv-x="676" 
d="M513 272q-25 -125 -106 -209q-79 -82 -208 -82q-108 0 -156 73t-21 196q28 132 111 210q84 78 196 78q102 0 157 -67q8 -9 16 -24q4 0 16 2q23 2 44 9l6 3q4 2 6 4l-9 49l106 41l20 -97l-100 -38q-35 -14 -73 -19q11 -56 -5 -129zM421 270q15 74 2 119q-23 72 -113 72
q-81 0 -131 -62q-49 -61 -67 -148q-18 -84 7 -139t105 -55q86 0 133 66q48 68 64 147zM376 713q-13 10 -32 10q-12 0 -32 -3l6 38q20 4 42 4q56 0 75 -39q7 -16 3 -39q-10 -52 -78 -66l-7 -21h-43l8 37q29 3 48.5 17t22.5 31q5 19 -13 31z" />
    <glyph glyph-name="uni1EE0" unicode="&#x1ee0;" horiz-adv-x="889" 
d="M756 371q-35 -162 -137 -267q-123 -125 -300 -125q-167 0 -237 109q-62 108 -28 267q32 147 125 249q121 133 303 133q177 0 246 -108q15 -3 33 1q25 2 44 9l7 3l6 4l-10 48l107 41l19 -96l-99 -38q-45 -17 -83 -20q31 -85 4 -210zM657 370q27 126 -23 203t-164 77
q-113 0 -199 -76q-85 -76 -117 -225q-26 -121 17 -202t179 -81q128 0 205 92q76 91 102 212zM554 888q28 -13 45 -13q26 0 43 17q9 9 15 28h51q-41 -109 -126 -109q-25 0 -53 13l-24 9q-45 17 -63 17q-35 0 -53 -46h-48q18 42 35 63q38 45 92 45q34 0 86 -24z" />
    <glyph glyph-name="uni1EE1" unicode="&#x1ee1;" horiz-adv-x="676" 
d="M513 272q-25 -125 -106 -209q-79 -82 -208 -82q-108 0 -156 73t-21 196q28 132 111 210q84 78 196 78q102 0 157 -67q8 -9 16 -24q4 0 16 2q23 2 44 9l6 3q4 2 6 4l-9 49l106 41l20 -97l-100 -38q-35 -14 -73 -19q11 -56 -5 -129zM421 270q15 74 2 119q-23 72 -113 72
q-81 0 -131 -62q-49 -61 -67 -148q-18 -84 7 -139t105 -55q86 0 133 66q48 68 64 147zM397 685q28 -13 45 -13q28 0 43 17q9 11 15 28h51q-41 -109 -126 -109q-26 0 -54 13l-24 9q-40 17 -62 17q-36 0 -52 -45h-48q14 36 35 63q38 44 91 44q37 0 86 -24z" />
    <glyph glyph-name="uni1EE2" unicode="&#x1ee2;" horiz-adv-x="889" 
d="M756 371q-35 -162 -137 -267q-123 -125 -300 -125q-167 0 -237 109q-62 108 -28 267q32 147 125 249q121 133 303 133q177 0 246 -108q15 -3 33 1q25 2 44 9l7 3l6 4l-10 48l107 41l19 -96l-99 -38q-45 -17 -83 -20q31 -85 4 -210zM657 370q27 126 -23 203t-164 77
q-113 0 -199 -76q-85 -76 -117 -225q-26 -121 17 -202t179 -81q128 0 205 92q76 91 102 212zM247 -165l22 102h92l-22 -102h-92z" />
    <glyph glyph-name="uni1EE3" unicode="&#x1ee3;" horiz-adv-x="676" 
d="M513 272q-25 -125 -106 -209q-79 -82 -208 -82q-108 0 -156 73t-21 196q28 132 111 210q84 78 196 78q102 0 157 -67q8 -9 16 -24q4 0 16 2q23 2 44 9l6 3q4 2 6 4l-9 49l106 41l20 -97l-100 -38q-35 -14 -73 -19q11 -56 -5 -129zM421 270q15 74 2 119q-23 72 -113 72
q-81 0 -131 -62q-49 -61 -67 -148q-18 -84 7 -139t105 -55q86 0 133 66q48 68 64 147zM126 -165l22 102h91l-22 -102h-91z" />
    <glyph glyph-name="uni1EE4" unicode="&#x1ee4;" horiz-adv-x="722" 
d="M175 717h99l-94 -443q-17 -79 1 -130q27 -78 130 -78q124 0 185 84q35 47 51 124l94 443h99l-86 -403q-29 -134 -79 -203q-93 -130 -275 -130q-181 0 -218 130q-21 72 7 203zM221 -165l22 102h92l-22 -102h-92z" />
    <glyph glyph-name="uni1EE5" unicode="&#x1ee5;" 
d="M113 523h90l-74 -347q-9 -40 -1 -66q14 -47 77 -47q92 0 143 83q27 41 44 120l55 257h87l-111 -523h-83l17 77q-24 -30 -53 -50q-59 -41 -130 -41q-112 0 -138 75q-13 38 1 106zM124 -165l22 102h92l-22 -102h-92z" />
    <glyph glyph-name="uni1EE6" unicode="&#x1ee6;" horiz-adv-x="722" 
d="M175 717h99l-94 -443q-17 -79 1 -130q27 -78 130 -78q124 0 185 84q35 47 51 124l94 443h99l-86 -403q-29 -134 -79 -203q-93 -130 -275 -130q-181 0 -218 130q-21 72 7 203zM498 884q-12 9 -32 9q-12 0 -32 -3l6 39q5 0 14 1t16 1.5t13 0.5q55 0 74 -39q8 -16 2 -39
q-13 -55 -77 -65l-6 -22h-43l7 37q29 3 48.5 17t23.5 32q5 17 -14 31z" />
    <glyph glyph-name="uni1EE7" unicode="&#x1ee7;" 
d="M113 523h90l-74 -347q-9 -40 -1 -66q14 -47 77 -47q92 0 143 83q27 41 44 120l55 257h87l-111 -523h-83l17 77q-24 -30 -53 -50q-59 -41 -130 -41q-112 0 -138 75q-13 38 1 106zM368 708q-14 9 -31 9q-12 0 -33 -3l6 38q21 4 42 4q56 0 75 -39q7 -16 3 -39
q-16 -53 -78 -66l-7 -21h-43l8 37q29 3 48.5 17t22.5 31q5 20 -13 32z" />
    <glyph glyph-name="uni1EE8" unicode="&#x1ee8;" horiz-adv-x="862" 
d="M175 717h99l-94 -443q-17 -79 1 -130q27 -78 130 -78q124 0 185 84q35 47 51 124l94 443h99l-13 -62q4 0 18 2q21 1 44 10l6 2q4 2 6 4l-10 49l107 41l19 -97l-99 -38q-55 -21 -101 -20l-63 -294q-29 -134 -79 -203q-93 -130 -275 -130q-181 0 -218 130q-21 72 7 203z
M514 897h109l-161 -141h-67z" />
    <glyph glyph-name="uni1EE9" unicode="&#x1ee9;" horiz-adv-x="698" 
d="M113 523h90l-74 -347q-9 -40 -1 -66q14 -47 77 -47q92 0 143 83q27 41 44 120l55 257h87l-16 -76q6 0 22 2q23 2 44 9l6 3q4 2 6 4l-9 49l106 41l20 -97l-100 -38q-55 -22 -105 -20l-85 -400h-83l17 77q-24 -30 -53 -50q-59 -41 -130 -41q-112 0 -138 75q-13 38 1 106z
M379 724h109l-161 -141h-67z" />
    <glyph glyph-name="uni1EEA" unicode="&#x1eea;" horiz-adv-x="862" 
d="M175 717h99l-94 -443q-17 -79 1 -130q27 -78 130 -78q124 0 185 84q35 47 51 124l94 443h99l-13 -62q4 0 18 2q21 1 44 10l6 2q4 2 6 4l-10 49l107 41l19 -97l-99 -38q-55 -21 -101 -20l-63 -294q-29 -134 -79 -203q-93 -130 -275 -130q-181 0 -218 130q-21 72 7 203z
M488 904l59 -141h-67l-100 141h108z" />
    <glyph glyph-name="uni1EEB" unicode="&#x1eeb;" horiz-adv-x="698" 
d="M113 523h90l-74 -347q-9 -40 -1 -66q14 -47 77 -47q92 0 143 83q27 41 44 120l55 257h87l-16 -76q6 0 22 2q23 2 44 9l6 3q4 2 6 4l-9 49l106 41l20 -97l-100 -38q-55 -22 -105 -20l-85 -400h-83l17 77q-24 -30 -53 -50q-59 -41 -130 -41q-112 0 -138 75q-13 38 1 106z
M368 721l59 -141h-67l-101 141h109z" />
    <glyph glyph-name="uni1EEC" unicode="&#x1eec;" horiz-adv-x="862" 
d="M175 717h99l-94 -443q-17 -79 1 -130q27 -78 130 -78q124 0 185 84q35 47 51 124l94 443h99l-13 -62q4 0 18 2q21 1 44 10l6 2q4 2 6 4l-10 49l107 41l19 -97l-99 -38q-55 -21 -101 -20l-63 -294q-29 -134 -79 -203q-93 -130 -275 -130q-181 0 -218 130q-21 72 7 203z
M515 877q-10 9 -32 9q-11 0 -32 -3l6 39q5 0 20 1.5t22 1.5q56 0 75 -39q8 -13 3 -38q-11 -53 -78 -66l-7 -22h-43l8 37q29 3 48.5 17t22.5 32q5 19 -13 31z" />
    <glyph glyph-name="uni1EED" unicode="&#x1eed;" horiz-adv-x="698" 
d="M113 523h90l-74 -347q-9 -40 -1 -66q14 -47 77 -47q92 0 143 83q27 41 44 120l55 257h87l-16 -76q6 0 22 2q23 2 44 9l6 3q4 2 6 4l-9 49l106 41l20 -97l-100 -38q-55 -22 -105 -20l-85 -400h-83l17 77q-24 -30 -53 -50q-59 -41 -130 -41q-112 0 -138 75q-13 38 1 106z
M365 672q-12 9 -32 9q-13 0 -32 -3l6 39q5 0 14 1t16 1.5t13 0.5q55 0 74 -39q9 -17 3 -38q-11 -52 -78 -66l-7 -22h-43l8 37q29 3 48.5 17t23.5 32q2 20 -14 31z" />
    <glyph glyph-name="uni1EEE" unicode="&#x1eee;" horiz-adv-x="862" 
d="M175 717h99l-94 -443q-17 -79 1 -130q27 -78 130 -78q124 0 185 84q35 47 51 124l94 443h99l-13 -62q4 0 18 2q21 1 44 10l6 2q4 2 6 4l-10 49l107 41l19 -97l-99 -38q-55 -21 -101 -20l-63 -294q-29 -134 -79 -203q-93 -130 -275 -130q-181 0 -218 130q-21 72 7 203z
M528 864q26 -13 45 -13q26 0 43 17q9 10 14 28h52q-41 -109 -126 -109q-26 0 -54 13l-25 9q-43 17 -61 17q-35 0 -53 -46h-48q15 38 35 63q38 45 91 45q35 0 87 -24z" />
    <glyph glyph-name="uni1EEF" unicode="&#x1eef;" horiz-adv-x="698" 
d="M113 523h90l-74 -347q-9 -40 -1 -66q14 -47 77 -47q92 0 143 83q27 41 44 120l55 257h87l-16 -76q6 0 22 2q23 2 44 9l6 3q4 2 6 4l-9 49l106 41l20 -97l-100 -38q-55 -22 -105 -20l-85 -400h-83l17 77q-24 -30 -53 -50q-59 -41 -130 -41q-112 0 -138 75q-13 38 1 106z
M377 683q26 -13 45 -13q28 0 43 17q10 12 14 28h51q-41 -109 -126 -109q-25 0 -53 13l-24 9q-40 17 -62 17q-36 0 -52 -45h-48q13 35 34 63q37 45 92 45q35 0 86 -25z" />
    <glyph glyph-name="uni1EF0" unicode="&#x1ef0;" horiz-adv-x="862" 
d="M175 717h99l-94 -443q-17 -79 1 -130q27 -78 130 -78q124 0 185 84q35 47 51 124l94 443h99l-13 -62q4 0 18 2q21 1 44 10l6 2q4 2 6 4l-10 49l107 41l19 -97l-99 -38q-55 -21 -101 -20l-63 -294q-29 -134 -79 -203q-93 -130 -275 -130q-181 0 -218 130q-21 72 7 203z
M223 -167l21 101h92l-21 -101h-92z" />
    <glyph glyph-name="uni1EF1" unicode="&#x1ef1;" horiz-adv-x="698" 
d="M113 523h90l-74 -347q-9 -40 -1 -66q14 -47 77 -47q92 0 143 83q27 41 44 120l55 257h87l-16 -76q6 0 22 2q23 2 44 9l6 3q4 2 6 4l-9 49l106 41l20 -97l-100 -38q-55 -22 -105 -20l-85 -400h-83l17 77q-24 -30 -53 -50q-59 -41 -130 -41q-112 0 -138 75q-13 38 1 106z
M142 -158l22 102h92l-22 -102h-92z" />
    <glyph glyph-name="uni1EF2" unicode="&#x1ef2;" horiz-adv-x="648" 
d="M737 714l-362 -422l-62 -292h-95l62 292l-187 422h113l142 -340l281 340h108zM412 779l-101 143h109l56 -143h-64z" />
    <glyph glyph-name="uni1EF3" unicode="&#x1ef3;" horiz-adv-x="500" 
d="M541 517l-349 -586q-47 -77 -85.5 -107.5t-93.5 -30.5q-34 0 -58 9l17 78q36 -12 47 -12q45 0 80 47l54 88l-96 514h96l61 -423h2l235 423h90zM301 589l-101 143h109l56 -143h-64z" />
    <glyph glyph-name="uni1EF4" unicode="&#x1ef4;" horiz-adv-x="667" 
d="M293 289l-180 428h113l133 -344l279 344h114l-362 -428l-61 -289h-97zM200 -146l22 102h91l-22 -102h-91z" />
    <glyph glyph-name="uni1EF5" unicode="&#x1ef5;" horiz-adv-x="500" 
d="M210 97l232 426h97l-131 -230q-30 -53 -77.5 -134t-49.5 -85q-120 -202 -159 -244q-41 -44 -117 -44q-24 0 -52 6l18 81q31 -10 48 -10q38 0 61 28q3 3 26 40l34 54l-79 538h100zM78 -360l21 101h92l-21 -101h-92z" />
    <glyph glyph-name="uni1EF6" unicode="&#x1ef6;" horiz-adv-x="667" 
d="M293 289l-180 428h113l133 -344l279 344h114l-362 -428l-61 -289h-97zM471 865q-13 10 -32 10q-13 0 -32 -3l6 38q20 4 43 4q54 0 74 -39q8 -18 3 -39q-10 -52 -78 -66l-6 -21h-43l8 37q28 3 47.5 16.5t23.5 31.5q5 19 -14 31z" />
    <glyph glyph-name="uni1EF7" unicode="&#x1ef7;" horiz-adv-x="500" 
d="M210 97l232 426h97l-131 -230q-30 -53 -77.5 -134t-49.5 -85q-120 -202 -159 -244q-41 -44 -117 -44q-24 0 -52 6l18 81q31 -10 48 -10q38 0 61 28q3 3 26 40l34 54l-79 538h100zM335 668q-9 9 -31 9q-12 0 -32 -3l6 39q5 0 14 1t16 1.5t13 0.5q54 0 74 -39q8 -16 2 -38
q-11 -52 -78 -66l-6 -22h-43l7 37q29 3 48.5 17t23.5 32q5 19 -14 31z" />
    <glyph glyph-name="uni1EF8" unicode="&#x1ef8;" horiz-adv-x="667" 
d="M293 289l-180 428h113l133 -344l279 344h114l-362 -428l-61 -289h-97zM499 849q28 -13 45 -13q28 0 43 18q9 9 15 27h51q-41 -109 -126 -109q-26 0 -54 13l-24 9q-40 17 -62 17q-36 0 -53 -45h-47q13 36 35 63q36 45 91 45q35 0 86 -25z" />
    <glyph glyph-name="uni1EF9" unicode="&#x1ef9;" horiz-adv-x="500" 
d="M210 97l232 426h97l-131 -230q-30 -53 -77.5 -134t-49.5 -85q-120 -202 -159 -244q-41 -44 -117 -44q-24 0 -52 6l18 81q31 -10 48 -10q38 0 61 28q3 3 26 40l34 54l-79 538h100zM369 688q26 -13 45 -13q26 0 43 17q8 11 15 28h51q-42 -109 -127 -109q-25 0 -53 13l-24 9
q-40 17 -62 17q-35 0 -53 -46h-48q15 40 34 63q38 45 93 45q37 0 86 -24z" />
    <glyph glyph-name="uni20AB" unicode="&#x20ab;" 
d="M222 58q62 0 112 53.5t71 149.5q20 95 -8.5 145t-91.5 50q-68 0 -119 -52t-72 -149q-18 -83 5 -141q24 -56 103 -56zM400 507q20 -15 42 -51l29 135h-163l12 58h163l16 71h85l-16 -71h65l-12 -58h-65l-125 -591h-79l15 73q-78 -92 -189 -92q-88 0 -136 73t-22 196
q24 116 100 198q76 84 185 84q61 0 95 -25zM56 -125l12 58h313l-12 -58h-313z" />
  </font>
</defs>
</svg>
