<?xml version="1.0" standalone="no"?>
<!DOCTYPE svg PUBLIC "-//W3C//DTD SVG 1.1//EN" "http://www.w3.org/Graphics/SVG/1.1/DTD/svg11.dtd" >
<svg xmlns="http://www.w3.org/2000/svg" xmlns:xlink="http://www.w3.org/1999/xlink" version="1.1">
<metadata>
Created by FontForge 20170731 at Tue May 14 22:09:42 2013
 By Aleksey,,,
Copyright (c) 1981, 1982, 1983, 1989 and 1993, Linotype Library GmbH or its affiliated Linotype-Hell companies. All rights reserved.

The digitally encoded machine readable software for producing the Typefaces licensed to you is now the property of Heidelberger Druckmaschinen AG and its licensors, and may not be reproduced, used, displayed, modified, disclosed or transferred without the express written approval of Heidelberger Druckmaschinen AG.

Copyright (c) 1988, 1990, 1993 Adobe Systems Incorporated. All Rights Reserved.
</metadata>
<defs>
<font id="HelveticaNeue-UltraLight" horiz-adv-x="575" >
  <font-face 
    font-family="Helvetica Neue"
    font-weight="100"
    font-stretch="normal"
    units-per-em="1000"
    panose-1="2 0 2 6 0 0 0 2 0 4"
    ascent="800"
    descent="-200"
    bbox="-68 -303 756 1073"
    underline-thickness="50"
    underline-position="-175"
    unicode-range="U+0020-20AB"
  />
<missing-glyph horiz-adv-x="500" 
d="M442 8v496h-384v-496h384zM50 512h400v-512h-400v512z" />
    <glyph glyph-name=".notdef" horiz-adv-x="500" 
d="M442 8v496h-384v-496h384zM50 512h400v-512h-400v512z" />
    <glyph glyph-name=".null" horiz-adv-x="0" 
 />
    <glyph glyph-name="nonmarkingreturn" horiz-adv-x="333" 
 />
    <glyph glyph-name="controlBS" horiz-adv-x="0" 
 />
    <glyph glyph-name="space" unicode=" " horiz-adv-x="278" 
 />
    <glyph glyph-name="Abreve" unicode="&#x102;" 
d="M106 235l-95 -235h-22l289 714h26l282 -714h-22l-94 235h-364zM462 255l-170 439h-2l-176 -439h348zM164 871h20q5 -39 32 -63t67 -24q44 0 72.5 21.5t33.5 65.5h20q-6 -50 -40 -78.5t-86 -28.5q-48 0 -80.5 29.5t-38.5 77.5z" />
    <glyph glyph-name="abreve" unicode="&#x103;" horiz-adv-x="481" 
d="M54 355q4 76 54 123.5t142 47.5q166 0 170 -147v-327q0 -18 11 -26.5t25.5 -7.5t28.5 2v-20h-30q-55 0 -55 50v67h-2q-17 -53 -72.5 -90.5t-131.5 -37.5q-80 0 -126 35.5t-46 102.5q0 37 10.5 64.5t26.5 43.5t41 26t47.5 14t51.5 6q125 7 152 15q46 24 49 68
q0 28 -4.5 49t-18.5 44t-46 36t-81 13q-80 0 -125.5 -39t-50.5 -112h-20zM400 302h-2q-6 -8 -15 -14t-22.5 -10t-26 -6.5t-32 -4t-33 -2.5t-36 -2t-34.5 -2q-35 -2 -59.5 -8t-48.5 -19.5t-36.5 -40t-12.5 -66.5q0 -50 36 -84.5t114 -34.5q96 0 152 59t56 140v95zM130 686h20
q5 -39 32 -63t67 -24q44 0 72.5 21.5t33.5 65.5h20q-6 -50 -40 -78.5t-86 -28.5q-48 0 -80.5 29.5t-38.5 77.5z" />
    <glyph glyph-name="Dcroat" unicode="&#x110;" horiz-adv-x="648" 
d="M74 362v-342h204q135 0 222.5 86.5t87.5 250.5q0 77 -16.5 137t-43.5 97t-65.5 61t-78 33t-85.5 9h-225v-312h297v-20h-297zM-9 362v20h63v332h250q58 0 108.5 -17t96 -55.5t72.5 -111.5t27 -173q0 -93 -27.5 -163.5t-75.5 -111.5t-106.5 -61.5t-125.5 -20.5h-219v362
h-63z" />
    <glyph glyph-name="dslash" unicode="&#x111;" horiz-adv-x="537" 
d="M577 616h-102v-616h-20v144h-2q-21 -71 -75 -113t-131 -42q-100 0 -159.5 74.5t-59.5 192.5q0 114 58.5 192t160.5 78q80 0 134 -42t72 -114h2v246h-108v20h108v78h20v-78h102v-20zM455 256q0 119 -56.5 184.5t-151.5 65.5q-66 0 -113 -38.5t-66.5 -93.5t-19.5 -118
q0 -105 52 -176.5t147 -71.5q96 0 152 72t56 176z" />
    <glyph glyph-name="Itilde" unicode="&#x128;" horiz-adv-x="128" 
d="M54 714h20v-714h-20v714zM-48 764h-20q0 28 20.5 53.5t46.5 25.5q24 0 66 -29t61 -29q22 0 35.5 16.5t13.5 38.5h20q0 -32 -18 -53.5t-51 -21.5q-26 0 -66 29t-61 29q-19 0 -33 -19.5t-14 -39.5z" />
    <glyph glyph-name="itilde" unicode="&#x129;" horiz-adv-x="130" 
d="M55 0v514h20v-514h-20zM-47 567h-20q0 28 20.5 53.5t46.5 25.5q24 0 66 -29t61 -29q22 0 35.5 16.5t13.5 38.5h20q0 -32 -18 -53.5t-51 -21.5q-26 0 -66 29t-61 29q-19 0 -33 -19.5t-14 -39.5z" />
    <glyph glyph-name="Utilde" unicode="&#x168;" horiz-adv-x="632" 
d="M558 714h20v-448q0 -282 -262 -282t-262 282v448h20v-448q0 -263 242 -263t242 263v448zM204 764h-20q0 28 20.5 53.5t46.5 25.5q24 0 66 -29t61 -29q22 0 35.5 16.5t13.5 38.5h20q0 -32 -18 -53.5t-51 -21.5q-26 0 -66 29t-61 29q-19 0 -33 -19.5t-14 -39.5z" />
    <glyph glyph-name="utilde" unicode="&#x169;" horiz-adv-x="500" 
d="M445 0h-20v127h-2q-15 -62 -63 -100t-122 -38q-83 0 -133 48t-50 136v341h20v-338q0 -84 46 -126t117 -42q88 0 137.5 62t49.5 153v291h20v-514zM138 567h-20q0 28 20.5 53.5t46.5 25.5q24 0 66 -29t61 -29q22 0 35.5 16.5t13.5 38.5h20q0 -32 -18 -53.5t-51 -21.5
q-26 0 -66 29t-61 29q-19 0 -33 -19.5t-14 -39.5z" />
    <glyph glyph-name="Ohorn" unicode="&#x1a0;" horiz-adv-x="793" 
d="M32 357q0 159 87.5 266.5t241.5 107.5t241.5 -107.5t87.5 -266.5q0 -160 -87.5 -266.5t-241.5 -106.5t-241.5 106.5t-87.5 266.5zM52 357q2 -157 85 -255.5t224 -98.5t224 98.5t85 255.5q-2 157 -85 255.5t-224 98.5t-224 -98.5t-85 -255.5zM756 714v-98q0 -44 -35 -73
q-38 -31 -59 -45l-4 24q21 11 47 31q31 22 31 63v98h20z" />
    <glyph glyph-name="ohorn" unicode="&#x1a1;" horiz-adv-x="605" 
d="M48 257q0 -104 56 -176.5t156 -72.5q98 0 154.5 72.5t56.5 176.5q0 102 -56.5 175.5t-154.5 73.5q-99 0 -155.5 -73t-56.5 -176zM28 257q0 112 62 190.5t170 78.5q107 0 169 -79t62 -190q0 -112 -62 -190t-170 -78q-107 0 -169 78t-62 190zM569 514v-98q0 -44 -35 -73
q-38 -31 -59 -45l-4 24q21 11 47 31q31 22 31 63v98h20z" />
    <glyph glyph-name="Uhorn" unicode="&#x1af;" horiz-adv-x="736" 
d="M558 714h20v-448q0 -282 -262 -282t-262 282v448h20v-448q0 -263 242 -263t242 263v448zM703 714v-98q0 -44 -50 -73q-40 -23 -74 -45l-4 24l62 31q46 22 46 63v98h20z" />
    <glyph glyph-name="uhorn" unicode="&#x1b0;" horiz-adv-x="614" 
d="M445 0h-20v127h-2q-15 -62 -63 -100t-122 -38q-83 0 -133 48t-50 136v341h20v-338q0 -84 46 -126t117 -42q88 0 137.5 62t49.5 153v291h20v-514zM564 514v-98q0 -44 -50 -73q-40 -23 -74 -45l-4 24l62 31q46 22 46 63v98h20z" />
    <glyph glyph-name="Adotbelow" unicode="&#x1ea0;" 
d="M106 235l-95 -235h-22l289 714h26l282 -714h-22l-94 235h-364zM462 255l-170 439h-2l-176 -439h348zM297 -46v-81h-20v81h20z" />
    <glyph glyph-name="adotbelow" unicode="&#x1ea1;" horiz-adv-x="481" 
d="M54 355q4 76 54 123.5t142 47.5q166 0 170 -147v-327q0 -18 11 -26.5t25.5 -7.5t28.5 2v-20h-30q-55 0 -55 50v67h-2q-17 -53 -72.5 -90.5t-131.5 -37.5q-80 0 -126 35.5t-46 102.5q0 37 10.5 64.5t26.5 43.5t41 26t47.5 14t51.5 6q125 7 152 15q46 24 49 68
q0 28 -4.5 49t-18.5 44t-46 36t-81 13q-80 0 -125.5 -39t-50.5 -112h-20zM400 302h-2q-6 -8 -15 -14t-22.5 -10t-26 -6.5t-32 -4t-33 -2.5t-36 -2t-34.5 -2q-35 -2 -59.5 -8t-48.5 -19.5t-36.5 -40t-12.5 -66.5q0 -50 36 -84.5t114 -34.5q96 0 152 59t56 140v95zM263 -57
v-81h-20v81h20z" />
    <glyph glyph-name="Ahookabove" unicode="&#x1ea2;" 
d="M106 235l-95 -235h-22l289 714h26l282 -714h-22l-94 235h-364zM462 255l-170 439h-2l-176 -439h348zM206 880l-9 19q46 17 81 17q98 0 98 -73q0 -31 -21.5 -45.5t-53.5 -14.5q-11 0 -21 3t-12 3l-9 -25h-20l-7 42l15 10q22 -13 54 -13q19 0 37 10.5t18 29.5q0 53 -78 53
q-30 0 -72 -16z" />
    <glyph glyph-name="ahookabove" unicode="&#x1ea3;" horiz-adv-x="481" 
d="M54 355q4 76 54 123.5t142 47.5q166 0 170 -147v-327q0 -18 11 -26.5t25.5 -7.5t28.5 2v-20h-30q-55 0 -55 50v67h-2q-17 -53 -72.5 -90.5t-131.5 -37.5q-80 0 -126 35.5t-46 102.5q0 37 10.5 64.5t26.5 43.5t41 26t47.5 14t51.5 6q125 7 152 15q46 24 49 68
q0 28 -4.5 49t-18.5 44t-46 36t-81 13q-80 0 -125.5 -39t-50.5 -112h-20zM400 302h-2q-6 -8 -15 -14t-22.5 -10t-26 -6.5t-32 -4t-33 -2.5t-36 -2t-34.5 -2q-35 -2 -59.5 -8t-48.5 -19.5t-36.5 -40t-12.5 -66.5q0 -50 36 -84.5t114 -34.5q96 0 152 59t56 140v95zM172 692
l-9 19q46 17 81 17q98 0 98 -73q0 -31 -21.5 -45.5t-53.5 -14.5q-11 0 -21 3t-12 3l-9 -25h-20l-7 42l15 10q22 -13 54 -13q19 0 37 10.5t18 29.5q0 53 -78 53q-30 0 -72 -16z" />
    <glyph glyph-name="Acircumflexacute" unicode="&#x1ea4;" 
d="M106 235l-95 -235h-22l289 714h26l282 -714h-22l-94 235h-364zM462 255l-170 439h-2l-176 -439h348zM388 764l-103 123l-98 -123h-20l112 139h15l114 -139h-20zM534 985l-146 -144h-15l132 144h29z" />
    <glyph glyph-name="acircumflexacute" unicode="&#x1ea5;" horiz-adv-x="481" 
d="M54 355q4 76 54 123.5t142 47.5q166 0 170 -147v-327q0 -18 11 -26.5t25.5 -7.5t28.5 2v-20h-30q-55 0 -55 50v67h-2q-17 -53 -72.5 -90.5t-131.5 -37.5q-80 0 -126 35.5t-46 102.5q0 37 10.5 64.5t26.5 43.5t41 26t47.5 14t51.5 6q125 7 152 15q46 24 49 68
q0 28 -4.5 49t-18.5 44t-46 36t-81 13q-80 0 -125.5 -39t-50.5 -112h-20zM400 302h-2q-6 -8 -15 -14t-22.5 -10t-26 -6.5t-32 -4t-33 -2.5t-36 -2t-34.5 -2q-35 -2 -59.5 -8t-48.5 -19.5t-36.5 -40t-12.5 -66.5q0 -50 36 -84.5t114 -34.5q96 0 152 59t56 140v95zM354 580
l-103 123l-98 -123h-20l112 139h15l114 -139h-20zM491 794l-146 -144h-15l132 144h29z" />
    <glyph glyph-name="Acircumflexgrave" unicode="&#x1ea6;" 
d="M106 235l-95 -235h-22l289 714h26l282 -714h-22l-94 235h-364zM462 255l-170 439h-2l-176 -439h348zM388 764l-103 123l-98 -123h-20l112 139h15l114 -139h-20zM63 973h29l124 -144h-15z" />
    <glyph glyph-name="acircumflexgrave" unicode="&#x1ea7;" horiz-adv-x="481" 
d="M54 355q4 76 54 123.5t142 47.5q166 0 170 -147v-327q0 -18 11 -26.5t25.5 -7.5t28.5 2v-20h-30q-55 0 -55 50v67h-2q-17 -53 -72.5 -90.5t-131.5 -37.5q-80 0 -126 35.5t-46 102.5q0 37 10.5 64.5t26.5 43.5t41 26t47.5 14t51.5 6q125 7 152 15q46 24 49 68
q0 28 -4.5 49t-18.5 44t-46 36t-81 13q-80 0 -125.5 -39t-50.5 -112h-20zM400 302h-2q-6 -8 -15 -14t-22.5 -10t-26 -6.5t-32 -4t-33 -2.5t-36 -2t-34.5 -2q-35 -2 -59.5 -8t-48.5 -19.5t-36.5 -40t-12.5 -66.5q0 -50 36 -84.5t114 -34.5q96 0 152 59t56 140v95zM354 580
l-103 123l-98 -123h-20l112 139h15l114 -139h-20zM33 791h29l124 -144h-15z" />
    <glyph glyph-name="Acircumflexhookabove" unicode="&#x1ea8;" 
d="M106 235l-95 -235h-22l289 714h26l282 -714h-22l-94 235h-364zM462 255l-170 439h-2l-176 -439h348zM388 764l-103 123l-98 -123h-20l112 139h15l114 -139h-20zM417 873l-9 19q46 17 81 17q98 0 98 -73q0 -31 -21.5 -45.5t-53.5 -14.5q-11 0 -21 3t-12 3l-9 -25h-20
l-7 42l15 10q22 -13 54 -13q19 0 37 10.5t18 29.5q0 53 -78 53q-30 0 -72 -16z" />
    <glyph glyph-name="acircumflexhookabove" unicode="&#x1ea9;" horiz-adv-x="481" 
d="M54 355q4 76 54 123.5t142 47.5q166 0 170 -147v-327q0 -18 11 -26.5t25.5 -7.5t28.5 2v-20h-30q-55 0 -55 50v67h-2q-17 -53 -72.5 -90.5t-131.5 -37.5q-80 0 -126 35.5t-46 102.5q0 37 10.5 64.5t26.5 43.5t41 26t47.5 14t51.5 6q125 7 152 15q46 24 49 68
q0 28 -4.5 49t-18.5 44t-46 36t-81 13q-80 0 -125.5 -39t-50.5 -112h-20zM400 302h-2q-6 -8 -15 -14t-22.5 -10t-26 -6.5t-32 -4t-33 -2.5t-36 -2t-34.5 -2q-35 -2 -59.5 -8t-48.5 -19.5t-36.5 -40t-12.5 -66.5q0 -50 36 -84.5t114 -34.5q96 0 152 59t56 140v95zM354 577
l-103 123l-98 -123h-20l112 139h15l114 -139h-20zM383 685l-9 19q46 17 81 17q98 0 98 -73q0 -31 -21.5 -45.5t-53.5 -14.5q-11 0 -21 3t-12 3l-9 -25h-20l-7 42l15 10q22 -13 54 -13q19 0 37 10.5t18 29.5q0 53 -78 53q-30 0 -72 -16z" />
    <glyph glyph-name="Acircumflextilde" unicode="&#x1eaa;" 
d="M106 235l-95 -235h-22l289 714h26l282 -714h-22l-94 235h-364zM462 255l-170 439h-2l-176 -439h348zM388 764l-103 123l-98 -123h-20l112 139h15l114 -139h-20zM156 953q0 28 20.5 53.5t46.5 25.5q24 0 66 -29t61 -29q22 0 35.5 16.5t13.5 38.5h20q0 -32 -18 -53.5
t-51 -21.5q-26 0 -66 29t-61 29q-19 0 -33 -19.5t-14 -39.5h-20z" />
    <glyph glyph-name="acircumflextilde" unicode="&#x1eab;" horiz-adv-x="481" 
d="M54 355q4 76 54 123.5t142 47.5q166 0 170 -147v-327q0 -18 11 -26.5t25.5 -7.5t28.5 2v-20h-30q-55 0 -55 50v67h-2q-17 -53 -72.5 -90.5t-131.5 -37.5q-80 0 -126 35.5t-46 102.5q0 37 10.5 64.5t26.5 43.5t41 26t47.5 14t51.5 6q125 7 152 15q46 24 49 68
q0 28 -4.5 49t-18.5 44t-46 36t-81 13q-80 0 -125.5 -39t-50.5 -112h-20zM400 302h-2q-6 -8 -15 -14t-22.5 -10t-26 -6.5t-32 -4t-33 -2.5t-36 -2t-34.5 -2q-35 -2 -59.5 -8t-48.5 -19.5t-36.5 -40t-12.5 -66.5q0 -50 36 -84.5t114 -34.5q96 0 152 59t56 140v95zM354 580
l-103 123l-98 -123h-20l112 139h15l114 -139h-20zM122 765q0 28 20.5 53.5t46.5 25.5q24 0 66 -29t61 -29q22 0 35.5 16.5t13.5 38.5h20q0 -32 -18 -53.5t-51 -21.5q-26 0 -66 29t-61 29q-19 0 -33 -19.5t-14 -39.5h-20z" />
    <glyph glyph-name="Acircumflexdotbelow" unicode="&#x1eac;" 
d="M106 235l-95 -235h-22l289 714h26l282 -714h-22l-94 235h-364zM462 255l-170 439h-2l-176 -439h348zM388 764l-103 123l-98 -123h-20l112 139h15l114 -139h-20zM297 -46v-81h-20v81h20z" />
    <glyph glyph-name="acircumflexdotbelow" unicode="&#x1ead;" horiz-adv-x="481" 
d="M54 355q4 76 54 123.5t142 47.5q166 0 170 -147v-327q0 -18 11 -26.5t25.5 -7.5t28.5 2v-20h-30q-55 0 -55 50v67h-2q-17 -53 -72.5 -90.5t-131.5 -37.5q-80 0 -126 35.5t-46 102.5q0 37 10.5 64.5t26.5 43.5t41 26t47.5 14t51.5 6q125 7 152 15q46 24 49 68
q0 28 -4.5 49t-18.5 44t-46 36t-81 13q-80 0 -125.5 -39t-50.5 -112h-20zM400 302h-2q-6 -8 -15 -14t-22.5 -10t-26 -6.5t-32 -4t-33 -2.5t-36 -2t-34.5 -2q-35 -2 -59.5 -8t-48.5 -19.5t-36.5 -40t-12.5 -66.5q0 -50 36 -84.5t114 -34.5q96 0 152 59t56 140v95zM354 580
l-103 123l-98 -123h-20l112 139h15l114 -139h-20zM263 -57v-81h-20v81h20z" />
    <glyph glyph-name="Abreveacute" unicode="&#x1eae;" 
d="M106 235l-95 -235h-22l289 714h26l282 -714h-22l-94 235h-364zM462 255l-170 439h-2l-176 -439h348zM185 871q5 -39 32 -63t67 -24q44 0 72.5 21.5t33.5 65.5h20q-6 -50 -40 -78.5t-86 -28.5q-48 0 -80.5 29.5t-38.5 77.5h20zM439 1039l-146 -144h-15l132 144h29z" />
    <glyph glyph-name="abreveacute" unicode="&#x1eaf;" horiz-adv-x="481" 
d="M54 355q4 76 54 123.5t142 47.5q166 0 170 -147v-327q0 -18 11 -26.5t25.5 -7.5t28.5 2v-20h-30q-55 0 -55 50v67h-2q-17 -53 -72.5 -90.5t-131.5 -37.5q-80 0 -126 35.5t-46 102.5q0 37 10.5 64.5t26.5 43.5t41 26t47.5 14t51.5 6q125 7 152 15q46 24 49 68
q0 28 -4.5 49t-18.5 44t-46 36t-81 13q-80 0 -125.5 -39t-50.5 -112h-20zM400 302h-2q-6 -8 -15 -14t-22.5 -10t-26 -6.5t-32 -4t-33 -2.5t-36 -2t-34.5 -2q-35 -2 -59.5 -8t-48.5 -19.5t-36.5 -40t-12.5 -66.5q0 -50 36 -84.5t114 -34.5q96 0 152 59t56 140v95zM151 687
q5 -39 32 -63t67 -24q44 0 72.5 21.5t33.5 65.5h20q-6 -50 -40 -78.5t-86 -28.5q-48 0 -80.5 29.5t-38.5 77.5h20zM394 851l-146 -144h-15l132 144h29z" />
    <glyph glyph-name="Abrevegrave" unicode="&#x1eb0;" 
d="M106 235l-95 -235h-22l289 714h26l282 -714h-22l-94 235h-364zM462 255l-170 439h-2l-176 -439h348zM185 871q5 -39 32 -63t67 -24q44 0 72.5 21.5t33.5 65.5h20q-6 -50 -40 -78.5t-86 -28.5q-48 0 -80.5 29.5t-38.5 77.5h20zM154 1025h29l124 -144h-15z" />
    <glyph glyph-name="abrevegrave" unicode="&#x1eb1;" horiz-adv-x="481" 
d="M54 355q4 76 54 123.5t142 47.5q166 0 170 -147v-327q0 -18 11 -26.5t25.5 -7.5t28.5 2v-20h-30q-55 0 -55 50v67h-2q-17 -53 -72.5 -90.5t-131.5 -37.5q-80 0 -126 35.5t-46 102.5q0 37 10.5 64.5t26.5 43.5t41 26t47.5 14t51.5 6q125 7 152 15q46 24 49 68
q0 28 -4.5 49t-18.5 44t-46 36t-81 13q-80 0 -125.5 -39t-50.5 -112h-20zM400 302h-2q-6 -8 -15 -14t-22.5 -10t-26 -6.5t-32 -4t-33 -2.5t-36 -2t-34.5 -2q-35 -2 -59.5 -8t-48.5 -19.5t-36.5 -40t-12.5 -66.5q0 -50 36 -84.5t114 -34.5q96 0 152 59t56 140v95zM151 687
q5 -39 32 -63t67 -24q44 0 72.5 21.5t33.5 65.5h20q-6 -50 -40 -78.5t-86 -28.5q-48 0 -80.5 29.5t-38.5 77.5h20zM125 820h29l124 -144h-15z" />
    <glyph glyph-name="Abrevehookabove" unicode="&#x1eb2;" 
d="M106 235l-95 -235h-22l289 714h26l282 -714h-22l-94 235h-364zM462 255l-170 439h-2l-176 -439h348zM185 871q5 -39 32 -63t67 -24q44 0 72.5 21.5t33.5 65.5h20q-6 -50 -40 -78.5t-86 -28.5q-48 0 -80.5 29.5t-38.5 77.5h20zM206 1037l-9 19q46 17 81 17q98 0 98 -73
q0 -31 -21.5 -45.5t-53.5 -14.5q-11 0 -21 3t-12 3l-9 -25h-20l-7 42l15 10q22 -13 54 -13q19 0 37 10.5t18 29.5q0 53 -78 53q-30 0 -72 -16z" />
    <glyph glyph-name="abrevehookabove" unicode="&#x1eb3;" horiz-adv-x="481" 
d="M54 355q4 76 54 123.5t142 47.5q166 0 170 -147v-327q0 -18 11 -26.5t25.5 -7.5t28.5 2v-20h-30q-55 0 -55 50v67h-2q-17 -53 -72.5 -90.5t-131.5 -37.5q-80 0 -126 35.5t-46 102.5q0 37 10.5 64.5t26.5 43.5t41 26t47.5 14t51.5 6q125 7 152 15q46 24 49 68
q0 28 -4.5 49t-18.5 44t-46 36t-81 13q-80 0 -125.5 -39t-50.5 -112h-20zM400 302h-2q-6 -8 -15 -14t-22.5 -10t-26 -6.5t-32 -4t-33 -2.5t-36 -2t-34.5 -2q-35 -2 -59.5 -8t-48.5 -19.5t-36.5 -40t-12.5 -66.5q0 -50 36 -84.5t114 -34.5q96 0 152 59t56 140v95zM151 684
q5 -39 32 -63t67 -24q44 0 72.5 21.5t33.5 65.5h20q-6 -50 -40 -78.5t-86 -28.5q-48 0 -80.5 29.5t-38.5 77.5h20zM172 849l-9 19q46 17 81 17q98 0 98 -73q0 -31 -21.5 -45.5t-53.5 -14.5q-11 0 -21 3t-12 3l-9 -25h-20l-7 42l15 10q22 -13 54 -13q19 0 37 10.5t18 29.5
q0 53 -78 53q-30 0 -72 -16z" />
    <glyph glyph-name="Abrevetilde" unicode="&#x1eb4;" 
d="M106 235l-95 -235h-22l289 714h26l282 -714h-22l-94 235h-364zM462 255l-170 439h-2l-176 -439h348zM185 871q5 -39 32 -63t67 -24q44 0 72.5 21.5t33.5 65.5h20q-6 -50 -40 -78.5t-86 -28.5q-48 0 -80.5 29.5t-38.5 77.5h20zM156 921q0 28 20.5 53.5t46.5 25.5
q24 0 66 -29t61 -29q22 0 35.5 16.5t13.5 38.5h20q0 -32 -18 -53.5t-51 -21.5q-26 0 -66 29t-61 29q-19 0 -33 -19.5t-14 -39.5h-20z" />
    <glyph glyph-name="abrevetilde" unicode="&#x1eb5;" horiz-adv-x="481" 
d="M54 355q4 76 54 123.5t142 47.5q166 0 170 -147v-327q0 -18 11 -26.5t25.5 -7.5t28.5 2v-20h-30q-55 0 -55 50v67h-2q-17 -53 -72.5 -90.5t-131.5 -37.5q-80 0 -126 35.5t-46 102.5q0 37 10.5 64.5t26.5 43.5t41 26t47.5 14t51.5 6q125 7 152 15q46 24 49 68
q0 28 -4.5 49t-18.5 44t-46 36t-81 13q-80 0 -125.5 -39t-50.5 -112h-20zM400 302h-2q-6 -8 -15 -14t-22.5 -10t-26 -6.5t-32 -4t-33 -2.5t-36 -2t-34.5 -2q-35 -2 -59.5 -8t-48.5 -19.5t-36.5 -40t-12.5 -66.5q0 -50 36 -84.5t114 -34.5q96 0 152 59t56 140v95zM151 687
q5 -39 32 -63t67 -24q44 0 72.5 21.5t33.5 65.5h20q-6 -50 -40 -78.5t-86 -28.5q-48 0 -80.5 29.5t-38.5 77.5h20zM122 733q0 28 20.5 53.5t46.5 25.5q24 0 66 -29t61 -29q22 0 35.5 16.5t13.5 38.5h20q0 -32 -18 -53.5t-51 -21.5q-26 0 -66 29t-61 29q-19 0 -33 -19.5
t-14 -39.5h-20z" />
    <glyph glyph-name="Abrevedotbelow" unicode="&#x1eb6;" 
d="M106 235l-95 -235h-22l289 714h26l282 -714h-22l-94 235h-364zM462 255l-170 439h-2l-176 -439h348zM185 871q5 -39 32 -63t67 -24q44 0 72.5 21.5t33.5 65.5h20q-6 -50 -40 -78.5t-86 -28.5q-48 0 -80.5 29.5t-38.5 77.5h20zM297 -46v-81h-20v81h20z" />
    <glyph glyph-name="abrevedotbelow" unicode="&#x1eb7;" horiz-adv-x="481" 
d="M54 355q4 76 54 123.5t142 47.5q166 0 170 -147v-327q0 -18 11 -26.5t25.5 -7.5t28.5 2v-20h-30q-55 0 -55 50v67h-2q-17 -53 -72.5 -90.5t-131.5 -37.5q-80 0 -126 35.5t-46 102.5q0 37 10.5 64.5t26.5 43.5t41 26t47.5 14t51.5 6q125 7 152 15q46 24 49 68
q0 28 -4.5 49t-18.5 44t-46 36t-81 13q-80 0 -125.5 -39t-50.5 -112h-20zM400 302h-2q-6 -8 -15 -14t-22.5 -10t-26 -6.5t-32 -4t-33 -2.5t-36 -2t-34.5 -2q-35 -2 -59.5 -8t-48.5 -19.5t-36.5 -40t-12.5 -66.5q0 -50 36 -84.5t114 -34.5q96 0 152 59t56 140v95zM151 687
q5 -39 32 -63t67 -24q44 0 72.5 21.5t33.5 65.5h20q-6 -50 -40 -78.5t-86 -28.5q-48 0 -80.5 29.5t-38.5 77.5h20zM263 -57v-81h-20v81h20z" />
    <glyph glyph-name="Edotbelow" unicode="&#x1eb8;" horiz-adv-x="537" 
d="M74 20h458v-20h-478v714h474v-20h-454v-312h427v-20h-427v-342zM303 -46v-81h-20v81h20z" />
    <glyph glyph-name="edotbelow" unicode="&#x1eb9;" horiz-adv-x="500" 
d="M45 253q2 -112 51 -178.5t152 -66.5q83 0 135.5 43.5t65.5 126.5h20q-11 -89 -70.5 -139t-148.5 -50q-114 -2 -169.5 72t-55.5 196q0 123 66.5 196t158.5 73q113 0 171 -79.5t54 -193.5h-430zM455 273q0 99 -53.5 166t-149.5 67q-85 0 -143 -63.5t-64 -169.5h410z
M261 -58v-81h-20v81h20z" />
    <glyph glyph-name="Ehookabove" unicode="&#x1eba;" horiz-adv-x="537" 
d="M74 20h458v-20h-478v714h474v-20h-454v-312h427v-20h-427v-342zM212 880l-9 19q46 17 81 17q98 0 98 -73q0 -31 -21.5 -45.5t-53.5 -14.5q-11 0 -21 3t-12 3l-9 -25h-20l-7 42l15 10q22 -13 54 -13q19 0 37 10.5t18 29.5q0 53 -78 53q-30 0 -72 -16z" />
    <glyph glyph-name="ehookabove" unicode="&#x1ebb;" horiz-adv-x="500" 
d="M45 253q2 -112 51 -178.5t152 -66.5q83 0 135.5 43.5t65.5 126.5h20q-11 -89 -70.5 -139t-148.5 -50q-114 -2 -169.5 72t-55.5 196q0 123 66.5 196t158.5 73q113 0 171 -79.5t54 -193.5h-430zM455 273q0 99 -53.5 166t-149.5 67q-85 0 -143 -63.5t-64 -169.5h410z
M170 692l-9 19q46 17 81 17q98 0 98 -73q0 -31 -21.5 -45.5t-53.5 -14.5q-11 0 -21 3t-12 3l-9 -25h-20l-7 42l15 10q22 -13 54 -13q19 0 37 10.5t18 29.5q0 53 -78 53q-30 0 -72 -16z" />
    <glyph glyph-name="Etilde" unicode="&#x1ebc;" horiz-adv-x="537" 
d="M74 20h458v-20h-478v714h474v-20h-454v-312h427v-20h-427v-342zM162 764q0 28 20.5 53.5t46.5 25.5q24 0 66 -29t61 -29q22 0 35.5 16.5t13.5 38.5h20q0 -32 -18 -53.5t-51 -21.5q-26 0 -66 29t-61 29q-19 0 -33 -19.5t-14 -39.5h-20z" />
    <glyph glyph-name="etilde" unicode="&#x1ebd;" horiz-adv-x="500" 
d="M45 253q2 -112 51 -178.5t152 -66.5q83 0 135.5 43.5t65.5 126.5h20q-11 -89 -70.5 -139t-148.5 -50q-114 -2 -169.5 72t-55.5 196q0 123 66.5 196t158.5 73q113 0 171 -79.5t54 -193.5h-430zM455 273q0 99 -53.5 166t-149.5 67q-85 0 -143 -63.5t-64 -169.5h410z
M120 580q0 28 20.5 53.5t46.5 25.5q24 0 66 -29t61 -29q22 0 35.5 16.5t13.5 38.5h20q0 -32 -18 -53.5t-51 -21.5q-26 0 -66 29t-61 29q-19 0 -33 -19.5t-14 -39.5h-20z" />
    <glyph glyph-name="Ecircumflexacute" unicode="&#x1ebe;" horiz-adv-x="537" 
d="M74 20h458v-20h-478v714h474v-20h-454v-312h427v-20h-427v-342zM394 764l-103 123l-98 -123h-20l112 139h15l114 -139h-20zM529 984l-146 -144h-15l132 144h29z" />
    <glyph glyph-name="ecircumflexacute" unicode="&#x1ebf;" horiz-adv-x="500" 
d="M45 253q2 -112 51 -178.5t152 -66.5q83 0 135.5 43.5t65.5 126.5h20q-11 -89 -70.5 -139t-148.5 -50q-114 -2 -169.5 72t-55.5 196q0 123 66.5 196t158.5 73q113 0 171 -79.5t54 -193.5h-430zM455 273q0 99 -53.5 166t-149.5 67q-85 0 -143 -63.5t-64 -169.5h410z
M352 580l-103 123l-98 -123h-20l112 139h15l114 -139h-20zM483 794l-146 -144h-15l132 144h29z" />
    <glyph glyph-name="Ecircumflexgrave" unicode="&#x1ec0;" horiz-adv-x="537" 
d="M74 20h458v-20h-478v714h474v-20h-454v-312h427v-20h-427v-342zM394 764l-103 123l-98 -123h-20l112 139h15l114 -139h-20zM69 985h29l124 -144h-15z" />
    <glyph glyph-name="ecircumflexgrave" unicode="&#x1ec1;" horiz-adv-x="500" 
d="M45 253q2 -112 51 -178.5t152 -66.5q83 0 135.5 43.5t65.5 126.5h20q-11 -89 -70.5 -139t-148.5 -50q-114 -2 -169.5 72t-55.5 196q0 123 66.5 196t158.5 73q113 0 171 -79.5t54 -193.5h-430zM455 273q0 99 -53.5 166t-149.5 67q-85 0 -143 -63.5t-64 -169.5h410z
M352 580l-103 123l-98 -123h-20l112 139h15l114 -139h-20zM31 805h29l124 -144h-15z" />
    <glyph glyph-name="Ecircumflexhookabove" unicode="&#x1ec2;" horiz-adv-x="537" 
d="M74 20h458v-20h-478v714h474v-20h-454v-312h427v-20h-427v-342zM394 764l-103 123l-98 -123h-20l112 139h15l114 -139h-20zM423 873l-9 19q46 17 81 17q98 0 98 -73q0 -31 -21.5 -45.5t-53.5 -14.5q-11 0 -21 3t-12 3l-9 -25h-20l-7 42l15 10q22 -13 54 -13q19 0 37 10.5
t18 29.5q0 53 -78 53q-30 0 -72 -16z" />
    <glyph glyph-name="ecircumflexhookabove" unicode="&#x1ec3;" horiz-adv-x="500" 
d="M45 253q2 -112 51 -178.5t152 -66.5q83 0 135.5 43.5t65.5 126.5h20q-11 -89 -70.5 -139t-148.5 -50q-114 -2 -169.5 72t-55.5 196q0 123 66.5 196t158.5 73q113 0 171 -79.5t54 -193.5h-430zM455 273q0 99 -53.5 166t-149.5 67q-85 0 -143 -63.5t-64 -169.5h410z
M352 577l-103 123l-98 -123h-20l112 139h15l114 -139h-20zM381 685l-9 19q46 17 81 17q98 0 98 -73q0 -31 -21.5 -45.5t-53.5 -14.5q-11 0 -21 3t-12 3l-9 -25h-20l-7 42l15 10q22 -13 54 -13q19 0 37 10.5t18 29.5q0 53 -78 53q-30 0 -72 -16z" />
    <glyph glyph-name="Ecircumflextilde" unicode="&#x1ec4;" horiz-adv-x="537" 
d="M74 20h458v-20h-478v714h474v-20h-454v-312h427v-20h-427v-342zM394 764l-103 123l-98 -123h-20l112 139h15l114 -139h-20zM162 953q0 28 20.5 53.5t46.5 25.5q24 0 66 -29t61 -29q22 0 35.5 16.5t13.5 38.5h20q0 -32 -18 -53.5t-51 -21.5q-26 0 -66 29t-61 29
q-19 0 -33 -19.5t-14 -39.5h-20z" />
    <glyph glyph-name="ecircumflextilde" unicode="&#x1ec5;" horiz-adv-x="500" 
d="M45 253q2 -112 51 -178.5t152 -66.5q83 0 135.5 43.5t65.5 126.5h20q-11 -89 -70.5 -139t-148.5 -50q-114 -2 -169.5 72t-55.5 196q0 123 66.5 196t158.5 73q113 0 171 -79.5t54 -193.5h-430zM455 273q0 99 -53.5 166t-149.5 67q-85 0 -143 -63.5t-64 -169.5h410z
M352 580l-103 123l-98 -123h-20l112 139h15l114 -139h-20zM120 765q0 28 20.5 53.5t46.5 25.5q24 0 66 -29t61 -29q22 0 35.5 16.5t13.5 38.5h20q0 -32 -18 -53.5t-51 -21.5q-26 0 -66 29t-61 29q-19 0 -33 -19.5t-14 -39.5h-20z" />
    <glyph glyph-name="Ecircumflexdotbelow" unicode="&#x1ec6;" horiz-adv-x="537" 
d="M74 20h458v-20h-478v714h474v-20h-454v-312h427v-20h-427v-342zM394 764l-103 123l-98 -123h-20l112 139h15l114 -139h-20zM303 -46v-81h-20v81h20z" />
    <glyph glyph-name="ecircumflexdotbelow" unicode="&#x1ec7;" horiz-adv-x="500" 
d="M45 253q2 -112 51 -178.5t152 -66.5q83 0 135.5 43.5t65.5 126.5h20q-11 -89 -70.5 -139t-148.5 -50q-114 -2 -169.5 72t-55.5 196q0 123 66.5 196t158.5 73q113 0 171 -79.5t54 -193.5h-430zM455 273q0 99 -53.5 166t-149.5 67q-85 0 -143 -63.5t-64 -169.5h410z
M352 580l-103 123l-98 -123h-20l112 139h15l114 -139h-20zM261 -58v-81h-20v81h20z" />
    <glyph glyph-name="Ihookabove" unicode="&#x1ec8;" horiz-adv-x="128" 
d="M54 714h20v-714h-20v714zM-17 880l-9 19q46 17 81 17q98 0 98 -73q0 -31 -21.5 -45.5t-53.5 -14.5q-11 0 -21 3t-12 3l-9 -25h-20l-7 42l15 10q22 -13 54 -13q19 0 37 10.5t18 29.5q0 53 -78 53q-30 0 -72 -16z" />
    <glyph glyph-name="ihookabove" unicode="&#x1ec9;" horiz-adv-x="130" 
d="M55 0v514h20v-514h-20zM-16 681l-9 19q46 17 81 17q98 0 98 -73q0 -31 -21.5 -45.5t-53.5 -14.5q-11 0 -21 3t-12 3l-9 -25h-20l-7 42l15 10q22 -13 54 -13q19 0 37 10.5t18 29.5q0 53 -78 53q-30 0 -72 -16z" />
    <glyph glyph-name="Idotbelow" unicode="&#x1eca;" horiz-adv-x="128" 
d="M54 714h20v-714h-20v714zM75 -46v-81h-20v81h20z" />
    <glyph glyph-name="idotbelow" unicode="&#x1ecb;" horiz-adv-x="130" 
d="M75 613h-20v101h20v-101zM75 0h-20v514h20v-514zM75 -46v-81h-20v81h20z" />
    <glyph glyph-name="Odotbelow" unicode="&#x1ecc;" horiz-adv-x="721" 
d="M32 357q0 159 87.5 266.5t241.5 107.5t241.5 -107.5t87.5 -266.5q0 -160 -87.5 -266.5t-241.5 -106.5t-241.5 106.5t-87.5 266.5zM52 357q2 -157 85 -255.5t224 -98.5t224 98.5t85 255.5q-2 157 -85 255.5t-224 98.5t-224 -98.5t-85 -255.5zM371 -62v-81h-20v81h20z" />
    <glyph glyph-name="odotbelow" unicode="&#x1ecd;" horiz-adv-x="519" 
d="M48 257q0 -104 56 -176.5t156 -72.5q98 0 154.5 72.5t56.5 176.5q0 102 -56.5 175.5t-154.5 73.5q-99 0 -155.5 -73t-56.5 -176zM28 257q0 112 62 190.5t170 78.5q107 0 169 -79t62 -190q0 -112 -62 -190t-170 -78q-107 0 -169 78t-62 190zM269 -57v-81h-20v81h20z" />
    <glyph glyph-name="Ohookabove" unicode="&#x1ece;" horiz-adv-x="721" 
d="M32 357q0 159 87.5 266.5t241.5 107.5t241.5 -107.5t87.5 -266.5q0 -160 -87.5 -266.5t-241.5 -106.5t-241.5 106.5t-87.5 266.5zM52 357q2 -157 85 -255.5t224 -98.5t224 98.5t85 255.5q-2 157 -85 255.5t-224 98.5t-224 -98.5t-85 -255.5zM280 897l-9 19q46 17 81 17
q98 0 98 -73q0 -31 -21.5 -45.5t-53.5 -14.5q-11 0 -21 3t-12 3l-9 -25h-20l-7 42l15 10q22 -13 54 -13q19 0 37 10.5t18 29.5q0 53 -78 53q-30 0 -72 -16z" />
    <glyph glyph-name="ohookabove" unicode="&#x1ecf;" horiz-adv-x="519" 
d="M48 257q0 -104 56 -176.5t156 -72.5q98 0 154.5 72.5t56.5 176.5q0 102 -56.5 175.5t-154.5 73.5q-99 0 -155.5 -73t-56.5 -176zM28 257q0 112 62 190.5t170 78.5q107 0 169 -79t62 -190q0 -112 -62 -190t-170 -78q-107 0 -169 78t-62 190zM178 692l-9 19q46 17 81 17
q98 0 98 -73q0 -31 -21.5 -45.5t-53.5 -14.5q-11 0 -21 3t-12 3l-9 -25h-20l-7 42l15 10q22 -13 54 -13q19 0 37 10.5t18 29.5q0 53 -78 53q-30 0 -72 -16z" />
    <glyph glyph-name="Ocircumflexacute" unicode="&#x1ed0;" horiz-adv-x="721" 
d="M32 357q0 159 87.5 266.5t241.5 107.5t241.5 -107.5t87.5 -266.5q0 -160 -87.5 -266.5t-241.5 -106.5t-241.5 106.5t-87.5 266.5zM52 357q2 -157 85 -255.5t224 -98.5t224 98.5t85 255.5q-2 157 -85 255.5t-224 98.5t-224 -98.5t-85 -255.5zM462 781l-103 123l-98 -123
h-20l112 139h15l114 -139h-20zM616 993l-146 -144h-15l132 144h29z" />
    <glyph glyph-name="ocircumflexacute" unicode="&#x1ed1;" horiz-adv-x="519" 
d="M48 257q0 -104 56 -176.5t156 -72.5q98 0 154.5 72.5t56.5 176.5q0 102 -56.5 175.5t-154.5 73.5q-99 0 -155.5 -73t-56.5 -176zM28 257q0 112 62 190.5t170 78.5q107 0 169 -79t62 -190q0 -112 -62 -190t-170 -78q-107 0 -169 78t-62 190zM360 580l-103 123l-98 -123
h-20l112 139h15l114 -139h-20zM494 794l-146 -144h-15l132 144h29z" />
    <glyph glyph-name="Ocircumflexgrave" unicode="&#x1ed2;" horiz-adv-x="721" 
d="M32 357q0 159 87.5 266.5t241.5 107.5t241.5 -107.5t87.5 -266.5q0 -160 -87.5 -266.5t-241.5 -106.5t-241.5 106.5t-87.5 266.5zM52 357q2 -157 85 -255.5t224 -98.5t224 98.5t85 255.5q-2 157 -85 255.5t-224 98.5t-224 -98.5t-85 -255.5zM462 781l-103 123l-98 -123
h-20l112 139h15l114 -139h-20zM126 991h29l124 -144h-15z" />
    <glyph glyph-name="ocircumflexgrave" unicode="&#x1ed3;" horiz-adv-x="519" 
d="M48 257q0 -104 56 -176.5t156 -72.5q98 0 154.5 72.5t56.5 176.5q0 102 -56.5 175.5t-154.5 73.5q-99 0 -155.5 -73t-56.5 -176zM28 257q0 112 62 190.5t170 78.5q107 0 169 -79t62 -190q0 -112 -62 -190t-170 -78q-107 0 -169 78t-62 190zM360 580l-103 123l-98 -123
h-20l112 139h15l114 -139h-20zM27 796h29l124 -144h-15z" />
    <glyph glyph-name="Ocircumflexhookabove" unicode="&#x1ed4;" horiz-adv-x="721" 
d="M32 357q0 159 87.5 266.5t241.5 107.5t241.5 -107.5t87.5 -266.5q0 -160 -87.5 -266.5t-241.5 -106.5t-241.5 106.5t-87.5 266.5zM52 357q2 -157 85 -255.5t224 -98.5t224 98.5t85 255.5q-2 157 -85 255.5t-224 98.5t-224 -98.5t-85 -255.5zM462 781l-103 123l-98 -123
h-20l112 139h15l114 -139h-20zM491 890l-9 19q46 17 81 17q98 0 98 -73q0 -31 -21.5 -45.5t-53.5 -14.5q-11 0 -21 3t-12 3l-9 -25h-20l-7 42l15 10q22 -13 54 -13q19 0 37 10.5t18 29.5q0 53 -78 53q-30 0 -72 -16z" />
    <glyph glyph-name="ocircumflexhookabove" unicode="&#x1ed5;" horiz-adv-x="519" 
d="M48 257q0 -104 56 -176.5t156 -72.5q98 0 154.5 72.5t56.5 176.5q0 102 -56.5 175.5t-154.5 73.5q-99 0 -155.5 -73t-56.5 -176zM28 257q0 112 62 190.5t170 78.5q107 0 169 -79t62 -190q0 -112 -62 -190t-170 -78q-107 0 -169 78t-62 190zM360 577l-103 123l-98 -123
h-20l112 139h15l114 -139h-20zM389 685l-9 19q46 17 81 17q98 0 98 -73q0 -31 -21.5 -45.5t-53.5 -14.5q-11 0 -21 3t-12 3l-9 -25h-20l-7 42l15 10q22 -13 54 -13q19 0 37 10.5t18 29.5q0 53 -78 53q-30 0 -72 -16z" />
    <glyph glyph-name="Ocircumflextilde" unicode="&#x1ed6;" horiz-adv-x="721" 
d="M32 357q0 159 87.5 266.5t241.5 107.5t241.5 -107.5t87.5 -266.5q0 -160 -87.5 -266.5t-241.5 -106.5t-241.5 106.5t-87.5 266.5zM52 357q2 -157 85 -255.5t224 -98.5t224 98.5t85 255.5q-2 157 -85 255.5t-224 98.5t-224 -98.5t-85 -255.5zM462 781l-103 123l-98 -123
h-20l112 139h15l114 -139h-20zM230 970q0 28 20.5 53.5t46.5 25.5q24 0 66 -29t61 -29q22 0 35.5 16.5t13.5 38.5h20q0 -32 -18 -53.5t-51 -21.5q-26 0 -66 29t-61 29q-19 0 -33 -19.5t-14 -39.5h-20z" />
    <glyph glyph-name="ocircumflextilde" unicode="&#x1ed7;" horiz-adv-x="519" 
d="M48 257q0 -104 56 -176.5t156 -72.5q98 0 154.5 72.5t56.5 176.5q0 102 -56.5 175.5t-154.5 73.5q-99 0 -155.5 -73t-56.5 -176zM28 257q0 112 62 190.5t170 78.5q107 0 169 -79t62 -190q0 -112 -62 -190t-170 -78q-107 0 -169 78t-62 190zM360 580l-103 123l-98 -123
h-20l112 139h15l114 -139h-20zM128 765q0 28 20.5 53.5t46.5 25.5q24 0 66 -29t61 -29q22 0 35.5 16.5t13.5 38.5h20q0 -32 -18 -53.5t-51 -21.5q-26 0 -66 29t-61 29q-19 0 -33 -19.5t-14 -39.5h-20z" />
    <glyph glyph-name="Ocircumflexdotbelow" unicode="&#x1ed8;" horiz-adv-x="721" 
d="M32 357q0 159 87.5 266.5t241.5 107.5t241.5 -107.5t87.5 -266.5q0 -160 -87.5 -266.5t-241.5 -106.5t-241.5 106.5t-87.5 266.5zM52 357q2 -157 85 -255.5t224 -98.5t224 98.5t85 255.5q-2 157 -85 255.5t-224 98.5t-224 -98.5t-85 -255.5zM462 781l-103 123l-98 -123
h-20l112 139h15l114 -139h-20zM371 -62v-81h-20v81h20z" />
    <glyph glyph-name="ocircumflexdotbelow" unicode="&#x1ed9;" horiz-adv-x="519" 
d="M48 257q0 -104 56 -176.5t156 -72.5q98 0 154.5 72.5t56.5 176.5q0 102 -56.5 175.5t-154.5 73.5q-99 0 -155.5 -73t-56.5 -176zM28 257q0 112 62 190.5t170 78.5q107 0 169 -79t62 -190q0 -112 -62 -190t-170 -78q-107 0 -169 78t-62 190zM360 580l-103 123l-98 -123
h-20l112 139h15l114 -139h-20zM269 -57v-81h-20v81h20z" />
    <glyph glyph-name="Ohornacute" unicode="&#x1eda;" horiz-adv-x="793" 
d="M32 357q0 -160 87.5 -266.5t241.5 -106.5t241.5 106.5t87.5 266.5q0 159 -87.5 266.5t-241.5 107.5t-241.5 -107.5t-87.5 -266.5zM52 357q2 157 85 255.5t224 98.5t224 -98.5t85 -255.5q-2 -157 -85 -255.5t-224 -98.5t-224 98.5t-85 255.5zM756 616v98h-20v-98
q0 -41 -31 -63q-26 -20 -47 -31l4 -24q21 14 59 45q35 29 35 73zM475 925l-146 -144h-15l132 144h29z" />
    <glyph glyph-name="ohornacute" unicode="&#x1edb;" horiz-adv-x="605" 
d="M48 257q0 103 56.5 176t155.5 73q98 0 154.5 -73.5t56.5 -175.5q0 -104 -56.5 -176.5t-154.5 -72.5q-100 0 -156 72.5t-56 176.5zM28 257q0 -112 62 -190t169 -78q108 0 170 78t62 190q0 111 -62 190t-169 79q-108 0 -170 -78.5t-62 -190.5zM569 416v98h-20v-98
q0 -41 -31 -63q-26 -20 -47 -31l4 -24q21 14 59 45q35 29 35 73zM379 721l-146 -144h-15l132 144h29z" />
    <glyph glyph-name="Ohorngrave" unicode="&#x1edc;" horiz-adv-x="793" 
d="M32 357q0 -160 87.5 -266.5t241.5 -106.5t241.5 106.5t87.5 266.5q0 159 -87.5 266.5t-241.5 107.5t-241.5 -107.5t-87.5 -266.5zM52 357q2 157 85 255.5t224 98.5t224 -98.5t85 -255.5q-2 -157 -85 -255.5t-224 -98.5t-224 98.5t-85 255.5zM756 616v98h-20v-98
q0 -41 -31 -63q-26 -20 -47 -31l4 -24q21 14 59 45q35 29 35 73zM318 925h29l124 -144h-15z" />
    <glyph glyph-name="ohorngrave" unicode="&#x1edd;" horiz-adv-x="605" 
d="M48 257q0 103 56.5 176t155.5 73q98 0 154.5 -73.5t56.5 -175.5q0 -104 -56.5 -176.5t-154.5 -72.5q-100 0 -156 72.5t-56 176.5zM28 257q0 -112 62 -190t169 -78q108 0 170 78t62 190q0 111 -62 190t-169 79q-108 0 -170 -78.5t-62 -190.5zM569 416v98h-20v-98
q0 -41 -31 -63q-26 -20 -47 -31l4 -24q21 14 59 45q35 29 35 73zM222 721h29l124 -144h-15z" />
    <glyph glyph-name="Ohornhookabove" unicode="&#x1ede;" horiz-adv-x="793" 
d="M32 357q0 159 87.5 266.5t241.5 107.5t241.5 -107.5t87.5 -266.5q0 -160 -87.5 -266.5t-241.5 -106.5t-241.5 106.5t-87.5 266.5zM52 357q2 -157 85 -255.5t224 -98.5t224 98.5t85 255.5q-2 157 -85 255.5t-224 98.5t-224 -98.5t-85 -255.5zM756 714v-98q0 -44 -35 -73
q-38 -31 -59 -45l-4 24q21 11 47 31q31 22 31 63v98h20zM313 897l-9 19q46 17 81 17q98 0 98 -73q0 -31 -21.5 -45.5t-53.5 -14.5q-11 0 -21 3t-12 3l-9 -25h-20l-7 42l15 10q22 -13 54 -13q19 0 37 10.5t18 29.5q0 53 -78 53q-30 0 -72 -16z" />
    <glyph glyph-name="ohornhookabove" unicode="&#x1edf;" horiz-adv-x="605" 
d="M48 257q0 -104 56 -176.5t156 -72.5q98 0 154.5 72.5t56.5 176.5q0 102 -56.5 175.5t-154.5 73.5q-99 0 -155.5 -73t-56.5 -176zM28 257q0 112 62 190.5t170 78.5q107 0 169 -79t62 -190q0 -112 -62 -190t-170 -78q-107 0 -169 78t-62 190zM569 514v-98q0 -44 -35 -73
q-38 -31 -59 -45l-4 24q21 11 47 31q31 22 31 63v98h20zM217 692l-9 19q46 17 81 17q98 0 98 -73q0 -31 -21.5 -45.5t-53.5 -14.5q-11 0 -21 3t-12 3l-9 -25h-20l-7 42l15 10q22 -13 54 -13q19 0 37 10.5t18 29.5q0 53 -78 53q-30 0 -72 -16z" />
    <glyph glyph-name="Ohorntilde" unicode="&#x1ee0;" horiz-adv-x="793" 
d="M32 357q0 -160 87.5 -266.5t241.5 -106.5t241.5 106.5t87.5 266.5q0 159 -87.5 266.5t-241.5 107.5t-241.5 -107.5t-87.5 -266.5zM52 357q2 157 85 255.5t224 98.5t224 -98.5t85 -255.5q-2 -157 -85 -255.5t-224 -98.5t-224 98.5t-85 255.5zM756 616v98h-20v-98
q0 -41 -31 -63q-26 -20 -47 -31l4 -24q21 14 59 45q35 29 35 73zM263 781q0 28 20.5 53.5t46.5 25.5q24 0 66 -29t61 -29q22 0 35.5 16.5t13.5 38.5h20q0 -32 -18 -53.5t-51 -21.5q-26 0 -66 29t-61 29q-19 0 -33 -19.5t-14 -39.5h-20z" />
    <glyph glyph-name="ohorntilde" unicode="&#x1ee1;" horiz-adv-x="605" 
d="M48 257q0 103 56.5 176t155.5 73q98 0 154.5 -73.5t56.5 -175.5q0 -104 -56.5 -176.5t-154.5 -72.5q-100 0 -156 72.5t-56 176.5zM28 257q0 -112 62 -190t169 -78q108 0 170 78t62 190q0 111 -62 190t-169 79q-108 0 -170 -78.5t-62 -190.5zM569 416v98h-20v-98
q0 -41 -31 -63q-26 -20 -47 -31l4 -24q21 14 59 45q35 29 35 73zM167 577q0 28 20.5 53.5t46.5 25.5q24 0 66 -29t61 -29q22 0 35.5 16.5t13.5 38.5h20q0 -32 -18 -53.5t-51 -21.5q-26 0 -66 29t-61 29q-19 0 -33 -19.5t-14 -39.5h-20z" />
    <glyph glyph-name="Ohorndotbelow" unicode="&#x1ee2;" horiz-adv-x="793" 
d="M32 357q0 159 87.5 266.5t241.5 107.5t241.5 -107.5t87.5 -266.5q0 -160 -87.5 -266.5t-241.5 -106.5t-241.5 106.5t-87.5 266.5zM52 357q2 -157 85 -255.5t224 -98.5t224 98.5t85 255.5q-2 157 -85 255.5t-224 98.5t-224 -98.5t-85 -255.5zM756 714v-98q0 -44 -35 -73
q-38 -31 -59 -45l-4 24q21 11 47 31q31 22 31 63v98h20zM404 -65v-81h-20v81h20z" />
    <glyph glyph-name="ohorndotbelow" unicode="&#x1ee3;" horiz-adv-x="605" 
d="M48 257q0 -104 56 -176.5t156 -72.5q98 0 154.5 72.5t56.5 176.5q0 102 -56.5 175.5t-154.5 73.5q-99 0 -155.5 -73t-56.5 -176zM28 257q0 112 62 190.5t170 78.5q107 0 169 -79t62 -190q0 -112 -62 -190t-170 -78q-107 0 -169 78t-62 190zM569 514v-98q0 -44 -35 -73
q-38 -31 -59 -45l-4 24q21 11 47 31q31 22 31 63v98h20zM308 -60v-81h-20v81h20z" />
    <glyph glyph-name="Udotbelow" unicode="&#x1ee4;" horiz-adv-x="632" 
d="M558 714h20v-448q0 -282 -262 -282t-262 282v448h20v-448q0 -263 242 -263t242 263v448zM326 -62v-81h-20v81h20z" />
    <glyph glyph-name="udotbelow" unicode="&#x1ee5;" horiz-adv-x="500" 
d="M445 0h-20v127h-2q-15 -62 -63 -100t-122 -38q-83 0 -133 48t-50 136v341h20v-338q0 -84 46 -126t117 -42q88 0 137.5 62t49.5 153v291h20v-514zM260 -57v-81h-20v81h20z" />
    <glyph glyph-name="Uhookabove" unicode="&#x1ee6;" horiz-adv-x="632" 
d="M558 714h20v-448q0 -282 -262 -282t-262 282v448h20v-448q0 -263 242 -263t242 263v448zM235 880l-9 19q46 17 81 17q98 0 98 -73q0 -31 -21.5 -45.5t-53.5 -14.5q-11 0 -21 3t-12 3l-9 -25h-20l-7 42l15 10q22 -13 54 -13q19 0 37 10.5t18 29.5q0 53 -78 53
q-30 0 -72 -16z" />
    <glyph glyph-name="uhookabove" unicode="&#x1ee7;" horiz-adv-x="500" 
d="M445 0h-20v127h-2q-15 -62 -63 -100t-122 -38q-83 0 -133 48t-50 136v341h20v-338q0 -84 46 -126t117 -42q88 0 137.5 62t49.5 153v291h20v-514zM169 681l-9 19q46 17 81 17q98 0 98 -73q0 -31 -21.5 -45.5t-53.5 -14.5q-11 0 -21 3t-12 3l-9 -25h-20l-7 42l15 10
q22 -13 54 -13q19 0 37 10.5t18 29.5q0 53 -78 53q-30 0 -72 -16z" />
    <glyph glyph-name="Uhornacute" unicode="&#x1ee8;" horiz-adv-x="736" 
d="M578 714h-20v-448q0 -263 -242 -263t-242 263v448h-20v-448q0 -282 262 -282t262 282v448zM703 616v98h-20v-98q0 -41 -46 -63l-62 -31l4 -24q34 22 74 45q50 29 50 73zM459 908l-146 -144h-15l132 144h29z" />
    <glyph glyph-name="uhornacute" unicode="&#x1ee9;" horiz-adv-x="614" 
d="M425 0h20v514h-20v-291q0 -91 -49.5 -153t-137.5 -62q-71 0 -117 42t-46 126v338h-20v-341q0 -88 50 -136t133 -48q74 0 122 38t63 100h2v-127zM564 416v98h-20v-98q0 -41 -46 -63l-62 -31l4 -24q34 22 74 45q50 29 50 73zM390 709l-146 -144h-15l132 144h29z" />
    <glyph glyph-name="Uhorngrave" unicode="&#x1eea;" horiz-adv-x="736" 
d="M578 714h-20v-448q0 -263 -242 -263t-242 263v448h-20v-448q0 -282 262 -282t262 282v448zM703 616v98h-20v-98q0 -41 -46 -63l-62 -31l4 -24q34 22 74 45q50 29 50 73zM302 908h29l124 -144h-15z" />
    <glyph glyph-name="uhorngrave" unicode="&#x1eeb;" horiz-adv-x="614" 
d="M425 0h20v514h-20v-291q0 -91 -49.5 -153t-137.5 -62q-71 0 -117 42t-46 126v338h-20v-341q0 -88 50 -136t133 -48q74 0 122 38t63 100h2v-127zM564 416v98h-20v-98q0 -41 -46 -63l-62 -31l4 -24q34 22 74 45q50 29 50 73zM233 709h29l124 -144h-15z" />
    <glyph glyph-name="Uhornhookabove" unicode="&#x1eec;" horiz-adv-x="736" 
d="M558 714h20v-448q0 -282 -262 -282t-262 282v448h20v-448q0 -263 242 -263t242 263v448zM703 714v-98q0 -44 -50 -73q-40 -23 -74 -45l-4 24l62 31q46 22 46 63v98h20zM297 880l-9 19q46 17 81 17q98 0 98 -73q0 -31 -21.5 -45.5t-53.5 -14.5q-11 0 -21 3t-12 3l-9 -25
h-20l-7 42l15 10q22 -13 54 -13q19 0 37 10.5t18 29.5q0 53 -78 53q-30 0 -72 -16z" />
    <glyph glyph-name="uhornhookabove" unicode="&#x1eed;" horiz-adv-x="614" 
d="M445 0h-20v127h-2q-15 -62 -63 -100t-122 -38q-83 0 -133 48t-50 136v341h20v-338q0 -84 46 -126t117 -42q88 0 137.5 62t49.5 153v291h20v-514zM564 514v-98q0 -44 -50 -73q-40 -23 -74 -45l-4 24l62 31q46 22 46 63v98h20zM228 681l-9 19q46 17 81 17q98 0 98 -73
q0 -31 -21.5 -45.5t-53.5 -14.5q-11 0 -21 3t-12 3l-9 -25h-20l-7 42l15 10q22 -13 54 -13q19 0 37 10.5t18 29.5q0 53 -78 53q-30 0 -72 -16z" />
    <glyph glyph-name="Uhorntilde" unicode="&#x1eee;" horiz-adv-x="736" 
d="M578 714h-20v-448q0 -263 -242 -263t-242 263v448h-20v-448q0 -282 262 -282t262 282v448zM703 616v98h-20v-98q0 -41 -46 -63l-62 -31l4 -24q34 22 74 45q50 29 50 73zM247 764q0 28 20.5 53.5t46.5 25.5q24 0 66 -29t61 -29q22 0 35.5 16.5t13.5 38.5h20
q0 -32 -18 -53.5t-51 -21.5q-26 0 -66 29t-61 29q-19 0 -33 -19.5t-14 -39.5h-20z" />
    <glyph glyph-name="uhorntilde" unicode="&#x1eef;" horiz-adv-x="614" 
d="M425 0h20v514h-20v-291q0 -91 -49.5 -153t-137.5 -62q-71 0 -117 42t-46 126v338h-20v-341q0 -88 50 -136t133 -48q74 0 122 38t63 100h2v-127zM564 416v98h-20v-98q0 -41 -46 -63l-62 -31l4 -24q34 22 74 45q50 29 50 73zM178 565q0 28 20.5 53.5t46.5 25.5q24 0 66 -29
t61 -29q22 0 35.5 16.5t13.5 38.5h20q0 -32 -18 -53.5t-51 -21.5q-26 0 -66 29t-61 29q-19 0 -33 -19.5t-14 -39.5h-20z" />
    <glyph glyph-name="Uhorndotbelow" unicode="&#x1ef0;" horiz-adv-x="736" 
d="M558 714h20v-448q0 -282 -262 -282t-262 282v448h20v-448q0 -263 242 -263t242 263v448zM703 714v-98q0 -44 -50 -73q-40 -23 -74 -45l-4 24l62 31q46 22 46 63v98h20zM388 -65v-81h-20v81h20z" />
    <glyph glyph-name="uhorndotbelow" unicode="&#x1ef1;" horiz-adv-x="614" 
d="M445 0h-20v127h-2q-15 -62 -63 -100t-122 -38q-83 0 -133 48t-50 136v341h20v-338q0 -84 46 -126t117 -42q88 0 137.5 62t49.5 153v291h20v-514zM564 514v-98q0 -44 -50 -73q-40 -23 -74 -45l-4 24l62 31q46 22 46 63v98h20zM319 -60v-81h-20v81h20z" />
    <glyph glyph-name="Ygrave" unicode="&#x1ef2;" horiz-adv-x="538" 
d="M544 714h24l-289 -413v-301h-20v301l-288 413h25l273 -392zM184 877h29l124 -144h-15z" />
    <glyph glyph-name="ygrave" unicode="&#x1ef3;" horiz-adv-x="407" 
d="M398 514h21l-237 -618q-10 -25 -23.5 -40t-33 -22t-35.5 -8.5t-44 -1.5v20q56 0 79.5 11t40.5 55l37 95l-214 509h21l204 -487zM128 712h29l124 -144h-15z" />
    <glyph glyph-name="Ydotbelow" unicode="&#x1ef4;" horiz-adv-x="538" 
d="M544 714h24l-289 -413v-301h-20v301l-288 413h25l273 -392zM279 -46v-81h-20v81h20z" />
    <glyph glyph-name="ydotbelow" unicode="&#x1ef5;" horiz-adv-x="407" 
d="M398 514h21l-237 -618q-10 -25 -23.5 -40t-33 -22t-35.5 -8.5t-44 -1.5v20q56 0 79.5 11t40.5 55l37 95l-214 509h21l204 -487zM214 -222v-81h-20v81h20z" />
    <glyph glyph-name="Yhookabove" unicode="&#x1ef6;" horiz-adv-x="538" 
d="M544 714h24l-289 -413v-301h-20v301l-288 413h25l273 -392zM188 880l-9 19q46 17 81 17q98 0 98 -73q0 -31 -21.5 -45.5t-53.5 -14.5q-11 0 -21 3t-12 3l-9 -25h-20l-7 42l15 10q22 -13 54 -13q19 0 37 10.5t18 29.5q0 53 -78 53q-30 0 -72 -16z" />
    <glyph glyph-name="yhookabove" unicode="&#x1ef7;" horiz-adv-x="407" 
d="M398 514h21l-237 -618q-10 -25 -23.5 -40t-33 -22t-35.5 -8.5t-44 -1.5v20q56 0 79.5 11t40.5 55l37 95l-214 509h21l204 -487zM123 681l-9 19q46 17 81 17q98 0 98 -73q0 -31 -21.5 -45.5t-53.5 -14.5q-11 0 -21 3t-12 3l-9 -25h-20l-7 42l15 10q22 -13 54 -13
q19 0 37 10.5t18 29.5q0 53 -78 53q-30 0 -72 -16z" />
    <glyph glyph-name="Ytilde" unicode="&#x1ef8;" horiz-adv-x="538" 
d="M544 714h24l-289 -413v-301h-20v301l-288 413h25l273 -392zM138 764q0 28 20.5 53.5t46.5 25.5q24 0 66 -29t61 -29q22 0 35.5 16.5t13.5 38.5h20q0 -32 -18 -53.5t-51 -21.5q-26 0 -66 29t-61 29q-19 0 -33 -19.5t-14 -39.5h-20z" />
    <glyph glyph-name="ytilde" unicode="&#x1ef9;" horiz-adv-x="407" 
d="M398 514h21l-237 -618q-10 -25 -23.5 -40t-33 -22t-35.5 -8.5t-44 -1.5v20q56 0 79.5 11t40.5 55l37 95l-214 509h21l204 -487zM73 568q0 28 20.5 53.5t46.5 25.5q24 0 66 -29t61 -29q22 0 35.5 16.5t13.5 38.5h20q0 -32 -18 -53.5t-51 -21.5q-26 0 -66 29t-61 29
q-19 0 -33 -19.5t-14 -39.5h-20z" />
    <glyph glyph-name="uni20AB.dong" unicode="&#x20ab;" horiz-adv-x="537" 
d="M577 616h-102v-616h-20v144h-2q-21 -71 -75 -113t-131 -42q-100 0 -159.5 74.5t-59.5 192.5q0 114 58.5 192t160.5 78q80 0 134 -42t72 -114h2v246h-108v20h108v78h20v-78h102v-20zM455 256q0 119 -56.5 184.5t-151.5 65.5q-66 0 -113 -38.5t-66.5 -93.5t-19.5 -118
q0 -105 52 -176.5t147 -71.5q96 0 152 72t56 176zM18 -108v20h500v-20h-500z" />
  </font>
</defs>
</svg>
