<?xml version="1.0" standalone="no"?>
<!DOCTYPE svg PUBLIC "-//W3C//DTD SVG 1.1//EN" "http://www.w3.org/Graphics/SVG/1.1/DTD/svg11.dtd" >
<svg xmlns="http://www.w3.org/2000/svg" xmlns:xlink="http://www.w3.org/1999/xlink" version="1.1">
<metadata>
Created by FontForge 20170731 at Tue May 14 22:09:21 2013
 By Aleksey,,,
Copyright (c) 1981, 1982, 1983, 1989 and 1993, Linotype Library GmbH or its affiliated Linotype-Hell companies. All rights reserved.

The digitally encoded machine readable software for producing the Typefaces licensed to you is now the property of Heidelberger Druckmaschinen AG and its licensors, and may not be reproduced, used, displayed, modified, disclosed or transferred without the express written approval of Heidelberger Druckmaschinen AG.

Copyright (c) 1988, 1990, 1993 Adobe Systems Incorporated. All Rights Reserved.
</metadata>
<defs>
<font id="HelveticaNeue-UltraLightItalic" horiz-adv-x="519" >
  <font-face 
    font-family="Helvetica Neue"
    font-weight="100"
    font-style="italic"
    font-stretch="normal"
    units-per-em="1000"
    panose-1="2 0 2 6 0 0 0 9 0 4"
    ascent="800"
    descent="-200"
    bbox="-81 -350 796 1077"
    underline-thickness="50"
    underline-position="-175"
    unicode-range="U+0020-20AB"
  />
<missing-glyph horiz-adv-x="500" 
d="M442 8v496h-384v-496h384zM50 512h400v-512h-400v512z" />
    <glyph glyph-name=".notdef" horiz-adv-x="500" 
d="M442 8v496h-384v-496h384zM50 512h400v-512h-400v512z" />
    <glyph glyph-name=".null" horiz-adv-x="0" 
 />
    <glyph glyph-name="nonmarkingreturn" horiz-adv-x="333" 
 />
    <glyph glyph-name="controlBS" horiz-adv-x="0" 
 />
    <glyph glyph-name="space" unicode=" " horiz-adv-x="278" 
 />
    <glyph glyph-name="Abreve" unicode="&#x102;" horiz-adv-x="574" 
d="M458 235h-366l-146 -235h-22l446 714h20l132 -714h-20zM455 255l-79 431h-2l-269 -431h350zM195 875h20q-2 -39 23 -65t67 -26t73.5 25t46.5 66h20q-12 -49 -50.5 -80t-88.5 -31q-51 0 -81 30t-30 81z" />
    <glyph glyph-name="abreve" unicode="&#x103;" horiz-adv-x="481" 
d="M59 365q37 159 210 161q157 0 157 -128q0 -23 -8 -63l-59 -251q-4 -16 -4 -35q0 -33 31 -33q23 0 35 4v-20q-17 -3 -34 -3q-52 0 -52 52q0 14 10 56h-2q-36 -61 -86 -88.5t-124 -27.5q-66 0 -109 31t-43 95q0 50 18 84t51.5 51t70 24t83.5 7q54 2 75 2q61 0 94 24.5
t33 90.5q0 108 -137 108q-153 1 -190 -141h-20zM386 290l-2 2q-28 -30 -179 -30q-35 -2 -59.5 -5t-54 -12.5t-48 -24.5t-31 -42t-12.5 -63q0 -53 37.5 -80t95.5 -27q92 0 150.5 52t81.5 141zM158 691h20q-2 -39 23 -65t67 -26t73.5 25t46.5 66h20q-12 -49 -50.5 -80
t-88.5 -31q-51 0 -81 30t-30 81z" />
    <glyph glyph-name="Dcroat" unicode="&#x110;" horiz-adv-x="667" 
d="M-8 362l4 20h81l73 332h150q39 0 62 -1t62.5 -6.5t64.5 -15.5t55 -30.5t47.5 -49.5t29.5 -74.5t12 -102.5q0 -85 -29 -173t-81 -146q-63 -70 -133.5 -92.5t-175.5 -22.5h-220l79 362h-81zM93 362l-75 -342h196q105 0 167 20t124 86q46 50 77 134t31 174q0 70 -18 119.5
t-44 76.5t-71 42t-83.5 18.5t-96.5 3.5h-134l-69 -312h262l-4 -20h-262z" />
    <glyph glyph-name="dslash" unicode="&#x111;" horiz-adv-x="537" 
d="M397 622h113l20 92h21l-20 -92h96l-4 -20h-96l-130 -602h-21l16 76l16 63l-2 2q-67 -152 -216 -152q-89 0 -136.5 51.5t-47.5 142.5q0 57 18.5 116.5t52 110.5t86 83.5t114.5 32.5q80 0 128.5 -43t48.5 -119h2l12 65l37 173h-112zM440 336q0 80 -41.5 125t-121.5 45
q-59 0 -108 -30.5t-79.5 -78.5t-47 -104t-16.5 -110q0 -79 42 -127t121 -48q78 0 136.5 53t85.5 126t29 149z" />
    <glyph glyph-name="Itilde" unicode="&#x128;" horiz-adv-x="148" 
d="M-6 0l152 714h20l-153 -714h-19zM293 841h19q-7 -31 -26 -54t-49 -23q-25 0 -65 30.5t-64 30.5q-33 0 -53 -60h-20q7 34 26.5 57t52.5 23q24 0 63 -30.5t65 -30.5q30 0 51 57z" />
    <glyph glyph-name="itilde" unicode="&#x129;" horiz-adv-x="130" 
d="M1 0h-21l109 514h22zM239 645h19q-7 -31 -26 -54t-49 -23q-25 0 -65 30.5t-64 30.5q-33 0 -53 -60h-20q7 34 26.5 57t52.5 23q24 0 63 -30.5t65 -30.5q30 0 51 57z" />
    <glyph glyph-name="Utilde" unicode="&#x168;" horiz-adv-x="648" 
d="M161 714l-99 -456q-7 -51 -7 -73q0 -88 60.5 -136t154.5 -46q32 0 57.5 3t62.5 17.5t64.5 39t53.5 72t40 112.5l102 467h21l-100 -461q-8 -33 -15.5 -56.5t-22 -58t-36.5 -59t-52 -48t-75 -35.5t-100 -12q-102 0 -168.5 50.5t-66.5 150.5q0 41 11 99l94 430h21zM568 841
h19q-7 -31 -26 -54t-49 -23q-25 0 -65 30.5t-64 30.5q-33 0 -53 -60h-20q7 34 26.5 57t52.5 23q24 0 63 -30.5t65 -30.5q30 0 51 57z" />
    <glyph glyph-name="utilde" unicode="&#x169;" horiz-adv-x="500" 
d="M368 0h-21l13 64l13 58l-2 2q-37 -67 -86.5 -101t-121.5 -34q-69 0 -110 36t-41 103q0 16 12 81l64 305h21l-65 -310q-12 -60 -12 -76q1 -58 36.5 -89t94.5 -31q54 0 97.5 23t72 64t46 85t28.5 97l50 237h22zM440 645h19q-7 -31 -26 -54t-49 -23q-25 0 -65 30.5t-64 30.5
q-33 0 -53 -60h-20q7 34 26.5 57t52.5 23q24 0 63 -30.5t65 -30.5q30 0 51 57z" />
    <glyph glyph-name="Ohorn" unicode="&#x1a0;" horiz-adv-x="803" 
d="M677 434q0 128 -69 202.5t-197 74.5q-111 0 -194.5 -65t-123.5 -161.5t-40 -204.5q0 -126 71 -201.5t195 -75.5q110 0 193.5 65t124 161.5t40.5 204.5zM697 434q0 -85 -25.5 -165t-72 -144t-119.5 -102.5t-161 -38.5q-136 0 -211 79.5t-75 216.5q0 85 25 165t71.5 144
t119.5 103t162 39q135 0 210.5 -80t75.5 -217zM776 714v-98q0 -44 -35 -73q-38 -31 -59 -45l-4 24q21 11 47 31q31 22 31 63v98h20z" />
    <glyph glyph-name="ohorn" unicode="&#x1a1;" 
d="M26 191q0 -86 45.5 -134.5t131.5 -48.5q78 0 136.5 48.5t85.5 117t27 141.5q0 90 -48 140.5t-130 50.5q-78 0 -136.5 -48.5t-85 -118.5t-26.5 -148zM6 191q0 135 72.5 235t195.5 100q92 0 145 -58t53 -153q0 -58 -18 -115t-50.5 -104.5t-85 -77t-115.5 -29.5
q-95 0 -146 53.5t-51 148.5zM561 514v-98q0 -44 -35 -73q-38 -31 -59 -45l-4 24q21 11 47 31q31 22 31 63v98h20z" />
    <glyph glyph-name="Uhorn" unicode="&#x1af;" horiz-adv-x="648" 
d="M796 714l-30 -98q0 -44 -60 -73q-52 -25 -82 -44l-53 -246q-8 -33 -15.5 -56.5t-22 -58t-36.5 -59t-52 -48t-75 -35.5t-100 -12q-102 0 -168.5 50.5t-66.5 150.5q0 41 11 99l94 430h21l-99 -456q-7 -51 -7 -73q0 -88 60.5 -136t154.5 -46q32 0 57.5 3t62.5 17.5t64.5 39
t53.5 72t40 112.5l102 467h21l-40 -186l59 25q56 23 56 63l30 98h20z" />
    <glyph glyph-name="uhorn" unicode="&#x1b0;" horiz-adv-x="500" 
d="M368 0h-21l13 64l13 58l-2 2q-37 -67 -86.5 -101t-121.5 -34q-69 0 -110 36t-41 103q0 16 12 81l64 305h21l-65 -310l-8 -38q-4 -17 -4 -38q1 -58 36.5 -89t94.5 -31q54 0 97.5 23t72 64t46 85t28.5 97l50 237h22l-40 -185l57 24q56 23 56 63l30 98h20l-30 -98
q0 -44 -60 -73q-52 -25 -79 -42z" />
    <glyph glyph-name="Adotbelow" unicode="&#x1ea0;" horiz-adv-x="574" 
d="M458 235h-366l-146 -235h-22l446 714h20l132 -714h-20zM455 255l-79 431h-2l-269 -431h350zM223 -48l-13 -81h-21l13 81h21z" />
    <glyph glyph-name="adotbelow" unicode="&#x1ea1;" horiz-adv-x="481" 
d="M59 365q37 159 210 161q157 0 157 -128q0 -23 -8 -63l-59 -251q-4 -16 -4 -35q0 -33 31 -33q23 0 35 4v-20q-17 -3 -34 -3q-52 0 -52 52q0 14 10 56h-2q-36 -61 -86 -88.5t-124 -27.5q-66 0 -109 31t-43 95q0 50 18 84t51.5 51t70 24t83.5 7q54 2 75 2q61 0 94 24.5
t33 90.5q0 108 -137 108q-153 1 -190 -141h-20zM386 290l-2 2q-28 -30 -179 -30q-35 -2 -59.5 -5t-54 -12.5t-48 -24.5t-31 -42t-12.5 -63q0 -53 37.5 -80t95.5 -27q92 0 150.5 52t81.5 141zM181 -65l-13 -81h-21l13 81h21z" />
    <glyph glyph-name="Ahookabove" unicode="&#x1ea2;" horiz-adv-x="574" 
d="M458 235h-366l-146 -235h-22l446 714h20l132 -714h-20zM455 255l-79 431h-2l-269 -431h350zM244 880l-9 19q46 17 81 17q98 0 98 -73q0 -31 -21.5 -45.5t-53.5 -14.5q-11 0 -21 3t-12 3l-9 -25h-20l-7 42l15 10q22 -13 54 -13q19 0 37 10.5t18 29.5q0 53 -78 53
q-30 0 -72 -16z" />
    <glyph glyph-name="ahookabove" unicode="&#x1ea3;" horiz-adv-x="481" 
d="M59 365q37 159 210 161q157 0 157 -128q0 -23 -8 -63l-59 -251q-4 -16 -4 -35q0 -33 31 -33q23 0 35 4v-20q-17 -3 -34 -3q-52 0 -52 52q0 14 10 56h-2q-36 -61 -86 -88.5t-124 -27.5q-66 0 -109 31t-43 95q0 50 18 84t51.5 51t70 24t83.5 7q54 2 75 2q61 0 94 24.5
t33 90.5q0 108 -137 108q-153 1 -190 -141h-20zM386 290l-2 2q-28 -30 -179 -30q-35 -2 -59.5 -5t-54 -12.5t-48 -24.5t-31 -42t-12.5 -63q0 -53 37.5 -80t95.5 -27q92 0 150.5 52t81.5 141zM206 692l-9 19q46 17 81 17q98 0 98 -73q0 -31 -21.5 -45.5t-53.5 -14.5
q-11 0 -21 3t-12 3l-9 -25h-20l-7 42l15 10q22 -13 54 -13q19 0 37 10.5t18 29.5q0 53 -78 53q-30 0 -72 -16z" />
    <glyph glyph-name="Acircumflexacute" unicode="&#x1ea4;" horiz-adv-x="574" 
d="M458 235h-366l-146 -235h-22l446 714h20l132 -714h-20zM455 255l-79 431h-2l-269 -431h350zM511 764h-24l-82 130l-124 -130h-26l135 144h30zM505 844h-28l163 144h28z" />
    <glyph glyph-name="acircumflexacute" unicode="&#x1ea5;" horiz-adv-x="481" 
d="M59 365q37 159 210 161q157 0 157 -128q0 -23 -8 -63l-59 -251q-4 -16 -4 -35q0 -33 31 -33q23 0 35 4v-20q-17 -3 -34 -3q-52 0 -52 52q0 14 10 56h-2q-36 -61 -86 -88.5t-124 -27.5q-66 0 -109 31t-43 95q0 50 18 84t51.5 51t70 24t83.5 7q54 2 75 2q61 0 94 24.5
t33 90.5q0 108 -137 108q-153 1 -190 -141h-20zM386 290l-2 2q-28 -30 -179 -30q-35 -2 -59.5 -5t-54 -12.5t-48 -24.5t-31 -42t-12.5 -63q0 -53 37.5 -80t95.5 -27q92 0 150.5 52t81.5 141zM419 581h-24l-82 130l-124 -130h-26l135 144h30zM408 653h-28l163 144h28z" />
    <glyph glyph-name="Acircumflexgrave" unicode="&#x1ea6;" horiz-adv-x="574" 
d="M458 235h-366l-146 -235h-22l446 714h20l132 -714h-20zM455 255l-79 431h-2l-269 -431h350zM526 764h-24l-82 130l-124 -130h-26l135 144h30zM221 996l112 -144h-25l-112 144h25z" />
    <glyph glyph-name="acircumflexgrave" unicode="&#x1ea7;" horiz-adv-x="481" 
d="M59 365q37 159 210 161q157 0 157 -128q0 -23 -8 -63l-59 -251q-4 -16 -4 -35q0 -33 31 -33q23 0 35 4v-20q-17 -3 -34 -3q-52 0 -52 52q0 14 10 56h-2q-36 -61 -86 -88.5t-124 -27.5q-66 0 -109 31t-43 95q0 50 18 84t51.5 51t70 24t83.5 7q54 2 75 2q61 0 94 24.5
t33 90.5q0 108 -137 108q-153 1 -190 -141h-20zM386 290l-2 2q-28 -30 -179 -30q-35 -2 -59.5 -5t-54 -12.5t-48 -24.5t-31 -42t-12.5 -63q0 -53 37.5 -80t95.5 -27q92 0 150.5 52t81.5 141zM419 581h-24l-82 130l-124 -130h-26l135 144h30zM127 812l112 -144h-25l-112 144
h25z" />
    <glyph glyph-name="Acircumflexhookabove" unicode="&#x1ea8;" horiz-adv-x="574" 
d="M458 235h-366l-146 -235h-22l446 714h20l132 -714h-20zM455 255l-79 431h-2l-269 -431h350zM451 764h-24l-82 130l-124 -130h-26l135 144h30zM427 876l-9 19q46 17 81 17q98 0 98 -73q0 -31 -21.5 -45.5t-53.5 -14.5q-11 0 -21 3t-12 3l-9 -25h-20l-7 42l15 10
q22 -13 54 -13q19 0 37 10.5t18 29.5q0 53 -78 53q-30 0 -72 -16z" />
    <glyph glyph-name="acircumflexhookabove" unicode="&#x1ea9;" horiz-adv-x="481" 
d="M59 365q37 159 210 161q157 0 157 -128q0 -23 -8 -63l-59 -251q-4 -16 -4 -35q0 -33 31 -33q23 0 35 4v-20q-17 -3 -34 -3q-52 0 -52 52q0 14 10 56h-2q-36 -61 -86 -88.5t-124 -27.5q-66 0 -109 31t-43 95q0 50 18 84t51.5 51t70 24t83.5 7q54 2 75 2q61 0 94 24.5
t33 90.5q0 108 -137 108q-153 1 -190 -141h-20zM386 290l-2 2q-28 -30 -179 -30q-35 -2 -59.5 -5t-54 -12.5t-48 -24.5t-31 -42t-12.5 -63q0 -53 37.5 -80t95.5 -27q92 0 150.5 52t81.5 141zM414 577h-24l-82 130l-124 -130h-26l135 144h30zM390 688l-9 19q46 17 81 17
q98 0 98 -73q0 -31 -21.5 -45.5t-53.5 -14.5q-11 0 -21 3t-12 3l-9 -25h-20l-7 42l15 10q22 -13 54 -13q19 0 37 10.5t18 29.5q0 53 -78 53q-30 0 -72 -16z" />
    <glyph glyph-name="Acircumflextilde" unicode="&#x1eaa;" horiz-adv-x="574" 
d="M458 235h-366l-146 -235h-22l446 714h20l132 -714h-20zM455 255l-79 431h-2l-269 -431h350zM518 767h-24l-82 130l-124 -130h-26l135 144h30zM560 1030q-7 -31 -26 -54t-49 -23q-25 0 -65 30.5t-64 30.5q-33 0 -53 -60h-20q7 34 26.5 57t52.5 23q24 0 63 -30.5t65 -30.5
q30 0 51 57h19z" />
    <glyph glyph-name="acircumflextilde" unicode="&#x1eab;" horiz-adv-x="481" 
d="M59 365q37 159 210 161q157 0 157 -128q0 -23 -8 -63l-59 -251q-4 -16 -4 -35q0 -33 31 -33q23 0 35 4v-20q-17 -3 -34 -3q-52 0 -52 52q0 14 10 56h-2q-36 -61 -86 -88.5t-124 -27.5q-66 0 -109 31t-43 95q0 50 18 84t51.5 51t70 24t83.5 7q54 2 75 2q61 0 94 24.5
t33 90.5q0 108 -137 108q-153 1 -190 -141h-20zM386 290l-2 2q-28 -30 -179 -30q-35 -2 -59.5 -5t-54 -12.5t-48 -24.5t-31 -42t-12.5 -63q0 -53 37.5 -80t95.5 -27q92 0 150.5 52t81.5 141zM419 581h-24l-82 130l-124 -130h-26l135 144h30zM484 850q-7 -31 -26 -54t-49 -23
q-25 0 -65 30.5t-64 30.5q-33 0 -53 -60h-20q7 34 26.5 57t52.5 23q24 0 63 -30.5t65 -30.5q30 0 51 57h19z" />
    <glyph glyph-name="Acircumflexdotbelow" unicode="&#x1eac;" horiz-adv-x="574" 
d="M458 235h-366l-146 -235h-22l446 714h20l132 -714h-20zM455 255l-79 431h-2l-269 -431h350zM506 758h-24l-82 130l-124 -130h-26l135 144h30zM232 -51l-13 -81h-21l13 81h21z" />
    <glyph glyph-name="acircumflexdotbelow" unicode="&#x1ead;" horiz-adv-x="481" 
d="M59 365q37 159 210 161q157 0 157 -128q0 -23 -8 -63l-59 -251q-4 -16 -4 -35q0 -33 31 -33q23 0 35 4v-20q-17 -3 -34 -3q-52 0 -52 52q0 14 10 56h-2q-36 -61 -86 -88.5t-124 -27.5q-66 0 -109 31t-43 95q0 50 18 84t51.5 51t70 24t83.5 7q54 2 75 2q61 0 94 24.5
t33 90.5q0 108 -137 108q-153 1 -190 -141h-20zM386 290l-2 2q-28 -30 -179 -30q-35 -2 -59.5 -5t-54 -12.5t-48 -24.5t-31 -42t-12.5 -63q0 -53 37.5 -80t95.5 -27q92 0 150.5 52t81.5 141zM419 581h-24l-82 130l-124 -130h-26l135 144h30zM162 -58l-13 -81h-21l13 81h21z
" />
    <glyph glyph-name="Abreveacute" unicode="&#x1eae;" horiz-adv-x="574" 
d="M458 235h-366l-146 -235h-22l446 714h20l132 -714h-20zM455 255l-79 431h-2l-269 -431h350zM304 881q-2 -39 23 -65t67 -26t73.5 25t46.5 66h20q-12 -49 -50.5 -80t-88.5 -31q-51 0 -81 30t-30 81h20zM417 914h-28l163 144h28z" />
    <glyph glyph-name="abreveacute" unicode="&#x1eaf;" horiz-adv-x="481" 
d="M59 365q37 159 210 161q157 0 157 -128q0 -23 -8 -63l-59 -251q-4 -16 -4 -35q0 -33 31 -33q23 0 35 4v-20q-17 -3 -34 -3q-52 0 -52 52q0 14 10 56h-2q-36 -61 -86 -88.5t-124 -27.5q-66 0 -109 31t-43 95q0 50 18 84t51.5 51t70 24t83.5 7q54 2 75 2q61 0 94 24.5
t33 90.5q0 108 -137 108q-153 1 -190 -141h-20zM386 290l-2 2q-28 -30 -179 -30q-35 -2 -59.5 -5t-54 -12.5t-48 -24.5t-31 -42t-12.5 -63q0 -53 37.5 -80t95.5 -27q92 0 150.5 52t81.5 141zM186 692q-2 -39 23 -65t67 -26t73.5 25t46.5 66h20q-12 -49 -50.5 -80t-88.5 -31
q-51 0 -81 30t-30 81h20zM311 737h-28l163 144h28z" />
    <glyph glyph-name="Abrevegrave" unicode="&#x1eb0;" horiz-adv-x="574" 
d="M458 235h-366l-146 -235h-22l446 714h20l132 -714h-20zM455 255l-79 431h-2l-269 -431h350zM302 883q-2 -39 23 -65t67 -26t73.5 25t46.5 66h20q-12 -49 -50.5 -80t-88.5 -31q-51 0 -81 30t-30 81h20zM313 1058l112 -144h-25l-112 144h25z" />
    <glyph glyph-name="abrevegrave" unicode="&#x1eb1;" horiz-adv-x="481" 
d="M59 365q37 159 210 161q157 0 157 -128q0 -23 -8 -63l-59 -251q-4 -16 -4 -35q0 -33 31 -33q23 0 35 4v-20q-17 -3 -34 -3q-52 0 -52 52q0 14 10 56h-2q-36 -61 -86 -88.5t-124 -27.5q-66 0 -109 31t-43 95q0 50 18 84t51.5 51t70 24t83.5 7q54 2 75 2q61 0 94 24.5
t33 90.5q0 108 -137 108q-153 1 -190 -141h-20zM386 290l-2 2q-28 -30 -179 -30q-35 -2 -59.5 -5t-54 -12.5t-48 -24.5t-31 -42t-12.5 -63q0 -53 37.5 -80t95.5 -27q92 0 150.5 52t81.5 141zM237 692q-2 -39 23 -65t67 -26t73.5 25t46.5 66h20q-12 -49 -50.5 -80t-88.5 -31
q-51 0 -81 30t-30 81h20zM249 853l112 -144h-25l-112 144h25z" />
    <glyph glyph-name="Abrevehookabove" unicode="&#x1eb2;" horiz-adv-x="574" 
d="M458 235h-366l-146 -235h-22l446 714h20l132 -714h-20zM455 255l-79 431h-2l-269 -431h350zM215 875q-2 -39 23 -65t67 -26t73.5 25t46.5 66h20q-12 -49 -50.5 -80t-88.5 -31q-51 0 -81 30t-30 81h20zM277 1041l-9 19q46 17 81 17q98 0 98 -73q0 -31 -21.5 -45.5
t-53.5 -14.5q-11 0 -21 3t-12 3l-9 -25h-20l-7 42l15 10q22 -13 54 -13q19 0 37 10.5t18 29.5q0 53 -78 53q-30 0 -72 -16z" />
    <glyph glyph-name="abrevehookabove" unicode="&#x1eb3;" horiz-adv-x="481" 
d="M59 365q37 159 210 161q157 0 157 -128q0 -23 -8 -63l-59 -251q-4 -16 -4 -35q0 -33 31 -33q23 0 35 4v-20q-17 -3 -34 -3q-52 0 -52 52q0 14 10 56h-2q-36 -61 -86 -88.5t-124 -27.5q-66 0 -109 31t-43 95q0 50 18 84t51.5 51t70 24t83.5 7q54 2 75 2q61 0 94 24.5
t33 90.5q0 108 -137 108q-153 1 -190 -141h-20zM386 290l-2 2q-28 -30 -179 -30q-35 -2 -59.5 -5t-54 -12.5t-48 -24.5t-31 -42t-12.5 -63q0 -53 37.5 -80t95.5 -27q92 0 150.5 52t81.5 141zM178 688q-2 -39 23 -65t67 -26t73.5 25t46.5 66h20q-12 -49 -50.5 -80t-88.5 -31
q-51 0 -81 30t-30 81h20zM240 853l-9 19q46 17 81 17q98 0 98 -73q0 -31 -21.5 -45.5t-53.5 -14.5q-11 0 -21 3t-12 3l-9 -25h-20l-7 42l15 10q22 -13 54 -13q19 0 37 10.5t18 29.5q0 53 -78 53q-30 0 -72 -16z" />
    <glyph glyph-name="Abrevetilde" unicode="&#x1eb4;" horiz-adv-x="574" 
d="M458 235h-366l-146 -235h-22l446 714h20l132 -714h-20zM455 255l-79 431h-2l-269 -431h350zM302 875q-2 -39 23 -65t67 -26t73.5 25t46.5 66h20q-12 -49 -50.5 -80t-88.5 -31q-51 0 -81 30t-30 81h20zM567 988q-7 -31 -26 -54t-49 -23q-25 0 -65 30.5t-64 30.5
q-33 0 -53 -60h-20q7 34 26.5 57t52.5 23q24 0 63 -30.5t65 -30.5q30 0 51 57h19z" />
    <glyph glyph-name="abrevetilde" unicode="&#x1eb5;" horiz-adv-x="481" 
d="M59 365q37 159 210 161q157 0 157 -128q0 -23 -8 -63l-59 -251q-4 -16 -4 -35q0 -33 31 -33q23 0 35 4v-20q-17 -3 -34 -3q-52 0 -52 52q0 14 10 56h-2q-36 -61 -86 -88.5t-124 -27.5q-66 0 -109 31t-43 95q0 50 18 84t51.5 51t70 24t83.5 7q54 2 75 2q61 0 94 24.5
t33 90.5q0 108 -137 108q-153 1 -190 -141h-20zM386 290l-2 2q-28 -30 -179 -30q-35 -2 -59.5 -5t-54 -12.5t-48 -24.5t-31 -42t-12.5 -63q0 -53 37.5 -80t95.5 -27q92 0 150.5 52t81.5 141zM209 689q-2 -39 23 -65t67 -26t73.5 25t46.5 66h20q-12 -49 -50.5 -80t-88.5 -31
q-51 0 -81 30t-30 81h20zM476 811q-7 -31 -26 -54t-49 -23q-25 0 -65 30.5t-64 30.5q-33 0 -53 -60h-20q7 34 26.5 57t52.5 23q24 0 63 -30.5t65 -30.5q30 0 51 57h19z" />
    <glyph glyph-name="Abrevedotbelow" unicode="&#x1eb6;" horiz-adv-x="574" 
d="M458 235h-366l-146 -235h-22l446 714h20l132 -714h-20zM455 255l-79 431h-2l-269 -431h350zM302 875q-2 -39 23 -65t67 -26t73.5 25t46.5 66h20q-12 -49 -50.5 -80t-88.5 -31q-51 0 -81 30t-30 81h20zM231 -42l-13 -81h-21l13 81h21z" />
    <glyph glyph-name="abrevedotbelow" unicode="&#x1eb7;" horiz-adv-x="481" 
d="M59 365q37 159 210 161q157 0 157 -128q0 -23 -8 -63l-59 -251q-4 -16 -4 -35q0 -33 31 -33q23 0 35 4v-20q-17 -3 -34 -3q-52 0 -52 52q0 14 10 56h-2q-36 -61 -86 -88.5t-124 -27.5q-66 0 -109 31t-43 95q0 50 18 84t51.5 51t70 24t83.5 7q54 2 75 2q61 0 94 24.5
t33 90.5q0 108 -137 108q-153 1 -190 -141h-20zM386 290l-2 2q-28 -30 -179 -30q-35 -2 -59.5 -5t-54 -12.5t-48 -24.5t-31 -42t-12.5 -63q0 -53 37.5 -80t95.5 -27q92 0 150.5 52t81.5 141zM234 692q-2 -39 23 -65t67 -26t73.5 25t46.5 66h20q-12 -49 -50.5 -80t-88.5 -31
q-51 0 -81 30t-30 81h20zM170 -70l-13 -81h-21l13 81h21z" />
    <glyph glyph-name="Edotbelow" unicode="&#x1eb8;" 
d="M465 20l-5 -20h-469l152 714h453l-4 -20h-433l-67 -312h404l-4 -20h-405l-73 -342h451zM236 -45l-13 -81h-21l13 81h21z" />
    <glyph glyph-name="edotbelow" unicode="&#x1eb9;" horiz-adv-x="500" 
d="M433 273q5 24 5 53q0 77 -43 128.5t-123 51.5q-98 0 -160 -65.5t-81 -167.5h402zM27 253q-3 -23 -3 -55q0 -56 17 -96t44.5 -59t54 -27t54.5 -8q167 0 212 161h21q-48 -180 -232 -180q-93 0 -142 58.5t-49 151.5q0 83 28.5 155.5t91 122t148.5 49.5q89 0 137.5 -56
t48.5 -144q0 -36 -4 -73h-427zM199 -56l-13 -81h-21l13 81h21z" />
    <glyph glyph-name="Ehookabove" unicode="&#x1eba;" 
d="M465 20l-5 -20h-469l152 714h453l-4 -20h-433l-67 -312h404l-4 -20h-405l-73 -342h451zM315 880l-9 19q46 17 81 17q98 0 98 -73q0 -31 -21.5 -45.5t-53.5 -14.5q-11 0 -21 3t-12 3l-9 -25h-20l-7 42l15 10q22 -13 54 -13q19 0 37 10.5t18 29.5q0 53 -78 53
q-30 0 -72 -16z" />
    <glyph glyph-name="ehookabove" unicode="&#x1ebb;" horiz-adv-x="500" 
d="M433 273q5 24 5 53q0 77 -43 128.5t-123 51.5q-98 0 -160 -65.5t-81 -167.5h402zM27 253q-3 -23 -3 -55q0 -56 17 -96t44.5 -59t54 -27t54.5 -8q167 0 212 161h21q-48 -180 -232 -180q-93 0 -142 58.5t-49 151.5q0 83 28.5 155.5t91 122t148.5 49.5q89 0 137.5 -56
t48.5 -144q0 -36 -4 -73h-427zM233 692l-9 19q46 17 81 17q98 0 98 -73q0 -31 -21.5 -45.5t-53.5 -14.5q-11 0 -21 3t-12 3l-9 -25h-20l-7 42l15 10q22 -13 54 -13q19 0 37 10.5t18 29.5q0 53 -78 53q-30 0 -72 -16z" />
    <glyph glyph-name="Etilde" unicode="&#x1ebc;" 
d="M465 20l-5 -20h-469l152 714h453l-4 -20h-433l-67 -312h404l-4 -20h-405l-73 -342h451zM538 844q-7 -31 -26 -54t-49 -23q-25 0 -65 30.5t-64 30.5q-33 0 -53 -60h-20q7 34 26.5 57t52.5 23q24 0 63 -30.5t65 -30.5q30 0 51 57h19z" />
    <glyph glyph-name="etilde" unicode="&#x1ebd;" horiz-adv-x="500" 
d="M433 273q5 24 5 53q0 77 -43 128.5t-123 51.5q-98 0 -160 -65.5t-81 -167.5h402zM27 253q-3 -23 -3 -55q0 -56 17 -96t44.5 -59t54 -27t54.5 -8q167 0 212 161h21q-48 -180 -232 -180q-93 0 -142 58.5t-49 151.5q0 83 28.5 155.5t91 122t148.5 49.5q89 0 137.5 -56
t48.5 -144q0 -36 -4 -73h-427zM439 661q-7 -31 -26 -54t-49 -23q-25 0 -65 30.5t-64 30.5q-33 0 -53 -60h-20q7 34 26.5 57t52.5 23q24 0 63 -30.5t65 -30.5q30 0 51 57h19z" />
    <glyph glyph-name="Ecircumflexacute" unicode="&#x1ebe;" 
d="M465 20l-5 -20h-469l152 714h453l-4 -20h-433l-67 -312h404l-4 -20h-405l-73 -342h451zM507 764h-24l-82 130l-124 -130h-26l135 144h30zM487 832h-28l163 144h28z" />
    <glyph glyph-name="ecircumflexacute" unicode="&#x1ebf;" horiz-adv-x="500" 
d="M433 273q5 24 5 53q0 77 -43 128.5t-123 51.5q-98 0 -160 -65.5t-81 -167.5h402zM27 253q-3 -23 -3 -55q0 -56 17 -96t44.5 -59t54 -27t54.5 -8q167 0 212 161h21q-48 -180 -232 -180q-93 0 -142 58.5t-49 151.5q0 83 28.5 155.5t91 122t148.5 49.5q89 0 137.5 -56
t48.5 -144q0 -36 -4 -73h-427zM427 581h-24l-82 130l-124 -130h-26l135 144h30zM422 647h-28l163 144h28z" />
    <glyph glyph-name="Ecircumflexgrave" unicode="&#x1ec0;" 
d="M465 20l-5 -20h-469l152 714h453l-4 -20h-433l-67 -312h404l-4 -20h-405l-73 -342h451zM491 767h-24l-82 130l-124 -130h-26l135 144h30zM190 985l112 -144h-25l-112 144h25z" />
    <glyph glyph-name="ecircumflexgrave" unicode="&#x1ec1;" horiz-adv-x="500" 
d="M433 273q5 24 5 53q0 77 -43 128.5t-123 51.5q-98 0 -160 -65.5t-81 -167.5h402zM27 253q-3 -23 -3 -55q0 -56 17 -96t44.5 -59t54 -27t54.5 -8q167 0 212 161h21q-48 -180 -232 -180q-93 0 -142 58.5t-49 151.5q0 83 28.5 155.5t91 122t148.5 49.5q89 0 137.5 -56
t48.5 -144q0 -36 -4 -73h-427zM422 578h-24l-82 130l-124 -130h-26l135 144h30zM115 783l112 -144h-25l-112 144h25z" />
    <glyph glyph-name="Ecircumflexhookabove" unicode="&#x1ec2;" 
d="M465 20l-5 -20h-469l152 714h453l-4 -20h-433l-67 -312h404l-4 -20h-405l-73 -342h451zM522 764h-24l-82 130l-124 -130h-26l135 144h30zM498 876l-9 19q46 17 81 17q98 0 98 -73q0 -31 -21.5 -45.5t-53.5 -14.5q-11 0 -21 3t-12 3l-9 -25h-20l-7 42l15 10q22 -13 54 -13
q19 0 37 10.5t18 29.5q0 53 -78 53q-30 0 -72 -16z" />
    <glyph glyph-name="ecircumflexhookabove" unicode="&#x1ec3;" horiz-adv-x="500" 
d="M433 273q5 24 5 53q0 77 -43 128.5t-123 51.5q-98 0 -160 -65.5t-81 -167.5h402zM27 253q-3 -23 -3 -55q0 -56 17 -96t44.5 -59t54 -27t54.5 -8q167 0 212 161h21q-48 -180 -232 -180q-93 0 -142 58.5t-49 151.5q0 83 28.5 155.5t91 122t148.5 49.5q89 0 137.5 -56
t48.5 -144q0 -36 -4 -73h-427zM441 577h-24l-82 130l-124 -130h-26l135 144h30zM417 688l-9 19q46 17 81 17q98 0 98 -73q0 -31 -21.5 -45.5t-53.5 -14.5q-11 0 -21 3t-12 3l-9 -25h-20l-7 42l15 10q22 -13 54 -13q19 0 37 10.5t18 29.5q0 53 -78 53q-30 0 -72 -16z" />
    <glyph glyph-name="Ecircumflextilde" unicode="&#x1ec4;" 
d="M465 20l-5 -20h-469l152 714h453l-4 -20h-433l-67 -312h404l-4 -20h-405l-73 -342h451zM519 762h-24l-82 130l-124 -130h-26l135 144h30zM576 1027q-7 -31 -26 -54t-49 -23q-25 0 -65 30.5t-64 30.5q-33 0 -53 -60h-20q7 34 26.5 57t52.5 23q24 0 63 -30.5t65 -30.5
q30 0 51 57h19z" />
    <glyph glyph-name="ecircumflextilde" unicode="&#x1ec5;" horiz-adv-x="500" 
d="M433 273q5 24 5 53q0 77 -43 128.5t-123 51.5q-98 0 -160 -65.5t-81 -167.5h402zM27 253q-3 -23 -3 -55q0 -56 17 -96t44.5 -59t54 -27t54.5 -8q167 0 212 161h21q-48 -180 -232 -180q-93 0 -142 58.5t-49 151.5q0 83 28.5 155.5t91 122t148.5 49.5q89 0 137.5 -56
t48.5 -144q0 -36 -4 -73h-427zM416 575h-24l-82 130l-124 -130h-26l135 144h30zM470 842q-7 -31 -26 -54t-49 -23q-25 0 -65 30.5t-64 30.5q-33 0 -53 -60h-20q7 34 26.5 57t52.5 23q24 0 63 -30.5t65 -30.5q30 0 51 57h19z" />
    <glyph glyph-name="Ecircumflexdotbelow" unicode="&#x1ec6;" 
d="M465 20l-5 -20h-469l152 714h453l-4 -20h-433l-67 -312h404l-4 -20h-405l-73 -342h451zM522 764h-24l-82 130l-124 -130h-26l135 144h30zM234 -57l-13 -81h-21l13 81h21z" />
    <glyph glyph-name="ecircumflexdotbelow" unicode="&#x1ec7;" horiz-adv-x="500" 
d="M433 273q5 24 5 53q0 77 -43 128.5t-123 51.5q-98 0 -160 -65.5t-81 -167.5h402zM27 253q-3 -23 -3 -55q0 -56 17 -96t44.5 -59t54 -27t54.5 -8q167 0 212 161h21q-48 -180 -232 -180q-93 0 -142 58.5t-49 151.5q0 83 28.5 155.5t91 122t148.5 49.5q89 0 137.5 -56
t48.5 -144q0 -36 -4 -73h-427zM427 572h-24l-82 130l-124 -130h-26l135 144h30zM182 -64l-13 -81h-21l13 81h21z" />
    <glyph glyph-name="Ihookabove" unicode="&#x1ec8;" horiz-adv-x="148" 
d="M-6 0l152 714h20l-153 -714h-19zM101 880l-9 19q46 17 81 17q98 0 98 -73q0 -31 -21.5 -45.5t-53.5 -14.5q-11 0 -21 3t-12 3l-9 -25h-20l-7 42l15 10q22 -13 54 -13q19 0 37 10.5t18 29.5q0 53 -78 53q-30 0 -72 -16z" />
    <glyph glyph-name="ihookabove" unicode="&#x1ec9;" horiz-adv-x="130" 
d="M1 0h-21l109 514h22zM47 681l-9 19q46 17 81 17q98 0 98 -73q0 -31 -21.5 -45.5t-53.5 -14.5q-11 0 -21 3t-12 3l-9 -25h-20l-7 42l15 10q22 -13 54 -13q19 0 37 10.5t18 29.5q0 53 -78 53q-30 0 -72 -16z" />
    <glyph glyph-name="Idotbelow" unicode="&#x1eca;" horiz-adv-x="148" 
d="M-6 0l152 714h20l-153 -714h-19zM0 -59l-13 -81h-21l13 81h21z" />
    <glyph glyph-name="idotbelow" unicode="&#x1ecb;" horiz-adv-x="130" 
d="M129 714h22l-23 -104h-22zM1 0h-21l109 514h22zM-11 -60l-13 -81h-21l13 81h21z" />
    <glyph glyph-name="Odotbelow" unicode="&#x1ecc;" horiz-adv-x="722" 
d="M677 434q0 128 -69 202.5t-197 74.5q-111 0 -194.5 -65t-123.5 -161.5t-40 -204.5q0 -126 71 -201.5t195 -75.5q110 0 193.5 65t124 161.5t40.5 204.5zM697 434q0 -85 -25.5 -165t-72 -144t-119.5 -102.5t-161 -38.5q-136 0 -211 79.5t-75 216.5q0 85 25 165t71.5 144
t119.5 103t162 39q135 0 210.5 -80t75.5 -217zM266 -86l-13 -81h-21l13 81h21z" />
    <glyph glyph-name="odotbelow" unicode="&#x1ecd;" 
d="M26 191q0 -86 45.5 -134.5t131.5 -48.5q78 0 136.5 48.5t85.5 117t27 141.5q0 90 -48 140.5t-130 50.5q-78 0 -136.5 -48.5t-85 -118.5t-26.5 -148zM6 191q0 135 72.5 235t195.5 100q92 0 145 -58t53 -153q0 -58 -18 -115t-50.5 -104.5t-85 -77t-115.5 -29.5
q-95 0 -146 53.5t-51 148.5zM166 -79l-13 -81h-21l13 81h21z" />
    <glyph glyph-name="Ohookabove" unicode="&#x1ece;" horiz-adv-x="722" 
d="M677 434q0 128 -69 202.5t-197 74.5q-111 0 -194.5 -65t-123.5 -161.5t-40 -204.5q0 -126 71 -201.5t195 -75.5q110 0 193.5 65t124 161.5t40.5 204.5zM697 434q0 -85 -25.5 -165t-72 -144t-119.5 -102.5t-161 -38.5q-136 0 -211 79.5t-75 216.5q0 85 25 165t71.5 144
t119.5 103t162 39q135 0 210.5 -80t75.5 -217zM390 897l-9 19q46 17 81 17q98 0 98 -73q0 -31 -21.5 -45.5t-53.5 -14.5q-11 0 -21 3t-12 3l-9 -25h-20l-7 42l15 10q22 -13 54 -13q19 0 37 10.5t18 29.5q0 53 -78 53q-30 0 -72 -16z" />
    <glyph glyph-name="ohookabove" unicode="&#x1ecf;" 
d="M26 191q0 -86 45.5 -134.5t131.5 -48.5q78 0 136.5 48.5t85.5 117t27 141.5q0 90 -48 140.5t-130 50.5q-78 0 -136.5 -48.5t-85 -118.5t-26.5 -148zM6 191q0 135 72.5 235t195.5 100q92 0 145 -58t53 -153q0 -58 -18 -115t-50.5 -104.5t-85 -77t-115.5 -29.5
q-95 0 -146 53.5t-51 148.5zM241 692l-9 19q46 17 81 17q98 0 98 -73q0 -31 -21.5 -45.5t-53.5 -14.5q-11 0 -21 3t-12 3l-9 -25h-20l-7 42l15 10q22 -13 54 -13q19 0 37 10.5t18 29.5q0 53 -78 53q-30 0 -72 -16z" />
    <glyph glyph-name="Ocircumflexacute" unicode="&#x1ed0;" horiz-adv-x="722" 
d="M677 434q0 128 -69 202.5t-197 74.5q-111 0 -194.5 -65t-123.5 -161.5t-40 -204.5q0 -126 71 -201.5t195 -75.5q110 0 193.5 65t124 161.5t40.5 204.5zM697 434q0 -85 -25.5 -165t-72 -144t-119.5 -102.5t-161 -38.5q-136 0 -211 79.5t-75 216.5q0 85 25 165t71.5 144
t119.5 103t162 39q135 0 210.5 -80t75.5 -217zM599 776h-24l-82 130l-124 -130h-26l135 144h30zM580 852h-28l163 144h28z" />
    <glyph glyph-name="ocircumflexacute" unicode="&#x1ed1;" 
d="M26 191q0 -86 45.5 -134.5t131.5 -48.5q78 0 136.5 48.5t85.5 117t27 141.5q0 90 -48 140.5t-130 50.5q-78 0 -136.5 -48.5t-85 -118.5t-26.5 -148zM6 191q0 135 72.5 235t195.5 100q92 0 145 -58t53 -153q0 -58 -18 -115t-50.5 -104.5t-85 -77t-115.5 -29.5
q-95 0 -146 53.5t-51 148.5zM432 581h-24l-82 130l-124 -130h-26l135 144h30zM426 644h-28l163 144h28z" />
    <glyph glyph-name="Ocircumflexgrave" unicode="&#x1ed2;" horiz-adv-x="722" 
d="M677 434q0 128 -69 202.5t-197 74.5q-111 0 -194.5 -65t-123.5 -161.5t-40 -204.5q0 -126 71 -201.5t195 -75.5q110 0 193.5 65t124 161.5t40.5 204.5zM697 434q0 -85 -25.5 -165t-72 -144t-119.5 -102.5t-161 -38.5q-136 0 -211 79.5t-75 216.5q0 85 25 165t71.5 144
t119.5 103t162 39q135 0 210.5 -80t75.5 -217zM590 769h-24l-82 130l-124 -130h-26l135 144h30zM294 990l112 -144h-25l-112 144h25z" />
    <glyph glyph-name="ocircumflexgrave" unicode="&#x1ed3;" 
d="M26 191q0 -86 45.5 -134.5t131.5 -48.5q78 0 136.5 48.5t85.5 117t27 141.5q0 90 -48 140.5t-130 50.5q-78 0 -136.5 -48.5t-85 -118.5t-26.5 -148zM6 191q0 135 72.5 235t195.5 100q92 0 145 -58t53 -153q0 -58 -18 -115t-50.5 -104.5t-85 -77t-115.5 -29.5
q-95 0 -146 53.5t-51 148.5zM455 581h-24l-82 130l-124 -130h-26l135 144h30zM154 794l112 -144h-25l-112 144h25z" />
    <glyph glyph-name="Ocircumflexhookabove" unicode="&#x1ed4;" horiz-adv-x="722" 
d="M677 434q0 128 -69 202.5t-197 74.5q-111 0 -194.5 -65t-123.5 -161.5t-40 -204.5q0 -126 71 -201.5t195 -75.5q110 0 193.5 65t124 161.5t40.5 204.5zM697 434q0 -85 -25.5 -165t-72 -144t-119.5 -102.5t-161 -38.5q-136 0 -211 79.5t-75 216.5q0 85 25 165t71.5 144
t119.5 103t162 39q135 0 210.5 -80t75.5 -217zM597 781h-24l-82 130l-124 -130h-26l135 144h30zM574 893l-9 19q46 17 81 17q98 0 98 -73q0 -31 -21.5 -45.5t-53.5 -14.5q-11 0 -21 3t-12 3l-9 -25h-20l-7 42l15 10q22 -13 54 -13q19 0 37 10.5t18 29.5q0 53 -78 53
q-30 0 -72 -16z" />
    <glyph glyph-name="ocircumflexhookabove" unicode="&#x1ed5;" 
d="M26 191q0 -86 45.5 -134.5t131.5 -48.5q78 0 136.5 48.5t85.5 117t27 141.5q0 90 -48 140.5t-130 50.5q-78 0 -136.5 -48.5t-85 -118.5t-26.5 -148zM6 191q0 135 72.5 235t195.5 100q92 0 145 -58t53 -153q0 -58 -18 -115t-50.5 -104.5t-85 -77t-115.5 -29.5
q-95 0 -146 53.5t-51 148.5zM449 577h-24l-82 130l-124 -130h-26l135 144h30zM425 688l-9 19q46 17 81 17q98 0 98 -73q0 -31 -21.5 -45.5t-53.5 -14.5q-11 0 -21 3t-12 3l-9 -25h-20l-7 42l15 10q22 -13 54 -13q19 0 37 10.5t18 29.5q0 53 -78 53q-30 0 -72 -16z" />
    <glyph glyph-name="Ocircumflextilde" unicode="&#x1ed6;" horiz-adv-x="722" 
d="M677 434q0 128 -69 202.5t-197 74.5q-111 0 -194.5 -65t-123.5 -161.5t-40 -204.5q0 -126 71 -201.5t195 -75.5q110 0 193.5 65t124 161.5t40.5 204.5zM697 434q0 -85 -25.5 -165t-72 -144t-119.5 -102.5t-161 -38.5q-136 0 -211 79.5t-75 216.5q0 85 25 165t71.5 144
t119.5 103t162 39q135 0 210.5 -80t75.5 -217zM578 781h-24l-82 130l-124 -130h-26l135 144h30zM629 1032q-7 -31 -26 -54t-49 -23q-25 0 -65 30.5t-64 30.5q-33 0 -53 -60h-20q7 34 26.5 57t52.5 23q24 0 63 -30.5t65 -30.5q30 0 51 57h19z" />
    <glyph glyph-name="ocircumflextilde" unicode="&#x1ed7;" 
d="M26 191q0 -86 45.5 -134.5t131.5 -48.5q78 0 136.5 48.5t85.5 117t27 141.5q0 90 -48 140.5t-130 50.5q-78 0 -136.5 -48.5t-85 -118.5t-26.5 -148zM6 191q0 135 72.5 235t195.5 100q92 0 145 -58t53 -153q0 -58 -18 -115t-50.5 -104.5t-85 -77t-115.5 -29.5
q-95 0 -146 53.5t-51 148.5zM455 581h-24l-82 130l-124 -130h-26l135 144h30zM518 844q-7 -31 -26 -54t-49 -23q-25 0 -65 30.5t-64 30.5q-33 0 -53 -60h-20q7 34 26.5 57t52.5 23q24 0 63 -30.5t65 -30.5q30 0 51 57h19z" />
    <glyph glyph-name="Ocircumflexdotbelow" unicode="&#x1ed8;" horiz-adv-x="722" 
d="M677 434q0 128 -69 202.5t-197 74.5q-111 0 -194.5 -65t-123.5 -161.5t-40 -204.5q0 -126 71 -201.5t195 -75.5q110 0 193.5 65t124 161.5t40.5 204.5zM697 434q0 -85 -25.5 -165t-72 -144t-119.5 -102.5t-161 -38.5q-136 0 -211 79.5t-75 216.5q0 85 25 165t71.5 144
t119.5 103t162 39q135 0 210.5 -80t75.5 -217zM602 778h-24l-82 130l-124 -130h-26l135 144h30zM291 -78l-13 -81h-21l13 81h21z" />
    <glyph glyph-name="ocircumflexdotbelow" unicode="&#x1ed9;" 
d="M26 191q0 -86 45.5 -134.5t131.5 -48.5q78 0 136.5 48.5t85.5 117t27 141.5q0 90 -48 140.5t-130 50.5q-78 0 -136.5 -48.5t-85 -118.5t-26.5 -148zM6 191q0 135 72.5 235t195.5 100q92 0 145 -58t53 -153q0 -58 -18 -115t-50.5 -104.5t-85 -77t-115.5 -29.5
q-95 0 -146 53.5t-51 148.5zM455 581h-24l-82 130l-124 -130h-26l135 144h30zM186 -73l-13 -81h-21l13 81h21z" />
    <glyph glyph-name="Ohornacute" unicode="&#x1eda;" horiz-adv-x="803" 
d="M677 434q0 -108 -40.5 -204.5t-124 -161.5t-193.5 -65q-124 0 -195 75.5t-71 201.5q0 108 40 204.5t123.5 161.5t194.5 65q128 0 197 -74.5t69 -202.5zM697 434q0 137 -75.5 217t-210.5 80q-89 0 -162 -39t-119.5 -103t-71.5 -144t-25 -165q0 -137 75 -216.5t211 -79.5
q88 0 161 38.5t119.5 102.5t72 144t25.5 165zM776 616v98h-20v-98q0 -41 -31 -63q-26 -20 -47 -31l4 -24q21 14 59 45q35 29 35 73zM441 781h-28l163 144h28z" />
    <glyph glyph-name="ohornacute" unicode="&#x1edb;" 
d="M26 191q0 78 26.5 148t85 118.5t136.5 48.5q82 0 130 -50.5t48 -140.5q0 -73 -27 -141.5t-85.5 -117t-136.5 -48.5q-86 0 -131.5 48.5t-45.5 134.5zM6 191q0 -95 51 -148.5t146 -53.5q63 0 115.5 29.5t85 77t50.5 104.5t18 115q0 95 -53 153t-145 58q-123 0 -195.5 -100
t-72.5 -235zM561 416v98h-20v-98q0 -41 -31 -63q-26 -20 -47 -31l4 -24q21 14 59 45q35 29 35 73zM299 577h-28l163 144h28z" />
    <glyph glyph-name="Ohorngrave" unicode="&#x1edc;" horiz-adv-x="803" 
d="M677 434q0 -108 -40.5 -204.5t-124 -161.5t-193.5 -65q-124 0 -195 75.5t-71 201.5q0 108 40 204.5t123.5 161.5t194.5 65q128 0 197 -74.5t69 -202.5zM697 434q0 137 -75.5 217t-210.5 80q-89 0 -162 -39t-119.5 -103t-71.5 -144t-25 -165q0 -137 75 -216.5t211 -79.5
q88 0 161 38.5t119.5 102.5t72 144t25.5 165zM776 616v98h-20v-98q0 -41 -31 -63q-26 -20 -47 -31l4 -24q21 14 59 45q35 29 35 73zM465 925l112 -144h-25l-112 144h25z" />
    <glyph glyph-name="ohorngrave" unicode="&#x1edd;" 
d="M26 191q0 78 26.5 148t85 118.5t136.5 48.5q82 0 130 -50.5t48 -140.5q0 -73 -27 -141.5t-85.5 -117t-136.5 -48.5q-86 0 -131.5 48.5t-45.5 134.5zM6 191q0 -95 51 -148.5t146 -53.5q63 0 115.5 29.5t85 77t50.5 104.5t18 115q0 95 -53 153t-145 58q-123 0 -195.5 -100
t-72.5 -235zM561 416v98h-20v-98q0 -41 -31 -63q-26 -20 -47 -31l4 -24q21 14 59 45q35 29 35 73zM323 721l112 -144h-25l-112 144h25z" />
    <glyph glyph-name="Ohornhookabove" unicode="&#x1ede;" horiz-adv-x="803" 
d="M677 434q0 128 -69 202.5t-197 74.5q-111 0 -194.5 -65t-123.5 -161.5t-40 -204.5q0 -126 71 -201.5t195 -75.5q110 0 193.5 65t124 161.5t40.5 204.5zM697 434q0 -85 -25.5 -165t-72 -144t-119.5 -102.5t-161 -38.5q-136 0 -211 79.5t-75 216.5q0 85 25 165t71.5 144
t119.5 103t162 39q135 0 210.5 -80t75.5 -217zM776 714v-98q0 -44 -35 -73q-38 -31 -59 -45l-4 24q21 11 47 31q31 22 31 63v98h20zM429 897l-9 19q46 17 81 17q98 0 98 -73q0 -31 -21.5 -45.5t-53.5 -14.5q-11 0 -21 3t-12 3l-9 -25h-20l-7 42l15 10q22 -13 54 -13
q19 0 37 10.5t18 29.5q0 53 -78 53q-30 0 -72 -16z" />
    <glyph glyph-name="ohornhookabove" unicode="&#x1edf;" 
d="M26 191q0 -86 45.5 -134.5t131.5 -48.5q78 0 136.5 48.5t85.5 117t27 141.5q0 90 -48 140.5t-130 50.5q-78 0 -136.5 -48.5t-85 -118.5t-26.5 -148zM6 191q0 135 72.5 235t195.5 100q92 0 145 -58t53 -153q0 -58 -18 -115t-50.5 -104.5t-85 -77t-115.5 -29.5
q-95 0 -146 53.5t-51 148.5zM561 514v-98q0 -44 -35 -73q-38 -31 -59 -45l-4 24q21 11 47 31q31 22 31 63v98h20zM286 692l-9 19q46 17 81 17q98 0 98 -73q0 -31 -21.5 -45.5t-53.5 -14.5q-11 0 -21 3t-12 3l-9 -25h-20l-7 42l15 10q22 -13 54 -13q19 0 37 10.5t18 29.5
q0 53 -78 53q-30 0 -72 -16z" />
    <glyph glyph-name="Ohorntilde" unicode="&#x1ee0;" horiz-adv-x="803" 
d="M677 434q0 -108 -40.5 -204.5t-124 -161.5t-193.5 -65q-124 0 -195 75.5t-71 201.5q0 108 40 204.5t123.5 161.5t194.5 65q128 0 197 -74.5t69 -202.5zM697 434q0 137 -75.5 217t-210.5 80q-89 0 -162 -39t-119.5 -103t-71.5 -144t-25 -165q0 -137 75 -216.5t211 -79.5
q88 0 161 38.5t119.5 102.5t72 144t25.5 165zM776 616v98h-20v-98q0 -41 -31 -63q-26 -20 -47 -31l4 -24q21 14 59 45q35 29 35 73zM640 858q-7 -31 -26 -54t-49 -23q-25 0 -65 30.5t-64 30.5q-33 0 -53 -60h-20q7 34 26.5 57t52.5 23q24 0 63 -30.5t65 -30.5q30 0 51 57h19
z" />
    <glyph glyph-name="ohorntilde" unicode="&#x1ee1;" 
d="M26 191q0 78 26.5 148t85 118.5t136.5 48.5q82 0 130 -50.5t48 -140.5q0 -73 -27 -141.5t-85.5 -117t-136.5 -48.5q-86 0 -131.5 48.5t-45.5 134.5zM6 191q0 -95 51 -148.5t146 -53.5q63 0 115.5 29.5t85 77t50.5 104.5t18 115q0 95 -53 153t-145 58q-123 0 -195.5 -100
t-72.5 -235zM561 416v98h-20v-98q0 -41 -31 -63q-26 -20 -47 -31l4 -24q21 14 59 45q35 29 35 73zM498 654q-7 -31 -26 -54t-49 -23q-25 0 -65 30.5t-64 30.5q-33 0 -53 -60h-20q7 34 26.5 57t52.5 23q24 0 63 -30.5t65 -30.5q30 0 51 57h19z" />
    <glyph glyph-name="Ohorndotbelow" unicode="&#x1ee2;" horiz-adv-x="803" 
d="M677 434q0 128 -69 202.5t-197 74.5q-111 0 -194.5 -65t-123.5 -161.5t-40 -204.5q0 -126 71 -201.5t195 -75.5q110 0 193.5 65t124 161.5t40.5 204.5zM697 434q0 -85 -25.5 -165t-72 -144t-119.5 -102.5t-161 -38.5q-136 0 -211 79.5t-75 216.5q0 85 25 165t71.5 144
t119.5 103t162 39q135 0 210.5 -80t75.5 -217zM776 714v-98q0 -44 -35 -73q-38 -31 -59 -45l-4 24q21 11 47 31q31 22 31 63v98h20zM322 -65l-13 -81h-21l13 81h21z" />
    <glyph glyph-name="ohorndotbelow" unicode="&#x1ee3;" 
d="M26 191q0 -86 45.5 -134.5t131.5 -48.5q78 0 136.5 48.5t85.5 117t27 141.5q0 90 -48 140.5t-130 50.5q-78 0 -136.5 -48.5t-85 -118.5t-26.5 -148zM6 191q0 135 72.5 235t195.5 100q92 0 145 -58t53 -153q0 -58 -18 -115t-50.5 -104.5t-85 -77t-115.5 -29.5
q-95 0 -146 53.5t-51 148.5zM561 514v-98q0 -44 -35 -73q-38 -31 -59 -45l-4 24q21 11 47 31q31 22 31 63v98h20zM224 -60l-13 -81h-21l13 81h21z" />
    <glyph glyph-name="Udotbelow" unicode="&#x1ee4;" horiz-adv-x="648" 
d="M161 714l-99 -456q-7 -51 -7 -73q0 -88 60.5 -136t154.5 -46q32 0 57.5 3t62.5 17.5t64.5 39t53.5 72t40 112.5l102 467h21l-100 -461q-8 -33 -15.5 -56.5t-22 -58t-36.5 -59t-52 -48t-75 -35.5t-100 -12q-102 0 -168.5 50.5t-66.5 150.5q0 41 11 99l94 430h21zM239 -75
l-13 -81h-21l13 81h21z" />
    <glyph glyph-name="udotbelow" unicode="&#x1ee5;" horiz-adv-x="500" 
d="M368 0h-21l13 64l13 58l-2 2q-37 -67 -86.5 -101t-121.5 -34q-69 0 -110 36t-41 103q0 16 12 81l64 305h21l-65 -310q-12 -60 -12 -76q1 -58 36.5 -89t94.5 -31q54 0 97.5 23t72 64t46 85t28.5 97l50 237h22zM165 -67l-13 -81h-21l13 81h21z" />
    <glyph glyph-name="Uhookabove" unicode="&#x1ee6;" horiz-adv-x="648" 
d="M161 714l-99 -456q-7 -51 -7 -73q0 -88 60.5 -136t154.5 -46q32 0 57.5 3t62.5 17.5t64.5 39t53.5 72t40 112.5l102 467h21l-100 -461q-8 -33 -15.5 -56.5t-22 -58t-36.5 -59t-52 -48t-75 -35.5t-100 -12q-102 0 -168.5 50.5t-66.5 150.5q0 41 11 99l94 430h21zM376 880
l-9 19q46 17 81 17q98 0 98 -73q0 -31 -21.5 -45.5t-53.5 -14.5q-11 0 -21 3t-12 3l-9 -25h-20l-7 42l15 10q22 -13 54 -13q19 0 37 10.5t18 29.5q0 53 -78 53q-30 0 -72 -16z" />
    <glyph glyph-name="uhookabove" unicode="&#x1ee7;" horiz-adv-x="500" 
d="M368 0h-21l13 64l13 58l-2 2q-37 -67 -86.5 -101t-121.5 -34q-69 0 -110 36t-41 103q0 16 12 81l64 305h21l-65 -310q-12 -60 -12 -76q1 -58 36.5 -89t94.5 -31q54 0 97.5 23t72 64t46 85t28.5 97l50 237h22zM248 681l-9 19q46 17 81 17q98 0 98 -73q0 -31 -21.5 -45.5
t-53.5 -14.5q-11 0 -21 3t-12 3l-9 -25h-20l-7 42l15 10q22 -13 54 -13q19 0 37 10.5t18 29.5q0 53 -78 53q-30 0 -72 -16z" />
    <glyph glyph-name="Uhornacute" unicode="&#x1ee8;" horiz-adv-x="648" 
d="M766 616l30 98h-20l-30 -98q0 -40 -56 -63l-59 -25l40 186h-21l-102 -467q-14 -65 -40 -112.5t-53.5 -72t-64.5 -39t-62.5 -17.5t-57.5 -3q-94 -2 -154.5 46t-60.5 136q0 22 7 73l99 456h-21l-94 -430q-11 -58 -11 -99q0 -100 66.5 -150.5t168.5 -50.5q55 0 100 12
t75 35.5t52 48t36.5 59t22 58t15.5 56.5l53 246q30 19 82 44q60 29 60 73zM450 764h-28l163 144h28z" />
    <glyph glyph-name="uhornacute" unicode="&#x1ee9;" horiz-adv-x="500" 
d="M347 0h21l65 301q27 17 79 42q60 29 60 73l30 98h-20l-30 -98q0 -40 -56 -63l-57 -24l40 185h-22l-50 -237q-11 -53 -28.5 -97t-46 -85t-72 -64t-97.5 -23q-59 0 -94.5 31t-36.5 89q0 21 4 38l8 38l65 310h-21l-64 -305q-12 -65 -12 -81q0 -67 41 -103t110 -36
q72 0 121.5 34t86.5 101l2 -2l-13 -58zM321 565h-28l163 144h28z" />
    <glyph glyph-name="Uhorngrave" unicode="&#x1eea;" horiz-adv-x="648" 
d="M766 616l30 98h-20l-30 -98q0 -40 -56 -63l-59 -25l40 186h-21l-102 -467q-14 -65 -40 -112.5t-53.5 -72t-64.5 -39t-62.5 -17.5t-57.5 -3q-94 -2 -154.5 46t-60.5 136q0 22 7 73l99 456h-21l-94 -430q-11 -58 -11 -99q0 -100 66.5 -150.5t168.5 -50.5q55 0 100 12
t75 35.5t52 48t36.5 59t22 58t15.5 56.5l53 246q30 19 82 44q60 29 60 73zM474 908l112 -144h-25l-112 144h25z" />
    <glyph glyph-name="uhorngrave" unicode="&#x1eeb;" horiz-adv-x="500" 
d="M347 0h21l65 301q27 17 79 42q60 29 60 73l30 98h-20l-30 -98q0 -40 -56 -63l-57 -24l40 185h-22l-50 -237q-11 -53 -28.5 -97t-46 -85t-72 -64t-97.5 -23q-59 0 -94.5 31t-36.5 89q0 21 4 38l8 38l65 310h-21l-64 -305q-12 -65 -12 -81q0 -67 41 -103t110 -36
q72 0 121.5 34t86.5 101l2 -2l-13 -58zM345 709l112 -144h-25l-112 144h25z" />
    <glyph glyph-name="Uhornhookabove" unicode="&#x1eec;" horiz-adv-x="648" 
d="M796 714l-30 -98q0 -44 -60 -73q-52 -25 -82 -44l-53 -246q-8 -33 -15.5 -56.5t-22 -58t-36.5 -59t-52 -48t-75 -35.5t-100 -12q-102 0 -168.5 50.5t-66.5 150.5q0 41 11 99l94 430h21l-99 -456q-7 -51 -7 -73q0 -88 60.5 -136t154.5 -46q32 0 57.5 3t62.5 17.5t64.5 39
t53.5 72t40 112.5l102 467h21l-40 -186l59 25q56 23 56 63l30 98h20zM438 880l-9 19q46 17 81 17q98 0 98 -73q0 -31 -21.5 -45.5t-53.5 -14.5q-11 0 -21 3t-12 3l-9 -25h-20l-7 42l15 10q22 -13 54 -13q19 0 37 10.5t18 29.5q0 53 -78 53q-30 0 -72 -16z" />
    <glyph glyph-name="uhornhookabove" unicode="&#x1eed;" horiz-adv-x="500" 
d="M368 0h-21l13 64l13 58l-2 2q-37 -67 -86.5 -101t-121.5 -34q-69 0 -110 36t-41 103q0 16 12 81l64 305h21l-65 -310l-8 -38q-4 -17 -4 -38q1 -58 36.5 -89t94.5 -31q54 0 97.5 23t72 64t46 85t28.5 97l50 237h22l-40 -185l57 24q56 23 56 63l30 98h20l-30 -98
q0 -44 -60 -73q-52 -25 -79 -42zM309 681l-9 19q46 17 81 17q98 0 98 -73q0 -31 -21.5 -45.5t-53.5 -14.5q-11 0 -21 3t-12 3l-9 -25h-20l-7 42l15 10q22 -13 54 -13q19 0 37 10.5t18 29.5q0 53 -78 53q-30 0 -72 -16z" />
    <glyph glyph-name="Uhorntilde" unicode="&#x1eee;" horiz-adv-x="648" 
d="M766 616l30 98h-20l-30 -98q0 -40 -56 -63l-59 -25l40 186h-21l-102 -467q-14 -65 -40 -112.5t-53.5 -72t-64.5 -39t-62.5 -17.5t-57.5 -3q-94 -2 -154.5 46t-60.5 136q0 22 7 73l99 456h-21l-94 -430q-11 -58 -11 -99q0 -100 66.5 -150.5t168.5 -50.5q55 0 100 12
t75 35.5t52 48t36.5 59t22 58t15.5 56.5l53 246q30 19 82 44q60 29 60 73zM649 841q-7 -31 -26 -54t-49 -23q-25 0 -65 30.5t-64 30.5q-33 0 -53 -60h-20q7 34 26.5 57t52.5 23q24 0 63 -30.5t65 -30.5q30 0 51 57h19z" />
    <glyph glyph-name="uhorntilde" unicode="&#x1eef;" horiz-adv-x="500" 
d="M347 0h21l65 301q27 17 79 42q60 29 60 73l30 98h-20l-30 -98q0 -40 -56 -63l-57 -24l40 185h-22l-50 -237q-11 -53 -28.5 -97t-46 -85t-72 -64t-97.5 -23q-59 0 -94.5 31t-36.5 89q0 21 4 38l8 38l65 310h-21l-64 -305q-12 -65 -12 -81q0 -67 41 -103t110 -36
q72 0 121.5 34t86.5 101l2 -2l-13 -58zM520 642q-7 -31 -26 -54t-49 -23q-25 0 -65 30.5t-64 30.5q-33 0 -53 -60h-20q7 34 26.5 57t52.5 23q24 0 63 -30.5t65 -30.5q30 0 51 57h19z" />
    <glyph glyph-name="Uhorndotbelow" unicode="&#x1ef0;" horiz-adv-x="648" 
d="M796 714l-30 -98q0 -44 -60 -73q-52 -25 -82 -44l-53 -246q-8 -33 -15.5 -56.5t-22 -58t-36.5 -59t-52 -48t-75 -35.5t-100 -12q-102 0 -168.5 50.5t-66.5 150.5q0 41 11 99l94 430h21l-99 -456q-7 -51 -7 -73q0 -88 60.5 -136t154.5 -46q32 0 57.5 3t62.5 17.5t64.5 39
t53.5 72t40 112.5l102 467h21l-40 -186l59 25q56 23 56 63l30 98h20zM335 -65l-13 -81h-21l13 81h21z" />
    <glyph glyph-name="uhorndotbelow" unicode="&#x1ef1;" horiz-adv-x="500" 
d="M368 0h-21l13 64l13 58l-2 2q-37 -67 -86.5 -101t-121.5 -34q-69 0 -110 36t-41 103q0 16 12 81l64 305h21l-65 -310l-8 -38q-4 -17 -4 -38q1 -58 36.5 -89t94.5 -31q54 0 97.5 23t72 64t46 85t28.5 97l50 237h22l-40 -185l57 24q56 23 56 63l30 98h20l-30 -98
q0 -44 -60 -73q-52 -25 -79 -42zM248 -60l-13 -81h-21l13 81h21z" />
    <glyph glyph-name="Ygrave" unicode="&#x1ef2;" 
d="M253 322l349 392h25l-366 -411l-65 -303h-21l65 303l-194 411h23zM249 906l112 -144h-25l-112 144h25z" />
    <glyph glyph-name="ygrave" unicode="&#x1ef3;" horiz-adv-x="407" 
d="M138 26l281 488h25l-337 -582q-39 -63 -58 -79q-31 -26 -81 -28q-3 -1 -8 -1h-9h-17l3 20q56 -2 82 13.5t58 65.5l44 77l-100 514h22zM175 707l112 -144h-25l-112 144h25z" />
    <glyph glyph-name="Ydotbelow" unicode="&#x1ef4;" 
d="M253 322l349 392h25l-366 -411l-65 -303h-21l65 303l-194 411h23zM191 -45l-13 -81h-21l13 81h21z" />
    <glyph glyph-name="ydotbelow" unicode="&#x1ef5;" horiz-adv-x="407" 
d="M138 26l281 488h25l-337 -582q-39 -63 -58 -79q-31 -26 -81 -28q-3 -1 -8 -1h-9h-17l3 20q56 -2 82 13.5t58 65.5l44 77l-100 514h22zM86 -269l-13 -81h-21l13 81h21z" />
    <glyph glyph-name="Yhookabove" unicode="&#x1ef6;" 
d="M253 322l349 392h25l-366 -411l-65 -303h-21l65 303l-194 411h23zM358 880l-9 19q46 17 81 17q98 0 98 -73q0 -31 -21.5 -45.5t-53.5 -14.5q-11 0 -21 3t-12 3l-9 -25h-20l-7 42l15 10q22 -13 54 -13q19 0 37 10.5t18 29.5q0 53 -78 53q-30 0 -72 -16z" />
    <glyph glyph-name="yhookabove" unicode="&#x1ef7;" horiz-adv-x="407" 
d="M138 26l281 488h25l-337 -582q-39 -63 -58 -79q-31 -26 -81 -28q-3 -1 -8 -1h-9h-17l3 20q56 -2 82 13.5t58 65.5l44 77l-100 514h22zM209 681l-9 19q46 17 81 17q98 0 98 -73q0 -31 -21.5 -45.5t-53.5 -14.5q-11 0 -21 3t-12 3l-9 -25h-20l-7 42l15 10q22 -13 54 -13
q19 0 37 10.5t18 29.5q0 53 -78 53q-30 0 -72 -16z" />
    <glyph glyph-name="Ytilde" unicode="&#x1ef8;" 
d="M253 322l349 392h25l-366 -411l-65 -303h-21l65 303l-194 411h23zM458 839q-7 -31 -26 -54t-49 -23q-25 0 -65 30.5t-64 30.5q-33 0 -53 -60h-20q7 34 26.5 57t52.5 23q24 0 63 -30.5t65 -30.5q30 0 51 57h19z" />
    <glyph glyph-name="ytilde" unicode="&#x1ef9;" horiz-adv-x="407" 
d="M138 26l281 488h25l-337 -582q-39 -63 -58 -79q-31 -26 -81 -28q-3 -1 -8 -1h-9h-17l3 20q56 -2 82 13.5t58 65.5l44 77l-100 514h22zM359 638q-7 -31 -26 -54t-49 -23q-25 0 -65 30.5t-64 30.5q-33 0 -53 -60h-20q7 34 26.5 57t52.5 23q24 0 63 -30.5t65 -30.5
q30 0 51 57h19z" />
    <glyph glyph-name="uni20AB.dong" unicode="&#x20ab;" horiz-adv-x="537" 
d="M397 622h113l20 92h21l-20 -92h96l-4 -20h-96l-130 -602h-21l16 76l16 63l-2 2q-67 -152 -216 -152q-89 0 -136.5 51.5t-47.5 142.5q0 57 18.5 116.5t52 110.5t86 83.5t114.5 32.5q80 0 128.5 -43t48.5 -119h2l12 65l37 173h-112zM440 336q0 80 -41.5 125t-121.5 45
q-59 0 -108 -30.5t-79.5 -78.5t-47 -104t-16.5 -110q0 -79 42 -127t121 -48q78 0 136.5 53t85.5 126t29 149zM423 -95v-20h-504v20h504z" />
  </font>
</defs>
</svg>
