<svg width="233" height="137" fill="none" xmlns="http://www.w3.org/2000/svg"><g opacity=".2" clip-path="url(#clip0)" fill="#40A691"><path d="M25.135 91.556a9.419 9.419 0 00-8.547 5.44c.684.183 1.351.407 1.997.67a7.322 7.322 0 016.55-4.041c2.87 0 5.35 1.65 6.548 4.037a16.684 16.684 0 011.997-.667 9.417 9.417 0 00-8.545-5.439z"/><path d="M14.613 96.596A11.392 11.392 0 0125.135 89.6c4.747 0 8.817 2.896 10.521 6.993.713-.1 1.44-.156 2.18-.164-1.853-5.177-6.844-8.897-12.701-8.897-5.858 0-10.85 3.72-12.702 8.897.74.009 1.467.064 2.18.165z"/><path d="M25.135 95.677a5.249 5.249 0 00-4.689 2.884c.49.274.965.572 1.423.892.116.076.237.147.35.227a3.157 3.157 0 015.828.014 16.735 16.735 0 011.773-1.137 5.247 5.247 0 00-4.685-2.88zm0 16.185a9.419 9.419 0 00-8.547 5.441c.684.182 1.351.406 1.997.669a7.323 7.323 0 016.55-4.041c2.87 0 5.35 1.649 6.548 4.037a16.665 16.665 0 011.997-.667 9.417 9.417 0 00-8.545-5.439z"/><path d="M14.613 116.901a11.392 11.392 0 0110.522-6.994c4.747 0 8.817 2.896 10.521 6.993.713-.1 1.44-.156 2.18-.164-1.853-5.177-6.844-8.897-12.701-8.897-5.858 0-10.85 3.72-12.702 8.897.74.009 1.467.064 2.18.165z"/><path d="M25.135 115.983a5.249 5.249 0 00-4.689 2.884c.49.274.965.572 1.423.892.116.077.237.148.35.227a3.158 3.158 0 015.828.015 16.675 16.675 0 011.773-1.138 5.247 5.247 0 00-4.685-2.88zm12.433-14.274a9.419 9.419 0 00-8.546 5.441c.683.182 1.35.405 1.997.668a7.322 7.322 0 016.55-4.04c2.87 0 5.35 1.65 6.548 4.037a16.669 16.669 0 011.996-.668 9.418 9.418 0 00-8.545-5.438z"/><path d="M27.046 106.748a11.393 11.393 0 0110.522-6.994c4.747 0 8.817 2.896 10.522 6.993.713-.1 1.44-.156 2.179-.164-1.852-5.177-6.844-8.897-12.7-8.897-5.858 0-10.851 3.719-12.703 8.897.74.009 1.467.065 2.18.165z"/><path d="M37.568 105.83a5.249 5.249 0 00-4.688 2.884c.49.274.964.572 1.422.891.116.077.236.148.35.228a3.158 3.158 0 015.828.014 16.74 16.74 0 011.773-1.138 5.246 5.246 0 00-4.685-2.879zm-24.866-4.121a9.419 9.419 0 00-8.547 5.441c.684.182 1.35.405 1.997.668a7.322 7.322 0 016.55-4.04c2.87 0 5.35 1.65 6.548 4.037a16.669 16.669 0 011.997-.668 9.418 9.418 0 00-8.545-5.438z"/><path d="M2.18 106.748a11.393 11.393 0 0110.522-6.994c4.747 0 8.816 2.896 10.521 6.993.713-.1 1.44-.156 2.18-.164-1.853-5.177-6.845-8.897-12.701-8.897-5.858 0-10.85 3.72-12.702 8.897.74.009 1.467.065 2.18.165z"/><path d="M12.702 105.83a5.249 5.249 0 00-4.69 2.884c.491.274.966.572 1.423.891.116.077.237.148.35.228a3.158 3.158 0 015.828.014 16.73 16.73 0 011.773-1.138 5.246 5.246 0 00-4.684-2.879zm62.164-14.274a9.419 9.419 0 00-8.546 5.44c.684.183 1.35.407 1.997.67a7.322 7.322 0 016.55-4.041c2.87 0 5.35 1.65 6.548 4.037a16.688 16.688 0 011.996-.667 9.417 9.417 0 00-8.545-5.439z"/><path d="M64.344 96.596A11.392 11.392 0 0174.866 89.6c4.748 0 8.817 2.896 10.522 6.993.713-.1 1.44-.156 2.179-.164-1.852-5.177-6.844-8.897-12.7-8.897-5.858 0-10.85 3.72-12.702 8.897.739.009 1.466.064 2.179.165z"/><path d="M74.866 95.677a5.25 5.25 0 00-4.688 2.884c.49.274.964.572 1.422.892.116.076.237.147.35.227a3.157 3.157 0 015.828.014 16.745 16.745 0 011.773-1.137 5.246 5.246 0 00-4.685-2.88zm0 16.185a9.419 9.419 0 00-8.546 5.441c.684.182 1.35.406 1.997.669a7.323 7.323 0 016.55-4.041c2.87 0 5.35 1.649 6.548 4.037a16.669 16.669 0 011.996-.667 9.417 9.417 0 00-8.545-5.439z"/><path d="M64.344 116.901a11.392 11.392 0 0110.522-6.994c4.748 0 8.817 2.896 10.522 6.993.713-.1 1.44-.156 2.179-.164-1.852-5.177-6.844-8.897-12.7-8.897-5.858 0-10.85 3.72-12.702 8.897.739.009 1.466.064 2.179.165z"/><path d="M74.866 115.983a5.249 5.249 0 00-4.688 2.884c.49.274.964.572 1.422.892.116.077.237.148.35.227a3.159 3.159 0 015.828.015 16.685 16.685 0 011.773-1.138 5.245 5.245 0 00-4.685-2.88zm-24.91-4.121a9.417 9.417 0 00-8.546 5.441c.684.182 1.35.406 1.997.669a7.323 7.323 0 016.55-4.041c2.87 0 5.35 1.649 6.548 4.037a16.676 16.676 0 011.996-.667 9.42 9.42 0 00-8.545-5.439z"/><path d="M39.434 116.901a11.393 11.393 0 0110.522-6.994c4.748 0 8.817 2.896 10.522 6.993.712-.1 1.44-.156 2.178-.164-1.852-5.177-6.843-8.897-12.7-8.897-5.857 0-10.85 3.72-12.702 8.897.739.009 1.466.064 2.18.165z"/><path d="M49.956 115.983a5.249 5.249 0 00-4.689 2.884c.49.274.965.572 1.423.892.116.077.236.148.35.227a3.159 3.159 0 015.828.015 16.685 16.685 0 011.773-1.138 5.246 5.246 0 00-4.685-2.88zm0-24.427a9.417 9.417 0 00-8.546 5.44c.684.183 1.35.407 1.997.67a7.322 7.322 0 016.55-4.041c2.87 0 5.35 1.65 6.548 4.037a16.696 16.696 0 011.996-.667 9.42 9.42 0 00-8.545-5.439z"/><path d="M39.434 96.596A11.393 11.393 0 0149.956 89.6c4.748 0 8.817 2.896 10.522 6.993.712-.1 1.44-.156 2.178-.164-1.852-5.177-6.843-8.897-12.7-8.897-5.857 0-10.85 3.72-12.702 8.897.739.009 1.466.064 2.18.165z"/><path d="M49.956 95.677a5.25 5.25 0 00-4.689 2.884c.49.274.965.572 1.423.892.116.076.236.147.35.227a3.157 3.157 0 015.828.014 16.745 16.745 0 011.773-1.137 5.247 5.247 0 00-4.685-2.88zm37.344 6.032a9.419 9.419 0 00-8.547 5.441c.684.182 1.35.405 1.997.668a7.322 7.322 0 016.55-4.04c2.87 0 5.35 1.65 6.548 4.037a16.673 16.673 0 011.996-.668 9.418 9.418 0 00-8.544-5.438z"/><path d="M76.777 106.748A11.393 11.393 0 0187.3 99.754c4.748 0 8.817 2.896 10.522 6.993.713-.1 1.44-.156 2.179-.164-1.852-5.177-6.844-8.897-12.7-8.897-5.858 0-10.85 3.719-12.702 8.897.739.009 1.466.065 2.18.165z"/><path d="M87.3 105.83a5.249 5.249 0 00-4.69 2.884c.491.274.966.572 1.423.891.116.077.237.148.35.228a3.158 3.158 0 015.828.014 16.746 16.746 0 011.773-1.138 5.248 5.248 0 00-4.684-2.879zm-24.867-4.121a9.417 9.417 0 00-8.546 5.441c.684.182 1.35.405 1.997.668a7.322 7.322 0 016.55-4.04c2.87 0 5.35 1.65 6.548 4.037a16.675 16.675 0 011.996-.668 9.42 9.42 0 00-8.545-5.438z"/><path d="M51.911 106.748a11.392 11.392 0 0110.523-6.994c4.747 0 8.816 2.896 10.521 6.993.713-.1 1.44-.156 2.179-.164-1.852-5.177-6.844-8.897-12.7-8.897-5.858 0-10.85 3.719-12.702 8.897a17.2 17.2 0 012.18.165z"/><path d="M62.433 105.83a5.249 5.249 0 00-4.689 2.884c.49.274.965.572 1.423.891.116.077.236.148.35.228a3.159 3.159 0 015.828.014 16.746 16.746 0 011.773-1.138 5.25 5.25 0 00-4.685-2.879zM37.568 81.023a9.419 9.419 0 00-8.546 5.441c.683.182 1.35.406 1.997.669a7.322 7.322 0 016.55-4.04c2.87 0 5.35 1.65 6.548 4.036a16.684 16.684 0 011.996-.667 9.417 9.417 0 00-8.545-5.439z"/><path d="M27.046 86.063a11.393 11.393 0 0110.522-6.994c4.747 0 8.817 2.895 10.522 6.993.713-.1 1.44-.156 2.179-.165C48.417 80.72 43.426 77 37.569 77c-5.858 0-10.851 3.72-12.703 8.897.74.01 1.467.065 2.18.166z"/><path d="M37.568 85.144a5.25 5.25 0 00-4.688 2.884c.49.274.964.572 1.422.892.116.077.236.147.35.228a3.157 3.157 0 015.828.014 16.8 16.8 0 011.773-1.138 5.245 5.245 0 00-4.685-2.88zm24.865-4.121a9.417 9.417 0 00-8.546 5.441c.684.182 1.35.406 1.997.669a7.322 7.322 0 016.55-4.04c2.87 0 5.35 1.65 6.548 4.036a16.696 16.696 0 011.996-.667 9.418 9.418 0 00-8.545-5.439z"/><path d="M51.911 86.063a11.392 11.392 0 0110.523-6.994c4.747 0 8.816 2.895 10.521 6.993.713-.1 1.44-.156 2.179-.165C73.282 80.72 68.29 77 62.433 77s-10.85 3.72-12.702 8.897c.74.01 1.467.065 2.18.166z"/><path d="M62.433 85.144a5.25 5.25 0 00-4.689 2.884c.49.274.965.572 1.423.892.116.077.236.147.35.228a3.158 3.158 0 015.828.014 16.806 16.806 0 011.773-1.138 5.248 5.248 0 00-4.685-2.88z"/></g><g opacity=".2" clip-path="url(#clip1)" fill="#40A691"><path d="M203.803 111.755a3.671 3.671 0 00-3.334 2.151c.267.072.527.16.779.264a2.854 2.854 0 012.555-1.597c1.119 0 2.086.652 2.554 1.596.252-.104.511-.192.778-.264a3.669 3.669 0 00-3.332-2.15z"/><path d="M199.699 113.747a4.443 4.443 0 014.104-2.765 4.443 4.443 0 014.103 2.765 6.44 6.44 0 01.85-.065c-.722-2.047-2.669-3.518-4.953-3.518-2.285 0-4.232 1.471-4.954 3.518.288.003.572.025.85.065z"/><path d="M203.803 113.384c-.801 0-1.493.466-1.829 1.14.191.108.376.226.555.353.045.03.092.058.137.09a1.23 1.23 0 011.137-.765c.514 0 .952.32 1.135.77.22-.164.452-.314.692-.45a2.044 2.044 0 00-1.827-1.138zm0 6.399a3.671 3.671 0 00-3.334 2.151c.267.072.527.16.779.264a2.854 2.854 0 012.555-1.597c1.119 0 2.086.652 2.554 1.596.252-.104.511-.192.778-.264a3.669 3.669 0 00-3.332-2.15z"/><path d="M199.699 121.775a4.443 4.443 0 014.104-2.765 4.444 4.444 0 014.103 2.764 6.8 6.8 0 01.85-.065c-.722-2.046-2.669-3.517-4.953-3.517-2.285 0-4.232 1.471-4.954 3.518.288.003.572.025.85.065z"/><path d="M203.803 121.412c-.801 0-1.493.466-1.829 1.14.191.108.376.226.555.353.045.03.092.058.137.09a1.23 1.23 0 011.137-.765c.514 0 .952.32 1.135.77.22-.164.452-.314.692-.449a2.043 2.043 0 00-1.827-1.139zm4.849-5.643a3.671 3.671 0 00-3.334 2.151c.267.072.527.16.779.264a2.85 2.85 0 012.555-1.597c1.119 0 2.086.652 2.553 1.596.253-.104.512-.192.779-.264a3.669 3.669 0 00-3.332-2.15z"/><path d="M204.548 117.761a4.443 4.443 0 014.104-2.765 4.443 4.443 0 014.103 2.765 6.44 6.44 0 01.85-.065c-.723-2.047-2.669-3.518-4.953-3.518-2.285 0-4.232 1.471-4.954 3.518.288.003.572.025.85.065z"/><path d="M208.652 117.398c-.801 0-1.493.466-1.829 1.14.191.108.376.226.555.352.045.031.092.059.136.09a1.232 1.232 0 011.137-.764c.515 0 .953.32 1.136.77a6.6 6.6 0 01.691-.45 2.041 2.041 0 00-1.826-1.138zm-9.698-1.629a3.671 3.671 0 00-3.334 2.151c.267.072.527.16.779.264a2.852 2.852 0 012.555-1.597c1.119 0 2.086.652 2.554 1.596.252-.104.511-.192.778-.264a3.669 3.669 0 00-3.332-2.15z"/><path d="M194.85 117.761a4.443 4.443 0 014.104-2.765 4.443 4.443 0 014.103 2.765 6.44 6.44 0 01.85-.065c-.722-2.047-2.669-3.518-4.953-3.518-2.285 0-4.232 1.471-4.954 3.518.288.003.572.025.85.065z"/><path d="M198.954 117.398c-.801 0-1.493.466-1.829 1.14.191.108.376.226.555.352.045.031.092.059.136.09a1.232 1.232 0 011.137-.764c.515 0 .953.32 1.136.77a6.51 6.51 0 01.692-.45 2.044 2.044 0 00-1.827-1.138zm24.244-5.643a3.668 3.668 0 00-3.333 2.151c.266.072.526.16.779.264a2.851 2.851 0 012.554-1.597c1.119 0 2.087.652 2.554 1.596.252-.104.512-.192.778-.264a3.669 3.669 0 00-3.332-2.15z"/><path d="M219.094 113.747a4.443 4.443 0 014.104-2.765 4.443 4.443 0 014.103 2.765 6.44 6.44 0 01.85-.065c-.722-2.047-2.669-3.518-4.953-3.518-2.285 0-4.232 1.471-4.954 3.518.288.003.572.025.85.065z"/><path d="M223.198 113.384c-.801 0-1.493.466-1.829 1.14.191.108.377.226.555.353.045.03.092.058.137.09a1.23 1.23 0 011.137-.765c.514 0 .952.32 1.135.77.22-.164.452-.314.692-.45a2.044 2.044 0 00-1.827-1.138zm0 6.399a3.668 3.668 0 00-3.333 2.151c.266.072.526.16.779.264a2.851 2.851 0 012.554-1.597c1.119 0 2.087.652 2.554 1.596.252-.104.512-.192.778-.264a3.669 3.669 0 00-3.332-2.15z"/><path d="M219.094 121.775a4.443 4.443 0 014.104-2.765 4.444 4.444 0 014.103 2.764 6.8 6.8 0 01.85-.065c-.722-2.046-2.669-3.517-4.953-3.517-2.285 0-4.232 1.471-4.954 3.518.288.003.572.025.85.065z"/><path d="M223.198 121.412c-.801 0-1.493.466-1.829 1.14.191.108.377.226.555.353.045.03.092.058.137.09a1.23 1.23 0 011.137-.765c.514 0 .952.32 1.135.77.22-.164.452-.314.692-.449a2.043 2.043 0 00-1.827-1.139zm-9.715-1.629a3.668 3.668 0 00-3.333 2.151c.267.072.527.16.779.264a2.852 2.852 0 012.554-1.597c1.119 0 2.087.652 2.554 1.596.252-.104.512-.192.779-.264a3.671 3.671 0 00-3.333-2.15z"/><path d="M209.379 121.775a4.443 4.443 0 014.104-2.765 4.444 4.444 0 014.103 2.764 6.8 6.8 0 01.85-.065c-.722-2.046-2.669-3.517-4.953-3.517-2.285 0-4.232 1.471-4.954 3.518.288.003.572.025.85.065z"/><path d="M213.483 121.412c-.801 0-1.493.466-1.829 1.14.191.108.377.226.555.353.045.03.092.058.137.09a1.23 1.23 0 011.137-.765c.514 0 .952.32 1.135.77.22-.164.452-.314.692-.449a2.043 2.043 0 00-1.827-1.139zm0-9.657a3.668 3.668 0 00-3.333 2.151c.267.072.527.16.779.264a2.852 2.852 0 012.554-1.597c1.119 0 2.087.652 2.554 1.596.252-.104.512-.192.779-.264a3.671 3.671 0 00-3.333-2.15z"/><path d="M209.379 113.747a4.443 4.443 0 014.104-2.765 4.443 4.443 0 014.103 2.765 6.44 6.44 0 01.85-.065c-.722-2.047-2.669-3.518-4.953-3.518-2.285 0-4.232 1.471-4.954 3.518.288.003.572.025.85.065z"/><path d="M213.483 113.384c-.801 0-1.493.466-1.829 1.14.191.108.377.226.555.353.045.03.092.058.137.09a1.23 1.23 0 011.137-.765c.514 0 .952.32 1.135.77.22-.164.452-.314.692-.45a2.044 2.044 0 00-1.827-1.138zm14.564 2.385a3.668 3.668 0 00-3.333 2.151c.266.072.526.16.778.264a2.852 2.852 0 012.555-1.597c1.119 0 2.087.652 2.554 1.596.252-.104.512-.192.778-.264a3.669 3.669 0 00-3.332-2.15z"/><path d="M223.943 117.761a4.443 4.443 0 014.104-2.765 4.443 4.443 0 014.103 2.765 6.44 6.44 0 01.85-.065c-.722-2.047-2.669-3.518-4.953-3.518-2.285 0-4.232 1.471-4.954 3.518.288.003.572.025.85.065z"/><path d="M228.047 117.398c-.801 0-1.493.466-1.829 1.14.191.108.376.226.555.352.045.031.092.059.137.09a1.23 1.23 0 011.137-.764c.514 0 .952.32 1.135.77.22-.164.452-.314.692-.45a2.044 2.044 0 00-1.827-1.138zm-9.698-1.629a3.668 3.668 0 00-3.333 2.151c.267.072.527.16.779.264a2.85 2.85 0 012.554-1.597c1.12 0 2.087.652 2.554 1.596.252-.104.512-.192.779-.264a3.671 3.671 0 00-3.333-2.15z"/><path d="M214.245 117.761a4.443 4.443 0 014.104-2.765 4.443 4.443 0 014.104 2.765c.278-.04.561-.062.849-.065-.722-2.047-2.669-3.518-4.953-3.518-2.284 0-4.232 1.471-4.954 3.518.288.003.572.025.85.065z"/><path d="M218.349 117.398c-.801 0-1.493.466-1.829 1.14a6.5 6.5 0 01.555.352c.045.031.092.059.137.09a1.23 1.23 0 011.137-.764c.514 0 .952.32 1.136.77a6.6 6.6 0 01.691-.45 2.044 2.044 0 00-1.827-1.138zm-9.697-9.807a3.671 3.671 0 00-3.334 2.151c.267.072.527.16.779.264a2.85 2.85 0 012.555-1.597c1.119 0 2.086.652 2.553 1.596.253-.104.512-.192.779-.264a3.669 3.669 0 00-3.332-2.15z"/><path d="M204.548 109.583a4.443 4.443 0 014.104-2.765 4.443 4.443 0 014.103 2.765 6.44 6.44 0 01.85-.065c-.722-2.047-2.669-3.518-4.953-3.518-2.285 0-4.232 1.471-4.954 3.518.288.003.572.025.85.065z"/><path d="M208.652 109.22c-.801 0-1.493.466-1.829 1.14.191.108.376.226.555.353.045.03.092.058.136.09a1.232 1.232 0 011.137-.765c.515 0 .953.32 1.136.77a6.6 6.6 0 01.691-.45 2.041 2.041 0 00-1.826-1.138zm9.697-1.629a3.668 3.668 0 00-3.333 2.151c.267.072.527.16.779.264a2.85 2.85 0 012.554-1.597c1.12 0 2.087.652 2.554 1.596.252-.104.512-.192.779-.264a3.671 3.671 0 00-3.333-2.15z"/><path d="M214.245 109.583a4.443 4.443 0 014.104-2.765 4.443 4.443 0 014.104 2.765c.277-.04.561-.062.849-.065-.722-2.047-2.669-3.518-4.953-3.518-2.284 0-4.232 1.471-4.954 3.518.288.003.572.025.85.065z"/><path d="M218.349 109.22c-.801 0-1.493.466-1.829 1.14.191.108.377.226.555.353.045.03.092.058.137.09a1.23 1.23 0 011.137-.765c.514 0 .952.32 1.136.77a6.6 6.6 0 01.691-.45 2.044 2.044 0 00-1.827-1.138z"/></g><path d="M191.623 96.597c-2.972.462-5.946.86-8.923 1.194-2.978.324-5.964.547-8.948.696-2.982.17-5.967.237-8.947.224-2.984-.008-5.96-.05-8.829-.377-2.867-.333-5.649-.927-8.147-2.05-2.511-1.114-4.798-2.741-6.938-4.626-4.313-3.76-7.955-8.564-12.529-12.87-2.267-2.144-4.705-4.16-7.356-5.94-2.644-1.783-5.524-3.316-8.598-4.416-3.059-1.11-6.167-1.785-9.197-2.342-3.041-.558-5.983-.962-8.886-1.504-11.646-2.138-65.556-16.446-76.659-20.6l-.004-.002a2.743 2.743 0 00-2.004 5.107c11.3 4.647 65.582 19.194 77.632 21.29 6.063 1.099 11.997 1.57 17.244 3.373 5.222 1.778 10.019 4.989 14.325 8.848 4.319 3.812 8.219 8.502 13.133 12.508 2.46 1.984 5.226 3.75 8.291 4.932 3.068 1.191 6.283 1.697 9.402 1.852 3.133.156 6.186.013 9.214-.175 3.034-.207 6.059-.497 9.068-.888 6.011-.831 11.973-1.959 17.799-3.563a.344.344 0 00-.143-.67z" fill="#301011"/><path d="M178.034 85.067a181.608 181.608 0 01-15.995 14.047 1.027 1.027 0 001.263 1.621c.017-.013.035-.029.051-.043a183.119 183.119 0 0015.178-15.153.342.342 0 00-.028-.484.344.344 0 00-.469.012zm-5.186 31.924a23.054 23.054 0 01-9.866-3.569 23.205 23.205 0 01-4.048-3.333c-1.225-1.253-2.21-2.669-3.248-4.167-.524-.742-1.07-1.492-1.694-2.205-.312-.355-.64-.708-.999-1.024l-.528-.485-.556-.442c-1.491-1.171-3.116-2.073-4.692-2.942-1.577-.87-3.132-1.712-4.491-2.717-1.346-1.01-2.457-2.206-3.124-3.612l-.004-.01a1.207 1.207 0 10-2.161 1.075c.951 1.825 2.445 3.258 4.013 4.335 1.583 1.073 3.241 1.877 4.844 2.682 1.605.8 3.17 1.597 4.553 2.598l.516.376.481.41c.33.265.626.561.921.868.587.619 1.131 1.303 1.673 2.009 1.066 1.415 2.205 2.923 3.554 4.193a24.453 24.453 0 004.402 3.34 23.962 23.962 0 0010.392 3.302.343.343 0 00.067-.682h-.005zm-79.17-40.448a56.335 56.335 0 00-16.292-13.72 1.306 1.306 0 10-1.171 2.331 54.687 54.687 0 0116.95 11.843.34.34 0 00.484.007.344.344 0 00.03-.461z" fill="#301011"/><path d="M137.308 95.047c2.918 1.947 4.477 5.739 3.77 9.176-.39.295-.927-.043-1.3-.359-2.561-2.173-3.377-5.584-2.47-8.817zm-.549-6.616c5.126-2.63 11.811-1.832 16.175 1.929.111.796-.803 1.295-1.556 1.577-5.162 1.937-10.707.38-14.619-3.505zM94.922 70.912c5.458 1.847 9.542 7.199 9.882 12.95-.494.633-1.489.326-2.215-.017-4.984-2.357-7.728-7.42-7.667-12.933zM66.094 60.149c4.052-5.336 11.463-7.864 17.931-6.114.516.778-.19 1.762-.837 2.436-4.44 4.626-11.036 5.783-17.094 3.678zm105.222 41.621c3.937-.638 8.17 1.313 10.242 4.722-.097.547-.806.682-1.361.707-3.814.173-7.133-2.035-8.881-5.429z" fill="#B0AF75"/><path d="M185.001 82.43c.452-.405.895-.858 1.088-1.434.398-1.193-.654-2.621-1.911-2.596-.266.005-.598.033-.73-.198-.062-.109-.054-.242-.047-.367.051-.96-.209-2.078-1.075-2.492-.855-.408-1.875.072-2.592.69-1.95 1.681-2.817 4.29-3.294 6.82-.104.553-.191 1.138.001 1.668 1.323 3.644 7.11-.789 8.56-2.09z" fill="#FFC369"/><path d="M182.616 91.991c.547.261 1.137.497 1.742.452 1.254-.09 2.169-1.61 1.663-2.76-.108-.244-.261-.54-.099-.75.077-.1.204-.144.322-.185.905-.322 1.838-.991 1.887-1.95.049-.947-.787-1.703-1.634-2.128-2.301-1.154-5.043-.952-7.561-.42-.551.117-1.125.26-1.54.642-2.855 2.621 3.461 6.26 5.22 7.1z" fill="#FFC369"/><path d="M172.685 92.931c-.128.593-.222 1.221-.04 1.8.377 1.2 2.065 1.741 3.069.984.213-.16.465-.377.707-.267.114.051.186.165.254.27.521.807 1.387 1.561 2.331 1.389.933-.17 1.477-1.157 1.696-2.08.595-2.504-.231-5.126-1.328-7.454-.24-.51-.512-1.036-.978-1.352-3.207-2.177-5.299 4.805-5.711 6.71z" fill="#FFC369"/><path d="M168.648 83.65c-.604.06-1.23.162-1.726.512-1.027.726-1.026 2.499.001 3.223.218.153.501.327.471.592-.014.124-.1.227-.179.324-.609.743-1.063 1.797-.61 2.644.447.836 1.553 1.052 2.498.979 2.566-.198 4.811-1.787 6.692-3.543.412-.383.829-.803.988-1.344 1.092-3.72-6.195-3.577-8.135-3.386z" fill="#FFC369"/><path d="M176.603 76.901c-.28-.538-.609-1.08-1.119-1.41-1.055-.683-2.701-.02-2.99 1.203-.061.259-.116.587-.373.657-.121.033-.248-.008-.368-.046-.916-.288-2.064-.316-2.681.42-.608.727-.396 1.834.024 2.683 1.141 2.307 3.452 3.797 5.783 4.889.51.239 1.055.47 1.615.415 3.859-.373 1.009-7.082.109-8.811z" fill="#FFC369"/><path d="M176.906 86.108a1.306 1.306 0 111.207-2.316 1.306 1.306 0 01-1.207 2.316z" fill="#FFE3D4"/><path d="M157.912 110.835c.344.253.719.493 1.143.544.878.103 1.711-.825 1.514-1.687-.041-.183-.108-.407.032-.531.066-.058.159-.072.246-.085.668-.102 1.401-.441 1.562-1.096.159-.648-.318-1.28-.847-1.686-1.435-1.102-3.356-1.326-5.165-1.292-.396.007-.812.031-1.149.239-2.319 1.432 1.56 4.782 2.664 5.594z" fill="#FFC369"/><path d="M150.989 110.561c-.102.415-.179.853-.062 1.264.242.851 1.419 1.263 2.139.749.152-.108.333-.256.501-.174.08.038.128.119.174.194.351.577.945 1.124 1.612 1.021.659-.102 1.06-.786 1.231-1.43.466-1.749-.065-3.607-.792-5.265-.159-.363-.34-.737-.662-.968-2.214-1.591-3.816 3.278-4.141 4.609z" fill="#FFC369"/><path d="M148.921 103.859c-.427-.004-.872.022-1.245.229-.772.431-.903 1.671-.238 2.254.141.123.326.265.285.448-.019.087-.086.152-.149.214-.481.474-.877 1.178-.623 1.803.251.618 1.008.851 1.674.87 1.809.052 3.497-.893 4.942-1.98.317-.238.64-.501.791-.867 1.04-2.519-4.067-2.96-5.437-2.971z" fill="#FFC369"/><path d="M154.732 99.751c-.127-.407-.287-.824-.599-1.115-.646-.603-1.867-.35-2.218.462-.075.171-.154.392-.34.409-.088.008-.171-.036-.25-.077-.598-.314-1.389-.475-1.907-.042-.512.428-.502 1.22-.317 1.86.504 1.738 1.919 3.056 3.396 4.1.324.229.673.456 1.067.488 2.718.22 1.577-4.777 1.168-6.085z" fill="#FFC369"/><path d="M160.517 104.262c.331-.27.657-.574.811-.971.319-.825-.372-1.863-1.256-1.887-.187-.005-.42.004-.506-.162-.04-.079-.03-.173-.021-.26.068-.672-.078-1.466-.672-1.786-.588-.315-1.319-.01-1.844.4-1.425 1.116-2.12 2.92-2.538 4.68-.092.386-.172.794-.054 1.172.808 2.603 5.019-.319 6.08-1.186z" fill="#FFC369"/><path d="M154.681 106.853a.919.919 0 11.849-1.63.919.919 0 01-.849 1.63z" fill="#FFE3D4"/><path d="M123.512 79.512c.522.384 1.093.75 1.737.826 1.335.157 2.601-1.254 2.302-2.564-.064-.277-.165-.619.048-.807.1-.09.242-.11.375-.13 1.014-.155 2.128-.67 2.374-1.667.241-.983-.484-1.945-1.288-2.563-2.182-1.675-5.102-2.015-7.852-1.963-.601.01-1.233.047-1.746.363-3.526 2.177 2.371 7.27 4.05 8.505z" fill="#FFC369"/><path d="M112.987 79.094c-.154.63-.272 1.298-.094 1.922.368 1.293 2.157 1.92 3.251 1.14.232-.166.508-.39.763-.267.121.059.194.182.264.297.534.877 1.437 1.708 2.451 1.55 1.001-.154 1.611-1.194 1.872-2.173.707-2.658-.1-5.484-1.205-8.003-.242-.551-.517-1.121-1.007-1.472-3.365-2.419-5.8 4.983-6.295 7.006z" fill="#FFC369"/><path d="M109.843 68.906c-.648-.005-1.325.033-1.892.349-1.173.655-1.373 2.54-.362 3.426.214.187.495.404.433.682-.029.13-.132.23-.228.325-.731.72-1.332 1.79-.946 2.741.381.94 1.532 1.294 2.545 1.322 2.75.079 5.315-1.356 7.513-3.01.481-.362.972-.761 1.202-1.318 1.581-3.83-6.182-4.5-8.265-4.517z" fill="#FFC369"/><path d="M118.678 62.662c-.194-.62-.437-1.252-.91-1.695-.983-.918-2.839-.531-3.373.702-.113.261-.233.596-.517.622-.133.012-.26-.055-.379-.118-.91-.476-2.112-.72-2.9-.063-.777.65-.763 1.854-.481 2.828.766 2.642 2.916 4.645 5.163 6.233.491.347 1.022.692 1.621.741 4.132.335 2.397-7.262 1.776-9.25z" fill="#FFC369"/><path d="M127.473 69.52c.502-.41.999-.872 1.233-1.477.485-1.254-.566-2.832-1.91-2.868-.284-.007-.639.005-.769-.247-.061-.12-.046-.262-.032-.395.102-1.022-.118-2.229-1.022-2.714-.893-.48-2.005-.017-2.803.607-2.166 1.696-3.223 4.439-3.858 7.115-.14.586-.262 1.207-.083 1.781 1.228 3.958 7.63-.484 9.244-1.802z" fill="#FFC369"/><path d="M118.6 73.458a1.397 1.397 0 111.293-2.477 1.397 1.397 0 01-1.293 2.477z" fill="#FFE3D4"/><path d="M202.188 92.4c.33-.297.654-.629.795-1.05.29-.872-.478-1.916-1.397-1.897-.195.003-.437.024-.534-.145-.045-.08-.039-.177-.034-.269.037-.7-.153-1.518-.786-1.821-.625-.299-1.37.053-1.895.505-1.425 1.228-2.059 3.135-2.407 4.984-.077.405-.141.833 0 1.22.967 2.664 5.198-.576 6.258-1.528z" fill="#FFC369"/><path d="M200.444 99.388c.401.19.831.363 1.274.33.917-.066 1.585-1.176 1.215-2.018-.078-.178-.19-.394-.071-.548.056-.073.148-.104.235-.135.662-.236 1.343-.725 1.379-1.426.036-.691-.575-1.244-1.195-1.555-1.681-.844-3.686-.696-5.527-.307-.402.085-.822.19-1.125.469-2.088 1.917 2.529 4.577 3.815 5.19z" fill="#FFC369"/><path d="M193.185 100.075c-.094.434-.163.893-.029 1.316.275.877 1.509 1.273 2.243.719.155-.117.34-.275.517-.195.083.038.136.12.186.197.38.59 1.013 1.142 1.704 1.016.681-.125 1.079-.846 1.239-1.52.435-1.83-.169-3.748-.971-5.45-.175-.373-.374-.757-.714-.988-2.345-1.591-3.874 3.513-4.175 4.905z" fill="#FFC369"/><path d="M190.233 93.291c-.441.044-.899.119-1.261.374-.751.531-.75 1.827.001 2.356.159.112.366.24.344.433-.011.091-.073.166-.131.237-.445.543-.777 1.314-.446 1.933.327.611 1.135.769 1.826.715 1.876-.145 3.517-1.306 4.892-2.59.301-.28.606-.587.722-.982.799-2.72-4.529-2.615-5.947-2.476z" fill="#FFC369"/><path d="M196.049 88.357c-.205-.393-.445-.79-.818-1.031-.772-.499-1.974-.015-2.186.88-.044.189-.085.429-.272.48-.089.024-.182-.006-.27-.034-.669-.21-1.508-.23-1.959.308-.445.53-.29 1.34.017 1.96.834 1.687 2.523 2.776 4.227 3.575.373.174.771.343 1.181.303 2.821-.273.738-5.177.08-6.44z" fill="#FFC369"/><path d="M196.27 95.088a.955.955 0 11.882-1.693.955.955 0 01-.882 1.693z" fill="#FFE3D4"/><defs><clipPath id="clip0"><path fill="#fff" transform="translate(0 77)" d="M0 0h100v43H0z"/></clipPath><clipPath id="clip1"><path fill="#fff" transform="translate(194 106)" d="M0 0h39v17H0z"/></clipPath></defs></svg>