<svg width="16" height="16" fill="none" xmlns="http://www.w3.org/2000/svg"><path d="M8 16A8 8 0 108 0a8 8 0 000 16z" fill="#FFD15C"/><path d="M8 14.085a6.085 6.085 0 100-12.17 6.085 6.085 0 000 12.17z" fill="#F8B64C"/><path d="M4.977 11.37V5.63a1 1 0 011-1h1.858c.719 0 1.24.061 1.565.184.327.12.588.334.784.643.196.31.294.664.294 1.063 0 .505-.149.924-.445 1.255-.297.328-.74.535-1.33.62.293.172.534.36.724.566.193.205.451.57.776 1.094l.82 1.315H9.4l-.982-1.467c-.349-.524-.588-.853-.716-.988a1.01 1.01 0 00-.408-.28c-.144-.053-.372-.079-.684-.079h-.275v2.814H4.977zm1.358-3.89h1.004c.652 0 1.059-.027 1.22-.082a.732.732 0 00.382-.285.879.879 0 00.137-.506c0-.227-.06-.41-.183-.547a.816.816 0 00-.51-.267c-.11-.015-.44-.023-.99-.023h-1.06v1.71z" fill="#fff"/></svg>