<svg width="49" height="49" fill="none" xmlns="http://www.w3.org/2000/svg"><path d="M10.034 48.5H7.75a7.278 7.278 0 01-7.287-7.288V7.788A7.278 7.278 0 017.75.5h11.903c5.442 0 10.786 1.409 15.352 4.324.292.194.535.34.778.534 8.016 5.49 12.68 14.77 12.68 24.486v11.368a7.278 7.278 0 01-7.288 7.288h-.534l-5.538-8.6-4.324-6.947c2.235-.583 4.178-1.894 5.635-3.692 1.992-2.429 3.061-5.49 2.964-8.6 0-2.185-.486-4.372-1.458-6.315a12.502 12.502 0 00-8.405-6.801c-1.7-.39-3.498-.535-5.247-.535H9.986V48.5h.048zm22.834 0h-16.47V13.374h7.288c1.506 0 3.012.146 4.518.438.826.243 1.555.631 2.186 1.214a6.404 6.404 0 011.749 2.478 8.68 8.68 0 01.632 3.304c.048 1.749-.632 3.4-1.895 4.567a6.584 6.584 0 01-2.235 1.36c-.826.291-1.7.486-2.623.486H19.75L32.868 48.5zm15.595-34.591a15.62 15.62 0 00-.535-1.36A22.101 22.101 0 0036.172.79c-.242-.097-.485-.194-.68-.291h5.684a7.278 7.278 0 017.288 7.287v6.122z" fill="#4E73DF"/></svg>