<svg version="1.1" id="list_icon_rv" xmlns="http://www.w3.org/2000/svg" x="0" y="0" width="12" height="12" xml:space="preserve"><defs><style>g{display:none}g:target{display:inline}</style></defs><g id="icon-hide" fill="#F3713F"><path d="M7.414 4.586a.25.25 0 00-.353.353c.283.283.44.66.44 1.06A1.502 1.502 0 014.94 7.06a.25.25 0 00-.354.354 2.002 2.002 0 002.828-2.828zm-1.066-.552A2.004 2.004 0 006 4c-1.103 0-2 .897-2 2 0 .119.015.235.035.348a.25.25 0 00.492-.087A1.45 1.45 0 014.5 6c0-.827.673-1.5 1.5-1.5.09 0 .177.011.261.026a.25.25 0 10.087-.492z"/><path d="M11.94 5.838c-.056-.067-1.409-1.645-3.274-2.612a.25.25 0 00-.23.445c1.437.744 2.585 1.905 2.978 2.329-.596.645-2.942 3-5.414 3-.84 0-1.685-.203-2.514-.603a.25.25 0 10-.217.45c.897.434 1.816.653 2.73.653 3.081 0 5.826-3.202 5.942-3.339a.25.25 0 000-.323zm-4.3-3.05A5.163 5.163 0 006 2.5C2.92 2.5.175 5.702.059 5.838a.25.25 0 00-.014.305c.035.05.861 1.223 2.294 2.174a.248.248 0 00.346-.07.25.25 0 00-.07-.346A9.143 9.143 0 01.573 6.013C1.149 5.388 3.51 3 6 3c.466 0 .964.088 1.481.261a.247.247 0 00.317-.157.25.25 0 00-.157-.316z"/><path d="M10.426 1.573a.25.25 0 00-.353 0l-8.5 8.5a.25.25 0 00.353.354l8.5-8.5a.25.25 0 000-.354z"/></g><g id="icon-delete" fill="red"><path d="M9.095 11.676H2.906a.5.5 0 01-.495-.455l-.707-8.443a.162.162 0 01.163-.175h8.269a.162.162 0 01.162.175l-.707 8.443a.5.5 0 01-.496.455zM2.042 2.927l.693 8.267a.173.173 0 00.171.157h6.189a.173.173 0 00.171-.157l.693-8.267H2.042z"/><path d="M10.73 2.929H1.27a.352.352 0 01-.352-.352V1.76a.352.352 0 01.351-.352h9.462a.351.351 0 01.351.352v.817a.352.352 0 01-.351.352zM1.27 1.733a.027.027 0 00-.028.027v.817a.027.027 0 00.027.027h9.462a.027.027 0 00.027-.027V1.76a.027.027 0 00-.027-.027H1.269z"/><path d="M7.43 1.733H4.57a.162.162 0 01-.162-.163V.75a.425.425 0 01.425-.425h2.333A.425.425 0 017.59.75v.821a.162.162 0 01-.162.163zm-2.697-.325h2.534v-.66a.1.1 0 00-.1-.1H4.834a.1.1 0 00-.1.1v.66zm2.964 7.678h-.014a.162.162 0 01-.148-.176l.371-4.237a.162.162 0 11.323.028l-.37 4.237a.162.162 0 01-.162.148zM6 9.086a.162.162 0 01-.162-.162V4.687a.162.162 0 01.324 0v4.237A.162.162 0 016 9.086zm-1.696 0a.162.162 0 01-.162-.148L3.772 4.7a.162.162 0 11.322-.029l.372 4.238a.162.162 0 01-.162.176z"/></g><path d="M1.135 9.6H1.2l3.13-.681a.308.308 0 00.162-.081l5.303-5.303c.387-.386.603-.912.6-1.46 0-.55-.215-1.08-.6-1.475a2.043 2.043 0 00-1.46-.6 1.995 1.995 0 00-1.459.616L1.59 5.92a.292.292 0 00-.098.146l-.68 3.13a.357.357 0 00.096.308c.06.06.142.096.227.097zm7.2-8.951a1.41 1.41 0 011.411 1.427c.006.37-.14.728-.405.989l-1.995-2.01c.263-.262.619-.408.99-.406zm-1.443.875L8.887 3.52 4.265 8.124 2.271 6.146l4.621-4.622zm-4.88 5.27L3.616 8.4l-2.06.454.454-2.06zm9.42 4.557H.568a.324.324 0 100 .649h10.864a.324.324 0 000-.649z" id="icon-edit" fill="#18C662"/><g id="icon-speed" fill="#2C8AF9"><path d="M5.93 9.533a.251.251 0 01-.177-.073L2.54 6.247a.25.25 0 01-.01-.344l2.408-2.698C6.622 1.235 9.363-.039 11.754.002a.25.25 0 01.244.244c.055 2.392-1.234 5.132-3.208 6.819L6.096 9.47a.248.248 0 01-.166.063zM3.06 6.06l2.88 2.88 2.52-2.251c1.803-1.541 3-3.997 3.038-6.188-2.19.037-4.646 1.234-6.184 3.033L3.06 6.06z"/><path d="M6.888 11.363a.232.232 0 01-.071-.011c-.09-.03-.164-.099-.177-.193l-.343-2.393a.25.25 0 01.495-.071l.268 1.87a5.837 5.837 0 001.363-3.73.25.25 0 01.5 0 6.332 6.332 0 01-1.841 4.448.281.281 0 01-.194.08zM3.27 5.706c-.011 0-.023 0-.035-.002L.84 5.36a.25.25 0 01-.14-.426 6.346 6.346 0 014.464-1.857.25.25 0 010 .5c-1.36 0-2.695.491-3.732 1.362l1.873.269a.25.25 0 01-.036.497zm5.296-1.023a1.252 1.252 0 01-.884-2.133 1.251 1.251 0 011.768 0c.487.487.487 1.28 0 1.767a1.246 1.246 0 01-.884.366zm0-1.999a.748.748 0 00-.53 1.28.752.752 0 001.06 0 .752.752 0 000-1.061.751.751 0 00-.53-.219zm.707 1.457h.005-.005zM.25 12a.25.25 0 01-.24-.322c.083-.273.817-2.69 1.352-3.225a1.547 1.547 0 012.186 0 1.547 1.547 0 010 2.185c-.535.535-2.952 1.27-3.226 1.352A.275.275 0 01.25 12zm2.205-3.5c-.268 0-.535.102-.74.306-.288.289-.768 1.58-1.085 2.564.984-.317 2.275-.797 2.564-1.086A1.047 1.047 0 002.455 8.5z"/></g><g id="icon-calendar"><path d="M10.756 1.563h-.753V.966A.313.313 0 009.69.653a.313.313 0 00-.313.313v.597H6.314V.966a.313.313 0 00-.312-.313.313.313 0 00-.313.313v.597H2.594V.966a.313.313 0 00-.312-.313.313.313 0 00-.313.313v.597h-.722C.56 1.563 0 2.141 0 2.829v7.268c0 .69.556 1.25 1.247 1.25h9.506c.69 0 1.247-.56 1.247-1.247V2.829a1.26 1.26 0 00-1.244-1.266zm.622 8.534a.624.624 0 01-.619.625H1.247a.622.622 0 01-.622-.622V2.829c0-.347.278-.64.622-.64h.722v.452a.313.313 0 00.625 0v-.453H5.69v.453a.313.313 0 00.625 0v-.453h3.063v.453a.313.313 0 00.625 0v-.453h.754c.347 0 .622.297.622.641v7.268z"/><path d="M5.18 4.22h-.548a.313.313 0 00-.312.312c0 .172.14.313.312.313h.547a.313.313 0 000-.625zm2.175 0h-.547a.314.314 0 00-.312.312c0 .172.14.313.312.313h.547c.172 0 .313-.14.313-.313a.311.311 0 00-.313-.312zm2.195 0h-.548a.313.313 0 00-.312.312c0 .172.14.313.312.313h.547a.313.313 0 000-.625zM5.18 6.377h-.548a.313.313 0 00-.312.312c0 .172.14.313.312.313h.547a.313.313 0 000-.625zm-2.192 0h-.55a.314.314 0 00-.312.312c0 .172.14.313.312.313h.547c.172 0 .313-.14.313-.313a.31.31 0 00-.31-.312zm4.367 0h-.547a.314.314 0 00-.312.312c0 .172.14.313.312.313h.547c.172 0 .313-.14.313-.313a.311.311 0 00-.313-.312zm2.195 0h-.548a.313.313 0 00-.312.312c0 .172.14.313.312.313h.547a.313.313 0 000-.625zM5.18 8.502h-.548a.313.313 0 00-.312.313c0 .172.14.312.312.312h.547c.172 0 .313-.14.313-.312a.313.313 0 00-.313-.313zm-2.192 0h-.55a.314.314 0 00-.312.313c0 .172.14.312.312.312h.547c.172 0 .313-.14.313-.312a.31.31 0 00-.31-.313zm4.367 0h-.547a.314.314 0 00-.312.313c0 .172.14.312.312.312h.547c.172 0 .313-.14.313-.312a.311.311 0 00-.313-.313z"/></g><path d="M10.8.6a1.198 1.198 0 00-.862 2.03L7.745 7.016A1.16 1.16 0 007.6 7c-.155 0-.308.03-.452.09L5.446 5.176c.1-.176.153-.374.154-.576a1.2 1.2 0 00-2.4 0c.001.287.106.563.294.779l-2.08 3.643A1.2 1.2 0 102.4 10.2a1.19 1.19 0 00-.294-.778l2.08-3.643c.223.044.454.02.664-.068l1.702 1.914A1.185 1.185 0 006.4 8.2a1.2 1.2 0 102.062-.83l2.193-4.385c.048.008.096.013.145.015a1.2 1.2 0 000-2.4zm-9.6 10a.4.4 0 110-.8.4.4 0 010 .8zM4.4 5a.4.4 0 110-.8.4.4 0 010 .8zm3.2 3.6a.4.4 0 110-.8.4.4 0 010 .8zm3.2-6.4a.4.4 0 110-.8.4.4 0 010 .8z" id="icon-graph"/><g id="icon-camera" fill="#fff"><path d="M6 8.836a1.898 1.898 0 100-3.797 1.898 1.898 0 000 3.797zm2.772-6.703l-.12-.607a.705.705 0 00-.69-.565H4.038a.705.705 0 00-.69.565l-.12.607h5.544z"/><path d="M10.945 2.836h-9.89C.473 2.836 0 3.309 0 3.89v6.093c0 .582.473 1.055 1.055 1.055h9.89c.582 0 1.055-.473 1.055-1.055V3.891c0-.582-.473-1.055-1.055-1.055zM3 5.039H1.875a.352.352 0 010-.703H3a.352.352 0 010 .703zm3 4.5a2.604 2.604 0 01-2.602-2.601A2.604 2.604 0 016 4.335a2.604 2.604 0 012.602 2.601A2.604 2.604 0 016 9.54z"/></g></svg>