<svg width="356" height="342" fill="none" xmlns="http://www.w3.org/2000/svg"><path fill-rule="evenodd" clip-rule="evenodd" d="M305.39 152.766l-.015.001c-.14-6.16-5.169-11.113-11.367-11.113-5.013 0-9.261 3.245-10.777 7.743a8.21 8.21 0 00-4.719-1.488c-4.557 0-8.25 3.691-8.25 8.244s3.693 8.244 8.25 8.244h26.878a5.818 5.818 0 005.82-5.816 5.818 5.818 0 00-5.82-5.815z" fill="url(#paint0_linear)"/><path fill-rule="evenodd" clip-rule="evenodd" d="M44.55 53.86l-.012.002a8.386 8.386 0 00-16.333-2.486 6.083 6.083 0 00-9.566 4.984 6.082 6.082 0 006.085 6.08H44.55a4.29 4.29 0 004.292-4.29 4.291 4.291 0 00-4.292-4.29z" fill="url(#paint1_linear)"/><path fill-rule="evenodd" clip-rule="evenodd" d="M272.013 17.577l.026.002C272.258 7.835 280.216 0 290.018 0c7.932 0 14.649 5.132 17.048 12.248a12.982 12.982 0 017.466-2.352c7.208 0 13.05 5.837 13.05 13.039 0 7.203-5.842 13.04-13.05 13.04h-42.519c-5.084 0-9.206-4.118-9.206-9.199 0-5.08 4.122-9.199 9.206-9.199z" fill="url(#paint2_linear)"/><path fill-rule="evenodd" clip-rule="evenodd" d="M75.65 95.538h.024c.203-9.048 7.593-16.323 16.697-16.323 7.365 0 13.604 4.764 15.833 11.373a12.05 12.05 0 016.932-2.185c6.693 0 12.119 5.422 12.119 12.11s-5.426 12.111-12.119 12.111H75.65c-4.722 0-8.55-3.825-8.55-8.543 0-4.719 3.829-8.543 8.55-8.543z" fill="url(#paint3_linear)"/><path fill-rule="evenodd" clip-rule="evenodd" d="M44.004 279.919l5.41-8.725 5.394 8.725H44.004z" fill="#48BDA5"/><path fill-rule="evenodd" clip-rule="evenodd" d="M25.161 340.157h101.582v-59.644H25.161v59.644z" fill="url(#paint4_linear)"/><path fill-rule="evenodd" clip-rule="evenodd" d="M25.161 340.157h29.822v-59.644H25.161v59.644z" fill="#BA7F4E"/><path fill-rule="evenodd" clip-rule="evenodd" d="M89.729 293.894l.162 5.258h-7.883v-18.639h13.98v13.38l-6.26.001zm-43.134 46.263H32.616v-59.644h13.979v59.644z" fill="#F5CE42"/><path fill-rule="evenodd" clip-rule="evenodd" d="M95.988 293.56l-5.447 4.66-.145-4.659 5.592-.001z" fill="#FBE497"/><path fill-rule="evenodd" clip-rule="evenodd" d="M97.851 331.77h20.503v-14.911H97.851v14.911z" fill="#fff"/><path fill-rule="evenodd" clip-rule="evenodd" d="M100.647 326.178h15.843v-1.863h-15.843v1.863zm10.251 2.796h5.592v-1.864h-5.592v1.864z" fill="#12171E"/><path fill-rule="evenodd" clip-rule="evenodd" d="M356 336.429V154.475h-27.619v59.924h-13.677v31.458h-13.717l-18.436-18.418v-15.174h-19.243V188.29h-37.711v25.339h-32.289v-8.794h-41.737v30.177h-24.479v-12.56h-24.534v-48.436H80.812v14.358l-12.672.33v-80.599l-34.12 29.697v77.402H20.057v-23.321H0v144.546h356z" fill="url(#paint5_linear)"/><path fill-rule="evenodd" clip-rule="evenodd" d="M85.025 247.14h-3.833v-16.346c0-5.056-4.125-9.169-9.194-9.169-5.07 0-9.194 4.113-9.194 9.169v16.346h-3.833v-16.346c0-7.164 5.844-12.992 13.027-12.992 7.183 0 13.027 5.828 13.027 12.992v16.346z" fill="url(#paint6_linear)"/><path fill-rule="evenodd" clip-rule="evenodd" d="M85.63 280.213H48.076l3.876-44.144h29.803l3.875 44.144z" fill="#48BDA5"/><path fill-rule="evenodd" clip-rule="evenodd" d="M96.435 280.213H58.88l3.875-44.144H92.56l3.876 44.144z" fill="url(#paint7_linear)"/><path fill-rule="evenodd" clip-rule="evenodd" d="M53.486 271.487l3.393-35.417h-4.927l-3.876 44.143 5.41-8.726z" fill="#40A691"/><path fill-rule="evenodd" clip-rule="evenodd" d="M118.865 57.78c-9.546 0-18.215 8.67-18.215 18.214v246.3c0 9.545 8.669 18.214 18.215 18.214H238.72c9.545 0 18.215-8.669 18.215-18.214v-246.3c0-9.544-8.67-18.214-18.215-18.214H118.865z" fill="#393939"/><path fill-rule="evenodd" clip-rule="evenodd" d="M121.768 63.371c-9.09 0-15.526 6.437-15.526 15.526v240.542c0 9.09 6.436 15.526 15.526 15.526h114.049c9.09 0 15.526-6.436 15.526-15.526V78.897c0-9.089-6.436-15.526-15.526-15.526H121.768z" fill="#fff"/><path fill-rule="evenodd" clip-rule="evenodd" d="M118.356 94.592a3.262 3.262 0 013.262-3.262h44.733a3.262 3.262 0 010 6.523h-44.733a3.262 3.262 0 01-3.262-3.261zm0 95.057a3.262 3.262 0 013.262-3.261h44.733a3.262 3.262 0 110 6.523h-44.733a3.262 3.262 0 01-3.262-3.262zm0 89.466a3.263 3.263 0 013.262-3.262h44.733a3.263 3.263 0 010 6.524h-44.733a3.263 3.263 0 01-3.262-3.262z" fill="#D7D7D7"/><g filter="url(#filter0_d)"><path fill-rule="evenodd" clip-rule="evenodd" d="M113.697 107.57c0-.734.595-1.329 1.329-1.329h127.813c.734 0 1.329.595 1.329 1.329v55.145a1.33 1.33 0 01-1.329 1.33H115.026a1.33 1.33 0 01-1.329-1.33V107.57z" fill="#fff"/></g><path fill-rule="evenodd" clip-rule="evenodd" d="M113.697 106.241h46.243v57.804h-46.243v-57.804z" fill="url(#paint8_linear)"/><path fill-rule="evenodd" clip-rule="evenodd" d="M167.785 145.555c0-.734.595-1.329 1.329-1.329h33.565c.734 0 1.329.595 1.329 1.329v7.647c0 .734-.595 1.329-1.329 1.329h-33.565a1.329 1.329 0 01-1.329-1.329v-7.647z" fill="url(#paint9_linear)"/><path fill-rule="evenodd" clip-rule="evenodd" d="M176.171 149.351c0-.772.626-1.398 1.398-1.398h16.775a1.398 1.398 0 010 2.796h-16.775a1.398 1.398 0 01-1.398-1.398z" fill="#fff"/><path fill-rule="evenodd" clip-rule="evenodd" d="M169.77 137.475l-.772.374a.222.222 0 01-.315-.24l.143-.766-.587-.527a.222.222 0 01.119-.384l.829-.111.388-.725a.221.221 0 01.39 0l.388.725.829.111a.221.221 0 01.118.384l-.586.527.142.766a.221.221 0 01-.314.24l-.772-.374zm4.366-.001l-.772.374a.221.221 0 01-.314-.24l.143-.766-.587-.527a.222.222 0 01.118-.385l.829-.111.388-.724a.222.222 0 01.391 0l.388.724.828.111a.222.222 0 01.119.385l-.587.527.143.766a.222.222 0 01-.315.24l-.772-.374zm4.366 0l-.772.374a.221.221 0 01-.314-.24l.142-.766-.586-.527a.222.222 0 01.118-.385l.829-.111.388-.724a.222.222 0 01.391 0l.388.724.828.111a.222.222 0 01.119.385l-.587.527.143.766a.222.222 0 01-.315.24l-.772-.374zm4.366 0l-.772.374a.221.221 0 01-.314-.24l.143-.766-.587-.527a.222.222 0 01.118-.385l.829-.111.388-.724a.222.222 0 01.391 0l.388.724.828.111c.188.025.26.258.119.385l-.587.527.143.766a.222.222 0 01-.315.24l-.772-.374zm4.367 0l-.772.374a.222.222 0 01-.315-.24l.143-.766-.587-.527a.222.222 0 01.119-.385l.828-.111.388-.724a.222.222 0 01.391 0l.388.724.829.111a.222.222 0 01.118.385l-.587.527.143.766a.221.221 0 01-.314.24l-.772-.374z" fill="#E0E0E0"/><path fill-rule="evenodd" clip-rule="evenodd" d="M167.75 117.89a3.263 3.263 0 013.262-3.262h44.733a3.262 3.262 0 010 6.524h-44.733a3.262 3.262 0 01-3.262-3.262zm0 10.718c0-1.03.835-1.864 1.864-1.864h25.163a1.864 1.864 0 110 3.727h-25.163a1.864 1.864 0 01-1.864-1.863zm23.299 7.921c0-.772.625-1.398 1.397-1.398h8.388a1.398 1.398 0 010 2.796h-8.388a1.397 1.397 0 01-1.397-1.398z" fill="#CFCFCF"/><g filter="url(#filter1_b)"><path fill-rule="evenodd" clip-rule="evenodd" d="M117.415 114.344c0-1.68 0-2.52.327-3.162a3.009 3.009 0 011.311-1.311c.642-.327 1.482-.327 3.162-.327h7.741c1.68 0 2.52 0 3.162.327a2.998 2.998 0 011.311 1.311c.327.642.327 1.482.327 3.162v1.548c0 1.68 0 2.52-.327 3.162a2.993 2.993 0 01-1.311 1.311c-.642.327-1.482.327-3.162.327h-7.741c-1.68 0-2.52 0-3.162-.327a3.004 3.004 0 01-1.311-1.311c-.327-.642-.327-1.482-.327-3.162v-1.548z" fill="url(#paint10_linear)"/></g><path d="M122.047 126.299v-1.56c1.905-.225 2.895-1.515 2.895-2.85 0-1.35-1.005-2.46-2.67-2.79l-.225-.045v-3.075a2.036 2.036 0 011.455 1.605l1.35-.495c-.24-.975-.96-2.205-2.805-2.445v-1.59h-1.17v1.575c-1.68.21-2.865 1.425-2.865 2.85 0 1.47.96 2.415 2.49 2.73l.375.075v3.135c-1.185-.21-1.755-1.14-1.845-2.1l-1.425.45c.165 1.32 1.185 2.76 3.27 2.97v1.56h1.17zm1.425-4.335c0 .69-.45 1.275-1.425 1.455v-2.895c.975.225 1.425.81 1.425 1.44zm-3.975-4.545c0-.735.51-1.32 1.38-1.485v2.85c-1.02-.195-1.38-.735-1.38-1.365zm9.509 2.61c.255-.09.555-.15.855-.15.96 0 1.98.54 1.98 1.815 0 .975-.72 1.8-2.055 1.8-1.17 0-2.1-.81-2.16-2.1l-1.44.33c.09 1.59 1.365 3.06 3.615 3.06 2.265 0 3.525-1.485 3.525-3.12 0-1.995-1.575-2.955-3-2.955l2.775-2.565v-1.32h-6.6v1.35h4.65l-2.865 2.64.72 1.215zm7.121-.345c0-1.485.27-2.535.855-3.15.375-.39.855-.63 1.545-.63s1.17.24 1.545.63c.585.615.855 1.665.855 3.15 0 1.485-.27 2.535-.855 3.15-.375.39-.855.63-1.545.63s-1.17-.24-1.545-.63c-.585-.615-.855-1.665-.855-3.15zm-1.455 0c0 1.335.225 2.565.87 3.525.63.945 1.605 1.56 2.985 1.56s2.355-.615 2.985-1.56c.645-.96.87-2.19.87-3.525s-.225-2.565-.87-3.525c-.63-.945-1.605-1.56-2.985-1.56s-2.355.615-2.985 1.56c-.645.96-.87 2.19-.87 3.525z" fill="#fff"/><path opacity=".5" fill-rule="evenodd" clip-rule="evenodd" d="M113.697 205.231a3 3 0 013-3h30.994a3 3 0 013 3v39.875a3 3 0 01-3 3h-30.994a3 3 0 01-3-3v-39.875z" fill="#CFCFCF"/><path fill-rule="evenodd" clip-rule="evenodd" d="M116.493 254.885c0-.772.626-1.398 1.398-1.398h13.979a1.398 1.398 0 010 2.796h-13.979a1.398 1.398 0 01-1.398-1.398zm44.733 0c0-.772.626-1.398 1.398-1.398h13.979a1.398 1.398 0 010 2.796h-13.979a1.398 1.398 0 01-1.398-1.398zm44.733 0c0-.772.626-1.398 1.398-1.398h13.979a1.398 1.398 0 010 2.796h-13.979a1.398 1.398 0 01-1.398-1.398z" fill="#E7E7E7"/><g filter="url(#filter2_b)"><path fill-rule="evenodd" clip-rule="evenodd" d="M116.679 209.613c0-1.327 0-1.99.206-2.517a3.002 3.002 0 011.702-1.701c.527-.206 1.19-.206 2.516-.206h5.025c1.327 0 1.99 0 2.517.206a3.003 3.003 0 011.701 1.701c.206.527.206 1.19.206 2.517 0 1.326 0 1.989-.206 2.516a2.997 2.997 0 01-1.701 1.701c-.527.206-1.19.206-2.517.206h-5.025c-1.326 0-1.989 0-2.516-.206a2.996 2.996 0 01-1.702-1.701c-.206-.527-.206-1.19-.206-2.516z" fill="url(#paint11_linear)" fill-opacity=".5"/></g><path d="M121.311 220.944v-1.56c1.905-.225 2.895-1.515 2.895-2.85 0-1.35-1.005-2.46-2.67-2.79l-.225-.045v-3.075a2.036 2.036 0 011.455 1.605l1.35-.495c-.24-.975-.96-2.205-2.805-2.445v-1.59h-1.17v1.575c-1.68.21-2.865 1.425-2.865 2.85 0 1.47.96 2.415 2.49 2.73l.375.075v3.135c-1.185-.21-1.755-1.14-1.845-2.1l-1.425.45c.165 1.32 1.185 2.76 3.27 2.97v1.56h1.17zm1.425-4.335c0 .69-.45 1.275-1.425 1.455v-2.895c.975.225 1.425.81 1.425 1.44zm-3.975-4.545c0-.735.51-1.32 1.38-1.485v2.85c-1.02-.195-1.38-.735-1.38-1.365zm9.509 2.61c.255-.09.555-.15.855-.15.96 0 1.98.54 1.98 1.815 0 .975-.72 1.8-2.055 1.8-1.17 0-2.1-.81-2.16-2.1l-1.44.33c.09 1.59 1.365 3.06 3.615 3.06 2.265 0 3.525-1.485 3.525-3.12 0-1.995-1.575-2.955-3-2.955l2.775-2.565v-1.32h-6.6v1.35h4.65l-2.865 2.64.72 1.215zm7.121-.345c0-1.485.27-2.535.855-3.15.375-.39.855-.63 1.545-.63s1.17.24 1.545.63c.585.615.855 1.665.855 3.15 0 1.485-.27 2.535-.855 3.15-.375.39-.855.63-1.545.63s-1.17-.24-1.545-.63c-.585-.615-.855-1.665-.855-3.15zm-1.455 0c0 1.335.225 2.565.87 3.525.63.945 1.605 1.56 2.985 1.56s2.355-.615 2.985-1.56c.645-.96.87-2.19.87-3.525s-.225-2.565-.87-3.525c-.63-.945-1.605-1.56-2.985-1.56s-2.355.615-2.985 1.56c-.645.96-.87 2.19-.87 3.525z" fill="#fff"/><path opacity=".5" fill-rule="evenodd" clip-rule="evenodd" d="M113.697 294.696a3 3 0 013-3h26.618a3 3 0 013 3v18.231a3 3 0 01-3 3h-26.618a3 3 0 01-3-3v-18.231z" fill="#CFCFCF"/><path fill-rule="evenodd" clip-rule="evenodd" d="M117.425 321.984c0-.772.626-1.398 1.398-1.398h13.979a1.398 1.398 0 010 2.796h-13.979a1.398 1.398 0 01-1.398-1.398zm39.142 0c0-.772.626-1.398 1.398-1.398h13.979a1.398 1.398 0 010 2.796h-13.979a1.398 1.398 0 01-1.398-1.398zm38.208 0c0-.772.626-1.398 1.398-1.398h13.979a1.398 1.398 0 010 2.796h-13.979a1.398 1.398 0 01-1.398-1.398z" fill="#E7E7E7"/><path opacity=".5" fill-rule="evenodd" clip-rule="evenodd" d="M152.838 294.696a3 3 0 013-3h26.618a3 3 0 013 3v18.231a3 3 0 01-3 3h-26.618a3 3 0 01-3-3v-18.231zm38.209 0a3 3 0 013-3h26.618a3 3 0 013 3v18.231a3 3 0 01-3 3h-26.618a3 3 0 01-3-3v-18.231zm-32.617-89.465a3 3 0 013-3h30.995a3 3 0 013 3v39.875a3 3 0 01-3 3H161.43a3 3 0 01-3-3v-39.875z" fill="#CFCFCF"/><g filter="url(#filter3_b)"><path fill-rule="evenodd" clip-rule="evenodd" d="M161.413 209.613c0-1.327 0-1.99.206-2.517a3.002 3.002 0 011.702-1.701c.526-.206 1.19-.206 2.516-.206h5.025c1.327 0 1.99 0 2.516.206.78.305 1.397.922 1.702 1.701.206.527.206 1.19.206 2.517 0 1.326 0 1.989-.206 2.516a2.996 2.996 0 01-1.702 1.701c-.526.206-1.189.206-2.516.206h-5.025c-1.326 0-1.99 0-2.516-.206a2.996 2.996 0 01-1.702-1.701c-.206-.527-.206-1.19-.206-2.516z" fill="url(#paint12_linear)" fill-opacity=".5"/></g><path d="M166.045 220.944v-1.56c1.905-.225 2.895-1.515 2.895-2.85 0-1.35-1.005-2.46-2.67-2.79l-.225-.045v-3.075a2.036 2.036 0 011.455 1.605l1.35-.495c-.24-.975-.96-2.205-2.805-2.445v-1.59h-1.17v1.575c-1.68.21-2.865 1.425-2.865 2.85 0 1.47.96 2.415 2.49 2.73l.375.075v3.135c-1.185-.21-1.755-1.14-1.845-2.1l-1.425.45c.165 1.32 1.185 2.76 3.27 2.97v1.56h1.17zm1.425-4.335c0 .69-.45 1.275-1.425 1.455v-2.895c.975.225 1.425.81 1.425 1.44zm-3.975-4.545c0-.735.51-1.32 1.38-1.485v2.85c-1.02-.195-1.38-.735-1.38-1.365zm9.509 2.61c.255-.09.555-.15.855-.15.96 0 1.98.54 1.98 1.815 0 .975-.72 1.8-2.055 1.8-1.17 0-2.1-.81-2.16-2.1l-1.44.33c.09 1.59 1.365 3.06 3.615 3.06 2.265 0 3.525-1.485 3.525-3.12 0-1.995-1.575-2.955-3-2.955l2.775-2.565v-1.32h-6.6v1.35h4.65l-2.865 2.64.72 1.215zm7.121-.345c0-1.485.27-2.535.855-3.15.375-.39.855-.63 1.545-.63s1.17.24 1.545.63c.585.615.855 1.665.855 3.15 0 1.485-.27 2.535-.855 3.15-.375.39-.855.63-1.545.63s-1.17-.24-1.545-.63c-.585-.615-.855-1.665-.855-3.15zm-1.455 0c0 1.335.225 2.565.87 3.525.63.945 1.605 1.56 2.985 1.56s2.355-.615 2.985-1.56c.645-.96.87-2.19.87-3.525s-.225-2.565-.87-3.525c-.63-.945-1.605-1.56-2.985-1.56s-2.355.615-2.985 1.56c-.645.96-.87 2.19-.87 3.525z" fill="#fff"/><path opacity=".5" fill-rule="evenodd" clip-rule="evenodd" d="M202.23 205.231a3 3 0 013-3h30.995a3 3 0 013 3v39.875a3 3 0 01-3 3H205.23a3 3 0 01-3-3v-39.875z" fill="#CFCFCF"/><g filter="url(#filter4_b)"><path fill-rule="evenodd" clip-rule="evenodd" d="M205.211 209.613c0-1.327 0-1.99.206-2.517a3.003 3.003 0 011.701-1.701c.527-.206 1.19-.206 2.517-.206h5.025c1.326 0 1.989 0 2.516.206.78.305 1.397.922 1.702 1.701.206.527.206 1.19.206 2.517 0 1.326 0 1.989-.206 2.516a2.996 2.996 0 01-1.702 1.701c-.527.206-1.19.206-2.516.206h-5.025c-1.327 0-1.99 0-2.517-.206a2.997 2.997 0 01-1.701-1.701c-.206-.527-.206-1.19-.206-2.516z" fill="url(#paint13_linear)" fill-opacity=".5"/></g><path d="M209.842 220.944v-1.56c1.905-.225 2.895-1.515 2.895-2.85 0-1.35-1.005-2.46-2.67-2.79l-.225-.045v-3.075a2.036 2.036 0 011.455 1.605l1.35-.495c-.24-.975-.96-2.205-2.805-2.445v-1.59h-1.17v1.575c-1.68.21-2.865 1.425-2.865 2.85 0 1.47.96 2.415 2.49 2.73l.375.075v3.135c-1.185-.21-1.755-1.14-1.845-2.1l-1.425.45c.165 1.32 1.185 2.76 3.27 2.97v1.56h1.17zm1.425-4.335c0 .69-.45 1.275-1.425 1.455v-2.895c.975.225 1.425.81 1.425 1.44zm-3.975-4.545c0-.735.51-1.32 1.38-1.485v2.85c-1.02-.195-1.38-.735-1.38-1.365zm9.51 2.61c.255-.09.555-.15.855-.15.96 0 1.98.54 1.98 1.815 0 .975-.72 1.8-2.055 1.8-1.17 0-2.1-.81-2.16-2.1l-1.44.33c.09 1.59 1.365 3.06 3.615 3.06 2.265 0 3.525-1.485 3.525-3.12 0-1.995-1.575-2.955-3-2.955l2.775-2.565v-1.32h-6.6v1.35h4.65l-2.865 2.64.72 1.215zm7.121-.345c0-1.485.27-2.535.855-3.15.375-.39.855-.63 1.545-.63s1.17.24 1.545.63c.585.615.855 1.665.855 3.15 0 1.485-.27 2.535-.855 3.15-.375.39-.855.63-1.545.63s-1.17-.24-1.545-.63c-.585-.615-.855-1.665-.855-3.15zm-1.455 0c0 1.335.225 2.565.87 3.525.63.945 1.605 1.56 2.985 1.56s2.355-.615 2.985-1.56c.645-.96.87-2.19.87-3.525s-.225-2.565-.87-3.525c-.63-.945-1.605-1.56-2.985-1.56s-2.355.615-2.985 1.56c-.645.96-.87 2.19-.87 3.525z" fill="#fff"/><path fill-rule="evenodd" clip-rule="evenodd" d="M157.498 62.44h41.937l-2.899 5.797a3 3 0 01-2.683 1.658h-30.774a3 3 0 01-2.683-1.658l-2.898-5.797z" fill="#393939"/><path fill-rule="evenodd" clip-rule="evenodd" d="M211.549 341.089h108.105v-63.372H211.549v63.372z" fill="url(#paint14_linear)"/><path fill-rule="evenodd" clip-rule="evenodd" d="M211.549 341.089h31.686v-63.372h-31.686v63.372z" fill="#BA7F4E"/><path fill-rule="evenodd" clip-rule="evenodd" d="M280.36 292.436l.173 5.784h-8.408v-20.503h14.911v14.718l-6.676.001zm-45.512 48.653h-14.911v-63.372h14.911v63.372z" fill="#F5CE42"/><path fill-rule="evenodd" clip-rule="evenodd" d="M287.967 292.628l-6.355 5.592-.168-5.591 6.523-.001z" fill="#FBE497"/><path fill-rule="evenodd" clip-rule="evenodd" d="M289.832 332.701h22.366v-15.842h-22.366v15.842z" fill="#fff"/><path fill-rule="evenodd" clip-rule="evenodd" d="M292.627 327.11h17.707v-1.864h-17.707v1.864zm11.184 2.796h6.524v-1.864h-6.524v1.864z" fill="#12171E"/><path fill-rule="evenodd" clip-rule="evenodd" d="M253.486 277.717h43.801v-38.209h-43.801v38.209z" fill="url(#paint15_linear)"/><path fill-rule="evenodd" clip-rule="evenodd" d="M246.964 243.236h56.848v-9.32h-56.848v9.32z" fill="url(#paint16_linear)"/><path opacity=".693" fill-rule="evenodd" clip-rule="evenodd" d="M291.695 277.717h5.591v-34.482h-5.591v34.482z" fill="#8EA2FF"/><path opacity=".492" fill-rule="evenodd" clip-rule="evenodd" d="M253.486 277.717h15.843v-38.209h-15.843v38.209z" fill="#8EA2FF"/><path fill-rule="evenodd" clip-rule="evenodd" d="M246.964 243.236h11.183v-9.32h-11.183v9.32zm52.188 0h4.66v-9.32h-4.66v9.32z" fill="#8EA2FF"/><path fill-rule="evenodd" clip-rule="evenodd" d="M265.601 243.236h19.57v-9.32h-19.57v9.32z" fill="url(#paint17_linear)"/><path fill-rule="evenodd" clip-rule="evenodd" d="M253.486 248.827h43.801v-5.592h-43.801v5.592z" fill="url(#paint18_linear)"/><path fill-rule="evenodd" clip-rule="evenodd" d="M269.686 231.065l-1.64.08c-6.783 0-9.333-6.788-3.433-7.166 5.9-.378 5.073 7.086 5.073 7.086zm-6.337-11.098c-12.644.81-7.179 15.357 7.358 15.357l3.512-.173s1.775-15.995-10.87-15.184z" fill="url(#paint19_linear)"/><path fill-rule="evenodd" clip-rule="evenodd" d="M283.68 223.979c5.9.379 3.35 7.167-3.433 7.167l-1.639-.081s-.828-7.464 5.072-7.086zm-9.606 11.173l3.512.173c14.538 0 20.002-14.548 7.357-15.358-12.644-.81-10.869 15.185-10.869 15.185z" fill="url(#paint20_linear)"/><defs><linearGradient id="paint8_linear" x1="106.4" y1="123.245" x2="106.4" y2="206.1" gradientUnits="userSpaceOnUse"><stop stop-color="#50D2B7"/><stop offset="1" stop-color="#40A691"/></linearGradient><linearGradient id="paint20_linear" x1="272.177" y1="219.937" x2="272.177" y2="238.418" gradientUnits="userSpaceOnUse"><stop stop-color="#FFD953"/><stop offset="1" stop-color="#FFB129"/></linearGradient><linearGradient id="paint19_linear" x1="254.471" y1="219.937" x2="254.471" y2="238.417" gradientUnits="userSpaceOnUse"><stop stop-color="#FFD953"/><stop offset="1" stop-color="#FFB129"/></linearGradient><linearGradient id="paint18_linear" x1="47.226" y1="197.247" x2="47.728" y2="257.496" gradientUnits="userSpaceOnUse"><stop stop-color="#8EA2FF"/><stop offset="1" stop-color="#557AC7"/></linearGradient><linearGradient id="paint17_linear" x1="263.634" y1="233.916" x2="263.634" y2="245.109" gradientUnits="userSpaceOnUse"><stop stop-color="#FFD953"/><stop offset="1" stop-color="#FFB129"/></linearGradient><linearGradient id="paint0_linear" x1="250.186" y1="125.291" x2="250.186" y2="170.335" gradientUnits="userSpaceOnUse"><stop stop-color="#F3F3F3"/><stop offset="1" stop-color="#EFEFEF" stop-opacity=".01"/></linearGradient><linearGradient id="paint1_linear" x1="3.831" y1="33.595" x2="3.831" y2="66.819" gradientUnits="userSpaceOnUse"><stop stop-color="#F3F3F3"/><stop offset="1" stop-color="#EFEFEF" stop-opacity=".01"/></linearGradient><linearGradient id="paint2_linear" x1="231.05" y1="-25.884" x2="231.05" y2="45.367" gradientUnits="userSpaceOnUse"><stop stop-color="#F3F3F3"/><stop offset="1" stop-color="#EFEFEF" stop-opacity=".01"/></linearGradient><linearGradient id="paint3_linear" x1="37.609" y1="55.177" x2="37.609" y2="121.345" gradientUnits="userSpaceOnUse"><stop stop-color="#F3F3F3"/><stop offset="1" stop-color="#EFEFEF" stop-opacity=".01"/></linearGradient><linearGradient id="paint4_linear" x1="-26.249" y1="285.162" x2="4.301" y2="388.303" gradientUnits="userSpaceOnUse"><stop stop-color="#ECCCA4"/><stop offset="1" stop-color="#D59E6B"/></linearGradient><linearGradient id="paint5_linear" x1="0" y1="108.105" x2="0" y2="336.429" gradientUnits="userSpaceOnUse"><stop stop-color="#F3F3F3"/><stop offset="1" stop-color="#EFEFEF" stop-opacity=".01"/></linearGradient><linearGradient id="paint6_linear" x1="56.353" y1="217.802" x2="56.353" y2="253.037" gradientUnits="userSpaceOnUse"><stop stop-color="#FFD953"/><stop offset="1" stop-color="#FFB129"/></linearGradient><linearGradient id="paint7_linear" x1="52.955" y1="249.055" x2="52.955" y2="312.33" gradientUnits="userSpaceOnUse"><stop stop-color="#50D2B7"/><stop offset="1" stop-color="#40A691"/></linearGradient><linearGradient id="paint16_linear" x1="211.423" y1="238.123" x2="213.037" y2="261.626" gradientUnits="userSpaceOnUse"><stop stop-color="#8EA2FF"/><stop offset="1" stop-color="#557AC7"/><stop offset="1" stop-color="#567BC8"/></linearGradient><linearGradient id="paint9_linear" x1="162.069" y1="147.257" x2="162.069" y2="162.028" gradientUnits="userSpaceOnUse"><stop stop-color="#50D2B7"/><stop offset="1" stop-color="#40A691"/></linearGradient><linearGradient id="paint10_linear" x1="114.679" y1="112.823" x2="114.679" y2="128.803" gradientUnits="userSpaceOnUse"><stop stop-color="#50D2B7"/><stop offset="1" stop-color="#40A691"/></linearGradient><linearGradient id="paint11_linear" x1="107.322" y1="209.988" x2="114.839" y2="227.449" gradientUnits="userSpaceOnUse"><stop stop-color="#8EA2FF"/><stop offset="1" stop-color="#557AC7"/></linearGradient><linearGradient id="paint12_linear" x1="152.056" y1="209.988" x2="159.573" y2="227.449" gradientUnits="userSpaceOnUse"><stop stop-color="#8EA2FF"/><stop offset="1" stop-color="#557AC7"/></linearGradient><linearGradient id="paint13_linear" x1="195.854" y1="209.988" x2="203.371" y2="227.449" gradientUnits="userSpaceOnUse"><stop stop-color="#8EA2FF"/><stop offset="1" stop-color="#557AC7"/></linearGradient><linearGradient id="paint14_linear" x1="179.12" y1="299.38" x2="209.155" y2="391.758" gradientUnits="userSpaceOnUse"><stop stop-color="#ECCCA4"/><stop offset="1" stop-color="#D59E6B"/></linearGradient><linearGradient id="paint15_linear" x1="243.311" y1="251.569" x2="243.311" y2="293.829" gradientUnits="userSpaceOnUse"><stop stop-color="#8EA2FF"/><stop offset="1" stop-color="#557AC7"/></linearGradient><filter id="filter1_b" x="90.232" y="82.361" width="71.707" height="65.513" filterUnits="userSpaceOnUse" color-interpolation-filters="sRGB"><feFlood flood-opacity="0" result="BackgroundImageFix"/><feGaussianBlur in="BackgroundImage" stdDeviation="13.591"/><feComposite in2="SourceAlpha" operator="in" result="effect1_backgroundBlur"/><feBlend in="SourceGraphic" in2="effect1_backgroundBlur" result="shape"/></filter><filter id="filter4_b" x="178.028" y="178.006" width="68.239" height="63.213" filterUnits="userSpaceOnUse" color-interpolation-filters="sRGB"><feFlood flood-opacity="0" result="BackgroundImageFix"/><feGaussianBlur in="BackgroundImage" stdDeviation="13.591"/><feComposite in2="SourceAlpha" operator="in" result="effect1_backgroundBlur"/><feBlend in="SourceGraphic" in2="effect1_backgroundBlur" result="shape"/></filter><filter id="filter3_b" x="134.23" y="178.006" width="68.239" height="63.213" filterUnits="userSpaceOnUse" color-interpolation-filters="sRGB"><feFlood flood-opacity="0" result="BackgroundImageFix"/><feGaussianBlur in="BackgroundImage" stdDeviation="13.591"/><feComposite in2="SourceAlpha" operator="in" result="effect1_backgroundBlur"/><feBlend in="SourceGraphic" in2="effect1_backgroundBlur" result="shape"/></filter><filter id="filter2_b" x="89.496" y="178.006" width="68.239" height="63.213" filterUnits="userSpaceOnUse" color-interpolation-filters="sRGB"><feFlood flood-opacity="0" result="BackgroundImageFix"/><feGaussianBlur in="BackgroundImage" stdDeviation="13.591"/><feComposite in2="SourceAlpha" operator="in" result="effect1_backgroundBlur"/><feBlend in="SourceGraphic" in2="effect1_backgroundBlur" result="shape"/></filter><filter id="filter0_d" x="103.697" y="100.241" width="150.471" height="77.804" filterUnits="userSpaceOnUse" color-interpolation-filters="sRGB"><feFlood flood-opacity="0" result="BackgroundImageFix"/><feColorMatrix in="SourceAlpha" values="0 0 0 0 0 0 0 0 0 0 0 0 0 0 0 0 0 0 127 0"/><feOffset dy="4"/><feGaussianBlur stdDeviation="5"/><feColorMatrix values="0 0 0 0 0 0 0 0 0 0 0 0 0 0 0 0 0 0 0.04 0"/><feBlend in2="BackgroundImageFix" result="effect1_dropShadow"/><feBlend in="SourceGraphic" in2="effect1_dropShadow" result="shape"/></filter></defs></svg>