<svg width="24" height="174" fill="none" xmlns="http://www.w3.org/2000/svg"><path d="M5.93 45.533a.251.251 0 01-.177-.073L2.54 42.247a.25.25 0 01-.01-.344l2.408-2.698c1.684-1.97 4.425-3.244 6.816-3.203a.25.25 0 01.244.244c.055 2.392-1.234 5.132-3.208 6.819L6.096 45.47a.248.248 0 01-.166.063zM3.06 42.06l2.88 2.88 2.521-2.251c1.803-1.541 3-3.997 3.038-6.188-2.19.037-4.646 1.234-6.184 3.033L3.06 42.06z" fill="#2C8AF9"/><path d="M6.888 47.363a.232.232 0 01-.071-.011c-.09-.03-.164-.099-.177-.193l-.343-2.393a.25.25 0 01.495-.072l.268 1.87a5.837 5.837 0 001.363-3.729.25.25 0 01.5 0 6.332 6.332 0 01-1.841 4.447.281.281 0 01-.194.081zM3.27 41.706c-.011 0-.023 0-.035-.003L.84 41.36a.25.25 0 01-.14-.425 6.346 6.346 0 014.464-1.858.25.25 0 010 .5c-1.36 0-2.695.492-3.732 1.363l1.873.269a.25.25 0 01-.036.497zm5.296-1.023c-.32 0-.64-.122-.884-.365a1.252 1.252 0 010-1.768 1.251 1.251 0 011.768 0c.487.487.487 1.28 0 1.768a1.246 1.246 0 01-.884.365zm0-1.999a.748.748 0 00-.53 1.28.752.752 0 001.06 0 .752.752 0 000-1.061.751.751 0 00-.53-.219zm.707 1.457h.005-.005zM.25 48a.25.25 0 01-.24-.322c.083-.273.817-2.69 1.352-3.225a1.547 1.547 0 012.186 0 1.547 1.547 0 010 2.185c-.535.535-2.952 1.27-3.226 1.352A.275.275 0 01.25 48zm2.205-3.5c-.268 0-.535.102-.74.306-.288.289-.768 1.58-1.085 2.564.984-.317 2.275-.797 2.564-1.086a1.047 1.047 0 00-.739-1.784z" fill="#2C8AF9"/><path d="M1.135 33.6H1.2l3.13-.681a.308.308 0 00.162-.081l5.303-5.303c.387-.386.603-.912.6-1.46 0-.55-.215-1.08-.6-1.475a2.043 2.043 0 00-1.46-.6 1.994 1.994 0 00-1.459.616L1.59 29.92a.292.292 0 00-.098.146l-.68 3.13a.357.357 0 00.096.308c.06.06.142.096.227.097zm7.2-8.951a1.41 1.41 0 011.411 1.427c.006.37-.14.728-.405.989l-1.995-2.01c.263-.262.619-.408.99-.406zm-1.443.875l1.995 1.995-4.622 4.605-1.994-1.978 4.621-4.622zm-4.88 5.27L3.616 32.4l-2.06.454.454-2.06zm9.42 4.557H.568a.324.324 0 100 .649h10.864a.324.324 0 000-.649z" fill="#18C662"/><path d="M9.095 23.675H2.906a.499.499 0 01-.495-.454l-.707-8.443a.162.162 0 01.163-.175h8.269a.163.163 0 01.154.11c.007.02.01.043.008.065l-.707 8.443a.5.5 0 01-.496.454zm-7.053-8.748l.693 8.267a.173.173 0 00.171.157h6.189a.173.173 0 00.171-.157l.693-8.267H2.042z" fill="red"/><path d="M10.73 14.929H1.27a.352.352 0 01-.352-.352v-.817a.352.352 0 01.351-.352h9.462a.352.352 0 01.351.352v.817a.352.352 0 01-.351.352zm-9.46-1.196a.027.027 0 00-.028.027v.817a.03.03 0 00.008.02.027.027 0 00.02.008h9.46a.027.027 0 00.028-.028v-.817a.027.027 0 00-.027-.027H1.269z" fill="red"/><path d="M7.43 13.733H4.57a.162.162 0 01-.162-.163v-.821a.425.425 0 01.425-.425h2.333a.425.425 0 01.424.425v.821a.162.162 0 01-.162.163zm-2.697-.325h2.534v-.66a.1.1 0 00-.1-.1H4.834a.1.1 0 00-.1.1v.66zm2.964 7.678h-.014a.162.162 0 01-.148-.176l.372-4.237a.163.163 0 01.175-.15.163.163 0 01.142.114c.006.02.008.043.006.064l-.371 4.237a.162.162 0 01-.162.148zm-1.697 0a.162.162 0 01-.162-.162v-4.237a.162.162 0 01.324 0v4.237a.162.162 0 01-.162.162zm-1.696 0a.163.163 0 01-.162-.148l-.37-4.237a.162.162 0 11.322-.029l.372 4.238a.162.162 0 01-.162.176z" fill="red"/><path d="M7.414 4.586a.25.25 0 00-.353.353c.283.283.44.66.44 1.06A1.502 1.502 0 014.94 7.06a.25.25 0 00-.354.354 2.002 2.002 0 002.828-2.828zm-1.065-.552A2.004 2.004 0 006 4c-1.103 0-2 .897-2 2 0 .119.015.235.035.348a.25.25 0 00.492-.087A1.45 1.45 0 014.5 6c0-.827.673-1.5 1.5-1.5.09 0 .177.011.262.026a.25.25 0 10.087-.492z" fill="#F3713F"/><path d="M11.94 5.838c-.056-.067-1.409-1.645-3.274-2.612a.25.25 0 00-.23.445c1.437.744 2.585 1.905 2.978 2.329-.596.645-2.942 3-5.414 3-.84 0-1.685-.203-2.514-.603a.25.25 0 10-.217.45c.897.434 1.816.653 2.73.653 3.081 0 5.826-3.202 5.942-3.339a.25.25 0 000-.323zm-4.3-3.05A5.162 5.162 0 006 2.5C2.92 2.5.175 5.702.06 5.838a.25.25 0 00-.015.305c.035.05.861 1.223 2.294 2.174a.248.248 0 00.346-.07.25.25 0 00-.07-.346A9.143 9.143 0 01.573 6.013C1.15 5.388 3.51 3 6 3c.466 0 .964.088 1.481.261a.247.247 0 00.317-.157.25.25 0 00-.157-.316z" fill="#F3713F"/><path d="M10.426 1.573a.25.25 0 00-.353 0l-8.5 8.5a.25.25 0 00.353.354l8.5-8.5a.25.25 0 000-.354z" fill="#F3713F"/><g clip-path="url(#clip0)" fill="#000"><path d="M10.756 49.563h-.753v-.597a.314.314 0 00-.313-.313.314.314 0 00-.313.313v.597H6.314v-.597a.314.314 0 00-.312-.313.314.314 0 00-.313.313v.597H2.594v-.597a.314.314 0 00-.312-.313.314.314 0 00-.313.313v.597h-.722C.56 49.563 0 50.141 0 50.829v7.267c0 .691.556 1.25 1.247 1.25h9.506c.69 0 1.247-.559 1.247-1.246v-7.271a1.26 1.26 0 00-1.244-1.266zm.622 8.533a.624.624 0 01-.619.626H1.247a.622.622 0 01-.622-.622v-7.271c0-.347.278-.64.622-.64h.722v.452a.314.314 0 00.625 0v-.453H5.69v.453a.314.314 0 00.625 0v-.453h3.063v.453a.314.314 0 00.625 0v-.453h.754c.347 0 .622.297.622.641v7.267z"/><path d="M5.18 52.22h-.548a.314.314 0 00-.312.312c0 .172.14.313.312.313h.547a.314.314 0 000-.625zm2.175 0h-.547a.314.314 0 00-.312.312c0 .172.14.313.312.313h.547c.172 0 .313-.14.313-.313a.312.312 0 00-.313-.312zm2.195 0h-.548a.314.314 0 00-.312.312c0 .172.14.313.312.313h.547a.314.314 0 000-.625zm-4.37 2.157h-.548a.313.313 0 00-.312.312c0 .172.14.313.312.313h.547a.313.313 0 000-.625zm-2.192 0h-.55a.313.313 0 00-.312.312c0 .172.14.313.312.313h.547c.172 0 .313-.14.313-.313a.31.31 0 00-.31-.312zm4.367 0h-.547a.313.313 0 00-.312.312c0 .172.14.313.312.313h.547c.172 0 .313-.14.313-.313a.311.311 0 00-.313-.312zm2.195 0h-.548a.313.313 0 00-.312.312c0 .172.14.313.312.313h.547a.313.313 0 000-.625zm-4.37 2.125h-.548a.314.314 0 00-.312.313c0 .172.14.312.312.312h.547c.172 0 .313-.14.313-.312a.314.314 0 00-.313-.313zm-2.192 0h-.55a.314.314 0 00-.312.313c0 .172.14.312.312.312h.547c.172 0 .313-.14.313-.312a.31.31 0 00-.31-.313zm4.367 0h-.547a.314.314 0 00-.312.313c0 .172.14.312.312.312h.547c.172 0 .313-.14.313-.312a.312.312 0 00-.313-.313z"/></g><path d="M10.8 60.6a1.198 1.198 0 00-.862 2.03l-2.193 4.385A1.178 1.178 0 007.6 67c-.155 0-.308.03-.452.09l-1.702-1.914c.1-.176.153-.374.154-.576a1.2 1.2 0 10-2.4 0c.001.287.106.563.294.779l-2.08 3.643A1.2 1.2 0 102.4 70.2a1.19 1.19 0 00-.294-.778l2.08-3.644c.223.045.454.021.664-.068l1.702 1.915a1.185 1.185 0 00-.152.575 1.2 1.2 0 102.062-.83l2.193-4.385c.048.008.096.013.145.015a1.2 1.2 0 100-2.4zm-9.6 10a.4.4 0 110-.8.4.4 0 010 .8zM4.4 65a.4.4 0 110-.8.4.4 0 010 .8zm3.2 3.6a.4.4 0 110-.8.4.4 0 010 .8zm3.2-6.4a.4.4 0 110-.8.4.4 0 010 .8z" fill="#000"/><circle cx="12" cy="84" r="11.5" stroke="#fff"/><path d="M19 83a7 7 0 10-14 0m1.5 5.475c-.715-.071-1.399-.297-1.927-.69C3.942 87.319 3.5 86.593 3.5 85.5s.442-1.818 1.073-2.286c.528-.392 1.212-.618 1.927-.69v5.951z" stroke="#fff"/><path d="M20.5 85.5c0 1.092-.442 1.818-1.073 2.286-.528.392-1.212.618-1.927.69v-5.951c.715.071 1.399.297 1.927.69.631.467 1.073 1.193 1.073 2.285zM5 88v0c0 1.194.764 2.255 1.897 2.632L11 92" stroke="#fff"/><path stroke="#fff" d="M10.5 91.5h1v1h-1z"/><circle cx="12" cy="110" r="11.5" stroke="#fff"/><path d="M10.58 117v-6.355H8v-2.58h2.532v-1.577c0-2.341 1.482-3.488 3.584-3.488 1.004 0 1.864.096 2.15.096v2.484h-1.481c-1.147 0-1.386.526-1.386 1.338v1.147h3.345l-1.29 2.532h-2.055v6.355H10.58V117z" fill="#fff"/><circle cx="12" cy="136" r="11.5" stroke="#fff"/><path d="M10.6 138.333v-4l3.5 2-3.5 2z" fill="#fff" stroke="#fff" stroke-linejoin="round"/><rect x="5.5" y="131.5" width="13" height="9" rx="2.5" stroke="#fff"/><path d="M18 8.836a1.898 1.898 0 100-3.797 1.898 1.898 0 000 3.797zm2.773-6.703l-.122-.607a.705.705 0 00-.69-.565h-3.923a.705.705 0 00-.69.565l-.12.607h5.545z" fill="#fff"/><path d="M22.945 2.836h-9.89c-.582 0-1.055.473-1.055 1.055v6.093c0 .582.473 1.055 1.055 1.055h9.89c.582 0 1.055-.473 1.055-1.055V3.891c0-.582-.473-1.055-1.055-1.055zM15 5.039h-1.125a.352.352 0 110-.703H15a.352.352 0 110 .703zm3 4.5a2.605 2.605 0 01-2.602-2.601A2.605 2.605 0 0118 4.335a2.605 2.605 0 012.602 2.601A2.605 2.605 0 0118 9.54z" fill="#fff"/><path fill-rule="evenodd" clip-rule="evenodd" d="M21.122 168.15A10.99 10.99 0 0112 173a10.99 10.99 0 01-9.122-4.85c.577-1.429 2.75-4.582 6.85-5.667a.497.497 0 00.313-.246 4.65 4.65 0 001.959.43c.7 0 1.364-.154 1.96-.43.063.117.173.21.312.246 4.1 1.085 6.273 4.238 6.85 5.667zm.616-1.03c-.918-1.715-3.11-4.369-6.806-5.489a4.667 4.667 0 10-5.863 0c-3.697 1.12-5.889 3.774-6.807 5.489A10.95 10.95 0 011 162c0-6.075 4.925-11 11-11s11 4.925 11 11c0 1.849-.456 3.591-1.262 5.12zM24 162c0 6.627-5.373 12-12 12s-12-5.373-12-12 5.373-12 12-12 12 5.373 12 12zm-8.333-4a3.667 3.667 0 11-7.334 0 3.667 3.667 0 017.334 0z" fill="#635B67"/><defs><clipPath id="clip0"><path fill="#fff" transform="translate(0 48)" d="M0 0h12v12H0z"/></clipPath></defs></svg>